<?xml version="1.0" standalone="no"?>
<!DOCTYPE svg PUBLIC "-//W3C//DTD SVG 1.1//EN" "http://www.w3.org/Graphics/SVG/1.1/DTD/svg11.dtd" >
<svg>
<metadata>
Created by FontForge 20090914 at Fri Sep 18 15:30:49 2020
 By www-data
Round -a-
</metadata>
<defs>
<font id="Greenwich-Medium" horiz-adv-x="601" >
  <font-face 
    font-family="Greenwich Med"
    font-weight="500"
    font-stretch="normal"
    units-per-em="1000"
    panose-1="0 0 0 0 0 0 0 0 0 0"
    ascent="850"
    descent="-150"
    x-height="480"
    cap-height="700"
    bbox="-91.002 -227.002 1211 955"
    underline-thickness="50"
    underline-position="-225"
    unicode-range="U+000D-U+FB04"
  />
<missing-glyph horiz-adv-x="364" 
d="M33 0v666h265v-666h-265zM66 33h199v600h-199v-600z" />
    <glyph glyph-name="f_f" unicode="ff" horiz-adv-x="756" 
d="M486 391l-85.001 -0.000976562v89h85v91c0 47.333 14.833 85.833 44.5 115.5s68.5 44.5 116.5 44.5c32 0 60.667 -7.33301 86 -22v-84c-15.333 11.333 -34.666 17 -57.999 17c-26 0 -46.667 -8.16699 -62 -24.5s-23 -38.166 -23 -65.499v-72h143v-89h-143v-391h-104v391z
M108.999 390.999l-86 -0.000976562v89h86v91c0 47.333 14.667 85.833 44 115.5s68 44.5 116 44.5c32 0 60.667 -7.33301 86 -22v-84c-14.667 11.333 -34 17 -58 17c-26 0 -46.667 -8.16699 -62 -24.5s-23 -38.166 -23 -65.499v-72h143v-89h-143v-391h-103v391z" />
    <glyph glyph-name="fi" unicode="fi" horiz-adv-x="626" 
d="M212 480l143 -0.000976562v-89h-143v-391h-103v391h-86v89h86v91c0 47.333 14.667 85.833 44 115.5s68 44.5 116 44.5c32 0 60.667 -7.33301 86 -22v-84c-14.667 11.333 -34 17 -58 17c-26 0 -46.667 -8.16699 -62 -24.5s-23 -38.166 -23 -65.499v-72zM451 479.999h103
v-480h-103v480zM502 577.999c-19.333 0 -35.166 6.16699 -47.499 18.5s-18.5 28.166 -18.5 47.499s6.16699 35 18.5 47s28.166 18 47.499 18c18.667 0 34.167 -6.16699 46.5 -18.5s18.5 -27.833 18.5 -46.5c0 -19.333 -6 -35.166 -18 -47.499s-27.667 -18.5 -47 -18.5z" />
    <glyph glyph-name="fl" unicode="fl" horiz-adv-x="656" 
d="M23 391v88.999h86v91c0 47.333 14.667 85.833 44 115.5s68 44.5 116 44.5c32 0 60.667 -7.33301 86 -22v-84c-14.667 11.333 -34 17 -58 17c-26 0 -46.667 -8.16699 -62 -24.5s-23 -38.166 -23 -65.499v-72h143v-89h-143v-391h-103v391h-86zM451 719.999
l102.999 -0.000976562v-587c0 -19.333 6.83301 -34.666 20.5 -45.999s32.167 -17 55.5 -17v-67c-15.333 -6.66699 -32.666 -10 -51.999 -10c-37.333 0 -67.833 11.5 -91.5 34.5s-35.5 52.833 -35.5 89.5v603z" />
    <glyph glyph-name="f_f_i" unicode="ffi" horiz-adv-x="1004" 
d="M590 480l142.999 -0.000976562v-89h-143v-391h-104v391h-85v89h85v91c0 47.333 14.833 85.833 44.5 115.5s68.5 44.5 116.5 44.5c32 0 60.667 -7.33301 86 -22v-84c-15.333 11.333 -34.666 17 -57.999 17c-26 0 -46.667 -8.16699 -62 -24.5s-23 -38.166 -23 -65.499v-72z
M22.999 390.999v88.999h86v91c0 47.333 14.667 85.833 44 115.5s68 44.5 116 44.5c32 0 60.667 -7.33301 86 -22v-84c-14.667 11.333 -34 17 -58 17c-26 0 -46.667 -8.16699 -62 -24.5s-23 -38.166 -23 -65.499v-72h143v-89h-143v-391h-103v391h-86zM828.999 479.998h103
v-480h-103v480zM813.999 643.998c0 19.333 6.16699 35 18.5 47s28.166 18 47.499 18c18.667 0 34.167 -6.16699 46.5 -18.5s18.5 -27.833 18.5 -46.5c0 -19.333 -6 -35.166 -18 -47.499s-27.667 -18.5 -47 -18.5s-35.166 6.16699 -47.499 18.5s-18.5 28.166 -18.5 47.499z
" />
    <glyph glyph-name="f_f_l" unicode="ffl" horiz-adv-x="1034" 
d="M401 391l-0.000976562 88.999h85v91c0 47.333 14.833 85.833 44.5 115.5s68.5 44.5 116.5 44.5c32 0 60.667 -7.33301 86 -22v-84c-15.333 11.333 -34.666 17 -57.999 17c-26 0 -46.667 -8.16699 -62 -24.5s-23 -38.166 -23 -65.499v-72h143v-89h-143v-391h-104v391h-85z
M22.999 390.999v88.999h86v91c0 47.333 14.667 85.833 44 115.5s68 44.5 116 44.5c32 0 60.667 -7.33301 86 -22v-84c-14.667 11.333 -34 17 -58 17c-26 0 -46.667 -8.16699 -62 -24.5s-23 -38.166 -23 -65.499v-72h143v-89h-143v-391h-103v391h-86zM828.999 719.998
l102.999 -0.000976562v-587c0 -19.333 6.83301 -34.666 20.5 -45.999s32.167 -17 55.5 -17v-67c-15.333 -6.66699 -32.666 -10 -51.999 -10c-37.333 0 -67.833 11.5 -91.5 34.5s-35.5 52.833 -35.5 89.5v603z" />
    <glyph glyph-name=".notdef" horiz-adv-x="364" 
d="M33 0v666h265v-666h-265zM66 33h199v600h-199v-600z" />
    <glyph glyph-name="uni0000" horiz-adv-x="0" 
 />
    <glyph glyph-name="uni0000" horiz-adv-x="0" 
 />
    <glyph glyph-name="uni000D" unicode="&#xd;" horiz-adv-x="250" 
 />
    <glyph glyph-name="space" unicode=" " horiz-adv-x="257" 
 />
    <glyph glyph-name="exclam" unicode="!" horiz-adv-x="253" 
d="M72 700h109l-12 -477h-85zM127 -11c-19.333 0 -35.166 6 -47.499 18s-18.5 27.667 -18.5 47s6.16699 35.166 18.5 47.499s28.166 18.5 47.499 18.5s35 -6.16699 47 -18.5s18 -28.166 18 -47.499c0 -18.667 -6 -34.167 -18 -46.5s-27.667 -18.5 -47 -18.5z" />
    <glyph glyph-name="quotedbl" unicode="&#x22;" horiz-adv-x="416" 
d="M241 700h105l-19 -234h-67zM70 700h105l-19 -234h-67z" />
    <glyph glyph-name="numbersign" unicode="#" horiz-adv-x="657" 
d="M18 177l10 66h113l30 214h-113l9 66h113l25 177h80l-25 -177h185l25 177h81l-25 -177h113l-9 -66h-113l-30 -214h112l-9 -66h-112l-25 -177h-81l25 177h-185l-25 -177h-80l25 177h-114zM221 243h185l30 214h-185z" />
    <glyph glyph-name="dollar" unicode="$" horiz-adv-x="645" 
d="M57 519c0 58 19.834 103.502 59.501 136.502s96.167 51.167 169.5 54.5v90h66v-90c81.333 -6 145.333 -30 192 -72v-96c-47.333 46 -119 69 -215 69c-52.667 0 -93.667 -7.83301 -123 -23.5s-44 -37.5 -44 -65.5c0 -26.667 14 -48.834 42 -66.501s71.667 -32.5 131 -44.5
c89.333 -16.667 155.166 -42.834 197.499 -78.501s63.5 -82.5 63.5 -140.5c0 -60 -21 -107 -63 -141s-102.333 -53.667 -181 -59v-92h-66v91c-94 4 -169.333 28.333 -226 73v96c56 -46 135.333 -69 238 -69c60 0 107.167 8.83301 141.5 26.5s51.5 42.167 51.5 73.5
c0 26.667 -14 49 -42 67s-72.667 33.333 -134 46c-90 18 -155.5 44.167 -196.5 78.5s-61.5 79.833 -61.5 136.5z" />
    <glyph glyph-name="percent" unicode="%" horiz-adv-x="846" 
d="M199 325c-46 0 -83.5 18 -112.5 54s-43.5 82.333 -43.5 139s14.5 103 43.5 139s66.5 54 112.5 54c46.667 0 84.5 -18 113.5 -54s43.5 -82.333 43.5 -139s-14.5 -103 -43.5 -139s-66.833 -54 -113.5 -54zM647 -11c-46 0 -83.5 18 -112.5 54s-43.5 82.333 -43.5 139
s14.5 103 43.5 139s66.5 54 112.5 54s83.667 -18 113 -54s44 -82.333 44 -139s-14.667 -103 -44 -139s-67 -54 -113 -54zM138 0l490 700h80l-489 -700h-81zM562 182c0 -36.667 7.83301 -66.5 23.5 -89.5s36.167 -34.5 61.5 -34.5s45.833 11.5 61.5 34.5
s23.5 52.833 23.5 89.5s-7.83301 66.5 -23.5 89.5s-36.167 34.5 -61.5 34.5s-45.833 -11.5 -61.5 -34.5s-23.5 -52.833 -23.5 -89.5zM114 518c0 -36.667 7.83301 -66.5 23.5 -89.5s36.167 -34.5 61.5 -34.5s45.833 11.5 61.5 34.5s23.5 52.833 23.5 89.5
s-7.83301 66.5 -23.5 89.5s-36.167 34.5 -61.5 34.5s-45.833 -11.5 -61.5 -34.5s-23.5 -52.833 -23.5 -89.5z" />
    <glyph glyph-name="ampersand" unicode="&#x26;" horiz-adv-x="744" 
d="M313 -11c-77.333 0 -140.835 22.835 -190.502 68.502s-74.5 104.5 -74.5 176.5c0 52 13.5 97 40.5 135s63.167 63.333 108.5 76c-0.666992 6 -1 14.667 -1 26c0 69.333 22.167 125.666 66.5 168.999s101.5 65 171.5 65c50.667 0 95.334 -12.333 134.001 -37v-96
c-29.333 27.333 -66.666 41 -111.999 41c-46 0 -83.5 -13.833 -112.5 -41.5s-43.5 -63.834 -43.5 -108.501c0 -42 13 -75 39 -99l162 -151c24 51.333 36 111.333 36 180h106c0 -98.667 -21.333 -183 -64 -253l150 -140h-139l-71 67c-57.333 -52 -126 -78 -206 -78z
M153.998 235.002c0 -44.667 15.332 -81 45.999 -109s69.334 -42 116.001 -42c50 0 93 17 129 51l-187 175c-13.333 12 -24.333 26.333 -33 43c-22 -8 -39.333 -22.5 -52 -43.5s-19 -45.833 -19 -74.5z" />
    <glyph glyph-name="quotesingle" unicode="'" horiz-adv-x="245" 
d="M89 466l-19 234h105l-19 -234h-67z" />
    <glyph glyph-name="parenleft" unicode="(" horiz-adv-x="306" 
d="M51 300c0 96 12.166 182.501 36.499 259.501s58.5 140.5 102.5 190.5h98c-44.667 -40.667 -79.5 -100.167 -104.5 -178.5s-37.5 -168.833 -37.5 -271.5s12.5 -193.167 37.5 -271.5s59.5 -137.833 103.5 -178.5h-98c-43.333 50 -77.166 113.667 -101.499 191
s-36.5 163.666 -36.5 258.999z" />
    <glyph glyph-name="parenright" unicode=")" horiz-adv-x="306" 
d="M19 750h97c44 -50 78.167 -113.5 102.5 -190.5s36.5 -163.5 36.5 -259.5c0 -95.333 -12 -181.833 -36 -259.5s-58 -141.167 -102 -190.5h-97c44 40.667 78.5 100.167 103.5 178.5s37.5 168.833 37.5 271.5s-12.667 193.167 -38 271.5s-60 137.833 -104 178.5z" />
    <glyph glyph-name="asterisk" unicode="*" horiz-adv-x="473" 
d="M47 535l23 72l142 -60l-13 153h76l-13 -153l141 60l23 -72l-149 -35l100 -116l-61 -44l-79 130l-79 -131l-61 45l99 116z" />
    <glyph glyph-name="plus" unicode="+" horiz-adv-x="620" 
d="M89 317v66h188v189h66v-189h189v-66h-189v-188h-66v188h-188z" />
    <glyph glyph-name="comma" unicode="," horiz-adv-x="214" 
d="M89 -134l-66 -0.00195312c37.333 40 56 77.667 56 113c0 14 -5.66699 28 -17 42s-17 27.667 -17 41c0 16.667 5.16699 30.334 15.5 41.001s24.5 16 42.5 16c22 0 39 -8.66699 51 -26s18 -39.666 18 -66.999c0 -64.667 -27.667 -118 -83 -160z" />
    <glyph glyph-name="hyphen" unicode="-" horiz-adv-x="380" 
d="M57 241v88h266v-88h-266z" />
    <glyph glyph-name="period" unicode="." horiz-adv-x="214" 
d="M42 54c0 19.333 6 35.166 18 47.499s28 18.5 48 18.5c19.333 0 35 -6.16699 47 -18.5s18 -28.166 18 -47.499c0 -18.667 -6.16699 -34.167 -18.5 -46.5s-27.833 -18.5 -46.5 -18.5c-20 0 -36 6 -48 18s-18 27.667 -18 47z" />
    <glyph glyph-name="slash" unicode="/" horiz-adv-x="482" 
d="M60 -167l-60 28l423 906l59 -28z" />
    <glyph glyph-name="zero" unicode="0" horiz-adv-x="680" 
d="M340 711c83.333 0 151.333 -33.5 204 -100.5s79 -153.833 79 -260.5s-26.333 -193.5 -79 -260.5s-120.667 -100.5 -204 -100.5s-151.333 33.5 -204 100.5s-79 153.833 -79 260.5s26.333 193.5 79 260.5s120.667 100.5 204 100.5zM163 350
c0 -78.667 16.333 -142.667 49 -192s75.334 -74 128.001 -74s95.334 24.667 128.001 74s49 113.333 49 192s-16.333 142.667 -49 192s-75.334 74 -128.001 74s-95.334 -24.667 -128.001 -74s-49 -113.333 -49 -192z" />
    <glyph glyph-name="one" unicode="1" horiz-adv-x="424" 
d="M211 576l-147 -65v103l195 86h56v-700h-104v576z" />
    <glyph glyph-name="two" unicode="2" horiz-adv-x="597" 
d="M537 0h-482.999v50l259 277c66 69.333 99 130.333 99 183c0 32 -13.5 57.667 -40.5 77s-62.833 29 -107.5 29c-40.667 0 -78.334 -7.83301 -113.001 -23.5s-63 -37.834 -85 -66.501v106c56.667 52.667 129 79 217 79c70.667 0 127.5 -16.5 170.5 -49.5
s64.5 -76.833 64.5 -131.5c0 -39.333 -11.667 -82.166 -35 -128.499s-56 -91.833 -98 -136.5l-169 -176h321v-89z" />
    <glyph glyph-name="three" unicode="3" horiz-adv-x="608" 
d="M281 -11c-88.667 0 -161.333 25.335 -218 76.002v109c46.667 -60 114.667 -90 204 -90c51.333 0 93 10.833 125 32.5s48 51.5 48 89.5c0 31.333 -10.833 57.166 -32.5 77.499s-49.5 30.5 -83.5 30.5h-89v86h76c31.333 0 57 9.66699 77 29s30 44 30 74
c0 35.333 -14 63 -42 83s-65 30 -111 30c-40.667 0 -78.167 -7.83301 -112.5 -23.5s-62.5 -37.834 -84.5 -66.501v109c57.333 50.667 128 76 212 76c74.667 0 134 -17.5 178 -52.5s66 -83.5 66 -145.5c0 -67.333 -24.333 -118 -73 -152c30 -15.333 53.333 -37.5 70 -66.5
s25 -62.167 25 -99.5c0 -64 -24 -114.333 -72 -151s-112.333 -55 -193 -55z" />
    <glyph glyph-name="four" unicode="4" horiz-adv-x="653" 
d="M35 132v49l411 519h85v-486h85v-82h-85v-132h-104v132h-392zM173 214h254v319z" />
    <glyph glyph-name="five" unicode="5" horiz-adv-x="607" 
d="M276 -11c-88 0 -160.667 24.001 -218 72.001v109c48 -57.333 116.333 -86 205 -86c52.667 0 95.5 12.833 128.5 38.5s49.5 60.5 49.5 104.5c0 39.333 -18.333 70.833 -55 94.5s-85.667 35.5 -147 35.5c-60 0 -109 -9 -147 -27l26 370h364v-89h-278l-13 -171
c24 4 51.333 6 82 6c83.333 0 149.833 -20.333 199.5 -61s74.5 -94.667 74.5 -162c0 -72.667 -24.5 -129.834 -73.5 -171.501s-114.833 -62.5 -197.5 -62.5z" />
    <glyph glyph-name="six" unicode="6" horiz-adv-x="638" 
d="M372 711c57.333 0 107.997 -12 151.997 -36v-96c-36 27.333 -80.333 41 -133 41c-66.667 0 -120.167 -22.167 -160.5 -66.5s-63.166 -105.833 -68.499 -184.5c35.333 52 93.333 78 174 78c72.667 0 131.667 -21.333 177 -64s68 -97.667 68 -165
c0 -68 -22.667 -123.167 -68 -165.5s-103.666 -63.5 -174.999 -63.5c-86.667 0 -155.167 31.333 -205.5 94s-75.5 148 -75.5 256c0 114 28.333 204.5 85 271.5s133.334 100.5 230.001 100.5zM165.997 266c8.66699 -57.333 27.832 -102.001 57.499 -134.001
s66.834 -48 111.501 -48c41.333 0 75 12.333 101 37s39 57.334 39 98.001c0 42 -14.833 76.167 -44.5 102.5s-67.5 39.5 -113.5 39.5c-72 0 -122.333 -31.667 -151 -95z" />
    <glyph glyph-name="seven" unicode="7" horiz-adv-x="590" 
d="M39 700h513v-50l-306 -650h-107l288 611h-388v89z" />
    <glyph glyph-name="eight" unicode="8" horiz-adv-x="609" 
d="M171 374c-61.333 34.667 -92 85.667 -92 153c0 54 21 98.167 63 132.5s96 51.5 162 51.5c66.667 0 120.834 -17.167 162.501 -51.5s62.5 -78.5 62.5 -132.5c0 -67.333 -30.667 -118.333 -92 -153c38 -17.333 67.833 -41.5 89.5 -72.5s32.5 -66.5 32.5 -106.5
c0 -60.667 -23.833 -110.167 -71.5 -148.5s-108.834 -57.5 -183.501 -57.5s-135.667 19.167 -183 57.5s-71 87.833 -71 148.5c0 40 10.667 75.5 32 106.5s51 55.167 89 72.5zM153 206c0 -36 14 -65.333 42 -88s64.333 -34 109 -34s81.167 11.333 109.5 34s42.5 52 42.5 88
s-14.167 65.333 -42.5 88s-64.833 34 -109.5 34s-81 -11.333 -109 -34s-42 -52 -42 -88zM304 417c36 0 65.333 9.33496 88 28.002s34 42.667 34 72s-11.333 53.166 -34 71.499s-52 27.5 -88 27.5c-35.333 0 -64.5 -9.33301 -87.5 -28s-34.5 -42.334 -34.5 -71.001
c0 -29.333 11.5 -53.333 34.5 -72s52.167 -28 87.5 -28z" />
    <glyph glyph-name="nine" unicode="9" horiz-adv-x="638" 
d="M303 711c86.667 0 154.668 -30.499 204.001 -91.499s74 -144.833 74 -251.5c0 -116.667 -29.333 -209 -88 -277s-138.667 -102 -240 -102c-60 0 -113.667 12.333 -161 37v96c38 -27.333 85.333 -41 142 -41c71.333 0 127.833 21.833 169.5 65.5
s65.834 105.167 72.501 184.5c-37.333 -50 -95 -75 -173 -75c-72.667 0 -131.834 21.167 -177.501 63.5s-68.5 97.166 -68.5 164.499s22.667 122 68 164s104.666 63 177.999 63zM163.001 483.001c0 -42 14.666 -76 43.999 -102s67.333 -39 114 -39
c73.333 0 123.666 32 150.999 96c-8 56.667 -26.667 100.667 -56 132s-66.666 47 -111.999 47c-41.333 0 -75.166 -12.333 -101.499 -37s-39.5 -57 -39.5 -97z" />
    <glyph glyph-name="colon" unicode=":" horiz-adv-x="214" 
d="M42 54c0 19.333 6 35.166 18 47.499s28 18.5 48 18.5c19.333 0 35 -6.16699 47 -18.5s18 -28.166 18 -47.499c0 -18.667 -6.16699 -34.167 -18.5 -46.5s-27.833 -18.5 -46.5 -18.5c-20 0 -36 6 -48 18s-18 27.667 -18 47zM42 426c0 19.333 6 35 18 47s28 18 48 18
c18.667 0 34.167 -6.16699 46.5 -18.5s18.5 -27.833 18.5 -46.5c0 -19.333 -6 -35 -18 -47s-27.667 -18 -47 -18c-20 0 -36 6 -48 18s-18 27.667 -18 47z" />
    <glyph glyph-name="semicolon" unicode=";" horiz-adv-x="214" 
d="M89 -134l-66 -0.00195312c37.333 40 56 77.667 56 113c0 14 -5.66699 28 -17 42s-17 27.667 -17 41c0 16.667 5.16699 30.334 15.5 41.001s24.5 16 42.5 16c22 0 39 -8.66699 51 -26s18 -39.666 18 -66.999c0 -64.667 -27.667 -118 -83 -160zM42 425.998
c0 19.333 6 35 18 47s28 18 48 18c18.667 0 34.167 -6.16699 46.5 -18.5s18.5 -27.833 18.5 -46.5c0 -19.333 -6 -35 -18 -47s-27.667 -18 -47 -18c-20 0 -36 6 -48 18s-18 27.667 -18 47z" />
    <glyph glyph-name="less" unicode="&#x3c;" horiz-adv-x="620" 
d="M69 375l463 194v-72l-353 -147l353 -147v-72l-463 194v50z" />
    <glyph glyph-name="equal" unicode="=" horiz-adv-x="620" 
d="M89 437v66h443v-66h-443zM532 197h-443v66h443v-66z" />
    <glyph glyph-name="greater" unicode="&#x3e;" horiz-adv-x="620" 
d="M89 203l353 147l-353 147v72l463 -194v-50l-463 -194v72z" />
    <glyph glyph-name="question" unicode="?" horiz-adv-x="524" 
d="M233 616c-84 0 -148.667 -29.999 -194 -89.999v106c56 52.667 127 79 213 79c70 0 125.833 -16 167.5 -48s62.5 -75.333 62.5 -130c0 -47.333 -16.667 -91.833 -50 -133.5s-78 -73.834 -134 -96.501l-2 -80h-86l-4 131c51.333 17.333 92.5 40.333 123.5 69
s46.5 58.667 46.5 90c0 32 -13 57.167 -39 75.5s-60.667 27.5 -104 27.5zM254 -10.999c-19.333 0 -35.166 6 -47.499 18s-18.5 27.667 -18.5 47s6.16699 35.166 18.5 47.499s28.166 18.5 47.499 18.5s35 -6.16699 47 -18.5s18 -28.166 18 -47.499
c0 -18.667 -6.16699 -34.167 -18.5 -46.5s-27.833 -18.5 -46.5 -18.5z" />
    <glyph glyph-name="at" unicode="@" horiz-adv-x="827" 
d="M393 -11c-115.333 0 -204.329 33.668 -266.996 101.001s-86.334 155 -71.001 263c14.667 104.667 60.167 190.5 136.5 257.5s167.5 100.5 273.5 100.5c104 0 185.333 -32.333 244 -97s81.334 -144.667 68.001 -240c-8.66699 -60 -29.5 -108.5 -62.5 -145.5
s-71.833 -55.5 -116.5 -55.5c-28 0 -50.833 7.33301 -68.5 22s-28.167 35 -31.5 61c-18 -26 -40.5 -46.833 -67.5 -62.5s-54.5 -23.5 -82.5 -23.5c-40.667 0 -71.834 16 -93.501 48s-29.167 73 -22.5 123c8.66699 56.667 32.167 102.5 70.5 137.5s83.833 52.5 136.5 52.5
c38.667 0 70 -10.333 94 -31l9 23h63l-31 -225c-2.66699 -16.667 -0.333984 -30.334 6.99902 -41.001s18 -16 32 -16c21.333 0 40.166 11.5 56.499 34.5s27.166 53.5 32.499 91.5c10.667 76.667 -7 140.167 -53 190.5s-110.333 75.5 -193 75.5c-84.667 0 -157 -26 -217 -78
s-95.667 -119.333 -107 -202c-11.333 -85.333 8 -154.333 58 -207s122 -79 216 -79c96.667 0 178.667 24 246 72l-13 -86c-73.333 -42.667 -155.333 -64 -246 -64zM312.004 344.001c-5.33301 -32 -1.83203 -58.5 10.501 -79.5s30.5 -31.5 54.5 -31.5s47.833 11.667 71.5 35
s43.5 54.333 59.5 93l11 76c-18 22 -43 33 -75 33c-34 0 -63.333 -11.5 -88 -34.5s-39.334 -53.5 -44.001 -91.5z" />
    <glyph glyph-name="A" unicode="A" horiz-adv-x="798" 
d="M20 0l354 700h50l354 -700h-121l-70 144h-376l-70 -144h-121zM399 531l-142 -292h284z" />
    <glyph glyph-name="B" unicode="B" horiz-adv-x="708" 
d="M83 0v700h333c61.333 0 111.333 -17.167 150 -51.5s58 -78.833 58 -133.5c0 -67.333 -27.333 -118 -82 -152c34.667 -16 61.667 -38.667 81 -68s29 -63.333 29 -102c0 -57.333 -20.5 -103.833 -61.5 -139.5s-94.167 -53.5 -159.5 -53.5h-348zM417 312l-225 0.000976562
v-217h225c36 0 65.5 10.167 88.5 30.5s34.5 46.166 34.5 77.499c0 32 -11.5 58.167 -34.5 78.5s-52.5 30.5 -88.5 30.5zM398 606.001l-206 0.000976562v-203h206c33.333 0 60.833 9.5 82.5 28.5s32.5 43.167 32.5 72.5s-10.833 53.666 -32.5 72.999s-49.167 29 -82.5 29z
" />
    <glyph glyph-name="C" unicode="C" horiz-adv-x="710" 
d="M414 -11c-109.333 0 -198.666 33.499 -267.999 100.499s-104 153.833 -104 260.5s34.667 193.5 104 260.5s158.666 100.5 267.999 100.5c91.333 0 169.666 -24.667 234.999 -74v-114c-54.667 58.667 -128 88 -220 88c-81.333 0 -147.5 -24.167 -198.5 -72.5
s-76.5 -111.166 -76.5 -188.499s25.5 -140 76.5 -188s117.167 -72 198.5 -72c92.667 0 166 29 220 87v-114c-65.333 -49.333 -143.666 -74 -234.999 -74z" />
    <glyph glyph-name="D" unicode="D" horiz-adv-x="791" 
d="M83 700h292c106 0 192.667 -32.667 260 -98s101 -149.333 101 -252s-33.667 -186.667 -101 -252s-154 -98 -260 -98h-292v700zM375 606l-183 0.000976562v-511h183c73.333 0 133.333 23.667 180 71s70 108.666 70 183.999s-23.333 136.833 -70 184.5
s-106.667 71.5 -180 71.5z" />
    <glyph glyph-name="E" unicode="E" horiz-adv-x="655" 
d="M83 0v700h526v-94h-417v-205h342v-94h-342v-212h422v-95h-531z" />
    <glyph glyph-name="F" unicode="F" horiz-adv-x="645" 
d="M192 0h-109v700h526v-94h-417v-205h342v-94h-342v-307z" />
    <glyph glyph-name="G" unicode="G" horiz-adv-x="764" 
d="M42 351c0 106 35.001 192.5 105.001 259.5s160.333 100.5 271 100.5c92.667 0 172 -24 238 -72v-111c-55.333 55.333 -129 83 -221 83c-83.333 0 -151 -24.167 -203 -72.5s-78 -111.5 -78 -189.5c0 -76.667 25.167 -139.167 75.5 -187.5s115.5 -72.5 195.5 -72.5
c50 0 96.667 10 140 30v154h-140v89h245v-302c-68.667 -47.333 -150 -71 -244 -71c-112.667 0 -204.834 33.667 -276.501 101s-107.5 154.333 -107.5 261z" />
    <glyph glyph-name="H" unicode="H" horiz-adv-x="843" 
d="M192 0h-109v700h109v-299h460v299h109v-700h-109v307h-460v-307z" />
    <glyph glyph-name="I" unicode="I" horiz-adv-x="274" 
d="M83 700h109v-700h-109v700z" />
    <glyph glyph-name="J" unicode="J" horiz-adv-x="310" 
d="M64 -208c-33.333 0 -62.999 7.66602 -88.999 22.999v91c16 -12.667 36 -19 60 -19c25.333 0 45.666 7.5 60.999 22.5s23 35.5 23 61.5v729h108v-746c0 -49.333 -14.833 -88.666 -44.5 -117.999s-69.167 -44 -118.5 -44z" />
    <glyph glyph-name="K" unicode="K" horiz-adv-x="725" 
d="M83 0v700h109v-293h125l222 293h135l-266 -342l290 -358h-137l-245 312h-124v-312h-109z" />
    <glyph glyph-name="L" unicode="L" horiz-adv-x="635" 
d="M83 0v700h109v-605h415v-95h-524z" />
    <glyph glyph-name="M" unicode="M" horiz-adv-x="964" 
d="M192 0h-109v700h62l337 -506l337 507h62v-701h-109v456l-265 -406h-50l-265 405v-455z" />
    <glyph glyph-name="N" unicode="N" horiz-adv-x="853" 
d="M83 695h61l518 -505v510h106v-700h-62l-517 504v-504h-106v695z" />
    <glyph glyph-name="O" unicode="O" horiz-adv-x="841" 
d="M421 711c108 0 196 -33.5 264 -100.5s102 -153.833 102 -260.5s-34 -193.5 -102 -260.5s-156 -100.5 -264 -100.5c-108.667 0 -197 33.5 -265 100.5s-102 153.833 -102 260.5s34 193.5 102 260.5s156.333 100.5 265 100.5zM166 350c0 -76.667 23.667 -139.167 71 -187.5
s108.666 -72.5 183.999 -72.5s136.5 24.167 183.5 72.5s70.5 110.833 70.5 187.5c0 77.333 -23.667 140.166 -71 188.499s-108.333 72.5 -183 72.5c-75.333 0 -136.666 -24.167 -183.999 -72.5s-71 -111.166 -71 -188.499z" />
    <glyph glyph-name="P" unicode="P" horiz-adv-x="671" 
d="M192 0h-109v700h310c68.667 0 124.334 -19.5 167.001 -58.5s64 -89.5 64 -151.5s-21.333 -112.5 -64 -151.5s-98.334 -58.5 -167.001 -58.5h-201v-280zM192 374h191c38 0 69.167 10.833 93.5 32.5s36.5 49.5 36.5 83.5s-12.167 61.833 -36.5 83.5s-55.5 32.5 -93.5 32.5
h-191v-232z" />
    <glyph glyph-name="Q" unicode="Q" horiz-adv-x="841" 
d="M421 711c108 0 196 -33.5 264 -100.5s102 -153.833 102 -260.5c0 -72 -16.333 -135.833 -49 -191.5s-77.667 -98.167 -135 -127.5l117 -181h-129l-80 148c-28 -6 -58 -9 -90 -9c-108.667 0 -197 33.5 -265 100.5s-102 153.833 -102 260.5s34 193.5 102 260.5
s156.333 100.5 265 100.5zM421 90c75.333 0 136.5 24.167 183.5 72.5s70.5 110.833 70.5 187.5c0 77.333 -23.667 140.166 -71 188.499s-108.333 72.5 -183 72.5c-75.333 0 -136.666 -24.167 -183.999 -72.5s-71 -111.166 -71 -188.499c0 -76.667 23.667 -139.167 71 -187.5
s108.666 -72.5 183.999 -72.5z" />
    <glyph glyph-name="R" unicode="R" horiz-adv-x="711" 
d="M192 0h-109v700h324c68.667 0 124.5 -19.5 167.5 -58.5s64.5 -89.5 64.5 -151.5c0 -49.333 -14.167 -91.833 -42.5 -127.5s-66.5 -60.167 -114.5 -73.5l188 -289h-129l-167 280h-182v-280zM397 606h-205v-232h205c38.667 0 70 10.833 94 32.5s36 49.5 36 83.5
s-12 61.833 -36 83.5s-55.333 32.5 -94 32.5z" />
    <glyph glyph-name="S" unicode="S" horiz-adv-x="645" 
d="M57 519c0 61.333 22.332 108.67 66.999 142.003s108.334 50 191.001 50c98.667 0 175 -24.333 229 -73v-96c-47.333 46 -119 69 -215 69c-52.667 0 -93.667 -7.83301 -123 -23.5s-44 -37.5 -44 -65.5c0 -26.667 14 -48.834 42 -66.501s71.667 -32.5 131 -44.5
c89.333 -16.667 155.166 -42.834 197.499 -78.501s63.5 -82.5 63.5 -140.5c0 -64.667 -24.667 -114.334 -74 -149.001s-119.666 -52 -210.999 -52c-106 0 -189.667 24.333 -251 73v96c56 -46 135.333 -69 238 -69c60 0 107.167 8.83301 141.5 26.5s51.5 42.167 51.5 73.5
c0 26.667 -14 49 -42 67s-72.667 33.333 -134 46c-90 18 -155.5 44.167 -196.5 78.5s-61.5 79.833 -61.5 136.5z" />
    <glyph glyph-name="T" unicode="T" horiz-adv-x="700" 
d="M296 606h-267v94h642v-94h-267v-606h-108v606z" />
    <glyph glyph-name="U" unicode="U" horiz-adv-x="810" 
d="M76 308l0.00195312 392h109v-388c0 -66 20.667 -119.5 62 -160.5s94.666 -61.5 159.999 -61.5c64.667 0 117.167 20.5 157.5 61.5s60.5 94.5 60.5 160.5v388h109v-392c0 -94 -30.333 -170.667 -91 -230s-139.334 -89 -236.001 -89c-97.333 0 -176.833 29.667 -238.5 89
s-92.5 136 -92.5 230z" />
    <glyph glyph-name="V" unicode="V" horiz-adv-x="798" 
d="M20 700h121l258 -531l258 531h121l-354 -700h-50z" />
    <glyph glyph-name="W" unicode="W" horiz-adv-x="1145" 
d="M308 0l-288 700h118l198 -508l211 508h50l211 -508l198 508h119l-289 -700h-51l-213 512l-213 -512h-51z" />
    <glyph glyph-name="X" unicode="X" horiz-adv-x="765" 
d="M162 0h-135l285 360l-266 340h134l203 -267l202 267h135l-267 -340l285 -360h-134l-221 288z" />
    <glyph glyph-name="Y" unicode="Y" horiz-adv-x="724" 
d="M308 294l-291 406h132l213 -307l213 307h132l-291 -406v-294h-108v294z" />
    <glyph glyph-name="Z" unicode="Z" horiz-adv-x="743" 
d="M683 0h-623v50l454 556h-450v94h614v-50l-454 -555h459v-95z" />
    <glyph glyph-name="bracketleft" unicode="[" horiz-adv-x="307" 
d="M76 -150v900h208v-67h-117v-766h117v-67h-208z" />
    <glyph glyph-name="backslash" unicode="\" horiz-adv-x="482" 
d="M423 -167l-423 906l60 28l422 -906z" />
    <glyph glyph-name="bracketright" unicode="]" horiz-adv-x="307" 
d="M232 -150h-209v67h117v766h-117v67h209v-900z" />
    <glyph glyph-name="asciicircum" unicode="^" horiz-adv-x="620" 
d="M94 495l216 216l217 -216l-48 -47l-169 169l-169 -169z" />
    <glyph glyph-name="underscore" unicode="_" horiz-adv-x="500" 
d="M0 -166v66h500v-66h-500z" />
    <glyph glyph-name="grave" unicode="`" horiz-adv-x="322" 
d="M262 555l-202 80v97l202 -110v-67z" />
    <glyph glyph-name="a" unicode="a" horiz-adv-x="553" 
d="M237 -8c-59.333 0 -106.167 13.168 -140.5 39.501s-51.5 62.166 -51.5 107.499c0 47.333 18.833 84.333 56.5 111s89.834 40 156.501 40c30.667 0 67 -3.33301 109 -10v20c0 64.667 -45.667 97 -137 97c-62 0 -110.667 -14 -146 -42v92c45.333 28 100.666 42 165.999 42
c70 0 124.167 -15.5 162.5 -46.5s57.5 -74.833 57.5 -131.5v-197c0 -29.333 19.667 -44 59 -44v-66c-11.333 -6.66699 -28.333 -10 -51 -10c-41.333 0 -72 13.333 -92 40c-40 -28 -89.667 -42 -149 -42zM279.999 206.001c-41.333 0 -73.667 -5.99902 -97 -17.999
s-35 -28.333 -35 -49c0 -18.667 9.5 -33.334 28.5 -44.001s45.167 -16 78.5 -16c48 0 85.333 13.333 112 40v79c-35.333 5.33301 -64.333 8 -87 8z" />
    <glyph glyph-name="b" unicode="b" horiz-adv-x="587" 
d="M73 0v719.999h103v-264c34.667 21.333 76 32 124 32c72 0 130.5 -22.833 175.5 -68.5s67.5 -105.167 67.5 -178.5s-22.667 -133.166 -68 -179.499s-104 -69.5 -176 -69.5c-50.667 0 -94 12.333 -130 37l-5 -29h-91zM281 398.999c-42 0 -77 -12.334 -105 -37.001v-244
c27.333 -24 62.333 -36 105 -36c46 0 83.5 14.667 112.5 44s43.5 67.333 43.5 114s-14.5 84.834 -43.5 114.501s-66.5 44.5 -112.5 44.5z" />
    <glyph glyph-name="c" unicode="c" horiz-adv-x="506" 
d="M307 -11c-77.333 0 -140.501 23.3311 -189.501 69.998s-73.5 107 -73.5 181s24.5 134.333 73.5 181s112.167 70 189.5 70c54 0 103 -13.333 147 -40v-97c-33.333 30 -75.666 45 -126.999 45c-52.667 0 -95.334 -14.667 -128.001 -44s-49 -67.666 -49 -114.999
s16.333 -85.666 49 -114.999s75.334 -44 128.001 -44c50.667 0 93 15 127 45v-97c-44 -26.667 -93 -40 -147 -40z" />
    <glyph glyph-name="d" unicode="d" horiz-adv-x="587" 
d="M44 241c0 72.667 22.666 132.001 67.999 178.001s104 69 176 69c47.333 0 88.333 -10.667 123 -32v264h103v-720h-91l-5 28c-37.333 -24 -80.666 -36 -129.999 -36c-72 0 -130.667 23.167 -176 69.5s-68 106.166 -68 179.499zM306.999 399.001
c-46.667 0 -84.5 -14.832 -113.5 -44.499s-43.5 -67.834 -43.5 -114.501s14.5 -84.667 43.5 -114s66.833 -44 113.5 -44c42 0 76.667 12 104 36v244c-28 24.667 -62.667 37 -104 37z" />
    <glyph glyph-name="e" unicode="e" horiz-adv-x="572" 
d="M288 491c76 0 135.668 -26.333 179.001 -79s61.666 -121.334 54.999 -206.001h-374c10 -38.667 32.667 -69 68 -91s79 -33 131 -33c62.667 0 113.667 16 153 48v-94c-50 -31.333 -106.667 -47 -170 -47c-86.667 0 -156.167 23.333 -208.5 70s-78.5 108.334 -78.5 185.001
c0 72.667 22.667 132 68 178s104.333 69 177 69zM147.001 288h273.999c-2.66699 34.667 -16.167 62.334 -40.5 83.001s-54.833 31 -91.5 31s-67.667 -10.333 -93 -31s-41.666 -48.334 -48.999 -83.001z" />
    <glyph glyph-name="f" unicode="f" horiz-adv-x="378" 
d="M212 480l143 -0.000976562v-89h-143v-391h-103v391h-86v89h86v91c0 47.333 14.667 85.833 44 115.5s68 44.5 116 44.5c32 0 60.667 -7.33301 86 -22v-84c-14.667 11.333 -34 17 -58 17c-26 0 -46.667 -8.16699 -62 -24.5s-23 -38.166 -23 -65.499v-72z" />
    <glyph glyph-name="g" unicode="g" horiz-adv-x="587" 
d="M288 -7c-72 0 -130.669 23.001 -176.002 69.001s-68 105.667 -68 179c0 72.667 22.667 132 68 178s104 69 176 69c50 0 93.333 -11.667 130 -35l5 27h91v-497c0 -62 -21.833 -109.833 -65.5 -143.5s-105.5 -50.5 -185.5 -50.5c-67.333 0 -125.666 13.333 -174.999 40v88
c39.333 -25.333 92 -38 158 -38c52.667 0 93.334 9.16699 122.001 27.5s43 44.166 43 77.499v40c-33.333 -20.667 -74.333 -31 -123 -31zM149.998 240.001c0 -46.667 14.5 -84.668 43.5 -114.001s66.833 -44 113.5 -44c42 0 76.667 12 104 36v245c-27.333 24 -62 36 -104 36
c-46.667 0 -84.5 -14.667 -113.5 -44s-43.5 -67.666 -43.5 -114.999z" />
    <glyph glyph-name="h" unicode="h" horiz-adv-x="606" 
d="M73 720h103.001v-275c36.667 29.333 82.667 44 138 44c69.333 0 124 -19.5 164 -58.5s60 -92.167 60 -159.5v-271h-103v271c0 40 -12.5 71.5 -37.5 94.5s-59.167 34.5 -102.5 34.5c-48.667 0 -88.334 -17 -119.001 -51v-349h-103v720z" />
    <glyph glyph-name="i" unicode="i" horiz-adv-x="249" 
d="M73 0v480h103v-480h-103zM58 644c0 19.333 6.16699 35 18.5 47s28.166 18 47.499 18s35 -6 47 -18s18 -27.667 18 -47s-6 -35.166 -18 -47.499s-27.667 -18.5 -47 -18.5s-35.166 6.16699 -47.499 18.5s-18.5 28.166 -18.5 47.499z" />
    <glyph glyph-name="j" unicode="j" horiz-adv-x="249" 
d="M-4 -197l-0.000976562 67.001c24 0 42.833 5.66699 56.5 17s20.5 26.666 20.5 45.999v547h103v-563c0 -36.667 -12 -66.5 -36 -89.5s-54.667 -34.5 -92 -34.5c-19.333 0 -36.666 3.33301 -51.999 10zM57.999 644.001c0 19.333 6.16699 35 18.5 47s28.166 18 47.499 18
s35 -6 47 -18s18 -27.667 18 -47s-6 -35.166 -18 -47.499s-27.667 -18.5 -47 -18.5s-35.166 6.16699 -47.499 18.5s-18.5 28.166 -18.5 47.499z" />
    <glyph glyph-name="k" unicode="k" horiz-adv-x="542" 
d="M73 0v720h103v-431h57l152 191h122l-193 -237l206 -243h-125l-163 200h-56v-200h-103z" />
    <glyph glyph-name="l" unicode="l" horiz-adv-x="279" 
d="M200 -7c-37.333 0 -67.834 11.499 -91.501 34.499s-35.5 52.833 -35.5 89.5v603h103v-587c0 -19.333 6.83301 -34.666 20.5 -45.999s32.167 -17 55.5 -17v-67c-15.333 -6.66699 -32.666 -10 -51.999 -10z" />
    <glyph glyph-name="m" unicode="m" horiz-adv-x="923" 
d="M73 480l90.999 -0.000976562l7 -39c35.333 32 80.333 48 135 48c71.333 0 126.333 -23 165 -69c38.667 46 94.667 69 168 69c65.333 0 117.833 -19 157.5 -57s59.5 -89.667 59.5 -155v-277h-103v278c0 37.333 -11.667 67 -35 89s-54.666 33 -93.999 33
c-48.667 0 -87.334 -18.667 -116.001 -56c5.33301 -21.333 8 -43.666 8 -66.999v-277h-103v278c0 38 -11.5 67.833 -34.5 89.5s-54.167 32.5 -93.5 32.5c-45.333 0 -81.666 -16.667 -108.999 -50v-350h-103v480z" />
    <glyph glyph-name="n" unicode="n" horiz-adv-x="606" 
d="M73 0v480h91l7 -40c36.667 32.667 84.334 49 143.001 49c69.333 0 124 -19.5 164 -58.5s60 -92.167 60 -159.5v-271h-103v271c0 40 -12.5 71.5 -37.5 94.5s-59.167 34.5 -102.5 34.5c-48.667 0 -88.334 -17 -119.001 -51v-349h-103z" />
    <glyph glyph-name="o" unicode="o" 
d="M301 491c75.333 0 136.833 -23.333 184.5 -70s71.5 -107 71.5 -181s-23.833 -134.333 -71.5 -181s-109.167 -70 -184.5 -70c-76 0 -137.833 23.333 -185.5 70s-71.5 107 -71.5 181s23.833 134.333 71.5 181s109.5 70 185.5 70zM150 240c0 -46 14 -83.5 42 -112.5
s64.333 -43.5 109 -43.5s80.834 14.5 108.501 43.5s41.5 66.5 41.5 112.5s-13.833 83.5 -41.5 112.5s-63.834 43.5 -108.501 43.5s-81 -14.5 -109 -43.5s-42 -66.5 -42 -112.5z" />
    <glyph glyph-name="p" unicode="p" horiz-adv-x="587" 
d="M73 -200v680h91l5 -28c35.333 24 78.666 36 129.999 36c72 0 130.667 -23 176 -69s68 -105.667 68 -179s-22.5 -132.833 -67.5 -178.5s-103.5 -68.5 -175.5 -68.5c-49.333 0 -90.666 10.333 -123.999 31v-224h-103zM281 399c-42.667 0 -77.667 -12.001 -105 -36.001v-245
c27.333 -24 62.333 -36 105 -36c46 0 83.5 14.667 112.5 44s43.5 67.333 43.5 114s-14.5 84.834 -43.5 114.501s-66.5 44.5 -112.5 44.5z" />
    <glyph glyph-name="q" unicode="q" horiz-adv-x="587" 
d="M44 241c0 72.667 22.667 132 68 178s104 69 176 69c50 0 93.333 -11.667 130 -35l5 27h91v-680h-103v224c-33.333 -20.667 -74.333 -31 -123 -31c-72 0 -130.667 23 -176 69s-68 105.667 -68 179zM307 399c-46.667 0 -84.5 -14.668 -113.5 -44.001
s-43.5 -67.666 -43.5 -114.999c0 -46.667 14.5 -84.667 43.5 -114s66.833 -44 113.5 -44c42 0 76.667 12 104 36v245c-27.333 24 -62 36 -104 36z" />
    <glyph glyph-name="r" unicode="r" horiz-adv-x="408" 
d="M73 0l0.000976562 480h91l6 -53c36 41.333 85 62 147 62c22 0 43 -2.66699 63 -8v-100c-20.667 12.667 -47 19 -79 19c-50.667 0 -92.334 -21.333 -125.001 -64v-336h-103z" />
    <glyph glyph-name="s" unicode="s" horiz-adv-x="502" 
d="M50 350c0 45.333 16.667 80.167 50 104.5s82 36.5 146 36.5c74.667 0 131.334 -16.333 170.001 -49v-90c-33.333 30 -86 45 -158 45c-73.333 0 -110 -15.333 -110 -46c0 -26 36.667 -45.333 110 -58c67.333 -11.333 117 -29.833 149 -55.5s48 -59.834 48 -102.501
c0 -47.333 -18.667 -83.5 -56 -108.5s-91.333 -37.5 -162 -37.5c-78.667 0 -139.334 16.333 -182.001 49v90c38.667 -30 96.334 -45 173.001 -45c39.333 0 70.666 4.66699 93.999 14s35 22 35 38c0 27.333 -38 47.333 -114 60c-66.667 11.333 -115.5 29.333 -146.5 54
s-46.5 58.334 -46.5 101.001z" />
    <glyph glyph-name="t" unicode="t" horiz-adv-x="396" 
d="M212 480l143 -0.00195312v-89h-143v-226c0 -25.333 7.5 -45.666 22.5 -60.999s35.167 -23 60.5 -23s45.333 6.33301 60 19v-85c-26 -15.333 -55.333 -23 -88 -23c-47.333 0 -85.5 13.833 -114.5 41.5s-43.5 63.834 -43.5 108.501v249h-86v89h86v75l103 50v-125z" />
    <glyph glyph-name="u" unicode="u" 
d="M68 200v280.001h103v-280c0 -38.667 11.5 -68.334 34.5 -89.001s55.5 -31 97.5 -31c50 0 90.667 17.333 122 52v348h103v-480h-92l-6 40c-38 -32.667 -86 -49 -144 -49c-68.667 0 -122.167 18.333 -160.5 55s-57.5 88 -57.5 154z" />
    <glyph glyph-name="v" unicode="v" horiz-adv-x="566" 
d="M15 480h109l159 -322l159 322h109l-243 -480h-50z" />
    <glyph glyph-name="w" unicode="w" horiz-adv-x="810" 
d="M224 0l-209 480h107l128 -313l130 313h51l130 -313l128 313h106l-209 -480h-51l-130 315l-130 -315h-51z" />
    <glyph glyph-name="x" unicode="x" horiz-adv-x="569" 
d="M147 0h-123l197 243l-191 237h123l132 -169l132 169h122l-190 -237l196 -243h-123l-137 176z" />
    <glyph glyph-name="y" unicode="y" horiz-adv-x="566" 
d="M232 52l-217 428h109l159 -320l159 320h109l-344 -680h-111z" />
    <glyph glyph-name="z" unicode="z" horiz-adv-x="528" 
d="M488 0h-443v50l282 341h-278v89h434v-50l-283 -341h288v-89z" />
    <glyph glyph-name="braceleft" unicode="{" horiz-adv-x="341" 
d="M23 333c32 0 58.5 10.667 79.5 32s30.167 48.333 27.5 81l-10 119c-4.66699 55.333 12.333 101.333 51 138s87.667 55 147 55v-66c-32.667 0 -59.334 -10.667 -80.001 -32s-29.667 -48.333 -27 -81l10 -113c3.33301 -36 -3.16699 -68.5 -19.5 -97.5
s-39.833 -51.833 -70.5 -68.5c30.667 -16.667 54.167 -39.5 70.5 -68.5s22.833 -61.5 19.5 -97.5l-10 -113c-2.66699 -32.667 6.33301 -59.667 27 -81s47.334 -32 80.001 -32v-66c-59.333 0 -108.333 18.333 -147 55s-55.667 82.667 -51 138l10 119
c2.66699 32.667 -6.5 59.667 -27.5 81s-47.5 32 -79.5 32v66z" />
    <glyph glyph-name="bar" unicode="|" horiz-adv-x="277" 
d="M172 -100h-66v900h66v-900z" />
    <glyph glyph-name="braceright" unicode="}" horiz-adv-x="341" 
d="M222 35c4.66699 -55.333 -12.5 -101.333 -51.5 -138s-88.167 -55 -147.5 -55v66c32 0 58.5 10.667 79.5 32s30.167 48.333 27.5 81l-10 113c-3.33301 36 3.16699 68.5 19.5 97.5s39.833 51.833 70.5 68.5c-30.667 16.667 -54.167 39.5 -70.5 68.5
s-22.833 61.5 -19.5 97.5l10 113c2.66699 32.667 -6.5 59.667 -27.5 81s-47.5 32 -79.5 32v66c59.333 0 108.5 -18.333 147.5 -55s56.167 -82.667 51.5 -138l-11 -119c-2.66699 -32.667 6.5 -59.667 27.5 -81s47.5 -32 79.5 -32v-66c-32 0 -58.5 -10.667 -79.5 -32
s-30.167 -48.333 -27.5 -81z" />
    <glyph glyph-name="asciitilde" unicode="~" horiz-adv-x="620" 
d="M206 428c26.667 0 52.668 -7.33301 78.001 -22s48.833 -29.334 70.5 -44.001s41.5 -22 59.5 -22c20.667 0 37.834 7.33301 51.501 22s20.5 33.334 20.5 56.001h66c0 -42 -13 -76.5 -39 -103.5s-59 -40.5 -99 -40.5c-26.667 0 -52.5 7.33301 -77.5 22
s-48.333 29.334 -70 44.001s-41.834 22 -60.501 22c-20.667 0 -37.834 -7.33301 -51.501 -22s-20.5 -33.334 -20.5 -56.001h-65c0 42 13 76.5 39 103.5s58.667 40.5 98 40.5z" />
    <glyph glyph-name="exclamdown" unicode="&#xa1;" horiz-adv-x="253" 
d="M181 -200h-109l12 457h85zM126 361c-19.333 0 -35 6 -47 18s-18 27.667 -18 47c0 18.667 6.16699 34.167 18.5 46.5s27.833 18.5 46.5 18.5c19.333 0 35.166 -6 47.499 -18s18.5 -27.667 18.5 -47s-6.16699 -35 -18.5 -47s-28.166 -18 -47.499 -18z" />
    <glyph glyph-name="cent" unicode="&#xa2;" horiz-adv-x="506" 
d="M44 240c0 66 19.832 121.498 59.499 166.498s92.5 72.167 158.5 81.5v92h65v-90c46.667 -2.66699 89 -15.667 127 -39v-97c-33.333 30 -75.666 45 -126.999 45c-52.667 0 -95.334 -14.667 -128.001 -44s-49 -67.666 -49 -114.999s16.333 -85.666 49 -114.999
s75.334 -44 128.001 -44c50.667 0 93 15 127 45v-97c-38 -23.333 -80.333 -36.333 -127 -39v-90h-65v92c-66 9.33301 -118.833 36.5 -158.5 81.5s-59.5 100.5 -59.5 166.5z" />
    <glyph glyph-name="sterling" unicode="&#xa3;" horiz-adv-x="566" 
d="M43 291v64.999h86v104c0 74 23 134.333 69 181s105.333 70 178 70c52 0 98.333 -13.333 139 -40v-97c-31.333 30 -71 45 -119 45c-48.667 0 -88.167 -14.667 -118.5 -44s-45.5 -67.666 -45.5 -114.999v-104h190v-65h-190v-202h299v-89h-488v89h86v202h-86z" />
    <glyph glyph-name="currency" unicode="&#xa4;" horiz-adv-x="620" 
d="M64 549l47 48l77 -78c36 26.667 76.667 40 122 40s86 -13.333 122 -40l77 78l48 -48l-78 -77c26.667 -36 40 -76.667 40 -122s-13.333 -86 -40 -122l78 -77l-48 -47l-77 78c-36 -27.333 -76.667 -41 -122 -41s-86 13.667 -122 41l-77 -78l-47 47l78 77
c-27.333 36 -41 76.667 -41 122s13.333 86 40 122zM310 493c-39.333 0 -73 -13.833 -101 -41.5s-42 -61.5 -42 -101.5s13.833 -73.833 41.5 -101.5s61.5 -41.5 101.5 -41.5s73.833 14 101.5 42s41.5 61.667 41.5 101c0 38.667 -14.167 72.167 -42.5 100.5
s-61.833 42.5 -100.5 42.5z" />
    <glyph glyph-name="yen" unicode="&#xa5;" horiz-adv-x="724" 
d="M282 330l-265 370h132l213 -307l213 307h132l-265 -370h132v-66h-158v-93h158v-65h-158v-106h-108v106h-158v65h158v93h-158v66h132z" />
    <glyph glyph-name="brokenbar" unicode="&#xa6;" horiz-adv-x="277" 
d="M172 -100h-66v350h66v-350zM106 800h66v-350h-66v350z" />
    <glyph glyph-name="section" unicode="&#xa7;" horiz-adv-x="505" 
d="M50 572c0 44.667 17.167 79 51.5 103s83.5 36 147.5 36c74.667 0 132 -16.333 172 -49v-90c-34 30 -87.667 45 -161 45c-74.667 0 -112 -15.333 -112 -46c0 -26.667 36.667 -47 110 -61c128 -23.333 192 -77 192 -161c0 -48.667 -21.667 -85 -65 -109
c46.667 -24.667 70 -61 70 -109c0 -46 -18.5 -81.167 -55.5 -105.5s-90.833 -36.5 -161.5 -36.5c-79.333 0 -140.333 16.333 -183 49v90c38.667 -30 96.334 -45 173.001 -45c39.333 0 70.666 4.33301 93.999 13s35 21 35 37c0 25.333 -36 44 -108 56
c-67.333 11.333 -116.5 30 -147.5 56s-46.5 61.333 -46.5 106c0 50.667 20.667 88 62 112c-44.667 26 -67 62.333 -67 109zM153 362c0 -33.333 40.333 -57.333 121 -72c52 7.33301 78 25 78 53c0 30.667 -43.667 53.667 -131 69c-45.333 -4 -68 -20.667 -68 -50z" />
    <glyph glyph-name="dieresis" unicode="&#xa8;" horiz-adv-x="451" 
d="M118 578c-17.333 0 -31.5 5.33301 -42.5 16s-16.5 24.667 -16.5 42s5.5 31.333 16.5 42s25.167 16 42.5 16c16.667 0 30.334 -5.33301 41.001 -16s16 -24.667 16 -42s-5.33301 -31.333 -16 -42s-24.334 -16 -41.001 -16zM334 578c-17.333 0 -31.333 5.33301 -42 16
s-16 24.667 -16 42s5.33301 31.333 16 42s24.667 16 42 16c16.667 0 30.334 -5.33301 41.001 -16s16 -24.667 16 -42s-5.33301 -31.333 -16 -42s-24.334 -16 -41.001 -16z" />
    <glyph glyph-name="copyright" unicode="&#xa9;" horiz-adv-x="820" 
d="M410 -11c-99.333 0 -184.333 35.333 -255 106s-106 155.667 -106 255s35.333 184.333 106 255s155.667 106 255 106s184.333 -35.333 255 -106s106 -155.667 106 -255s-35.333 -184.333 -106 -255s-155.667 -106 -255 -106zM410 645
c-81.333 0 -150.833 -28.833 -208.5 -86.5s-86.5 -127.167 -86.5 -208.5s28.833 -150.833 86.5 -208.5s127.167 -86.5 208.5 -86.5s150.833 28.833 208.5 86.5s86.5 127.167 86.5 208.5s-28.833 150.833 -86.5 208.5s-127.167 86.5 -208.5 86.5zM424 169
c-55.333 0 -100.5 16.832 -135.5 50.499s-52.5 77.167 -52.5 130.5s17.5 96.833 52.5 130.5s80.167 50.5 135.5 50.5c45.333 0 83.333 -11 114 -33v-68c-26 27.333 -61 41 -105 41c-38 0 -69 -11.333 -93 -34s-36 -51.667 -36 -87s12 -64.166 36 -86.499s55 -33.5 93 -33.5
c44.667 0 79.667 13.667 105 41v-69c-32.667 -22 -70.667 -33 -114 -33z" />
    <glyph glyph-name="ordfeminine" unicode="&#xaa;" horiz-adv-x="425" 
d="M183 334c-44.667 0 -80.001 9.83301 -106.001 29.5s-39 46.5 -39 80.5c0 36 14.333 64 43 84s68 30 118 30c20.667 0 47.334 -2.33301 80.001 -7v14c0 48 -34 72 -102 72c-46 0 -82.333 -10.333 -109 -31v70c34 20.667 75.333 31 124 31c53.333 0 94.333 -11.5 123 -34.5
s43 -56.167 43 -99.5v-147c0 -22 14.667 -33 44 -33v-50c-8.66699 -5.33301 -21.334 -8 -38.001 -8c-31.333 0 -54.666 10.333 -69.999 31c-31.333 -21.333 -68.333 -32 -111 -32zM214.999 495c-30.667 0 -54.667 -4.5 -72 -13.5s-26 -21.167 -26 -36.5
c0 -30 26.333 -45 79 -45c36 0 63.667 9.66699 83 29v59c-28 4.66699 -49.333 7 -64 7z" />
    <glyph glyph-name="guillemotleft" unicode="&#xab;" horiz-adv-x="417" 
d="M301 115l-98 170l98 170h66l-70 -170l70 -170h-66zM39 285l98 170h66l-71 -170l71 -170h-66z" />
    <glyph glyph-name="logicalnot" unicode="&#xac;" horiz-adv-x="620" 
d="M89 367v66h443v-202h-66v136h-377z" />
    <glyph glyph-name="uni00AD" unicode="&#xad;" horiz-adv-x="380" 
d="M57 241v88h266v-88h-266z" />
    <glyph glyph-name="registered" unicode="&#xae;" horiz-adv-x="820" 
d="M410 -11c-99.333 0 -184.333 35.333 -255 106s-106 155.667 -106 255s35.333 184.333 106 255s155.667 106 255 106s184.333 -35.333 255 -106s106 -155.667 106 -255s-35.333 -184.333 -106 -255s-155.667 -106 -255 -106zM410 645
c-81.333 0 -150.833 -28.833 -208.5 -86.5s-86.5 -127.167 -86.5 -208.5s28.833 -150.833 86.5 -208.5s127.167 -86.5 208.5 -86.5s150.833 28.833 208.5 86.5s86.5 127.167 86.5 208.5s-28.833 150.833 -86.5 208.5s-127.167 86.5 -208.5 86.5zM341 175h-66v350h166
c34.667 0 63 -10 85 -30s33 -45.667 33 -77c0 -24 -6.66699 -45 -20 -63s-31.333 -30.667 -54 -38l92 -142h-79l-79 135h-78v-135zM341 367l93 -0.000976562c16.667 0 30.334 4.83301 41.001 14.5s16 21.834 16 36.501s-5.33301 26.667 -16 36s-24.334 14 -41.001 14h-93
v-101z" />
    <glyph glyph-name="macron" unicode="&#xaf;" horiz-adv-x="395" 
d="M59 586v65h275v-65h-275z" />
    <glyph glyph-name="degree" unicode="&#xb0;" horiz-adv-x="390" 
d="M195 705c38.667 0 71.334 -13.333 98.001 -40s40 -59.334 40 -98.001c0 -38 -13.333 -70.5 -40 -97.5s-59.334 -40.5 -98.001 -40.5s-71.334 13.5 -98.001 40.5s-40 59.5 -40 97.5c0 38.667 13.333 71.334 40 98.001s59.334 40 98.001 40zM123 567c0 -20 7 -37 21 -51
s31 -21 51 -21s37 7 51 21s21 31 21 51s-7 37 -21 51s-31 21 -51 21s-37 -7 -51 -21s-21 -31 -21 -51z" />
    <glyph glyph-name="plusminus" unicode="&#xb1;" horiz-adv-x="620" 
d="M89 381v66h188v175h66v-175h189v-66h-189v-174h-66v174h-188zM532 79h-443v65h443v-65z" />
    <glyph glyph-name="twosuperior" unicode="&#xb2;" horiz-adv-x="342" 
d="M302 365l-266 0.00195312v30l140 150c36 39.333 54 72.333 54 99c0 17.333 -7.16699 31.166 -21.5 41.499s-33.5 15.5 -57.5 15.5c-46.667 0 -82.667 -16.333 -108 -49v62c30 28 69.333 42 118 42c39.333 0 71 -9 95 -27s36 -42.333 36 -73
c0 -44.667 -24.667 -93.334 -74 -146.001l-88 -93h172v-52z" />
    <glyph glyph-name="threesuperior" unicode="&#xb3;" horiz-adv-x="344" 
d="M158 359c-48.667 0 -88.333 13.332 -119 39.999v64c26.667 -32.667 63.667 -49 111 -49c27.333 0 49.666 5.83301 66.999 17.5s26 27.5 26 47.5c0 16.667 -5.83301 30.334 -17.5 41.001s-26.167 16 -43.5 16h-49v50h41c16.667 0 30.334 5.16699 41.001 15.5
s16 23.5 16 39.5c0 18.667 -7.5 33.334 -22.5 44.001s-34.833 16 -59.5 16c-45.333 0 -81.333 -16.333 -108 -49v64c30.667 26.667 69.334 40 116.001 40c41.333 0 74.333 -9.66699 99 -29s37 -46 37 -80c0 -36.667 -13 -64.334 -39 -83.001c34 -19.333 51 -50 51 -92
c0 -35.333 -13.333 -63 -40 -83s-62.334 -30 -107.001 -30z" />
    <glyph glyph-name="acute" unicode="&#xb4;" horiz-adv-x="327" 
d="M60 555v67l207 110v-96z" />
    <glyph glyph-name="mu" unicode="&#xb5;" 
d="M68 -150v630.001h103v-280c0 -38.667 11.5 -68.334 34.5 -89.001s55.5 -31 97.5 -31c50 0 90.667 17.333 122 52v348h103v-480h-92l-6 40c-38 -32.667 -86 -49 -144 -49c-44.667 0 -83 8 -115 24v-165h-103z" />
    <glyph glyph-name="paragraph" unicode="&#xb6;" horiz-adv-x="607" 
d="M47 490c0 62 21.5 112.499 64.5 151.499s98.833 58.5 167.5 58.5h246v-746c0 -49.333 -13.167 -88.666 -39.5 -117.999s-61.5 -44 -105.5 -44c-30.667 0 -57 6.33301 -79 19v72c16 -12.667 36 -19 60 -19c25.333 0 45.5 7.66699 60.5 23s22.5 36.333 22.5 63v684h-85
v-634h-80v280c-68.667 0 -124.5 19.5 -167.5 58.5s-64.5 89.5 -64.5 151.5z" />
    <glyph glyph-name="periodcentered" unicode="&#xb7;" horiz-adv-x="214" 
d="M42 350c0 19.333 6 35 18 47s28 18 48 18c19.333 0 35 -6 47 -18s18 -27.667 18 -47c0 -18.667 -6.16699 -34.167 -18.5 -46.5s-27.833 -18.5 -46.5 -18.5c-20 0 -36 6 -48 18s-18 27.667 -18 47z" />
    <glyph glyph-name="cedilla" unicode="&#xb8;" horiz-adv-x="310" 
d="M60 -119c17.333 -14.667 40.332 -21.999 68.999 -21.999c33.333 0 50 8.66699 50 26c0 9.33301 -6.16699 17.5 -18.5 24.5s-29.166 11.5 -50.499 13.5l9 87h65l-5 -59c20.667 -4 37.667 -12.833 51 -26.5s20 -29.834 20 -48.501c0 -21.333 -9.5 -39.333 -28.5 -54
s-43.167 -22 -72.5 -22c-34 0 -63.667 9.33301 -89 28v53z" />
    <glyph glyph-name="onesuperior" unicode="&#xb9;" horiz-adv-x="244" 
d="M120 677l-80 -35v61l108 47h32v-385h-60v312z" />
    <glyph glyph-name="ordmasculine" unicode="&#xba;" horiz-adv-x="460" 
d="M230 708c56.667 0 103 -17.5 139 -52.5s54 -80.167 54 -135.5s-18 -100.5 -54 -135.5s-82.333 -52.5 -139 -52.5s-102.834 17.5 -138.501 52.5s-53.5 80.167 -53.5 135.5s17.833 100.5 53.5 135.5s81.834 52.5 138.501 52.5zM119 520c0 -34 10.3311 -61.833 30.998 -83.5
s47.334 -32.5 80.001 -32.5s59.334 10.833 80.001 32.5s31 49.5 31 83.5c0 34.667 -10.167 62.667 -30.5 84s-47.166 32 -80.499 32c-32.667 0 -59.334 -10.667 -80.001 -32s-31 -49.333 -31 -84z" />
    <glyph glyph-name="guillemotright" unicode="&#xbb;" horiz-adv-x="417" 
d="M50 455h66l98 -170l-98 -170h-66l70 170zM285 285l-71 170h66l98 -170l-98 -170h-66z" />
    <glyph glyph-name="onequarter" unicode="&#xbc;" horiz-adv-x="721" 
d="M388 107l222 278h41v-265h49v-46h-49v-74h-60v74h-203v33zM145 0h-80l489 700h80zM40 592v61l108 47h32v-385h-60v312zM457 120h134v167z" />
    <glyph glyph-name="onehalf" unicode="&#xbd;" horiz-adv-x="758" 
d="M65 0l489 700h80l-489 -700h-80zM719 0l-266 0.000976562v30l140 150c35.333 38.667 53 71.667 53 99c0 17.333 -7.16699 31.166 -21.5 41.499s-33.5 15.5 -57.5 15.5c-46 0 -81.667 -16.333 -107 -49v62c30 28 69.333 42 118 42c39.333 0 70.833 -9 94.5 -27
s35.5 -42.333 35.5 -73c0 -45.333 -24.333 -94 -73 -146l-88 -93h172v-52zM40 592.001v61l108 47h32v-385h-60v312z" />
    <glyph glyph-name="threequarters" unicode="&#xbe;" horiz-adv-x="783" 
d="M450 107l222 278h41v-265h49v-46h-49v-74h-61v74h-202v33zM207 0h-81l490 700h80zM158 309c-48.667 0 -88.333 13.332 -119 39.999v64c26.667 -32.667 63.667 -49 111 -49c27.333 0 49.666 5.83301 66.999 17.5s26 27.5 26 47.5c0 16.667 -5.83301 30.334 -17.5 41.001
s-26.167 16 -43.5 16h-49v50h41c16.667 0 30.334 5.16699 41.001 15.5s16 23.5 16 39.5c0 18.667 -7.5 33.334 -22.5 44.001s-34.833 16 -59.5 16c-45.333 0 -81.333 -16.333 -108 -49v64c30.667 26.667 69.334 40 116.001 40c41.333 0 74.333 -9.66699 99 -29
s37 -46 37 -80c0 -36.667 -13 -64.334 -39 -83.001c34 -19.333 51 -50 51 -92c0 -35.333 -13.333 -63 -40 -83s-62.334 -30 -107.001 -30zM518.001 119.999h134v166z" />
    <glyph glyph-name="questiondown" unicode="&#xbf;" horiz-adv-x="524" 
d="M43 -39c0 46.667 16.5 90.168 49.5 130.501s77.5 70.833 133.5 91.5l2 74h86l4 -125c-51.333 -14.667 -92.333 -35.834 -123 -63.501s-46 -57.5 -46 -89.5c0 -29.333 12.667 -52.5 38 -69.5s59.333 -25.5 102 -25.5c86 0 151.667 30 197 90v-106
c-56 -52.667 -128 -79 -216 -79c-68.667 0 -123.667 15.5 -165 46.5s-62 72.833 -62 125.5zM271 361.001c-19.333 0 -35 6 -47 18s-18 27.667 -18 47s6 35 18 47s27.667 18 47 18s35 -6 47 -18s18 -27.667 18 -47s-6 -35 -18 -47s-27.667 -18 -47 -18z" />
    <glyph glyph-name="Agrave" unicode="&#xc0;" horiz-adv-x="798" 
d="M20 0l354 700h50l354 -700h-121l-70 144h-376l-70 -144h-121zM399 531l-142 -292h284zM277 929l202 -110v-68l-202 80v98z" />
    <glyph glyph-name="Aacute" unicode="&#xc1;" horiz-adv-x="798" 
d="M20 0l354 700h50l354 -700h-121l-70 144h-376l-70 -144h-121zM399 531l-142 -292h284zM527 833l-208 -82v68l208 110v-96z" />
    <glyph glyph-name="Acircumflex" unicode="&#xc2;" horiz-adv-x="798" 
d="M20 0l354 700h50l354 -700h-121l-70 144h-376l-70 -144h-121zM399 531l-142 -292h284zM399 814l-152 -58v65l152 86l152 -86v-65z" />
    <glyph glyph-name="Atilde" unicode="&#xc3;" horiz-adv-x="798" 
d="M20 0l354 700h50l354 -700h-121l-70 144h-376l-70 -144h-121zM399 531l-142 -292h284zM337 889c22 0 44 -8.33301 66 -25s38 -25 48 -25c11.333 0 20.833 4.33301 28.5 13s11.5 19.667 11.5 33h77c0 -35.333 -10 -64.166 -30 -86.499s-45.667 -33.5 -77 -33.5
c-22 0 -43.833 8.33301 -65.5 25s-37.834 25 -48.501 25c-11.333 0 -20.666 -4.33301 -27.999 -13s-11 -19.334 -11 -32.001h-77c0 34.667 9.83301 63.167 29.5 85.5s45.167 33.5 76.5 33.5z" />
    <glyph glyph-name="Adieresis" unicode="&#xc4;" horiz-adv-x="798" 
d="M141 0h-121l354 700h50l354 -700h-121l-70 144h-376zM399 531l-142 -292h284zM291 894c16.667 0 30.5 -5.33301 41.5 -16s16.5 -24.667 16.5 -42s-5.5 -31.333 -16.5 -42s-24.833 -16 -41.5 -16s-30.5 5.33301 -41.5 16s-16.5 24.667 -16.5 42s5.5 31.333 16.5 42
s24.833 16 41.5 16zM450 836c0 17.333 5.33301 31.333 16 42s24.667 16 42 16c16.667 0 30.334 -5.5 41.001 -16.5s16 -24.833 16 -41.5s-5.33301 -30.5 -16 -41.5s-24.334 -16.5 -41.001 -16.5c-17.333 0 -31.333 5.33301 -42 16s-16 24.667 -16 42z" />
    <glyph glyph-name="Aring" unicode="&#xc5;" horiz-adv-x="798" 
d="M20 0l354 700h50l354 -700h-121l-70 144h-376l-70 -144h-121zM399 531l-142 -292h284zM399 955c26.667 0 49.167 -9.33301 67.5 -28s27.5 -41 27.5 -67s-9.16699 -48.333 -27.5 -67s-40.833 -28 -67.5 -28c-26 0 -48.333 9.33301 -67 28s-28 41 -28 67
s9.33301 48.333 28 67s41 28 67 28zM359 860c0 -11.333 4 -21 12 -29s17.333 -12 28 -12c11.333 0 21 4.16699 29 12.5s12 17.833 12 28.5s-4 20.167 -12 28.5s-17.667 12.5 -29 12.5c-10.667 0 -20 -4 -28 -12s-12 -17.667 -12 -29z" />
    <glyph glyph-name="AE" unicode="&#xc6;" horiz-adv-x="1002" 
d="M144 0h-124l401 700h535v-94h-388v-205h313v-94h-313v-212h393v-95h-502v147h-233zM459 566l-180 -324h180v324z" />
    <glyph glyph-name="Ccedilla" unicode="&#xc7;" horiz-adv-x="710" 
d="M368 -9c-97.333 9.33301 -175.997 46.8311 -235.997 112.498s-90 147.834 -90 246.501c0 106.667 34.667 193.5 104 260.5s158.666 100.5 267.999 100.5c91.333 0 169.666 -24.667 234.999 -74v-114c-54.667 58.667 -128 88 -220 88
c-81.333 0 -147.5 -24.167 -198.5 -72.5s-76.5 -111.166 -76.5 -188.499s25.5 -140 76.5 -188s117.167 -72 198.5 -72c92.667 0 166 29 220 87v-114c-58.667 -45.333 -130.334 -70 -215.001 -74l-4 -38c20.667 -4 37.667 -12.667 51 -26s20 -29.333 20 -48
c0 -22 -9.33301 -40.167 -28 -54.5s-43 -21.5 -73 -21.5c-34.667 0 -64.334 9 -89.001 27v53c18.667 -14.667 41.667 -22 69 -22c34 0 51 8.66699 51 26c0 9.33301 -6.16699 17.5 -18.5 24.5s-29.166 11.5 -50.499 13.5z" />
    <glyph glyph-name="Egrave" unicode="&#xc8;" horiz-adv-x="655" 
d="M83 0v700h526v-94h-417v-205h342v-94h-342v-212h422v-95h-531zM429 751l-202 80v98l202 -110v-68z" />
    <glyph glyph-name="Eacute" unicode="&#xc9;" horiz-adv-x="655" 
d="M83 0v700h526v-94h-417v-205h342v-94h-342v-212h422v-95h-531zM477 833l-208 -82v68l208 110v-96z" />
    <glyph glyph-name="Ecircumflex" unicode="&#xca;" horiz-adv-x="655" 
d="M83 0v700h526v-94h-417v-205h342v-94h-342v-212h422v-95h-531zM349 814l-152 -58v65l152 86l152 -86v-65z" />
    <glyph glyph-name="Edieresis" unicode="&#xcb;" horiz-adv-x="655" 
d="M83 700h526v-94h-417v-205h342v-94h-342v-212h422v-95h-531v700zM399 836c0 17.333 5.5 31.333 16.5 42s24.833 16 41.5 16s30.5 -5.33301 41.5 -16s16.5 -24.667 16.5 -42s-5.5 -31.333 -16.5 -42s-24.833 -16 -41.5 -16s-30.5 5.33301 -41.5 16s-16.5 24.667 -16.5 42z
M241 778c-16.667 0 -30.5 5.33301 -41.5 16s-16.5 24.667 -16.5 42s5.5 31.333 16.5 42s24.833 16 41.5 16s30.334 -5.33301 41.001 -16s16 -24.667 16 -42s-5.33301 -31.333 -16 -42s-24.334 -16 -41.001 -16z" />
    <glyph glyph-name="Igrave" unicode="&#xcc;" horiz-adv-x="274" 
d="M83 700h109v-700h-109v700zM218 751l-203 80v98l203 -110v-68z" />
    <glyph glyph-name="Iacute" unicode="&#xcd;" horiz-adv-x="274" 
d="M83 700h109v-700h-109v700zM57 751v68l208 110v-96z" />
    <glyph glyph-name="Icircumflex" unicode="&#xce;" horiz-adv-x="274" 
d="M83 700h109v-700h-109v700zM-14 821l152 86l151 -86v-65l-151 58l-152 -58v65z" />
    <glyph glyph-name="Idieresis" unicode="&#xcf;" horiz-adv-x="274" 
d="M192 0h-109v700h109v-700zM237 778c-16.667 0 -30.334 5.33301 -41.001 16s-16 24.667 -16 42s5.33301 31.333 16 42s24.334 16 41.001 16s30.5 -5.33301 41.5 -16s16.5 -24.667 16.5 -42s-5.5 -31.333 -16.5 -42s-24.833 -16 -41.5 -16zM-20 836
c0 17.333 5.33301 31.333 16 42s24.667 16 42 16c16.667 0 30.334 -5.33301 41.001 -16s16 -24.667 16 -42s-5.33301 -31.333 -16 -42s-24.334 -16 -41.001 -16c-17.333 0 -31.333 5.33301 -42 16s-16 24.667 -16 42z" />
    <glyph glyph-name="Eth" unicode="&#xd0;" horiz-adv-x="791" 
d="M1 386h82v314h292c106 0 192.667 -32.667 260 -98s101 -149.333 101 -252s-33.667 -186.667 -101 -252s-154 -98 -260 -98h-292v320h-82v66zM192 386l171 0.000976562v-66h-171v-225h183c73.333 0 133.333 23.667 180 71s70 108.666 70 183.999
s-23.333 136.833 -70 184.5s-106.667 71.5 -180 71.5h-183v-220z" />
    <glyph glyph-name="Ntilde" unicode="&#xd1;" horiz-adv-x="853" 
d="M83 695h61l518 -505v510h106v-700h-62l-517 504v-504h-106v695zM257 770c0 35.333 10 64 30 86s45.667 33 77 33c22.667 0 44.667 -8.33301 66 -25s37.333 -25 48 -25c11.333 0 20.666 4.33301 27.999 13s11 19.667 11 33h78c0 -34.667 -10 -63.334 -30 -86.001
s-45.667 -34 -77 -34c-22.667 0 -44.667 8.33301 -66 25s-37.333 25 -48 25c-11.333 0 -20.666 -4.16699 -27.999 -12.5s-11 -19.166 -11 -32.499h-78z" />
    <glyph glyph-name="Ograve" unicode="&#xd2;" horiz-adv-x="841" 
d="M54 350c0 106.667 34 193.5 102 260.5s156.333 100.5 265 100.5c108 0 196 -33.5 264 -100.5s102 -153.833 102 -260.5s-34 -193.5 -102 -260.5s-156 -100.5 -264 -100.5c-108.667 0 -197 33.5 -265 100.5s-102 153.833 -102 260.5zM421 90
c75.333 0 136.5 24.167 183.5 72.5s70.5 110.833 70.5 187.5c0 77.333 -23.667 140.166 -71 188.499s-108.333 72.5 -183 72.5c-75.333 0 -136.666 -24.167 -183.999 -72.5s-71 -111.166 -71 -188.499c0 -76.667 23.667 -139.167 71 -187.5s108.666 -72.5 183.999 -72.5z
M299 831v98l202 -110v-68z" />
    <glyph glyph-name="Oacute" unicode="&#xd3;" horiz-adv-x="841" 
d="M54 350c0 106.667 34 193.5 102 260.5s156.333 100.5 265 100.5c108 0 196 -33.5 264 -100.5s102 -153.833 102 -260.5s-34 -193.5 -102 -260.5s-156 -100.5 -264 -100.5c-108.667 0 -197 33.5 -265 100.5s-102 153.833 -102 260.5zM421 90
c75.333 0 136.5 24.167 183.5 72.5s70.5 110.833 70.5 187.5c0 77.333 -23.667 140.166 -71 188.499s-108.333 72.5 -183 72.5c-75.333 0 -136.666 -24.167 -183.999 -72.5s-71 -111.166 -71 -188.499c0 -76.667 23.667 -139.167 71 -187.5s108.666 -72.5 183.999 -72.5z
M341 819l207 110v-96l-207 -82v68z" />
    <glyph glyph-name="Ocircumflex" unicode="&#xd4;" horiz-adv-x="841" 
d="M421 711c108 0 196 -33.5 264 -100.5s102 -153.833 102 -260.5s-34 -193.5 -102 -260.5s-156 -100.5 -264 -100.5c-108.667 0 -197 33.5 -265 100.5s-102 153.833 -102 260.5s34 193.5 102 260.5s156.333 100.5 265 100.5zM421 90c75.333 0 136.5 24.167 183.5 72.5
s70.5 110.833 70.5 187.5c0 77.333 -23.667 140.166 -71 188.499s-108.333 72.5 -183 72.5c-75.333 0 -136.666 -24.167 -183.999 -72.5s-71 -111.166 -71 -188.499c0 -76.667 23.667 -139.167 71 -187.5s108.666 -72.5 183.999 -72.5zM421 814l-152 -58v65l152 86l151 -86
v-65z" />
    <glyph glyph-name="Otilde" unicode="&#xd5;" horiz-adv-x="841" 
d="M421 711c108 0 196 -33.5 264 -100.5s102 -153.833 102 -260.5s-34 -193.5 -102 -260.5s-156 -100.5 -264 -100.5c-108.667 0 -197 33.5 -265 100.5s-102 153.833 -102 260.5s34 193.5 102 260.5s156.333 100.5 265 100.5zM166 350c0 -76.667 23.667 -139.167 71 -187.5
s108.666 -72.5 183.999 -72.5s136.5 24.167 183.5 72.5s70.5 110.833 70.5 187.5c0 77.333 -23.667 140.166 -71 188.499s-108.333 72.5 -183 72.5c-75.333 0 -136.666 -24.167 -183.999 -72.5s-71 -111.166 -71 -188.499zM329 770l-77 -0.000976562c0 35.333 10 64 30 86
s45.667 33 77 33c17.333 0 32.833 -4.16699 46.5 -12.5s25.834 -16.666 36.501 -24.999s21 -12.5 31 -12.5c11.333 0 20.666 4.33301 27.999 13s11 19.667 11 33h77c0 -35.333 -10 -64.166 -30 -86.499s-45.333 -33.5 -76 -33.5c-22 0 -44 8.33301 -66 25s-38 25 -48 25
c-11.333 0 -20.833 -4.33301 -28.5 -13s-11.5 -19.334 -11.5 -32.001z" />
    <glyph glyph-name="Odieresis" unicode="&#xd6;" horiz-adv-x="841" 
d="M421 711c108 0 196 -33.5 264 -100.5s102 -153.833 102 -260.5s-34 -193.5 -102 -260.5s-156 -100.5 -264 -100.5c-108.667 0 -197 33.5 -265 100.5s-102 153.833 -102 260.5s34 193.5 102 260.5s156.333 100.5 265 100.5zM166 350c0 -76.667 23.667 -139.167 71 -187.5
s108.666 -72.5 183.999 -72.5s136.5 24.167 183.5 72.5s70.5 110.833 70.5 187.5c0 77.333 -23.667 140.166 -71 188.499s-108.333 72.5 -183 72.5c-75.333 0 -136.666 -24.167 -183.999 -72.5s-71 -111.166 -71 -188.499zM313 894c16.667 0 30.334 -5.33301 41.001 -16
s16 -24.667 16 -42s-5.33301 -31.333 -16 -42s-24.334 -16 -41.001 -16c-17.333 0 -31.333 5.33301 -42 16s-16 24.667 -16 42s5.33301 31.333 16 42s24.667 16 42 16zM529 894c16.667 0 30.334 -5.33301 41.001 -16s16 -24.667 16 -42s-5.33301 -31.333 -16 -42
s-24.334 -16 -41.001 -16s-30.5 5.33301 -41.5 16s-16.5 24.667 -16.5 42s5.5 31.333 16.5 42s24.833 16 41.5 16z" />
    <glyph glyph-name="multiply" unicode="&#xd7;" horiz-adv-x="620" 
d="M155 148l-47 47l155 155l-155 155l47 47l155 -155l155 155l47 -47l-155 -155l155 -155l-47 -47l-155 155z" />
    <glyph glyph-name="Oslash" unicode="&#xd8;" horiz-adv-x="841" 
d="M421 711c56 0 107.333 -9.66895 154 -29.002l29 51l57 -33l-28 -48c48.667 -31.333 86.5 -73.166 113.5 -125.499s40.5 -111.166 40.5 -176.499c0 -106.667 -34 -193.5 -102 -260.5s-156 -100.5 -264 -100.5c-54.667 0 -106 9.33301 -154 28l-29 -50l-57 33l28 48
c-49.333 31.333 -87.5 73 -114.5 125s-40.5 111 -40.5 177c0 106.667 34 193.5 102 260.5s156.333 100.5 265 100.5zM166 349.998c0 -90.667 31.999 -160.668 95.999 -210.001l261 452c-32.667 12.667 -66.667 19 -102 19c-75.333 0 -136.666 -24.167 -183.999 -72.5
s-71 -111.166 -71 -188.499zM420.999 89.9971c75.333 0 136.5 24.167 183.5 72.5s70.5 110.833 70.5 187.5c0 91.333 -31.667 161.333 -95 210l-261 -452c31.333 -12 65.333 -18 102 -18z" />
    <glyph glyph-name="Ugrave" unicode="&#xd9;" horiz-adv-x="810" 
d="M76 308l0.00195312 392h109v-388c0 -66 20.667 -119.5 62 -160.5s94.666 -61.5 159.999 -61.5c64.667 0 117.167 20.5 157.5 61.5s60.5 94.5 60.5 160.5v388h109v-392c0 -94 -30.333 -170.667 -91 -230s-139.334 -89 -236.001 -89c-97.333 0 -176.833 29.667 -238.5 89
s-92.5 136 -92.5 230zM283.002 929l202 -110v-68l-202 80v98z" />
    <glyph glyph-name="Uacute" unicode="&#xda;" horiz-adv-x="810" 
d="M76 308l0.00195312 392h109v-388c0 -66 20.667 -119.5 62 -160.5s94.666 -61.5 159.999 -61.5c64.667 0 117.167 20.5 157.5 61.5s60.5 94.5 60.5 160.5v388h109v-392c0 -94 -30.333 -170.667 -91 -230s-139.334 -89 -236.001 -89c-97.333 0 -176.833 29.667 -238.5 89
s-92.5 136 -92.5 230zM533.002 833l-208 -82v68l208 110v-96z" />
    <glyph glyph-name="Ucircumflex" unicode="&#xdb;" horiz-adv-x="810" 
d="M76 308l0.00195312 392h109v-388c0 -66 20.667 -119.5 62 -160.5s94.666 -61.5 159.999 -61.5c64.667 0 117.167 20.5 157.5 61.5s60.5 94.5 60.5 160.5v388h109v-392c0 -94 -30.333 -170.667 -91 -230s-139.334 -89 -236.001 -89c-97.333 0 -176.833 29.667 -238.5 89
s-92.5 136 -92.5 230zM253.002 756v65l152 86l152 -86v-65l-152 58z" />
    <glyph glyph-name="Udieresis" unicode="&#xdc;" horiz-adv-x="810" 
d="M76 308l0.00195312 392h109v-388c0 -66 20.667 -119.5 62 -160.5s94.666 -61.5 159.999 -61.5c64.667 0 117.167 20.5 157.5 61.5s60.5 94.5 60.5 160.5v388h109v-392c0 -94 -30.333 -170.667 -91 -230s-139.334 -89 -236.001 -89c-97.333 0 -176.833 29.667 -238.5 89
s-92.5 136 -92.5 230zM513.002 894c16.667 0 30.5 -5.33301 41.5 -16s16.5 -24.667 16.5 -42s-5.5 -31.333 -16.5 -42s-24.833 -16 -41.5 -16s-30.334 5.33301 -41.001 16s-16 24.667 -16 42s5.33301 31.333 16 42s24.334 16 41.001 16zM297.002 894
c16.667 0 30.334 -5.33301 41.001 -16s16 -24.667 16 -42s-5.33301 -31.333 -16 -42s-24.334 -16 -41.001 -16s-30.5 5.33301 -41.5 16s-16.5 24.667 -16.5 42s5.5 31.333 16.5 42s24.833 16 41.5 16z" />
    <glyph glyph-name="Yacute" unicode="&#xdd;" horiz-adv-x="724" 
d="M308 294l-291 406h132l213 -307l213 307h132l-291 -406v-294h-108v294zM282 819l208 110v-96l-208 -82v68z" />
    <glyph glyph-name="Thorn" unicode="&#xde;" horiz-adv-x="671" 
d="M192 0h-109v700h109v-135h201c68.667 0 124.334 -19.5 167.001 -58.5s64 -89.5 64 -151.5s-21.333 -112.5 -64 -151.5s-98.334 -58.5 -167.001 -58.5h-201v-145zM383 471h-191v-231h191c38 0 69.167 10.667 93.5 32s36.5 49 36.5 83s-12.167 61.833 -36.5 83.5
s-55.5 32.5 -93.5 32.5z" />
    <glyph glyph-name="germandbls" unicode="&#xdf;" horiz-adv-x="589" 
d="M73 0l0.000976562 543.998c0 54.667 19.833 99.5 59.5 134.5s90.834 52.5 153.501 52.5s114 -17.667 154 -53s60 -80.666 60 -135.999c0 -68 -27.333 -119.667 -82 -155c39.333 -17.333 70.166 -42.333 92.499 -75s33.5 -70 33.5 -112c0 -62 -23.333 -112.667 -70 -152
s-106.667 -59 -180 -59v95c43.333 0 78.666 11.833 105.999 35.5s41 54.167 41 91.5s-13.667 67.833 -41 91.5s-62.666 35.5 -105.999 35.5v89c30 0 54.667 9.83301 74 29.5s29 44.834 29 75.501s-10.333 55.667 -31 75s-47.334 29 -80.001 29
c-32 0 -58.333 -9.33301 -79 -28s-31 -43 -31 -73v-535h-103z" />
    <glyph glyph-name="agrave" unicode="&#xe0;" horiz-adv-x="553" 
d="M237 -8c-59.333 0 -106.167 13.168 -140.5 39.501s-51.5 62.166 -51.5 107.499c0 47.333 18.833 84.333 56.5 111s89.834 40 156.501 40c30.667 0 67 -3.33301 109 -10v20c0 64.667 -45.667 97 -137 97c-62 0 -110.667 -14 -146 -42v92c45.333 28 100.666 42 165.999 42
c70 0 124.167 -15.5 162.5 -46.5s57.5 -74.833 57.5 -131.5v-197c0 -29.333 19.667 -44 59 -44v-66c-11.333 -6.66699 -28.333 -10 -51 -10c-41.333 0 -72 13.333 -92 40c-40 -28 -89.667 -42 -149 -42zM147.999 139.001c0 -18.667 9.49902 -33.333 28.499 -44
s45.167 -16 78.5 -16c48 0 85.333 13.333 112 40v79c-35.333 5.33301 -64.333 8 -87 8c-41.333 0 -73.666 -6 -96.999 -18s-35 -28.333 -35 -49zM139.998 631.002v97l202 -109v-68z" />
    <glyph glyph-name="aacute" unicode="&#xe1;" horiz-adv-x="553" 
d="M45 139c0 47.333 18.832 84.334 56.499 111.001s89.834 40 156.501 40c30.667 0 67 -3.33301 109 -10v20c0 64.667 -45.667 97 -137 97c-62 0 -110.667 -14 -146 -42v92c45.333 28 100.666 42 165.999 42c70 0 124.167 -15.5 162.5 -46.5s57.5 -74.833 57.5 -131.5v-197
c0 -29.333 19.667 -44 59 -44v-66c-11.333 -6.66699 -28.333 -10 -51 -10c-41.333 0 -72 13.333 -92 40c-40 -28 -89.667 -42 -149 -42s-106.166 13.167 -140.499 39.5s-51.5 62.166 -51.5 107.499zM147.999 139.001c0 -18.667 9.49902 -33.333 28.499 -44
s45.167 -16 78.5 -16c48 0 85.333 13.333 112 40v79c-35.333 5.33301 -64.333 8 -87 8c-41.333 0 -73.666 -6 -96.999 -18s-35 -28.333 -35 -49zM181.998 619.002l208 110v-96l-208 -82v68z" />
    <glyph glyph-name="acircumflex" unicode="&#xe2;" horiz-adv-x="553" 
d="M237 -8c-59.333 0 -106.167 13.168 -140.5 39.501s-51.5 62.166 -51.5 107.499c0 47.333 18.833 84.333 56.5 111s89.834 40 156.501 40c30.667 0 67 -3.33301 109 -10v20c0 64.667 -45.667 97 -137 97c-62 0 -110.667 -14 -146 -42v92c45.333 28 100.666 42 165.999 42
c70 0 124.167 -15.5 162.5 -46.5s57.5 -74.833 57.5 -131.5v-197c0 -29.333 19.667 -44 59 -44v-66c-11.333 -6.66699 -28.333 -10 -51 -10c-41.333 0 -72 13.333 -92 40c-40 -28 -89.667 -42 -149 -42zM147.999 139.001c0 -18.667 9.49902 -33.333 28.499 -44
s45.167 -16 78.5 -16c48 0 85.333 13.333 112 40v79c-35.333 5.33301 -64.333 8 -87 8c-41.333 0 -73.666 -6 -96.999 -18s-35 -28.333 -35 -49zM261.998 614.002l-152 -58v65l152 86l152 -86v-65z" />
    <glyph glyph-name="atilde" unicode="&#xe3;" horiz-adv-x="553" 
d="M237 -8c-59.333 0 -106.167 13.168 -140.5 39.501s-51.5 62.166 -51.5 107.499c0 47.333 18.833 84.333 56.5 111s89.834 40 156.501 40c30.667 0 67 -3.33301 109 -10v20c0 64.667 -45.667 97 -137 97c-62 0 -110.667 -14 -146 -42v92c45.333 28 100.666 42 165.999 42
c70 0 124.167 -15.5 162.5 -46.5s57.5 -74.833 57.5 -131.5v-197c0 -29.333 19.667 -44 59 -44v-66c-11.333 -6.66699 -28.333 -10 -51 -10c-41.333 0 -72 13.333 -92 40c-40 -28 -89.667 -42 -149 -42zM170.999 570.001l-77.999 0.000976562c0 35.333 10 64 30 86
s45.667 33 77 33c22.667 0 44.667 -8.16699 66 -24.5s37.333 -24.5 48 -24.5c11.333 0 20.666 4.16699 27.999 12.5s11 19.166 11 32.499h78c0 -35.333 -10 -64.166 -30 -86.499s-45.667 -33.5 -77 -33.5c-22 0 -43.833 8.33301 -65.5 25s-37.834 25 -48.501 25
c-11.333 0 -20.666 -4.33301 -27.999 -13s-11 -19.334 -11 -32.001zM148 139.002c0 -18.667 9.49902 -33.333 28.499 -44s45.167 -16 78.5 -16c48 0 85.333 13.333 112 40v79c-35.333 5.33301 -64.333 8 -87 8c-41.333 0 -73.666 -6 -96.999 -18s-35 -28.333 -35 -49z" />
    <glyph glyph-name="adieresis" unicode="&#xe4;" horiz-adv-x="553" 
d="M237 -8c-59.333 0 -106.167 13.168 -140.5 39.501s-51.5 62.166 -51.5 107.499c0 47.333 18.833 84.333 56.5 111s89.834 40 156.501 40c30.667 0 67 -3.33301 109 -10v20c0 64.667 -45.667 97 -137 97c-62 0 -110.667 -14 -146 -42v92c45.333 28 100.666 42 165.999 42
c70 0 124.167 -15.5 162.5 -46.5s57.5 -74.833 57.5 -131.5v-197c0 -29.333 19.667 -44 59 -44v-66c-11.333 -6.66699 -28.333 -10 -51 -10c-41.333 0 -72 13.333 -92 40c-40 -28 -89.667 -42 -149 -42zM279.999 206.001c-41.333 0 -73.667 -5.99902 -97 -17.999
s-35 -28.333 -35 -49c0 -18.667 9.5 -33.334 28.5 -44.001s45.167 -16 78.5 -16c48 0 85.333 13.333 112 40v79c-35.333 5.33301 -64.333 8 -87 8zM95.998 636.002c0 16.667 5.33301 30.334 16 41.001s24.667 16 42 16s31.333 -5.33301 42 -16s16 -24.334 16 -41.001
c0 -17.333 -5.33301 -31.333 -16 -42s-24.667 -16 -42 -16s-31.333 5.33301 -42 16s-16 24.667 -16 42zM370.998 578.002c-16.667 0 -30.5 5.33301 -41.5 16s-16.5 24.667 -16.5 42c0 16.667 5.33301 30.334 16 41.001s24.667 16 42 16c16.667 0 30.334 -5.33301 41.001 -16
s16 -24.334 16 -41.001s-5.33301 -30.5 -16 -41.5s-24.334 -16.5 -41.001 -16.5z" />
    <glyph glyph-name="aring" unicode="&#xe5;" horiz-adv-x="553" 
d="M237 -8c-59.333 0 -106.167 13.168 -140.5 39.501s-51.5 62.166 -51.5 107.499c0 47.333 18.833 84.333 56.5 111s89.834 40 156.501 40c30.667 0 67 -3.33301 109 -10v20c0 64.667 -45.667 97 -137 97c-62 0 -110.667 -14 -146 -42v92c45.333 28 100.666 42 165.999 42
c70 0 124.167 -15.5 162.5 -46.5s57.5 -74.833 57.5 -131.5v-197c0 -29.333 19.667 -44 59 -44v-66c-11.333 -6.66699 -28.333 -10 -51 -10c-41.333 0 -72 13.333 -92 40c-40 -28 -89.667 -42 -149 -42zM261.999 565.001c-26.667 0 -49.167 9.33301 -67.5 28
s-27.5 41 -27.5 67s9.16699 48.333 27.5 67s40.833 28 67.5 28s49.167 -9.33301 67.5 -28s27.5 -41 27.5 -67s-9.16699 -48.333 -27.5 -67s-40.833 -28 -67.5 -28zM279.999 206.001c-41.333 0 -73.667 -5.99902 -97 -17.999s-35 -28.333 -35 -49
c0 -18.667 9.5 -33.334 28.5 -44.001s45.167 -16 78.5 -16c48 0 85.333 13.333 112 40v79c-35.333 5.33301 -64.333 8 -87 8zM261.998 701.002c-10.667 0 -20.167 -4.16699 -28.5 -12.5s-12.5 -17.833 -12.5 -28.5s4.16699 -20.167 12.5 -28.5s17.833 -12.5 28.5 -12.5
s20.167 4.16699 28.5 12.5s12.5 17.833 12.5 28.5s-4.16699 20.167 -12.5 28.5s-17.833 12.5 -28.5 12.5z" />
    <glyph glyph-name="ae" unicode="&#xe6;" horiz-adv-x="896" 
d="M45 139c0 47.333 18.833 84.335 56.5 111.002s89.834 40 156.501 40c30.667 0 67 -3.33301 109 -10v20c0 64.667 -46 97 -138 97c-61.333 0 -109.666 -14 -144.999 -42v92c45.333 28 100.666 42 165.999 42c85.333 0 146.666 -22.667 183.999 -68
c45.333 46.667 104.333 70 177 70c76 0 135.833 -26.333 179.5 -79s62.167 -121.334 55.5 -206.001h-374c10 -38.667 32.5 -69 67.5 -91s78.5 -33 130.5 -33c62.667 0 113.667 16 153 48v-94c-48.667 -31.333 -105.667 -47 -171 -47c-97.333 0 -172.333 29.333 -225 88
c-44.667 -56.667 -108.667 -85 -192 -85c-58 0 -104.167 13.167 -138.5 39.5s-51.5 62.166 -51.5 107.499zM471 288.002h273.999c-3.33301 34.667 -17 62.334 -41 83.001s-54.333 31 -91 31s-67.667 -10.333 -93 -31s-41.666 -48.334 -48.999 -83.001zM277.999 206.002
c-40 0 -71.668 -5.99902 -95.001 -17.999s-35 -28.333 -35 -49c0 -18.667 9.16699 -33.334 27.5 -44.001s42.833 -16 73.5 -16c60 0 106 20.667 138 62c-7.33301 16 -12.666 35 -15.999 57c-45.333 5.33301 -76.333 8 -93 8z" />
    <glyph glyph-name="ccedilla" unicode="&#xe7;" horiz-adv-x="506" 
d="M264 -8c-66 8.66699 -119.169 35.498 -159.502 80.498s-60.5 100.833 -60.5 167.5c0 74 24.5 134.333 73.5 181s112.167 70 189.5 70c54 0 103 -13.333 147 -40v-97c-33.333 30 -75.666 45 -126.999 45c-52.667 0 -95.334 -14.667 -128.001 -44s-49 -67.666 -49 -114.999
s16.333 -85.666 49 -114.999s75.334 -44 128.001 -44c50.667 0 93 15 127 45v-97c-36.667 -23.333 -78 -36.333 -124 -39l-4 -39c20 -4 36.833 -12.667 50.5 -26s20.5 -29.333 20.5 -48c0 -22 -9.5 -40.167 -28.5 -54.5s-43.5 -21.5 -73.5 -21.5
c-35.333 0 -64.666 9 -87.999 27v53c18.667 -14.667 41.667 -22 69 -22c33.333 0 50 8.66699 50 26c0 9.33301 -6.16699 17.5 -18.5 24.5s-28.833 11.5 -49.5 13.5z" />
    <glyph glyph-name="egrave" unicode="&#xe8;" horiz-adv-x="572" 
d="M43 244c0 72.667 22.668 132 68.001 178s104.333 69 177 69c76 0 135.667 -26.333 179 -79s61.666 -121.334 54.999 -206.001h-374c10 -38.667 32.667 -69 68 -91s79 -33 131 -33c62.667 0 113.667 16 153 48v-94c-50 -31.333 -106.667 -47 -170 -47
c-86.667 0 -156.167 23.333 -208.5 70s-78.5 108.334 -78.5 185.001zM147.001 288h273.999c-2.66699 34.667 -16.167 62.334 -40.5 83.001s-54.833 31 -91.5 31s-67.667 -10.333 -93 -31s-41.666 -48.334 -48.999 -83.001zM165 728l202 -109v-68l-202 80v97z" />
    <glyph glyph-name="eacute" unicode="&#xe9;" horiz-adv-x="572" 
d="M43 244c0 72.667 22.668 132 68.001 178s104.333 69 177 69c76 0 135.667 -26.333 179 -79s61.666 -121.334 54.999 -206.001h-374c10 -38.667 32.667 -69 68 -91s79 -33 131 -33c62.667 0 113.667 16 153 48v-94c-50 -31.333 -106.667 -47 -170 -47
c-86.667 0 -156.167 23.333 -208.5 70s-78.5 108.334 -78.5 185.001zM147.001 288h273.999c-2.66699 34.667 -16.167 62.334 -40.5 83.001s-54.833 31 -91.5 31s-67.667 -10.333 -93 -31s-41.666 -48.334 -48.999 -83.001zM414 633l-207 -82v68l207 110v-96z" />
    <glyph glyph-name="ecircumflex" unicode="&#xea;" horiz-adv-x="572" 
d="M43 244c0 72.667 22.668 132 68.001 178s104.333 69 177 69c76 0 135.667 -26.333 179 -79s61.666 -121.334 54.999 -206.001h-374c10 -38.667 32.667 -69 68 -91s79 -33 131 -33c62.667 0 113.667 16 153 48v-94c-50 -31.333 -106.667 -47 -170 -47
c-86.667 0 -156.167 23.333 -208.5 70s-78.5 108.334 -78.5 185.001zM147.001 288h273.999c-2.66699 34.667 -16.167 62.334 -40.5 83.001s-54.833 31 -91.5 31s-67.667 -10.333 -93 -31s-41.666 -48.334 -48.999 -83.001zM135 556v65l152 86l151 -86v-65l-151 58z" />
    <glyph glyph-name="edieresis" unicode="&#xeb;" horiz-adv-x="572" 
d="M43 244c0 72.667 22.668 132 68.001 178s104.333 69 177 69c76 0 135.667 -26.333 179 -79s61.666 -121.334 54.999 -206.001h-374c10 -38.667 32.667 -69 68 -91s79 -33 131 -33c62.667 0 113.667 16 153 48v-94c-50 -31.333 -106.667 -47 -170 -47
c-86.667 0 -156.167 23.333 -208.5 70s-78.5 108.334 -78.5 185.001zM147.001 288h273.999c-2.66699 34.667 -16.167 62.334 -40.5 83.001s-54.833 31 -91.5 31s-67.667 -10.333 -93 -31s-41.666 -48.334 -48.999 -83.001zM121 636c0 17.333 5.16895 31.166 15.502 41.499
s24.166 15.5 41.499 15.5s31.333 -5.16699 42 -15.5s16 -24.166 16 -41.499s-5.33301 -31.333 -16 -42s-24.667 -16 -42 -16c-16.667 0 -30.334 5.33301 -41.001 16s-16 24.667 -16 42zM337.002 636c0 16.667 5.33301 30.332 16 40.999s24.667 16 42 16
c16.667 0 30.334 -5.16699 41.001 -15.5s16 -24.166 16 -41.499s-5.33301 -31.333 -16 -42s-24.334 -16 -41.001 -16s-30.5 5.33301 -41.5 16s-16.5 24.667 -16.5 42z" />
    <glyph glyph-name="igrave" unicode="&#xec;" horiz-adv-x="249" 
d="M73 0v480h103v-480h-103zM205 556l-202 80v98l202 -110v-68z" />
    <glyph glyph-name="iacute" unicode="&#xed;" horiz-adv-x="249" 
d="M73 0v480h103v-480h-103zM45 556v68l207 110v-96z" />
    <glyph glyph-name="icircumflex" unicode="&#xee;" horiz-adv-x="249" 
d="M73 0v480h103v-480h-103zM-27 626l152 86l151 -86v-65l-151 58l-152 -58v65z" />
    <glyph glyph-name="idieresis" unicode="&#xef;" horiz-adv-x="249" 
d="M73 480h103v-480h-103v480zM-31 641c0 16.667 5.5 30.5 16.5 41.5s24.833 16.5 41.5 16.5s30.5 -5.5 41.5 -16.5s16.5 -24.833 16.5 -41.5s-5.5 -30.5 -16.5 -41.5s-24.833 -16.5 -41.5 -16.5s-30.5 5.5 -41.5 16.5s-16.5 24.833 -16.5 41.5zM222 583
c-16.667 0 -30.334 5.33301 -41.001 16s-16 24.667 -16 42s5.33301 31.333 16 42s24.334 16 41.001 16c17.333 0 31.333 -5.5 42 -16.5s16 -24.833 16 -41.5s-5.33301 -30.5 -16 -41.5s-24.667 -16.5 -42 -16.5z" />
    <glyph glyph-name="eth" unicode="&#xf0;" horiz-adv-x="616" 
d="M293 488c62.667 0 113.334 -18.334 152.001 -55.001c-16 64.667 -48 115 -96 151l-47 -62l-50 36l44 57c-46.667 21.333 -103.334 32 -170.001 32v83c86.667 0 161.667 -14 225 -42l47 61l50 -35l-43 -56c104.667 -69.333 157 -180 157 -332
c0 -102.667 -23.333 -184.5 -70 -245.5s-111.334 -91.5 -194.001 -91.5c-73.333 0 -133.166 23.333 -179.499 70s-69.5 106.667 -69.5 180c0 72.667 22.833 132.334 68.5 179.001s104.167 70 175.5 70zM297 83.999c48 0 86.168 21 114.501 63s43.5 98 45.5 168
c-30 57.333 -77.667 86 -143 86c-46.667 0 -84.834 -14.833 -114.501 -44.5s-44.5 -68.5 -44.5 -116.5c0 -46 13.333 -83.5 40 -112.5s60.667 -43.5 102 -43.5z" />
    <glyph glyph-name="ntilde" unicode="&#xf1;" horiz-adv-x="606" 
d="M73 480h91l7 -40c36.667 32.667 84.334 49 143.001 49c69.333 0 124 -19.5 164 -58.5s60 -92.167 60 -159.5v-271h-103v271c0 40 -12.5 71.5 -37.5 94.5s-59.167 34.5 -102.5 34.5c-48.667 0 -88.334 -17 -119.001 -51v-349h-103v480zM209 570h-76.999
c0 35.333 10 64 30 86s45.667 33 77 33c22 0 44 -8.33301 66 -25s38 -25 48 -25c11.333 0 20.666 4.33301 27.999 13s11 19.667 11 33h77c0 -35.333 -10 -64.166 -30 -86.499s-45.333 -33.5 -76 -33.5c-22 0 -44 8.33301 -66 25s-38 25 -48 25
c-11.333 0 -20.833 -4.33301 -28.5 -13s-11.5 -19.334 -11.5 -32.001z" />
    <glyph glyph-name="ograve" unicode="&#xf2;" 
d="M44 240c0 74 23.833 134.333 71.5 181s109.5 70 185.5 70c75.333 0 136.833 -23.333 184.5 -70s71.5 -107 71.5 -181s-23.833 -134.333 -71.5 -181s-109.167 -70 -184.5 -70c-76 0 -137.833 23.333 -185.5 70s-71.5 107 -71.5 181zM301 84
c44.667 0 80.834 14.5 108.501 43.5s41.5 66.5 41.5 112.5s-13.833 83.5 -41.5 112.5s-63.834 43.5 -108.501 43.5s-81 -14.5 -109 -43.5s-42 -66.5 -42 -112.5s14 -83.5 42 -112.5s64.333 -43.5 109 -43.5zM179 631v98l202 -110v-68z" />
    <glyph glyph-name="oacute" unicode="&#xf3;" 
d="M44 240c0 74 23.833 134.333 71.5 181s109.5 70 185.5 70c75.333 0 136.833 -23.333 184.5 -70s71.5 -107 71.5 -181s-23.833 -134.333 -71.5 -181s-109.167 -70 -184.5 -70c-76 0 -137.833 23.333 -185.5 70s-71.5 107 -71.5 181zM301 84
c44.667 0 80.834 14.5 108.501 43.5s41.5 66.5 41.5 112.5s-13.833 83.5 -41.5 112.5s-63.834 43.5 -108.501 43.5s-81 -14.5 -109 -43.5s-42 -66.5 -42 -112.5s14 -83.5 42 -112.5s64.333 -43.5 109 -43.5zM221 619l207 110v-96l-207 -82v68z" />
    <glyph glyph-name="ocircumflex" unicode="&#xf4;" 
d="M44 240c0 74 23.833 134.333 71.5 181s109.5 70 185.5 70c75.333 0 136.833 -23.333 184.5 -70s71.5 -107 71.5 -181s-23.833 -134.333 -71.5 -181s-109.167 -70 -184.5 -70c-76 0 -137.833 23.333 -185.5 70s-71.5 107 -71.5 181zM150 240c0 -46 14 -83.5 42 -112.5
s64.333 -43.5 109 -43.5s80.834 14.5 108.501 43.5s41.5 66.5 41.5 112.5s-13.833 83.5 -41.5 112.5s-63.834 43.5 -108.501 43.5s-81 -14.5 -109 -43.5s-42 -66.5 -42 -112.5zM301 614l-152 -58v65l152 86l151 -86v-65z" />
    <glyph glyph-name="otilde" unicode="&#xf5;" 
d="M301 491c75.333 0 136.833 -23.333 184.5 -70s71.5 -107 71.5 -181s-23.833 -134.333 -71.5 -181s-109.167 -70 -184.5 -70c-76 0 -137.833 23.333 -185.5 70s-71.5 107 -71.5 181s23.833 134.333 71.5 181s109.5 70 185.5 70zM150 240c0 -46 14 -83.5 42 -112.5
s64.333 -43.5 109 -43.5s80.834 14.5 108.501 43.5s41.5 66.5 41.5 112.5s-13.833 83.5 -41.5 112.5s-63.834 43.5 -108.501 43.5s-81 -14.5 -109 -43.5s-42 -66.5 -42 -112.5zM209 570h-76.999c0 35.333 10 64 30 86s45.667 33 77 33c22 0 44 -8.33301 66 -25
s38 -25 48 -25c11.333 0 20.666 4.33301 27.999 13s11 19.667 11 33h77c0 -35.333 -10 -64.166 -30 -86.499s-45.333 -33.5 -76 -33.5c-22 0 -44 8.33301 -66 25s-38 25 -48 25c-11.333 0 -20.833 -4.33301 -28.5 -13s-11.5 -19.334 -11.5 -32.001z" />
    <glyph glyph-name="odieresis" unicode="&#xf6;" 
d="M301 491c75.333 0 136.833 -23.333 184.5 -70s71.5 -107 71.5 -181s-23.833 -134.333 -71.5 -181s-109.167 -70 -184.5 -70c-76 0 -137.833 23.333 -185.5 70s-71.5 107 -71.5 181s23.833 134.333 71.5 181s109.5 70 185.5 70zM301 84c44.667 0 80.834 14.5 108.501 43.5
s41.5 66.5 41.5 112.5s-13.833 83.5 -41.5 112.5s-63.834 43.5 -108.501 43.5s-81 -14.5 -109 -43.5s-42 -66.5 -42 -112.5s14 -83.5 42 -112.5s64.333 -43.5 109 -43.5zM193 694c16.667 0 30.334 -5.33301 41.001 -16s16 -24.667 16 -42s-5.33301 -31.333 -16 -42
s-24.334 -16 -41.001 -16c-17.333 0 -31.333 5.33301 -42 16s-16 24.667 -16 42s5.33301 31.333 16 42s24.667 16 42 16zM409 694c16.667 0 30.334 -5.33301 41.001 -16s16 -24.667 16 -42s-5.33301 -31.333 -16 -42s-24.334 -16 -41.001 -16s-30.5 5.33301 -41.5 16
s-16.5 24.667 -16.5 42s5.5 31.333 16.5 42s24.833 16 41.5 16z" />
    <glyph glyph-name="divide" unicode="&#xf7;" horiz-adv-x="620" 
d="M89 383h443v-66h-443v66zM310 118c-17.333 0 -31.333 5.33301 -42 16s-16 24.334 -16 41.001s5.33301 30.334 16 41.001s24.667 16 42 16c16.667 0 30.334 -5.33301 41.001 -16s16 -24.334 16 -41.001s-5.33301 -30.334 -16 -41.001s-24.334 -16 -41.001 -16zM252 525
c0 16.667 5.33301 30.334 16 41.001s24.667 16 42 16c16.667 0 30.334 -5.33301 41.001 -16s16 -24.334 16 -41.001s-5.33301 -30.334 -16 -41.001s-24.334 -16 -41.001 -16c-17.333 0 -31.333 5.33301 -42 16s-16 24.334 -16 41.001z" />
    <glyph glyph-name="oslash" unicode="&#xf8;" 
d="M301 491c52.667 0 98.666 -11.667 137.999 -35l42 50l50 -42l-40 -48c44 -46 66 -104.667 66 -176c0 -74 -23.833 -134.333 -71.5 -181s-109.167 -70 -184.5 -70c-53.333 0 -99.666 11.667 -138.999 35l-42 -50l-50 42l40 48c-44 46 -66 104.667 -66 176
c0 74 23.833 134.333 71.5 181s109.5 70 185.5 70zM426.999 340l-204 -242.999c23.333 -12.667 49.333 -19 78 -19c46 0 83.5 15 112.5 45s43.5 69 43.5 117c0 39.333 -10 72.666 -30 99.999zM173.999 140.001l204.001 243.999c-24 12 -49.667 18 -77 18
c-46.667 0 -84.334 -15 -113.001 -45s-43 -69 -43 -117c0 -39.333 9.66699 -72.666 29 -99.999z" />
    <glyph glyph-name="ugrave" unicode="&#xf9;" 
d="M68 480l103 0.000976562v-280c0 -38.667 11.5 -68.334 34.5 -89.001s55.5 -31 97.5 -31c50 0 90.667 17.333 122 52v348h103v-480h-92l-6 40c-38 -32.667 -86 -49 -144 -49c-68.667 0 -122.167 18.333 -160.5 55s-57.5 88 -57.5 154v280zM176 729.001l202 -110v-68
l-202 80v98z" />
    <glyph glyph-name="uacute" unicode="&#xfa;" 
d="M68 480l103 0.000976562v-280c0 -38.667 11.5 -68.334 34.5 -89.001s55.5 -31 97.5 -31c50 0 90.667 17.333 122 52v348h103v-480h-92l-6 40c-38 -32.667 -86 -49 -144 -49c-68.667 0 -122.167 18.333 -160.5 55s-57.5 88 -57.5 154v280zM426 633.001l-208 -82v68
l208 110v-96z" />
    <glyph glyph-name="ucircumflex" unicode="&#xfb;" 
d="M68 200v280.001h103v-280c0 -38.667 11.5 -68.334 34.5 -89.001s55.5 -31 97.5 -31c50 0 90.667 17.333 122 52v348h103v-480h-92l-6 40c-38 -32.667 -86 -49 -144 -49c-68.667 0 -122.167 18.333 -160.5 55s-57.5 88 -57.5 154zM146 556.001v65l152 86l152 -86v-65
l-152 58z" />
    <glyph glyph-name="udieresis" unicode="&#xfc;" 
d="M68 200v280.001h103v-280c0 -38.667 11.5 -68.334 34.5 -89.001s55.5 -31 97.5 -31c50 0 90.667 17.333 122 52v348h103v-480h-92l-6 40c-38 -32.667 -86 -49 -144 -49c-68.667 0 -122.167 18.333 -160.5 55s-57.5 88 -57.5 154zM406 578.001
c-17.333 0 -31.333 5.33301 -42 16s-16 24.667 -16 42s5.33301 31.333 16 42s24.667 16 42 16s31.333 -5.33301 42 -16s16 -24.667 16 -42s-5.33301 -31.333 -16 -42s-24.667 -16 -42 -16zM132 636.001c0 17.333 5.33301 31.333 16 42s24.667 16 42 16
c16.667 0 30.334 -5.33301 41.001 -16s16 -24.667 16 -42s-5.33301 -31.333 -16 -42s-24.334 -16 -41.001 -16c-17.333 0 -31.333 5.33301 -42 16s-16 24.667 -16 42z" />
    <glyph glyph-name="yacute" unicode="&#xfd;" horiz-adv-x="566" 
d="M15 480h109l159 -320l159 320h109l-344 -680h-111l136 252zM411 633l-208 -82v68l208 110v-96z" />
    <glyph glyph-name="thorn" unicode="&#xfe;" horiz-adv-x="587" 
d="M73 720h102.999v-263c33.333 20.667 74.333 31 123 31c72 0 130.667 -23 176 -69s68 -105.667 68 -179s-22.5 -132.833 -67.5 -178.5s-103.5 -68.5 -175.5 -68.5c-49.333 0 -90.666 10.333 -123.999 31v-224h-103v920zM280.999 399
c-42.667 0 -77.667 -12.001 -105 -36.001v-245c27.333 -24 62.333 -36 105 -36c46 0 83.5 14.667 112.5 44s43.5 67.333 43.5 114s-14.5 84.834 -43.5 114.501s-66.5 44.5 -112.5 44.5z" />
    <glyph glyph-name="ydieresis" unicode="&#xff;" horiz-adv-x="566" 
d="M15 480h109l159 -320l159 320h109l-344 -680h-111l136 252zM392 694c16.667 0 30.334 -5.33301 41.001 -16s16 -24.667 16 -42s-5.33301 -31.333 -16 -42s-24.334 -16 -41.001 -16c-17.333 0 -31.333 5.33301 -42 16s-16 24.667 -16 42s5.33301 31.333 16 42
s24.667 16 42 16zM175 694c16.667 0 30.5 -5.33301 41.5 -16s16.5 -24.667 16.5 -42s-5.5 -31.333 -16.5 -42s-24.833 -16 -41.5 -16s-30.334 5.33301 -41.001 16s-16 24.667 -16 42s5.33301 31.333 16 42s24.334 16 41.001 16z" />
    <glyph glyph-name="Amacron" unicode="&#x100;" horiz-adv-x="798" 
d="M20 0l354 700h50l354 -700h-121l-70 144h-376l-70 -144h-121zM399 531l-142 -292h284zM536 786h-274v66h274v-66z" />
    <glyph glyph-name="amacron" unicode="&#x101;" horiz-adv-x="553" 
d="M237 -8c-59.333 0 -106.167 13.168 -140.5 39.501s-51.5 62.166 -51.5 107.499c0 47.333 18.833 84.333 56.5 111s89.834 40 156.501 40c30.667 0 67 -3.33301 109 -10v20c0 64.667 -45.667 97 -137 97c-62 0 -110.667 -14 -146 -42v92c45.333 28 100.666 42 165.999 42
c70 0 124.167 -15.5 162.5 -46.5s57.5 -74.833 57.5 -131.5v-197c0 -29.333 19.667 -44 59 -44v-66c-11.333 -6.66699 -28.333 -10 -51 -10c-41.333 0 -72 13.333 -92 40c-40 -28 -89.667 -42 -149 -42zM147.999 139.001c0 -18.667 9.49902 -33.333 28.499 -44
s45.167 -16 78.5 -16c48 0 85.333 13.333 112 40v79c-35.333 5.33301 -64.333 8 -87 8c-41.333 0 -73.666 -6 -96.999 -18s-35 -28.333 -35 -49zM124.998 651.002h274v-65h-274v65z" />
    <glyph glyph-name="Abreve" unicode="&#x102;" horiz-adv-x="798" 
d="M20 0l354 700h50l354 -700h-121l-70 144h-376l-70 -144h-121zM399 531l-142 -292h284zM256 831v67c44.667 -37.333 92.667 -56 144 -56c50 0 97.333 18.667 142 56v-67c-34.667 -44 -82 -66 -142 -66c-61.333 0 -109.333 22 -144 66z" />
    <glyph glyph-name="abreve" unicode="&#x103;" horiz-adv-x="553" 
d="M237 -8c-59.333 0 -106.167 13.168 -140.5 39.501s-51.5 62.166 -51.5 107.499c0 47.333 18.833 84.333 56.5 111s89.834 40 156.501 40c30.667 0 67 -3.33301 109 -10v20c0 64.667 -45.667 97 -137 97c-62 0 -110.667 -14 -146 -42v92c45.333 28 100.666 42 165.999 42
c70 0 124.167 -15.5 162.5 -46.5s57.5 -74.833 57.5 -131.5v-197c0 -29.333 19.667 -44 59 -44v-66c-11.333 -6.66699 -28.333 -10 -51 -10c-41.333 0 -72 13.333 -92 40c-40 -28 -89.667 -42 -149 -42zM147.999 139.001c0 -18.667 9.49902 -33.333 28.499 -44
s45.167 -16 78.5 -16c48 0 85.333 13.333 112 40v79c-35.333 5.33301 -64.333 8 -87 8c-41.333 0 -73.666 -6 -96.999 -18s-35 -28.333 -35 -49zM262.998 565.002c-61.333 0 -109.333 22 -144 66v67c44.667 -37.333 92.667 -56 144 -56c49.333 0 96.666 18.667 141.999 56
v-67c-33.333 -44 -80.666 -66 -141.999 -66z" />
    <glyph glyph-name="Aogonek" unicode="&#x104;" horiz-adv-x="798" 
d="M20 0l354 699.999h50l354 -700h-46c-21.333 -8.66699 -37.833 -20.5 -49.5 -35.5s-17.5 -31.167 -17.5 -48.5s6.16699 -31.666 18.5 -42.999s28.166 -17 47.499 -17c36 0 65 15.333 87 46v-70c-28.667 -28.667 -64 -43 -106 -43c-35.333 0 -64.166 9.83301 -86.499 29.5
s-33.5 45.167 -33.5 76.5c0 22.667 6 43.5 18 62.5s28.667 33.167 50 42.5h-3l-70 144h-376l-70 -144h-121zM399 530.999l-142 -292h284z" />
    <glyph glyph-name="aogonek" unicode="&#x105;" horiz-adv-x="553" 
d="M237 -8c-59.333 0 -106.166 13.168 -140.499 39.501s-51.5 62.166 -51.5 107.499c0 47.333 18.833 84.333 56.5 111s89.834 40 156.501 40c30.667 0 67 -3.33301 109 -10v20c0 64.667 -45.667 97 -137 97c-62 0 -110.667 -14 -146 -42v92
c45.333 28 100.666 42 165.999 42c70 0 124.167 -15.5 162.5 -46.5s57.5 -74.833 57.5 -131.5v-197c0 -29.333 19.667 -44 59 -44v-66c-12.667 -6.66699 -28.334 -10 -47.001 -10c-30 -18.667 -45 -43 -45 -73c0 -17.333 6.16699 -31.666 18.5 -42.999
s28.166 -17 47.499 -17c34.667 0 63.334 15.333 86.001 46v-70c-27.333 -28.667 -62.333 -43 -105 -43c-35.333 0 -64.333 9.83301 -87 29.5s-34 45.167 -34 76.5c0 22 5.66699 42.167 17 60.5s27.333 32.5 48 42.5c-18 7.33301 -32 17.666 -42 30.999
c-40 -28 -89.667 -42 -149 -42zM280 206.001c-41.333 0 -73.667 -5.99902 -97 -17.999s-35 -28.333 -35 -49c0 -18.667 9.5 -33.334 28.5 -44.001s45.167 -16 78.5 -16c48 0 85.333 13.333 112 40v79c-35.333 5.33301 -64.333 8 -87 8z" />
    <glyph glyph-name="Cacute" unicode="&#x106;" horiz-adv-x="710" 
d="M42 350c0 106.667 34.667 193.499 104 260.499s158.666 100.5 267.999 100.5c91.333 0 169.666 -24.667 234.999 -74v-114c-54.667 58.667 -128 88 -220 88c-81.333 0 -147.5 -24.167 -198.5 -72.5s-76.5 -111.166 -76.5 -188.499s25.5 -140 76.5 -188
s117.167 -72 198.5 -72c92.667 0 166 29 220 87v-114c-65.333 -49.333 -143.666 -74 -234.999 -74c-109.333 0 -198.666 33.5 -267.999 100.5s-104 153.833 -104 260.5zM529 832.999l-208 -82v68l208 110v-96z" />
    <glyph glyph-name="cacute" unicode="&#x107;" horiz-adv-x="506" 
d="M44 240c0 74 24.499 134.331 73.499 180.998s112.167 70 189.5 70c54 0 103 -13.333 147 -40v-97c-33.333 30 -75.666 45 -126.999 45c-52.667 0 -95.334 -14.667 -128.001 -44s-49 -67.666 -49 -114.999s16.333 -85.666 49 -114.999s75.334 -44 128.001 -44
c50.667 0 93 15 127 45v-97c-44 -26.667 -93 -40 -147 -40c-77.333 0 -140.5 23.333 -189.5 70s-73.5 107 -73.5 181zM413.999 632.998l-208 -82v68l208 110v-96z" />
    <glyph glyph-name="Ccircumflex" unicode="&#x108;" horiz-adv-x="710" 
d="M414 -11c-109.333 0 -198.666 33.499 -267.999 100.499s-104 153.833 -104 260.5s34.667 193.5 104 260.5s158.666 100.5 267.999 100.5c91.333 0 169.666 -24.667 234.999 -74v-114c-54.667 58.667 -128 88 -220 88c-81.333 0 -147.5 -24.167 -198.5 -72.5
s-76.5 -111.166 -76.5 -188.499s25.5 -140 76.5 -188s117.167 -72 198.5 -72c92.667 0 166 29 220 87v-114c-65.333 -49.333 -143.666 -74 -234.999 -74zM401 813.999l-151 -58v65l151 86l152 -86v-65z" />
    <glyph glyph-name="ccircumflex" unicode="&#x109;" horiz-adv-x="506" 
d="M307 -11c-77.333 0 -140.501 23.3311 -189.501 69.998s-73.5 107 -73.5 181s24.5 134.333 73.5 181s112.167 70 189.5 70c54 0 103 -13.333 147 -40v-97c-33.333 30 -75.666 45 -126.999 45c-52.667 0 -95.334 -14.667 -128.001 -44s-49 -67.666 -49 -114.999
s16.333 -85.666 49 -114.999s75.334 -44 128.001 -44c50.667 0 93 15 127 45v-97c-44 -26.667 -93 -40 -147 -40zM285.999 613.998l-151 -58v65l151 86l152 -86v-65z" />
    <glyph glyph-name="Cdotaccent" unicode="&#x10a;" horiz-adv-x="710" 
d="M414 -11c-109.333 0 -198.666 33.499 -267.999 100.499s-104 153.833 -104 260.5s34.667 193.5 104 260.5s158.666 100.5 267.999 100.5c91.333 0 169.666 -24.667 234.999 -74v-114c-54.667 58.667 -128 88 -220 88c-81.333 0 -147.5 -24.167 -198.5 -72.5
s-76.5 -111.166 -76.5 -188.499s25.5 -140 76.5 -188s117.167 -72 198.5 -72c92.667 0 166 29 220 87v-114c-65.333 -49.333 -143.666 -74 -234.999 -74zM401 777.999c-19.333 0 -35 6.16699 -47 18.5s-18 28.166 -18 47.499s6 35 18 47s27.667 18 47 18
s35.166 -6 47.499 -18s18.5 -27.667 18.5 -47s-6.16699 -35.166 -18.5 -47.499s-28.166 -18.5 -47.499 -18.5z" />
    <glyph glyph-name="cdotaccent" unicode="&#x10b;" horiz-adv-x="506" 
d="M307 -11c-77.333 0 -140.501 23.3311 -189.501 69.998s-73.5 107 -73.5 181s24.5 134.333 73.5 181s112.167 70 189.5 70c54 0 103 -13.333 147 -40v-97c-33.333 30 -75.666 45 -126.999 45c-52.667 0 -95.334 -14.667 -128.001 -44s-49 -67.666 -49 -114.999
s16.333 -85.666 49 -114.999s75.334 -44 128.001 -44c50.667 0 93 15 127 45v-97c-44 -26.667 -93 -40 -147 -40zM285.999 577.998c-19.333 0 -35 6.16699 -47 18.5s-18 28.166 -18 47.499s6 35 18 47s27.667 18 47 18s35 -6 47 -18s18 -27.667 18 -47
s-6 -35.166 -18 -47.499s-27.667 -18.5 -47 -18.5z" />
    <glyph glyph-name="Ccaron" unicode="&#x10c;" horiz-adv-x="710" 
d="M414 -11c-109.333 0 -198.666 33.499 -267.999 100.499s-104 153.833 -104 260.5s34.667 193.5 104 260.5s158.666 100.5 267.999 100.5c91.333 0 169.666 -24.667 234.999 -74v-114c-54.667 58.667 -128 88 -220 88c-81.333 0 -147.5 -24.167 -198.5 -72.5
s-76.5 -111.166 -76.5 -188.499s25.5 -140 76.5 -188s117.167 -72 198.5 -72c92.667 0 166 29 220 87v-114c-65.333 -49.333 -143.666 -74 -234.999 -74zM401 755.999l-151 85v65l151 -57l152 57v-65z" />
    <glyph glyph-name="ccaron" unicode="&#x10d;" horiz-adv-x="506" 
d="M307 -11c-77.333 0 -140.501 23.3311 -189.501 69.998s-73.5 107 -73.5 181s24.5 134.333 73.5 181s112.167 70 189.5 70c54 0 103 -13.333 147 -40v-97c-33.333 30 -75.666 45 -126.999 45c-52.667 0 -95.334 -14.667 -128.001 -44s-49 -67.666 -49 -114.999
s16.333 -85.666 49 -114.999s75.334 -44 128.001 -44c50.667 0 93 15 127 45v-97c-44 -26.667 -93 -40 -147 -40zM285.999 555.998l-151 85v65l151 -57l152 57v-65z" />
    <glyph glyph-name="Dcaron" unicode="&#x10e;" horiz-adv-x="791" 
d="M83 700h292c106 0 192.667 -32.667 260 -98s101 -149.333 101 -252s-33.667 -186.667 -101 -252s-154 -98 -260 -98h-292v700zM375 606l-183 0.000976562v-511h183c73.333 0 133.333 23.667 180 71s70 108.666 70 183.999s-23.333 136.833 -70 184.5
s-106.667 71.5 -180 71.5zM227 906.001l151 -57l152 57v-65l-152 -85l-151 85v65z" />
    <glyph glyph-name="dcaron" unicode="&#x10f;" horiz-adv-x="732" 
d="M44 241c0 72.667 22.666 132.001 67.999 178.001s104 69 176 69c47.333 0 88.333 -10.667 123 -32v264h103v-720h-91l-5 28c-37.333 -24 -80.666 -36 -129.999 -36c-72 0 -130.667 23.167 -176 69.5s-68 106.166 -68 179.499zM306.999 399.001
c-46.667 0 -84.5 -14.832 -113.5 -44.499s-43.5 -67.834 -43.5 -114.501s14.5 -84.667 43.5 -114s66.833 -44 113.5 -44c42 0 76.667 12 104 36v244c-28 24.667 -62.667 37 -104 37zM641.999 503.002l-59 0.00195312c34 36 51 70.333 51 103c0 12 -5.16699 24.333 -15.5 37
s-15.5 25 -15.5 37c0 15.333 4.66699 27.666 14 36.999s22 14 38 14c20 0 35.333 -7.83301 46 -23.5s16 -35.834 16 -60.501c0 -58.667 -25 -106.667 -75 -144z" />
    <glyph glyph-name="Dcroat" unicode="&#x110;" horiz-adv-x="791" 
d="M1 386h82v314h292c106 0 192.667 -32.667 260 -98s101 -149.333 101 -252s-33.667 -186.667 -101 -252s-154 -98 -260 -98h-292v320h-82v66zM192 386l171 0.000976562v-66h-171v-225h183c73.333 0 133.333 23.667 180 71s70 108.666 70 183.999
s-23.333 136.833 -70 184.5s-106.667 71.5 -180 71.5h-183v-220z" />
    <glyph glyph-name="dcroat" unicode="&#x111;" horiz-adv-x="587" 
d="M44 241c0 72.667 22.666 132.001 67.999 178.001s104 69 176 69c47.333 0 88.333 -10.667 123 -32v110h-137v66h137v88h103v-88h72v-66h-72v-566h-91l-5 28c-37.333 -24 -80.666 -36 -129.999 -36c-72 0 -130.667 23.167 -176 69.5s-68 106.166 -68 179.499z
M306.999 399.001c-46.667 0 -84.5 -14.832 -113.5 -44.499s-43.5 -67.834 -43.5 -114.501s14.5 -84.667 43.5 -114s66.833 -44 113.5 -44c42 0 76.667 12 104 36v244c-28 24.667 -62.667 37 -104 37z" />
    <glyph glyph-name="Emacron" unicode="&#x112;" horiz-adv-x="655" 
d="M83 0v700h526v-94h-417v-205h342v-94h-342v-212h422v-95h-531zM486 786h-274v66h274v-66z" />
    <glyph glyph-name="emacron" unicode="&#x113;" horiz-adv-x="572" 
d="M43 244c0 72.667 22.668 132 68.001 178s104.333 69 177 69c76 0 135.667 -26.333 179 -79s61.666 -121.334 54.999 -206.001h-374c10 -38.667 32.667 -69 68 -91s79 -33 131 -33c62.667 0 113.667 16 153 48v-94c-50 -31.333 -106.667 -47 -170 -47
c-86.667 0 -156.167 23.333 -208.5 70s-78.5 108.334 -78.5 185.001zM147.001 288h273.999c-2.66699 34.667 -16.167 62.334 -40.5 83.001s-54.833 31 -91.5 31s-67.667 -10.333 -93 -31s-41.666 -48.334 -48.999 -83.001zM423 586h-274v65h274v-65z" />
    <glyph glyph-name="Ebreve" unicode="&#x114;" horiz-adv-x="655" 
d="M614 0h-531v700h526v-94h-417v-205h342v-94h-342v-212h422v-95zM206 831l0.000976562 67c44.667 -37.333 92.334 -56 143.001 -56c50 0 97.667 18.667 143 56v-67c-34.667 -44 -82.334 -66 -143.001 -66s-108.334 22 -143.001 66z" />
    <glyph glyph-name="ebreve" unicode="&#x115;" horiz-adv-x="572" 
d="M43 244c0 72.667 22.668 132 68.001 178s104.333 69 177 69c76 0 135.667 -26.333 179 -79s61.666 -121.334 54.999 -206.001h-374c10 -38.667 32.667 -69 68 -91s79 -33 131 -33c62.667 0 113.667 16 153 48v-94c-50 -31.333 -106.667 -47 -170 -47
c-86.667 0 -156.167 23.333 -208.5 70s-78.5 108.334 -78.5 185.001zM147.001 288h273.999c-2.66699 34.667 -16.167 62.334 -40.5 83.001s-54.833 31 -91.5 31s-67.667 -10.333 -93 -31s-41.666 -48.334 -48.999 -83.001zM287 642c50 0 97.332 18.667 141.999 56v-67
c-33.333 -44 -80.666 -66 -141.999 -66c-60.667 0 -108.667 22 -144 66v67c44.667 -37.333 92.667 -56 144 -56z" />
    <glyph glyph-name="Edotaccent" unicode="&#x116;" horiz-adv-x="655" 
d="M83 0v700h526v-94h-417v-205h342v-94h-342v-212h422v-95h-531zM283 844c0 19.333 6.16699 35 18.5 47s28.166 18 47.499 18s35 -6.16699 47 -18.5s18 -27.833 18 -46.5c0 -19.333 -6 -35.166 -18 -47.499s-27.667 -18.5 -47 -18.5s-35.166 6.16699 -47.499 18.5
s-18.5 28.166 -18.5 47.499z" />
    <glyph glyph-name="edotaccent" unicode="&#x117;" horiz-adv-x="572" 
d="M43 244c0 72.667 22.668 132 68.001 178s104.333 69 177 69c76 0 135.667 -26.333 179 -79s61.666 -121.334 54.999 -206.001h-374c10 -38.667 32.667 -69 68 -91s79 -33 131 -33c62.667 0 113.667 16 153 48v-94c-50 -31.333 -106.667 -47 -170 -47
c-86.667 0 -156.167 23.333 -208.5 70s-78.5 108.334 -78.5 185.001zM147.001 288h273.999c-2.66699 34.667 -16.167 62.334 -40.5 83.001s-54.833 31 -91.5 31s-67.667 -10.333 -93 -31s-41.666 -48.334 -48.999 -83.001zM221 644c0 18.667 6.16699 34 18.5 46
s28.166 18 47.499 18s34.833 -6 46.5 -18s17.5 -27.333 17.5 -46c0 -19.333 -6 -35.166 -18 -47.499s-27.333 -18.5 -46 -18.5c-19.333 0 -35.166 6.16699 -47.499 18.5s-18.5 28.166 -18.5 47.499z" />
    <glyph glyph-name="Eogonek" unicode="&#x118;" horiz-adv-x="655" 
d="M83 0l-0.000976562 699.998h526v-94h-417v-205h342v-94h-342v-212h422v-95h-75c-20.667 -8 -36.834 -19.667 -48.501 -35s-17.5 -31.666 -17.5 -48.999s6 -31.666 18 -42.999s27.667 -17 47 -17c36 0 65 15.333 87 46v-70c-27.333 -28.667 -62.666 -43 -105.999 -43
c-35.333 0 -64.166 9.83301 -86.499 29.5s-33.5 45.167 -33.5 76.5c0 22.667 6 43.5 18 62.5s28.667 33.167 50 42.5h-384z" />
    <glyph glyph-name="eogonek" unicode="&#x119;" horiz-adv-x="572" 
d="M43 244c0 72.667 22.668 131.999 68.001 177.999s104.333 69 177 69c76 0 135.667 -26.333 179 -79s61.666 -121.334 54.999 -206.001h-374c10 -38.667 32.667 -69 68 -91s79 -33 131 -33c62.667 0 113.667 16 153 48v-94c-24 -15.333 -49 -26.666 -75 -33.999
c-18 -8.66699 -32.333 -20.334 -43 -35.001s-16 -30 -16 -46c0 -17.333 6.16699 -31.666 18.5 -42.999s28.166 -17 47.499 -17c36 0 64.667 15.333 86 46v-70c-26.667 -28.667 -61.667 -43 -105 -43c-35.333 0 -64.166 9.83301 -86.499 29.5s-33.5 45.167 -33.5 76.5
c0 36.667 14 66.334 42 89.001c-84 0 -153.667 22 -209 66s-83 107 -83 189zM147.001 287.999h273.999c-2.66699 34.667 -16.167 62.334 -40.5 83.001s-54.833 31 -91.5 31s-67.667 -10.333 -93 -31s-41.666 -48.334 -48.999 -83.001z" />
    <glyph glyph-name="Ecaron" unicode="&#x11a;" horiz-adv-x="655" 
d="M83 0v700h526v-94h-417v-205h342v-94h-342v-212h422v-95h-531zM197 906l152 -57l152 57v-65l-152 -85l-152 85v65z" />
    <glyph glyph-name="ecaron" unicode="&#x11b;" horiz-adv-x="572" 
d="M43 244c0 72.667 22.668 132 68.001 178s104.333 69 177 69c76 0 135.667 -26.333 179 -79s61.666 -121.334 54.999 -206.001h-374c10 -38.667 32.667 -69 68 -91s79 -33 131 -33c62.667 0 113.667 16 153 48v-94c-50 -31.333 -106.667 -47 -170 -47
c-86.667 0 -156.167 23.333 -208.5 70s-78.5 108.334 -78.5 185.001zM147.001 288h273.999c-2.66699 34.667 -16.167 62.334 -40.5 83.001s-54.833 31 -91.5 31s-67.667 -10.333 -93 -31s-41.666 -48.334 -48.999 -83.001zM135 641v65l152 -57l151 57v-65l-151 -85z" />
    <glyph glyph-name="Gcircumflex" unicode="&#x11c;" horiz-adv-x="764" 
d="M42 351c0 106 35.001 192.5 105.001 259.5s160.333 100.5 271 100.5c92.667 0 172 -24 238 -72v-111c-55.333 55.333 -129 83 -221 83c-83.333 0 -151 -24.167 -203 -72.5s-78 -111.5 -78 -189.5c0 -76.667 25.167 -139.167 75.5 -187.5s115.5 -72.5 195.5 -72.5
c50 0 96.667 10 140 30v154h-140v89h245v-302c-68.667 -47.333 -150 -71 -244 -71c-112.667 0 -204.834 33.667 -276.501 101s-107.5 154.333 -107.5 261zM405.001 814l-152 -58v65l152 86l152 -86v-65z" />
    <glyph glyph-name="gcircumflex" unicode="&#x11d;" horiz-adv-x="587" 
d="M44 241c0 72.667 22.665 132.001 67.998 178.001s104 69 176 69c50 0 93.333 -11.667 130 -35l5 27h91v-497c0 -62 -21.833 -109.833 -65.5 -143.5s-105.5 -50.5 -185.5 -50.5c-67.333 0 -125.666 13.333 -174.999 40v88c39.333 -25.333 92 -38 158 -38
c52.667 0 93.334 9.16699 122.001 27.5s43 44.166 43 77.499v40c-33.333 -20.667 -74.333 -31 -123 -31c-72 0 -130.667 23 -176 69s-68 105.667 -68 179zM149.998 240.001c0 -46.667 14.5 -84.668 43.5 -114.001s66.833 -44 113.5 -44c42 0 76.667 12 104 36v245
c-27.333 24 -62 36 -104 36c-46.667 0 -84.5 -14.667 -113.5 -44s-43.5 -67.666 -43.5 -114.999zM294.998 614l-152 -58v65l152 86l151 -86v-65z" />
    <glyph glyph-name="Gbreve" unicode="&#x11e;" horiz-adv-x="764" 
d="M42 351c0 106 35.001 192.5 105.001 259.5s160.333 100.5 271 100.5c92.667 0 172 -24 238 -72v-111c-55.333 55.333 -129 83 -221 83c-83.333 0 -151 -24.167 -203 -72.5s-78 -111.5 -78 -189.5c0 -76.667 25.167 -139.167 75.5 -187.5s115.5 -72.5 195.5 -72.5
c50 0 96.667 10 140 30v154h-140v89h245v-302c-68.667 -47.333 -150 -71 -244 -71c-112.667 0 -204.834 33.667 -276.501 101s-107.5 154.333 -107.5 261zM405.001 765c-60.667 0 -108.333 22 -143 66v67c44.667 -37.333 92.334 -56 143.001 -56c50 0 97.667 18.667 143 56
v-67c-34.667 -44 -82.334 -66 -143.001 -66z" />
    <glyph glyph-name="gbreve" unicode="&#x11f;" horiz-adv-x="587" 
d="M288 -7c-72 0 -130.669 23.001 -176.002 69.001s-68 105.667 -68 179c0 72.667 22.667 132 68 178s104 69 176 69c50 0 93.333 -11.667 130 -35l5 27h91v-497c0 -62 -21.833 -109.833 -65.5 -143.5s-105.5 -50.5 -185.5 -50.5c-67.333 0 -125.666 13.333 -174.999 40v88
c39.333 -25.333 92 -38 158 -38c52.667 0 93.334 9.16699 122.001 27.5s43 44.166 43 77.499v40c-33.333 -20.667 -74.333 -31 -123 -31zM149.998 240.001c0 -46.667 14.5 -84.668 43.5 -114.001s66.833 -44 113.5 -44c42 0 76.667 12 104 36v245c-27.333 24 -62 36 -104 36
c-46.667 0 -84.5 -14.667 -113.5 -44s-43.5 -67.666 -43.5 -114.999zM150.998 631l0.000976562 67c45.333 -37.333 93.333 -56 144 -56c50 0 97.667 18.667 143 56v-67c-34.667 -44 -82.334 -66 -143.001 -66c-61.333 0 -109.333 22 -144 66z" />
    <glyph glyph-name="Gdotaccent" unicode="&#x120;" horiz-adv-x="764" 
d="M426 -11c-112.667 0 -204.833 33.667 -276.5 101s-107.5 154.333 -107.5 261c0 106 35 192.5 105 259.5s160.333 100.5 271 100.5c92.667 0 172 -24 238 -72v-111c-55.333 55.333 -129 83 -221 83c-83.333 0 -151 -24.167 -203 -72.5s-78 -111.5 -78 -189.5
c0 -76.667 25.167 -139.167 75.5 -187.5s115.5 -72.5 195.5 -72.5c50 0 96.667 10 140 30v154h-140v89h245v-302c-68.667 -47.333 -150 -71 -244 -71zM405.001 778c-19.333 0 -35.166 6.16699 -47.499 18.5s-18.5 28.166 -18.5 47.499c0 18.667 6.16699 34 18.5 46
s28.166 18 47.499 18s35 -6 47 -18s18 -27.333 18 -46c0 -19.333 -6 -35.166 -18 -47.499s-27.667 -18.5 -47 -18.5z" />
    <glyph glyph-name="gdotaccent" unicode="&#x121;" horiz-adv-x="587" 
d="M44 241c0 72.667 22.665 132.001 67.998 178.001s104 69 176 69c50 0 93.333 -11.667 130 -35l5 27h91v-497c0 -62 -21.833 -109.833 -65.5 -143.5s-105.5 -50.5 -185.5 -50.5c-67.333 0 -125.666 13.333 -174.999 40v88c39.333 -25.333 92 -38 158 -38
c52.667 0 93.334 9.16699 122.001 27.5s43 44.166 43 77.499v40c-33.333 -20.667 -74.333 -31 -123 -31c-72 0 -130.667 23 -176 69s-68 105.667 -68 179zM149.998 240.001c0 -46.667 14.5 -84.668 43.5 -114.001s66.833 -44 113.5 -44c42 0 76.667 12 104 36v245
c-27.333 24 -62 36 -104 36c-46.667 0 -84.5 -14.667 -113.5 -44s-43.5 -67.666 -43.5 -114.999zM228.998 644c0 19.333 6 35 18 47s28 18 48 18c19.333 0 35 -6.16699 47 -18.5s18 -27.833 18 -46.5c0 -19.333 -6 -35.166 -18 -47.499s-27.667 -18.5 -47 -18.5
c-20 0 -36 6.16699 -48 18.5s-18 28.166 -18 47.499z" />
    <glyph glyph-name="uni0122" unicode="&#x122;" horiz-adv-x="764" 
d="M426 -11c-112.667 0 -204.833 33.667 -276.5 101s-107.5 154.333 -107.5 261c0 106 35 192.5 105 259.5s160.333 100.5 271 100.5c92.667 0 172 -24 238 -72v-111c-55.333 55.333 -129 83 -221 83c-83.333 0 -151 -24.167 -203 -72.5s-78 -111.5 -78 -189.5
c0 -76.667 25.167 -139.167 75.5 -187.5s115.5 -72.5 195.5 -72.5c50 0 96.667 10 140 30v154h-140v89h245v-302c-68.667 -47.333 -150 -71 -244 -71zM357.001 -227c31.333 25.333 47 49.999 47 73.999c0 9.33301 -4.83301 19.333 -14.5 30s-14.5 21.334 -14.5 32.001
c0 12.667 4.33301 23 13 31s19.667 12 33 12c16 0 28.5 -5.66699 37.5 -17s13.5 -26.666 13.5 -45.999c0 -22.667 -5.66699 -44.334 -17 -65.001s-27 -37.667 -47 -51h-51z" />
    <glyph glyph-name="uni0123" unicode="&#x123;" horiz-adv-x="587" 
d="M288 -7c-72 0 -130.669 23.001 -176.002 69.001s-68 105.667 -68 179c0 72.667 22.667 132 68 178s104 69 176 69c50 0 93.333 -11.667 130 -35l5 27h91v-497c0 -62 -21.833 -109.833 -65.5 -143.5s-105.5 -50.5 -185.5 -50.5c-67.333 0 -125.666 13.333 -174.999 40v88
c39.333 -25.333 92 -38 158 -38c52.667 0 93.334 9.16699 122.001 27.5s43 44.166 43 77.499v40c-33.333 -20.667 -74.333 -31 -123 -31zM306.998 399.001c-46.667 0 -84.5 -14.668 -113.5 -44.001s-43.5 -67.666 -43.5 -114.999c0 -46.667 14.5 -84.667 43.5 -114
s66.833 -44 113.5 -44c42 0 76.667 12 104 36v245c-27.333 24 -62 36 -104 36zM289.998 562c-16 0 -28.333 5.66797 -37 17.001s-13 26.666 -13 45.999c0 22.667 5.66699 44.5 17 65.5s27 37.833 47 50.5h50c-30.667 -24.667 -46 -49 -46 -73
c0 -10 4.83301 -20.167 14.5 -30.5s14.5 -20.833 14.5 -31.5c0 -13.333 -4.33301 -24 -13 -32s-20 -12 -34 -12z" />
    <glyph glyph-name="Hcircumflex" unicode="&#x124;" horiz-adv-x="843" 
d="M192 0h-109v700h109v-299h460v299h109v-700h-109v307h-460v-307zM422 814l-152 -58v65l152 86l152 -86v-65z" />
    <glyph glyph-name="hcircumflex" unicode="&#x125;" horiz-adv-x="606" 
d="M73 0l0.000976562 720h103v-275c36.667 29.333 82.667 44 138 44c69.333 0 124 -19.5 164 -58.5s60 -92.167 60 -159.5v-271h-103v271c0 40 -12.5 71.5 -37.5 94.5s-59.167 34.5 -102.5 34.5c-48.667 0 -88.334 -17 -119.001 -51v-349h-103zM124.001 812l-152 -58v66
l152 86l152 -86v-66z" />
    <glyph glyph-name="Hbar" unicode="&#x126;" horiz-adv-x="843" 
d="M761 574h81v-65h-81v-509h-109v307h-460v-307h-109v509h-82v65h82v126h109v-126h460v126h109v-126zM652 509h-460v-108h460v108z" />
    <glyph glyph-name="hbar" unicode="&#x127;" horiz-adv-x="606" 
d="M73 566h-71.999v66h72v88h103v-88h137v-66h-137v-121c36.667 29.333 82.667 44 138 44c69.333 0 124 -19.5 164 -58.5s60 -92.167 60 -159.5v-271h-103v271c0 40 -12.5 71.5 -37.5 94.5s-59.167 34.5 -102.5 34.5c-48.667 0 -88.334 -17 -119.001 -51v-349h-103v566z" />
    <glyph glyph-name="Itilde" unicode="&#x128;" horiz-adv-x="274" 
d="M83 0v700h109v-700h-109zM46 770h-77c0 35.333 10 64 30 86s45.667 33 77 33c22.667 0 44.667 -8.33301 66 -25s37 -25 47 -25c11.333 0 20.833 4.33301 28.5 13s11.5 19.667 11.5 33h77c0 -35.333 -10 -64.166 -30 -86.499s-45.333 -33.5 -76 -33.5
c-22.667 0 -44.667 8.33301 -66 25s-37.333 25 -48 25c-11.333 0 -20.833 -4.33301 -28.5 -13s-11.5 -19.334 -11.5 -32.001z" />
    <glyph glyph-name="itilde" unicode="&#x129;" horiz-adv-x="249" 
d="M176 0h-103v480h103v-480zM33 575h-77c0 35.333 10 64 30 86s45.667 33 77 33c22.667 0 44.667 -8.33301 66 -25s37 -25 47 -25c11.333 0 20.833 4.33301 28.5 13s11.5 19.667 11.5 33h77c0 -35.333 -10 -64.166 -30 -86.499s-45.333 -33.5 -76 -33.5
c-22 0 -44 8.33301 -66 25s-38 25 -48 25c-11.333 0 -20.833 -4.33301 -28.5 -13s-11.5 -19.334 -11.5 -32.001z" />
    <glyph glyph-name="Imacron" unicode="&#x12a;" horiz-adv-x="274" 
d="M83 700h109v-700h-109v700zM0 786v66h275v-66h-275z" />
    <glyph glyph-name="imacron" unicode="&#x12b;" horiz-adv-x="249" 
d="M73 0v480h103v-480h-103zM-13 591v66h275v-66h-275z" />
    <glyph glyph-name="Ibreve" unicode="&#x12c;" horiz-adv-x="274" 
d="M192 0h-109v700h109v-700zM-6 898c44.667 -37.333 92.668 -56 144.001 -56c50 0 97.667 18.667 143 56v-67c-34.667 -44 -82.334 -66 -143.001 -66c-61.333 0 -109.333 22 -144 66v67z" />
    <glyph glyph-name="ibreve" unicode="&#x12d;" horiz-adv-x="249" 
d="M73 0v480h103v-480h-103zM-19 703c45.333 -37.333 93.334 -56 144.001 -56c50 0 97.667 18.667 143 56v-67c-34.667 -44 -82.334 -66 -143.001 -66c-61.333 0 -109.333 22 -144 66v67z" />
    <glyph glyph-name="Iogonek" unicode="&#x12e;" horiz-adv-x="274" 
d="M149 -211c-35.333 0 -64.167 9.83203 -86.5 29.499s-33.5 45.167 -33.5 76.5c0 22.667 6 43.5 18 62.5s28.667 33.167 50 42.5h-14v700h109v-700h-23c-21.333 -8.66699 -37.833 -20.5 -49.5 -35.5s-17.5 -31.167 -17.5 -48.5s6.16699 -31.666 18.5 -42.999
s28.166 -17 47.499 -17c36 0 65 15.333 87 46v-70c-27.333 -28.667 -62.666 -43 -105.999 -43z" />
    <glyph glyph-name="iogonek" unicode="&#x12f;" horiz-adv-x="249" 
d="M19 -105c0 22.667 5.99902 43.499 17.999 62.499s28.667 33.167 50 42.5h-14v480h103v-480h-17c-21.333 -8.66699 -37.833 -20.5 -49.5 -35.5s-17.5 -31.167 -17.5 -48.5s6.16699 -31.666 18.5 -42.999s28.166 -17 47.499 -17c36 0 65 15.333 87 46v-70
c-27.333 -28.667 -62.666 -43 -105.999 -43c-35.333 0 -64.166 9.83301 -86.499 29.5s-33.5 45.167 -33.5 76.5zM57.999 643.999c0 19.333 6.16699 35 18.5 47s28.166 18 47.499 18s35 -6 47 -18s18 -27.667 18 -47s-6 -35.166 -18 -47.499s-27.667 -18.5 -47 -18.5
s-35.166 6.16699 -47.499 18.5s-18.5 28.166 -18.5 47.499z" />
    <glyph glyph-name="Idotaccent" unicode="&#x130;" horiz-adv-x="274" 
d="M83 700h109v-700h-109v700zM72 844c0 19.333 6 35 18 47s28 18 48 18c18.667 0 34.167 -6.16699 46.5 -18.5s18.5 -27.833 18.5 -46.5c0 -19.333 -6 -35.166 -18 -47.499s-27.667 -18.5 -47 -18.5c-20 0 -36 6.16699 -48 18.5s-18 28.166 -18 47.499z" />
    <glyph glyph-name="dotlessi" unicode="&#x131;" horiz-adv-x="249" 
d="M73 0v480h103v-480h-103z" />
    <glyph glyph-name="IJ" unicode="&#x132;" horiz-adv-x="584" 
d="M249 -185l0.000976562 90.999c16 -12.667 36 -19 60 -19c25.333 0 45.666 7.5 60.999 22.5s23 35.5 23 61.5v729h109v-746c0 -49.333 -14.833 -88.666 -44.5 -117.999s-69.5 -44 -119.5 -44c-33.333 0 -63 7.66699 -89 23zM83.001 699.999h109v-700h-109v700z" />
    <glyph glyph-name="ij" unicode="&#x133;" horiz-adv-x="497" 
d="M245 -130c23.333 0 41.832 5.66797 55.499 17.001s20.5 26.666 20.5 45.999v547h104v-563c0 -36.667 -12 -66.5 -36 -89.5s-54.667 -34.5 -92 -34.5c-19.333 0 -36.666 3.33301 -51.999 10v67zM72.999 480.001h103v-480h-103v480zM57.999 644.001
c0 19.333 6.16699 35 18.5 47s28.166 18 47.499 18s35 -6 47 -18s18 -27.667 18 -47s-6 -35.166 -18 -47.499s-27.667 -18.5 -47 -18.5s-35.166 6.16699 -47.499 18.5s-18.5 28.166 -18.5 47.499zM372.999 578.001c-19.333 0 -35.166 6.16699 -47.499 18.5
s-18.5 28.166 -18.5 47.499s6.16699 35 18.5 47s28.166 18 47.499 18s35 -6.16699 47 -18.5s18 -27.833 18 -46.5c0 -19.333 -6 -35.166 -18 -47.499s-27.667 -18.5 -47 -18.5z" />
    <glyph glyph-name="Jcircumflex" unicode="&#x134;" horiz-adv-x="310" 
d="M64 -208c-33.333 0 -62.999 7.66602 -88.999 22.999v91c16 -12.667 36 -19 60 -19c25.333 0 45.666 7.5 60.999 22.5s23 35.5 23 61.5v729h108v-746c0 -49.333 -14.833 -88.666 -44.5 -117.999s-69.167 -44 -118.5 -44zM21.001 755.999v65l152 86l151 -86v-65l-151 58z
" />
    <glyph glyph-name="jcircumflex" unicode="&#x135;" horiz-adv-x="249" 
d="M48 -207c-19.333 0 -36.667 3.33398 -52 10.001v67c24 0 42.833 5.66699 56.5 17s20.5 26.666 20.5 45.999v547h103v-563c0 -36.667 -12 -66.5 -36 -89.5s-54.667 -34.5 -92 -34.5zM123.999 614.001l-152 -58v65l152 86l152 -86v-65z" />
    <glyph glyph-name="uni0136" unicode="&#x136;" horiz-adv-x="725" 
d="M192 0h-109v700h109v-293h125l222 293h135l-266 -342l290 -358h-137l-245 312h-124v-312zM359 -227l-51 -0.000976562c30.667 26 46 50.667 46 74c0 10 -4.66699 20.167 -14 30.5s-14 20.833 -14 31.5c0 12.667 4.33301 23 13 31s19.667 12 33 12
c16 0 28.333 -5.66699 37 -17s13 -26.666 13 -45.999c0 -22 -5.5 -43.5 -16.5 -64.5s-26.5 -38.167 -46.5 -51.5z" />
    <glyph glyph-name="uni0137" unicode="&#x137;" horiz-adv-x="542" 
d="M73 720h103v-431h57l152 191h122l-193 -237l206 -243h-125l-163 200h-56v-200h-103v720zM294 -227l-51 -0.000976562c30.667 26 46 50.667 46 74c0 10 -4.66699 20.167 -14 30.5s-14 20.833 -14 31.5c0 12.667 4.33301 23 13 31s19.667 12 33 12
c16 0 28.333 -5.66699 37 -17s13 -26.666 13 -45.999c0 -22 -5.5 -43.5 -16.5 -64.5s-26.5 -38.167 -46.5 -51.5z" />
    <glyph glyph-name="Lacute" unicode="&#x139;" horiz-adv-x="635" 
d="M83 0v700h109v-605h415v-95h-524zM57 751v68l208 110v-96z" />
    <glyph glyph-name="lacute" unicode="&#x13a;" horiz-adv-x="279" 
d="M200 -7c-37.333 0 -67.834 11.499 -91.501 34.499s-35.5 52.833 -35.5 89.5v603h103v-587c0 -19.333 6.83301 -34.666 20.5 -45.999s32.167 -17 55.5 -17v-67c-15.333 -6.66699 -32.666 -10 -51.999 -10zM43.999 817.999l208 110v-96l-208 -83v69z" />
    <glyph glyph-name="uni013B" unicode="&#x13b;" horiz-adv-x="635" 
d="M607 0h-524v700h109v-605h415v-95zM287 -227c30.667 24.667 46 49.332 46 73.999c0 10 -4.66699 20.167 -14 30.5s-14 20.833 -14 31.5c0 12.667 4.33301 23 13 31s20 12 34 12c15.333 0 27.333 -5.66699 36 -17s13 -26.666 13 -45.999c0 -22 -5.5 -43.5 -16.5 -64.5
s-26.5 -38.167 -46.5 -51.5h-51z" />
    <glyph glyph-name="uni013C" unicode="&#x13c;" horiz-adv-x="279" 
d="M73 117l-0.000976562 602.999h103v-587c0 -19.333 6.83301 -34.666 20.5 -45.999s32.167 -17 55.5 -17v-67c-15.333 -6.66699 -32.666 -10 -51.999 -10c-37.333 0 -67.833 11.5 -91.5 34.5s-35.5 52.833 -35.5 89.5zM154.999 -227.001l-50 -0.000976562
c30.667 26 46 50.667 46 74c0 10 -4.66699 20.167 -14 30.5s-14 20.833 -14 31.5c0 12.667 4.16699 23 12.5 31s19.5 12 33.5 12c16 0 28.333 -5.66699 37 -17s13 -26.666 13 -45.999c0 -22 -5.5 -43.5 -16.5 -64.5s-26.833 -38.167 -47.5 -51.5z" />
    <glyph glyph-name="Lcaron" unicode="&#x13d;" horiz-adv-x="635" 
d="M607 0h-524v700h109v-605h415v-95zM344 483c34 36.667 51 71 51 103c0 12 -5.33301 24.333 -16 37s-16 25 -16 37c0 15.333 4.83301 27.666 14.5 36.999s22.5 14 38.5 14c20 0 35.167 -7.66699 45.5 -23s15.5 -35.666 15.5 -60.999c0 -59.333 -24.667 -107.333 -74 -144
h-59z" />
    <glyph glyph-name="lcaron" unicode="&#x13e;" horiz-adv-x="414" 
d="M200 -7c-37.333 0 -67.834 11.499 -91.501 34.499s-35.5 52.833 -35.5 89.5v603h103v-587c0 -19.333 6.83301 -34.666 20.5 -45.999s32.167 -17 55.5 -17v-67c-15.333 -6.66699 -32.666 -10 -51.999 -10zM323.999 502.999h-59c34 36.667 51 71 51 103
c0 12 -5.33301 24.333 -16 37s-16 25 -16 37c0 15.333 4.83301 27.666 14.5 36.999s22.5 14 38.5 14c20 0 35.167 -7.66699 45.5 -23s15.5 -35.666 15.5 -60.999c0 -59.333 -24.667 -107.333 -74 -144z" />
    <glyph glyph-name="Ldot" unicode="&#x13f;" horiz-adv-x="635" 
d="M83 700h109v-605h415v-95h-524v700zM459 342c-19.333 0 -35.166 6 -47.499 18s-18.5 27.667 -18.5 47s6.16699 35 18.5 47s28.166 18 47.499 18s35 -6 47 -18s18 -27.667 18 -47s-6 -35 -18 -47s-27.667 -18 -47 -18z" />
    <glyph glyph-name="ldot" unicode="&#x140;" horiz-adv-x="395" 
d="M200 -7c-37.333 0 -67.834 11.499 -91.501 34.499s-35.5 52.833 -35.5 89.5v603h103v-587c0 -19.333 6.83301 -34.666 20.5 -45.999s32.167 -17 55.5 -17v-67c-15.333 -6.66699 -32.666 -10 -51.999 -10zM325.999 284.999c-19.333 0 -35 6 -47 18s-18 27.667 -18 47
s6 35 18 47s27.667 18 47 18s35 -6 47 -18s18 -27.667 18 -47s-6 -35 -18 -47s-27.667 -18 -47 -18z" />
    <glyph glyph-name="Lslash" unicode="&#x141;" horiz-adv-x="635" 
d="M18 246l-33 57l98 57v340h109v-277l113 65l33 -58l-146 -84v-251h415v-95h-524v283z" />
    <glyph glyph-name="lslash" unicode="&#x142;" horiz-adv-x="279" 
d="M18 266l-33.001 56.999l88 50v347h103v-288l73 42l33 -57l-106 -61v-223c0 -19.333 6.83301 -34.666 20.5 -45.999s32.167 -17 55.5 -17v-67c-15.333 -6.66699 -32.666 -10 -51.999 -10c-37.333 0 -67.833 11.5 -91.5 34.5s-35.5 52.833 -35.5 89.5v180z" />
    <glyph glyph-name="Nacute" unicode="&#x143;" horiz-adv-x="853" 
d="M83 695h61l518 -505v510h106v-700h-62l-517 504v-504h-106v695zM346 819l208 110v-96l-208 -82v68z" />
    <glyph glyph-name="nacute" unicode="&#x144;" horiz-adv-x="606" 
d="M73 480h91l7 -40c36.667 32.667 84.334 49 143.001 49c69.333 0 124 -19.5 164 -58.5s60 -92.167 60 -159.5v-271h-103v271c0 40 -12.5 71.5 -37.5 94.5s-59.167 34.5 -102.5 34.5c-48.667 0 -88.334 -17 -119.001 -51v-349h-103v480zM221 619l207 110v-96l-207 -82v68z
" />
    <glyph glyph-name="uni0145" unicode="&#x145;" horiz-adv-x="853" 
d="M83 0v695h61l518 -505v510h106v-700h-62l-517 504v-504h-106zM364 -227c30.667 26 46 50.666 46 73.999c0 10 -4.66699 20.167 -14 30.5s-14 20.833 -14 31.5c0 12.667 4.16699 23 12.5 31s19.5 12 33.5 12c16 0 28.333 -5.66699 37 -17s13 -26.666 13 -45.999
c0 -22 -5.5 -43.5 -16.5 -64.5s-26.833 -38.167 -47.5 -51.5h-50z" />
    <glyph glyph-name="uni0146" unicode="&#x146;" horiz-adv-x="606" 
d="M176 0h-103v480h91l7 -40c36.667 32.667 84.334 49 143.001 49c69.333 0 124 -19.5 164 -58.5s60 -92.167 60 -159.5v-271h-103v271c0 40 -12.5 71.5 -37.5 94.5s-59.167 34.5 -102.5 34.5c-48.667 0 -88.334 -17 -119.001 -51v-349zM294 -227l-50 -0.000976562
c30.667 26 46 50.667 46 74c0 10 -4.66699 20.167 -14 30.5s-14 20.833 -14 31.5c0 12.667 4.16699 23 12.5 31s19.5 12 33.5 12c16 0 28.333 -5.66699 37 -17s13 -26.666 13 -45.999c0 -22 -5.5 -43.5 -16.5 -64.5s-26.833 -38.167 -47.5 -51.5z" />
    <glyph glyph-name="Ncaron" unicode="&#x147;" horiz-adv-x="853" 
d="M83 695h61l518 -505v510h106v-700h-62l-517 504v-504h-106v695zM274 906l152 -57l152 57v-65l-152 -85l-152 85v65z" />
    <glyph glyph-name="ncaron" unicode="&#x148;" horiz-adv-x="606" 
d="M73 0v480h91l7 -40c36.667 32.667 84.334 49 143.001 49c69.333 0 124 -19.5 164 -58.5s60 -92.167 60 -159.5v-271h-103v271c0 40 -12.5 71.5 -37.5 94.5s-59.167 34.5 -102.5 34.5c-48.667 0 -88.334 -17 -119.001 -51v-349h-103zM301 556l-152 85v65l152 -57l151 57
v-65z" />
    <glyph glyph-name="Eng" unicode="&#x14a;" horiz-adv-x="853" 
d="M83 695l61 -0.000976562l518 -505v510h106v-746c0 -49.333 -14.833 -88.666 -44.5 -117.999s-69.167 -44 -118.5 -44c-33.333 0 -63 7.66699 -89 23v91c16 -12.667 36.333 -19 61 -19c26 0 46.667 7.5 62 22.5s23 35.5 23 61.5v72l-473 461v-504h-106v695z" />
    <glyph glyph-name="eng" unicode="&#x14b;" horiz-adv-x="606" 
d="M176 0l-103.001 0.000976562v480h91l7 -40c36.667 32.667 84.334 49 143.001 49c69.333 0 124 -19.5 164 -58.5s60 -92.167 60 -159.5v-354c0 -36.667 -12 -66.5 -36 -89.5s-54.667 -34.5 -92 -34.5c-19.333 0 -36.666 3.33301 -51.999 10v67
c24 0 42.833 5.66699 56.5 17s20.5 26.666 20.5 45.999v338c0 40 -12.5 71.5 -37.5 94.5s-59.167 34.5 -102.5 34.5c-48.667 0 -88.334 -17 -119.001 -51v-349z" />
    <glyph glyph-name="Omacron" unicode="&#x14c;" horiz-adv-x="841" 
d="M54 350c0 106.667 34 193.5 102 260.5s156.333 100.5 265 100.5c108 0 196 -33.5 264 -100.5s102 -153.833 102 -260.5s-34 -193.5 -102 -260.5s-156 -100.5 -264 -100.5c-108.667 0 -197 33.5 -265 100.5s-102 153.833 -102 260.5zM421 90
c75.333 0 136.5 24.167 183.5 72.5s70.5 110.833 70.5 187.5c0 77.333 -23.667 140.166 -71 188.499s-108.333 72.5 -183 72.5c-75.333 0 -136.666 -24.167 -183.999 -72.5s-71 -111.166 -71 -188.499c0 -76.667 23.667 -139.167 71 -187.5s108.666 -72.5 183.999 -72.5z
M284 852h274v-66h-274v66z" />
    <glyph glyph-name="omacron" unicode="&#x14d;" 
d="M44 240c0 74 23.833 134.333 71.5 181s109.5 70 185.5 70c75.333 0 136.833 -23.333 184.5 -70s71.5 -107 71.5 -181s-23.833 -134.333 -71.5 -181s-109.167 -70 -184.5 -70c-76 0 -137.833 23.333 -185.5 70s-71.5 107 -71.5 181zM301 84
c44.667 0 80.834 14.5 108.501 43.5s41.5 66.5 41.5 112.5s-13.833 83.5 -41.5 112.5s-63.834 43.5 -108.501 43.5s-81 -14.5 -109 -43.5s-42 -66.5 -42 -112.5s14 -83.5 42 -112.5s64.333 -43.5 109 -43.5zM164 652h274v-66h-274v66z" />
    <glyph glyph-name="Obreve" unicode="&#x14e;" horiz-adv-x="841" 
d="M421 711c108 0 196 -33.5 264 -100.5s102 -153.833 102 -260.5s-34 -193.5 -102 -260.5s-156 -100.5 -264 -100.5c-108.667 0 -197 33.5 -265 100.5s-102 153.833 -102 260.5s34 193.5 102 260.5s156.333 100.5 265 100.5zM421 90c75.333 0 136.5 24.167 183.5 72.5
s70.5 110.833 70.5 187.5c0 77.333 -23.667 140.166 -71 188.499s-108.333 72.5 -183 72.5c-75.333 0 -136.666 -24.167 -183.999 -72.5s-71 -111.166 -71 -188.499c0 -76.667 23.667 -139.167 71 -187.5s108.666 -72.5 183.999 -72.5zM278 831l0.000976562 67
c44.667 -37.333 92.334 -56 143.001 -56c50 0 97.667 18.667 143 56v-67c-34.667 -44 -82.334 -66 -143.001 -66s-108.334 22 -143.001 66z" />
    <glyph glyph-name="obreve" unicode="&#x14f;" 
d="M301 491c75.333 0 136.833 -23.333 184.5 -70s71.5 -107 71.5 -181s-23.833 -134.333 -71.5 -181s-109.167 -70 -184.5 -70c-76 0 -137.833 23.333 -185.5 70s-71.5 107 -71.5 181s23.833 134.333 71.5 181s109.5 70 185.5 70zM301 84c44.667 0 80.834 14.5 108.501 43.5
s41.5 66.5 41.5 112.5s-13.833 83.5 -41.5 112.5s-63.834 43.5 -108.501 43.5s-81 -14.5 -109 -43.5s-42 -66.5 -42 -112.5s14 -83.5 42 -112.5s64.333 -43.5 109 -43.5zM158 631l0.000976562 67c44.667 -37.333 92.334 -56 143.001 -56c50 0 97.667 18.667 143 56v-67
c-34.667 -44 -82.334 -66 -143.001 -66s-108.334 22 -143.001 66z" />
    <glyph glyph-name="Ohungarumlaut" unicode="&#x150;" horiz-adv-x="841" 
d="M54 350c0 106.667 34 193.5 102 260.5s156.333 100.5 265 100.5c108 0 196 -33.5 264 -100.5s102 -153.833 102 -260.5s-34 -193.5 -102 -260.5s-156 -100.5 -264 -100.5c-108.667 0 -197 33.5 -265 100.5s-102 153.833 -102 260.5zM166 350
c0 -76.667 23.667 -139.167 71 -187.5s108.666 -72.5 183.999 -72.5s136.5 24.167 183.5 72.5s70.5 110.833 70.5 187.5c0 77.333 -23.667 140.166 -71 188.499s-108.333 72.5 -183 72.5c-75.333 0 -136.666 -24.167 -183.999 -72.5s-71 -111.166 -71 -188.499zM284 757
l91 143h99l-124 -143h-66zM522 757h-66l91 143h98z" />
    <glyph glyph-name="ohungarumlaut" unicode="&#x151;" 
d="M44 240c0 74 23.833 134.333 71.5 181s109.5 70 185.5 70c75.333 0 136.833 -23.333 184.5 -70s71.5 -107 71.5 -181s-23.833 -134.333 -71.5 -181s-109.167 -70 -184.5 -70c-76 0 -137.833 23.333 -185.5 70s-71.5 107 -71.5 181zM150 240c0 -46 14 -83.5 42 -112.5
s64.333 -43.5 109 -43.5s80.834 14.5 108.501 43.5s41.5 66.5 41.5 112.5s-13.833 83.5 -41.5 112.5s-63.834 43.5 -108.501 43.5s-81 -14.5 -109 -43.5s-42 -66.5 -42 -112.5zM164 557l91 143h99l-124 -143h-66zM402 557h-66l91 143h98z" />
    <glyph glyph-name="OE" unicode="&#x152;" horiz-adv-x="1248" 
d="M54 350c0 106.667 33.667 193.5 101 260.5s154.666 100.5 261.999 100.5c108.667 0 197 -35 265 -105v94h521v-94h-418v-205h343v-94h-343v-212h423v-95h-526v94c-68 -70 -156.333 -105 -265 -105c-107.333 0 -194.666 33.5 -261.999 100.5s-101 153.833 -101 260.5z
M421 90c75.333 0 136.5 24.167 183.5 72.5s70.5 110.833 70.5 187.5c0 77.333 -23.667 140.166 -71 188.499s-108.333 72.5 -183 72.5c-75.333 0 -136.666 -24.167 -183.999 -72.5s-71 -111.166 -71 -188.499c0 -76.667 23.667 -139.167 71 -187.5
s108.666 -72.5 183.999 -72.5z" />
    <glyph glyph-name="oe" unicode="&#x153;" horiz-adv-x="986" 
d="M299 491c88.667 0 157.001 -31.666 205.001 -94.999c45.333 63.333 111.333 95 198 95c76 0 135.667 -26.333 179 -79s61.666 -121.334 54.999 -206.001h-374c10 -38.667 32.667 -69 68 -91s79 -33 131 -33c62.667 0 113.667 16 153 48v-94
c-48.667 -31.333 -105.334 -47 -170.001 -47c-106.667 0 -185.667 33.667 -237 101c-47.333 -67.333 -116.666 -101 -207.999 -101c-75.333 0 -136.666 23.333 -183.999 70s-71 107 -71 181s23.667 134.333 71 181s108.666 70 183.999 70zM150.001 240.001
c0 -46 14 -83.502 42 -112.502s64 -43.5 108 -43.5c45.333 0 81.833 14.333 109.5 43s41.5 66.334 41.5 113.001s-13.833 84.334 -41.5 113.001s-64.167 43 -109.5 43c-44 0 -80 -14.5 -108 -43.5s-42 -66.5 -42 -112.5zM561.001 287.999h273.999
c-3.33301 34.667 -17 62.334 -41 83.001s-54.333 31 -91 31s-67.667 -10.333 -93 -31s-41.666 -48.334 -48.999 -83.001z" />
    <glyph glyph-name="Racute" unicode="&#x154;" horiz-adv-x="711" 
d="M192 0h-109v700h324c68.667 0 124.5 -19.5 167.5 -58.5s64.5 -89.5 64.5 -151.5c0 -49.333 -14.167 -91.833 -42.5 -127.5s-66.5 -60.167 -114.5 -73.5l188 -289h-129l-167 280h-182v-280zM397 606h-205v-232h205c38.667 0 70 10.833 94 32.5s36 49.5 36 83.5
s-12 61.833 -36 83.5s-55.333 32.5 -94 32.5zM271 819l207 110v-96l-207 -82v68z" />
    <glyph glyph-name="racute" unicode="&#x155;" horiz-adv-x="408" 
d="M73 0l0.000976562 480h91l6 -53c36 41.333 85 62 147 62c22 0 43 -2.66699 63 -8v-100c-20.667 12.667 -47 19 -79 19c-50.667 0 -92.334 -21.333 -125.001 -64v-336h-103zM146.001 551v68l208 110v-96z" />
    <glyph glyph-name="uni0156" unicode="&#x156;" horiz-adv-x="711" 
d="M192 0h-109v700h324c68.667 0 124.5 -19.5 167.5 -58.5s64.5 -89.5 64.5 -151.5c0 -49.333 -14.167 -91.833 -42.5 -127.5s-66.5 -60.167 -114.5 -73.5l188 -289h-129l-167 280h-182v-280zM397 606h-205v-232h205c38.667 0 70 10.833 94 32.5s36 49.5 36 83.5
s-12 61.833 -36 83.5s-55.333 32.5 -94 32.5zM359 -227l-50 -0.000976562c30.667 26 46 50.667 46 74c0 10 -4.66699 20.167 -14 30.5s-14 20.833 -14 31.5c0 12.667 4.16699 23 12.5 31s19.5 12 33.5 12c16 0 28.333 -5.66699 37 -17s13 -26.666 13 -45.999
c0 -22 -5.5 -43.5 -16.5 -64.5s-26.833 -38.167 -47.5 -51.5z" />
    <glyph glyph-name="uni0157" unicode="&#x157;" horiz-adv-x="408" 
d="M73 0l0.000976562 480h91l6 -53c36 41.333 85 62 147 62c22 0 43 -2.66699 63 -8v-100c-20.667 12.667 -47 19 -79 19c-50.667 0 -92.334 -21.333 -125.001 -64v-336h-103zM62.001 -227c30.667 26 46 50.666 46 73.999c0 10 -4.66699 20.167 -14 30.5
s-14 20.833 -14 31.5c0 12.667 4.33301 23 13 31s19.667 12 33 12c16 0 28.333 -5.66699 37 -17s13 -26.666 13 -45.999c0 -22 -5.5 -43.5 -16.5 -64.5s-26.5 -38.167 -46.5 -51.5h-51z" />
    <glyph glyph-name="Rcaron" unicode="&#x158;" horiz-adv-x="711" 
d="M83 700h324c68.667 0 124.5 -19.5 167.5 -58.5s64.5 -89.5 64.5 -151.5c0 -49.333 -14.167 -91.833 -42.5 -127.5s-66.5 -60.167 -114.5 -73.5l188 -289h-129l-167 280h-182v-280h-109v700zM192 374h205c38.667 0 70 10.833 94 32.5s36 49.5 36 83.5s-12 61.833 -36 83.5
s-55.333 32.5 -94 32.5h-205v-232zM351 756l-152 85v65l152 -57l151 57v-65z" />
    <glyph glyph-name="rcaron" unicode="&#x159;" horiz-adv-x="408" 
d="M73 0l0.000976562 480h91l6 -53c36 41.333 85 62 147 62c22 0 43 -2.66699 63 -8v-100c-20.667 12.667 -47 19 -79 19c-50.667 0 -92.334 -21.333 -125.001 -64v-336h-103zM74.001 706l152 -57l152 57v-65l-152 -85l-152 85v65z" />
    <glyph glyph-name="Sacute" unicode="&#x15a;" horiz-adv-x="645" 
d="M315 304c-90 18 -155.501 44.1709 -196.501 78.5039s-61.5 79.833 -61.5 136.5c0 61.333 22.333 108.666 67 141.999s108.334 50 191.001 50c98.667 0 175 -24.333 229 -73v-96c-47.333 46 -119 69 -215 69c-52.667 0 -93.667 -7.83301 -123 -23.5s-44 -37.5 -44 -65.5
c0 -26.667 14 -48.834 42 -66.501s71.667 -32.5 131 -44.5c89.333 -16.667 155.166 -42.834 197.499 -78.501s63.5 -82.5 63.5 -140.5c0 -64.667 -24.667 -114.334 -74 -149.001s-119.666 -52 -210.999 -52c-106 0 -189.667 24.333 -251 73v96c56 -46 135.333 -69 238 -69
c60 0 107.167 8.83301 141.5 26.5s51.5 42.167 51.5 73.5c0 26.667 -14 49 -42 67s-72.667 33.333 -134 46zM447.999 833.004l-207 -82v68l207 110v-96z" />
    <glyph glyph-name="sacute" unicode="&#x15b;" horiz-adv-x="502" 
d="M243 195c-66.667 11.333 -115.5 29.334 -146.5 54.001s-46.5 58.334 -46.5 101.001c0 45.333 16.667 80.166 50 104.499s82 36.5 146 36.5c74.667 0 131.334 -16.333 170.001 -49v-90c-33.333 30 -86 45 -158 45c-73.333 0 -110 -15.333 -110 -46
c0 -26 36.667 -45.333 110 -58c67.333 -11.333 117 -29.833 149 -55.5s48 -59.834 48 -102.501c0 -47.333 -18.667 -83.5 -56 -108.5s-91.333 -37.5 -162 -37.5c-78.667 0 -139.334 16.333 -182.001 49v90c38.667 -30 96.334 -45 173.001 -45
c39.333 0 70.666 4.66699 93.999 14s35 22 35 38c0 27.333 -38 47.333 -114 60zM374 633.001l-207 -82v68l207 110v-96z" />
    <glyph glyph-name="Scircumflex" unicode="&#x15c;" horiz-adv-x="645" 
d="M57 519c0 61.333 22.332 108.67 66.999 142.003s108.334 50 191.001 50c98.667 0 175 -24.333 229 -73v-96c-47.333 46 -119 69 -215 69c-52.667 0 -93.667 -7.83301 -123 -23.5s-44 -37.5 -44 -65.5c0 -26.667 14 -48.834 42 -66.501s71.667 -32.5 131 -44.5
c89.333 -16.667 155.166 -42.834 197.499 -78.501s63.5 -82.5 63.5 -140.5c0 -64.667 -24.667 -114.334 -74 -149.001s-119.666 -52 -210.999 -52c-106 0 -189.667 24.333 -251 73v96c56 -46 135.333 -69 238 -69c60 0 107.167 8.83301 141.5 26.5s51.5 42.167 51.5 73.5
c0 26.667 -14 49 -42 67s-72.667 33.333 -134 46c-90 18 -155.5 44.167 -196.5 78.5s-61.5 79.833 -61.5 136.5zM168.999 756.004v65l152 86l151 -86v-65l-151 58z" />
    <glyph glyph-name="scircumflex" unicode="&#x15d;" horiz-adv-x="502" 
d="M50 350c0 45.333 16.667 80.167 50 104.5s82 36.5 146 36.5c74.667 0 131.334 -16.333 170.001 -49v-90c-33.333 30 -86 45 -158 45c-73.333 0 -110 -15.333 -110 -46c0 -26 36.667 -45.333 110 -58c67.333 -11.333 117 -29.833 149 -55.5s48 -59.834 48 -102.501
c0 -47.333 -18.667 -83.5 -56 -108.5s-91.333 -37.5 -162 -37.5c-78.667 0 -139.334 16.333 -182.001 49v90c38.667 -30 96.334 -45 173.001 -45c39.333 0 70.666 4.66699 93.999 14s35 22 35 38c0 27.333 -38 47.333 -114 60c-66.667 11.333 -115.5 29.333 -146.5 54
s-46.5 58.334 -46.5 101.001zM95 556.001v65l152 86l152 -86v-65l-152 58z" />
    <glyph glyph-name="Scedilla" unicode="&#x15e;" horiz-adv-x="645" 
d="M315 304c-90 18 -155.503 44.1699 -196.503 78.5029s-61.5 79.833 -61.5 136.5c0 61.333 22.333 108.666 67 141.999s108.334 50 191.001 50c98.667 0 175 -24.333 229 -73v-96c-47.333 46 -119 69 -215 69c-52.667 0 -93.667 -7.83301 -123 -23.5s-44 -37.5 -44 -65.5
c0 -26.667 14 -48.834 42 -66.501s71.667 -32.5 131 -44.5c89.333 -16.667 155.166 -42.834 197.499 -78.501s63.5 -82.5 63.5 -140.5c0 -59.333 -20.5 -106 -61.5 -140s-99.833 -53.667 -176.5 -59l-4 -42c20 -4 36.833 -12.667 50.5 -26s20.5 -29.333 20.5 -48
c0 -22 -9.5 -40.167 -28.5 -54.5s-43.5 -21.5 -73.5 -21.5c-35.333 0 -64.666 9 -87.999 27v53c17.333 -14.667 40.333 -22 69 -22c33.333 0 50 8.66699 50 26c0 9.33301 -6.16699 17.5 -18.5 24.5s-29.166 11.5 -50.499 13.5l7 68c-95.333 2.66699 -172.666 27 -231.999 73
v96c56 -46 135.333 -69 238 -69c60 0 107.167 8.83301 141.5 26.5s51.5 42.167 51.5 73.5c0 26.667 -14 49 -42 67s-72.667 33.333 -134 46z" />
    <glyph glyph-name="scedilla" unicode="&#x15f;" horiz-adv-x="502" 
d="M243 195c-66.667 11.333 -115.499 29.335 -146.499 54.002s-46.5 58.334 -46.5 101.001c0 45.333 16.667 80.166 50 104.499s82 36.5 146 36.5c74.667 0 131.334 -16.333 170.001 -49v-90c-33.333 30 -86 45 -158 45c-73.333 0 -110 -15.333 -110 -46
c0 -26 36.667 -45.333 110 -58c67.333 -11.333 117 -29.833 149 -55.5s48 -59.834 48 -102.501c0 -42 -14.667 -75.333 -44 -100s-72.333 -39.334 -129 -44.001l-4 -40c20.667 -4 37.667 -12.667 51 -26s20 -29.333 20 -48c0 -22 -9.5 -40.333 -28.5 -55
s-43.167 -22 -72.5 -22c-34.667 0 -64 9.33301 -88 28v54c17.333 -15.333 40 -23 68 -23c15.333 0 27.666 2.5 36.999 7.5s14 11.167 14 18.5c0 9.33301 -6.33301 17.5 -19 24.5s-29.334 11.5 -50.001 13.5l6 66c-68 2.66699 -121.667 19 -161 49v90
c38.667 -30 96.334 -45 173.001 -45c39.333 0 70.666 4.66699 93.999 14s35 22 35 38c0 27.333 -38 47.333 -114 60z" />
    <glyph glyph-name="Scaron" unicode="&#x160;" horiz-adv-x="645" 
d="M57 519c0 61.333 22.332 108.67 66.999 142.003s108.334 50 191.001 50c98.667 0 175 -24.333 229 -73v-96c-47.333 46 -119 69 -215 69c-52.667 0 -93.667 -7.83301 -123 -23.5s-44 -37.5 -44 -65.5c0 -26.667 14 -48.834 42 -66.501s71.667 -32.5 131 -44.5
c89.333 -16.667 155.166 -42.834 197.499 -78.501s63.5 -82.5 63.5 -140.5c0 -64.667 -24.667 -114.334 -74 -149.001s-119.666 -52 -210.999 -52c-106 0 -189.667 24.333 -251 73v96c56 -46 135.333 -69 238 -69c60 0 107.167 8.83301 141.5 26.5s51.5 42.167 51.5 73.5
c0 26.667 -14 49 -42 67s-72.667 33.333 -134 46c-90 18 -155.5 44.167 -196.5 78.5s-61.5 79.833 -61.5 136.5zM320.999 756.004l-152 85v65l152 -57l151 57v-65z" />
    <glyph glyph-name="scaron" unicode="&#x161;" horiz-adv-x="502" 
d="M50 350c0 45.333 16.667 80.167 50 104.5s82 36.5 146 36.5c74.667 0 131.334 -16.333 170.001 -49v-90c-33.333 30 -86 45 -158 45c-73.333 0 -110 -15.333 -110 -46c0 -26 36.667 -45.333 110 -58c67.333 -11.333 117 -29.833 149 -55.5s48 -59.834 48 -102.501
c0 -47.333 -18.667 -83.5 -56 -108.5s-91.333 -37.5 -162 -37.5c-78.667 0 -139.334 16.333 -182.001 49v90c38.667 -30 96.334 -45 173.001 -45c39.333 0 70.666 4.66699 93.999 14s35 22 35 38c0 27.333 -38 47.333 -114 60c-66.667 11.333 -115.5 29.333 -146.5 54
s-46.5 58.334 -46.5 101.001zM247 556.001l-152 85v65l152 -57l152 57v-65z" />
    <glyph glyph-name="uni0162" unicode="&#x162;" horiz-adv-x="700" 
d="M29 606v94h642v-94h-267v-606h-108v606h-267zM289 -227c30 25.333 45 50.001 45 74.001c0 10 -4.66699 20.167 -14 30.5s-14 20.833 -14 31.5c0 12.667 4.33301 23 13 31s20 12 34 12c16 0 28.333 -5.83301 37 -17.5s13 -26.834 13 -45.501
c0 -22 -5.66699 -43.5 -17 -64.5s-27 -38.167 -47 -51.5h-50z" />
    <glyph glyph-name="uni0163" unicode="&#x163;" horiz-adv-x="396" 
d="M212 480l143 -0.00195312v-89h-143v-226c0 -25.333 7.5 -45.666 22.5 -60.999s35.167 -23 60.5 -23s45.333 6.33301 60 19v-85c-26 -15.333 -55.333 -23 -88 -23c-47.333 0 -85.5 13.833 -114.5 41.5s-43.5 63.834 -43.5 108.501v249h-86v89h86v75l103 50v-125z
M171 -227.002c30.667 26 46 50.666 46 73.999c0 10 -4.66699 20.167 -14 30.5s-14 20.833 -14 31.5c0 12.667 4.16699 23 12.5 31s19.5 12 33.5 12c16 0 28.333 -5.66699 37 -17s13 -26.666 13 -45.999c0 -22 -5.5 -43.5 -16.5 -64.5s-26.5 -38.167 -46.5 -51.5h-51z" />
    <glyph glyph-name="Tcaron" unicode="&#x164;" horiz-adv-x="700" 
d="M296 606h-267v94h642v-94h-267v-606h-108v606zM199 906l151 -57l152 57v-65l-152 -85l-151 85v65z" />
    <glyph glyph-name="tcaron" unicode="&#x165;" horiz-adv-x="430" 
d="M23 391v88.998h86v75l103 50v-125h143v-89h-143v-226c0 -25.333 7.5 -45.666 22.5 -60.999s35.167 -23 60.5 -23s45.333 6.33301 60 19v-85c-26 -15.333 -55.333 -23 -88 -23c-47.333 0 -85.5 13.833 -114.5 41.5s-43.5 63.834 -43.5 108.501v249h-86zM333 526.998
l-53 0.000976562c30.667 33.333 46 64 46 92c0 11.333 -4.66699 22.666 -14 33.999s-14 22.333 -14 33c0 13.333 4.33301 24.333 13 33s20 13 34 13c17.333 0 30.833 -7 40.5 -21s14.5 -32.333 14.5 -55c0 -52 -22.333 -95 -67 -129z" />
    <glyph glyph-name="Tbar" unicode="&#x166;" horiz-adv-x="700" 
d="M29 606v94h642v-94h-267v-228h133v-66h-133v-312h-108v312h-133v66h133v228h-267z" />
    <glyph glyph-name="tbar" unicode="&#x167;" horiz-adv-x="396" 
d="M23 391v88.998h86v75l103 50v-125h143v-89h-143v-91h133v-66h-133v-69c0 -25.333 7.5 -45.666 22.5 -60.999s35.167 -23 60.5 -23s45.333 6.33301 60 19v-85c-26 -15.333 -55.333 -23 -88 -23c-47.333 0 -85.5 13.833 -114.5 41.5s-43.5 63.834 -43.5 108.501v92h-76v66
h76v91h-86z" />
    <glyph glyph-name="Utilde" unicode="&#x168;" horiz-adv-x="810" 
d="M76 308l0.00195312 392h109v-388c0 -66 20.667 -119.5 62 -160.5s94.666 -61.5 159.999 -61.5c64.667 0 117.167 20.5 157.5 61.5s60.5 94.5 60.5 160.5v388h109v-392c0 -94 -30.333 -170.667 -91 -230s-139.334 -89 -236.001 -89c-97.333 0 -176.833 29.667 -238.5 89
s-92.5 136 -92.5 230zM343.002 889c22 0 44.001 -8.33496 66.001 -25.002s38 -25 48 -25c11.333 0 20.666 4.33301 27.999 13s11 19.667 11 33h78c0 -35.333 -10 -64.166 -30 -86.499s-45.667 -33.5 -77 -33.5c-22 0 -43.833 8.33301 -65.5 25s-37.834 25 -48.501 25
c-11.333 0 -20.666 -4.16699 -27.999 -12.5s-11 -19.166 -11 -32.499h-78c0 34.667 10 63.167 30 85.5s45.667 33.5 77 33.5z" />
    <glyph glyph-name="utilde" unicode="&#x169;" 
d="M68 200v280.001h103v-280c0 -38.667 11.5 -68.334 34.5 -89.001s55.5 -31 97.5 -31c50 0 90.667 17.333 122 52v348h103v-480h-92l-6 40c-38 -32.667 -86 -49 -144 -49c-68.667 0 -122.167 18.333 -160.5 55s-57.5 88 -57.5 154zM129 570.001c0 35.333 10 64 30 86
s45.667 33 77 33c22.667 0 44.667 -8.33301 66 -25s37.333 -25 48 -25c11.333 0 20.666 4.33301 27.999 13s11 19.667 11 33h78c0 -34.667 -10 -63.334 -30 -86.001s-45.667 -34 -77 -34c-22.667 0 -44.667 8.33301 -66 25s-37.333 25 -48 25
c-11.333 0 -20.666 -4.16699 -27.999 -12.5s-11 -19.166 -11 -32.499h-78z" />
    <glyph glyph-name="Umacron" unicode="&#x16a;" horiz-adv-x="810" 
d="M76 308l0.00195312 392h109v-388c0 -66 20.667 -119.5 62 -160.5s94.666 -61.5 159.999 -61.5c64.667 0 117.167 20.5 157.5 61.5s60.5 94.5 60.5 160.5v388h109v-392c0 -94 -30.333 -170.667 -91 -230s-139.334 -89 -236.001 -89c-97.333 0 -176.833 29.667 -238.5 89
s-92.5 136 -92.5 230zM542.002 786h-274v66h274v-66z" />
    <glyph glyph-name="umacron" unicode="&#x16b;" 
d="M68 480l103 0.000976562v-280c0 -38.667 11.5 -68.334 34.5 -89.001s55.5 -31 97.5 -31c50 0 90.667 17.333 122 52v348h103v-480h-92l-6 40c-38 -32.667 -86 -49 -144 -49c-68.667 0 -122.167 18.333 -160.5 55s-57.5 88 -57.5 154v280zM435 586.001h-274v66h274v-66z
" />
    <glyph glyph-name="Ubreve" unicode="&#x16c;" horiz-adv-x="810" 
d="M76 308l0.00195312 392h109v-388c0 -66 20.667 -119.5 62 -160.5s94.666 -61.5 159.999 -61.5c64.667 0 117.167 20.5 157.5 61.5s60.5 94.5 60.5 160.5v388h109v-392c0 -94 -30.333 -170.667 -91 -230s-139.334 -89 -236.001 -89c-97.333 0 -176.833 29.667 -238.5 89
s-92.5 136 -92.5 230zM405.002 842c50 0 97.668 18.667 143.001 56v-67c-34.667 -44 -82.334 -66 -143.001 -66s-108.334 22 -143.001 66v67c44.667 -37.333 92.334 -56 143.001 -56z" />
    <glyph glyph-name="ubreve" unicode="&#x16d;" 
d="M68 200v280.001h103v-280c0 -38.667 11.5 -68.334 34.5 -89.001s55.5 -31 97.5 -31c50 0 90.667 17.333 122 52v348h103v-480h-92l-6 40c-38 -32.667 -86 -49 -144 -49c-68.667 0 -122.167 18.333 -160.5 55s-57.5 88 -57.5 154zM155 698.001
c44.667 -37.333 92.335 -56 143.002 -56c50 0 97.667 18.667 143 56v-67c-34.667 -44 -82.334 -66 -143.001 -66s-108.334 22 -143.001 66v67z" />
    <glyph glyph-name="Uring" unicode="&#x16e;" horiz-adv-x="810" 
d="M76 308l0.00195312 392h109v-388c0 -66 20.667 -119.5 62 -160.5s94.666 -61.5 159.999 -61.5c64.667 0 117.167 20.5 157.5 61.5s60.5 94.5 60.5 160.5v388h109v-392c0 -94 -30.333 -170.667 -91 -230s-139.334 -89 -236.001 -89c-97.333 0 -176.833 29.667 -238.5 89
s-92.5 136 -92.5 230zM405.002 955c26 0 48.333 -9.33301 67 -28s28 -41 28 -67s-9.33301 -48.333 -28 -67s-41 -28 -67 -28s-48.333 9.33301 -67 28s-28 41 -28 67s9.33301 48.333 28 67s41 28 67 28zM405.002 819c11.333 0 21 4.16699 29 12.5s12 17.833 12 28.5
s-4 20.167 -12 28.5s-17.667 12.5 -29 12.5s-21 -4.16699 -29 -12.5s-12 -17.833 -12 -28.5s4 -20.167 12 -28.5s17.667 -12.5 29 -12.5z" />
    <glyph glyph-name="uring" unicode="&#x16f;" 
d="M68 200v280.001h103v-280c0 -38.667 11.5 -68.334 34.5 -89.001s55.5 -31 97.5 -31c50 0 90.667 17.333 122 52v348h103v-480h-92l-6 40c-38 -32.667 -86 -49 -144 -49c-68.667 0 -122.167 18.333 -160.5 55s-57.5 88 -57.5 154zM298 565.001
c-26.667 0 -49.167 9.33301 -67.5 28s-27.5 41 -27.5 67s9.16699 48.333 27.5 67s40.833 28 67.5 28c26 0 48.333 -9.33301 67 -28s28 -41 28 -67s-9.33301 -48.333 -28 -67s-41 -28 -67 -28zM257 660.001c0 -10.667 4.16699 -20.167 12.5 -28.5s17.833 -12.5 28.5 -12.5
s20.167 4.16699 28.5 12.5s12.5 17.833 12.5 28.5s-4.16699 20.167 -12.5 28.5s-17.833 12.5 -28.5 12.5s-20.167 -4.16699 -28.5 -12.5s-12.5 -17.833 -12.5 -28.5z" />
    <glyph glyph-name="Uhungarumlaut" unicode="&#x170;" horiz-adv-x="810" 
d="M76 308l0.00195312 392h109v-388c0 -66 20.667 -119.5 62 -160.5s94.666 -61.5 159.999 -61.5c64.667 0 117.167 20.5 157.5 61.5s60.5 94.5 60.5 160.5v388h109v-392c0 -94 -30.333 -170.667 -91 -230s-139.334 -89 -236.001 -89c-97.333 0 -176.833 29.667 -238.5 89
s-92.5 136 -92.5 230zM268.002 757l91 143h99l-123 -143h-67zM440.002 757l91 143h99l-124 -143h-66z" />
    <glyph glyph-name="uhungarumlaut" unicode="&#x171;" 
d="M68 200v280.001h103v-280c0 -38.667 11.5 -68.334 34.5 -89.001s55.5 -31 97.5 -31c50 0 90.667 17.333 122 52v348h103v-480h-92l-6 40c-38 -32.667 -86 -49 -144 -49c-68.667 0 -122.167 18.333 -160.5 55s-57.5 88 -57.5 154zM399 557.001h-66l91 143h99zM161 557.001
l91 143h99l-124 -143h-66z" />
    <glyph glyph-name="Uogonek" unicode="&#x172;" horiz-adv-x="810" 
d="M76 308l-0.000976562 391.999h109v-388c0 -66 20.667 -119.5 62 -160.5s94.666 -61.5 159.999 -61.5c64.667 0 117.167 20.5 157.5 61.5s60.5 94.5 60.5 160.5v388h109v-392c0 -81.333 -23.167 -150.166 -69.5 -206.499s-108.166 -91.833 -185.499 -106.5
c-31.333 -18.667 -47 -43.334 -47 -74.001c0 -17.333 6.16699 -31.666 18.5 -42.999s28.166 -17 47.499 -17c36.667 0 65.334 15.333 86.001 46v-70c-27.333 -28.667 -62.333 -43 -105 -43c-35.333 0 -64.166 9.83301 -86.499 29.5s-33.5 45.167 -33.5 76.5
c0 36.667 14 66.334 42 89.001c-96 1.33301 -174.167 31.666 -234.5 90.999s-90.5 135.333 -90.5 228z" />
    <glyph glyph-name="uogonek" unicode="&#x173;" 
d="M286 -9c-68.667 0 -122.168 18.333 -160.501 55s-57.5 88 -57.5 154v280h103v-280c0 -38.667 11.5 -68.334 34.5 -89.001s55.5 -31 97.5 -31c50 0 90.667 17.333 122 52v348h103v-480h-17c-21.333 -8.66699 -37.833 -20.5 -49.5 -35.5s-17.5 -31.167 -17.5 -48.5
s6.16699 -31.666 18.5 -42.999s28.166 -17 47.499 -17c36 0 65 15.333 87 46v-70c-27.333 -28.667 -62.666 -43 -105.999 -43c-35.333 0 -64.166 9.83301 -86.499 29.5s-33.5 45.167 -33.5 76.5c0 22.667 6 43.5 18 62.5s28.667 33.167 50 42.5h-3l-6 40
c-38 -32.667 -86 -49 -144 -49z" />
    <glyph glyph-name="Wcircumflex" unicode="&#x174;" horiz-adv-x="1145" 
d="M20 700h118l198 -508l211 508h50l211 -508l198 508h119l-289 -700h-51l-213 512l-213 -512h-51zM572 814l-151 -58v65l151 86l152 -86v-65z" />
    <glyph glyph-name="wcircumflex" unicode="&#x175;" horiz-adv-x="810" 
d="M15 480h107l128 -313l130 313h51l130 -313l128 313h106l-209 -480h-51l-130 315l-130 -315h-51zM405 614l-151 -58v65l151 86l152 -86v-65z" />
    <glyph glyph-name="Ycircumflex" unicode="&#x176;" horiz-adv-x="724" 
d="M308 294l-291 406h132l213 -307l213 307h132l-291 -406v-294h-108v294zM362 814l-151 -58v65l151 86l152 -86v-65z" />
    <glyph glyph-name="ycircumflex" unicode="&#x177;" horiz-adv-x="566" 
d="M232 52l-217 428h109l159 -320l159 320h109l-344 -680h-111zM283 614l-151 -58v65l151 86l152 -86v-65z" />
    <glyph glyph-name="Ydieresis" unicode="&#x178;" horiz-adv-x="724" 
d="M17 700h132l213 -307l213 307h132l-291 -406v-294h-108v294zM471 894c16.667 0 30.334 -5.5 41.001 -16.5s16 -24.833 16 -41.5s-5.33301 -30.5 -16 -41.5s-24.334 -16.5 -41.001 -16.5c-17.333 0 -31.333 5.33301 -42 16s-16 24.667 -16 42s5.33301 31.333 16 42
s24.667 16 42 16zM254 894c17.333 0 31.333 -5.33301 42 -16s16 -24.667 16 -42s-5.33301 -31.333 -16 -42s-24.667 -16 -42 -16c-16.667 0 -30.334 5.33301 -41.001 16s-16 24.667 -16 42s5.33301 31.333 16 42s24.334 16 41.001 16z" />
    <glyph glyph-name="Zacute" unicode="&#x179;" horiz-adv-x="743" 
d="M683 0h-623v50l454 556h-450v94h614v-50l-454 -555h459v-95zM292 819l208 110v-96l-208 -82v68z" />
    <glyph glyph-name="zacute" unicode="&#x17a;" horiz-adv-x="528" 
d="M488 0h-443v50l282 341h-278v89h434v-50l-283 -341h288v-89zM187 551v68l208 110v-96z" />
    <glyph glyph-name="Zdotaccent" unicode="&#x17b;" horiz-adv-x="743" 
d="M60 0v50l454 556h-450v94h614v-50l-454 -555h459v-95h-623zM372 778c-19.333 0 -35.166 6.16699 -47.499 18.5s-18.5 28.166 -18.5 47.499s6.16699 35 18.5 47s28.166 18 47.499 18c18.667 0 34.167 -6.16699 46.5 -18.5s18.5 -27.833 18.5 -46.5
c0 -19.333 -6 -35.166 -18 -47.499s-27.667 -18.5 -47 -18.5z" />
    <glyph glyph-name="zdotaccent" unicode="&#x17c;" horiz-adv-x="528" 
d="M45 0v50l282 341h-278v89h434v-50l-283 -341h288v-89h-443zM267 578c-19.333 0 -35.166 6.16699 -47.499 18.5s-18.5 28.166 -18.5 47.499s6.16699 35 18.5 47s28.166 18 47.499 18s35 -6.16699 47 -18.5s18 -27.833 18 -46.5c0 -19.333 -6 -35.166 -18 -47.499
s-27.667 -18.5 -47 -18.5z" />
    <glyph glyph-name="Zcaron" unicode="&#x17d;" horiz-adv-x="743" 
d="M683 0h-623v50l454 556h-450v94h614v-50l-454 -555h459v-95zM372 756l-152 85v65l152 -57l152 57v-65z" />
    <glyph glyph-name="zcaron" unicode="&#x17e;" horiz-adv-x="528" 
d="M488 0h-443v50l282 341h-278v89h434v-50l-283 -341h288v-89zM115 641v65l152 -57l152 57v-65l-152 -85z" />
    <glyph glyph-name="uni018F" unicode="&#x18f;" horiz-adv-x="798" 
d="M57 388l575.002 -0.000976562c-11.333 68 -44.833 122 -100.5 162s-125.834 60 -210.501 60c-95.333 0 -172.333 -25.333 -231 -76v100c69.333 51.333 154.333 77 255 77c119.333 0 215.666 -33.5 288.999 -100.5s110 -155.5 110 -265.5
c0 -103.333 -32.167 -188.166 -96.5 -254.499s-147.833 -99.5 -250.5 -99.5c-109.333 0 -195.5 36.833 -258.5 110.5s-90.167 169.167 -81.5 286.5zM392.002 90.999c64 0 117.833 19 161.5 57s70.167 87.333 79.5 148h-465c4 -62 26.667 -111.667 68 -149
s93.333 -56 156 -56z" />
    <glyph glyph-name="florin" unicode="&#x192;" horiz-adv-x="418" 
d="M-7 -211c-32 0 -60.002 7.33301 -84.002 22l12 84c14.667 -11.333 33.334 -17 56.001 -17c26 0 48 8.16699 66 24.5s28.667 38.166 32 65.499l53 373h-86l12 89h86l20 141c6.66699 47.333 26.834 85.833 60.501 115.5s74.167 44.5 121.5 44.5
c32.667 0 60.667 -7.33301 84 -22l-12 -84c-13.333 11.333 -32 17 -56 17c-26 0 -47.833 -8.16699 -65.5 -24.5s-28.5 -38.166 -32.5 -65.499l-17 -122h143l-12 -89h-144l-55 -392c-6.66699 -47.333 -26.667 -85.833 -60 -115.5s-74 -44.5 -122 -44.5z" />
    <glyph glyph-name="uni01DD" unicode="&#x1dd;" horiz-adv-x="572" 
d="M50 274l374 -0.00195312c-10 38.667 -32.5 69 -67.5 91s-78.833 33 -131.5 33c-62 0 -112.667 -16 -152 -48v94c47.333 31.333 103.666 47 168.999 47c86.667 0 156.167 -23.167 208.5 -69.5s78.5 -108.166 78.5 -185.499c0 -72.667 -22.667 -132 -68 -178
s-104.333 -69 -177 -69c-76 0 -135.667 26.333 -179 79s-61.666 121.334 -54.999 206.001zM283 77.998c36.667 0 67.668 10.333 93.001 31s41.666 48.334 48.999 83.001h-274c2.66699 -34.667 16.167 -62.334 40.5 -83.001s54.833 -31 91.5 -31z" />
    <glyph glyph-name="Aringacute" unicode="&#x1fa;" horiz-adv-x="798" 
d="M141 0l-121 -0.000976562l337 666c-16 8 -28.833 19.667 -38.5 35s-14.5 32 -14.5 50c0 28.667 10 51.834 30 69.501s44.333 26.5 73 26.5l55 93h100l-97 -120c19.333 -19.333 29 -42.333 29 -69c0 -18 -4.83301 -34.667 -14.5 -50s-22.5 -27 -38.5 -35l337 -666h-121
l-70 144h-376zM399 530.999l-142 -292h284zM359 750.999c0 -11.333 3.83301 -20.833 11.5 -28.5s17.167 -11.5 28.5 -11.5s21 4 29 12s12 17.333 12 28c0 11.333 -4 21 -12 29s-17.667 12 -29 12c-10.667 0 -20 -4 -28 -12s-12 -17.667 -12 -29z" />
    <glyph glyph-name="aringacute" unicode="&#x1fb;" horiz-adv-x="553" 
d="M237 -8c-59.333 0 -106.167 13.168 -140.5 39.501s-51.5 62.166 -51.5 107.499c0 47.333 18.833 84.333 56.5 111s89.834 40 156.501 40c30.667 0 67 -3.33301 109 -10v20c0 64.667 -45.667 97 -137 97c-62 0 -110.667 -14 -146 -42v92c45.333 28 100.666 42 165.999 42
c70 0 124.167 -15.5 162.5 -46.5s57.5 -74.833 57.5 -131.5v-197c0 -29.333 19.667 -44 59 -44v-66c-11.333 -6.66699 -28.333 -10 -51 -10c-41.333 0 -72 13.333 -92 40c-40 -28 -89.667 -42 -149 -42zM261.999 519.001c-26.667 0 -49.167 9.33301 -67.5 28
s-27.5 41.334 -27.5 68.001c0 28.667 10 51.5 30 68.5s44.667 25.5 74 25.5l57 97h97l-98 -122c20 -20 30 -43 30 -69c0 -26.667 -9.16699 -49.334 -27.5 -68.001s-40.833 -28 -67.5 -28zM147.999 139.001c0 -18.667 9.49902 -33.333 28.499 -44s45.167 -16 78.5 -16
c48 0 85.333 13.333 112 40v79c-35.333 5.33301 -64.333 8 -87 8c-41.333 0 -73.666 -6 -96.999 -18s-35 -28.333 -35 -49zM220.998 615.002c0 -11.333 4 -21.166 12 -29.499s17.667 -12.5 29 -12.5s21 4.16699 29 12.5s12 18.166 12 29.499c0 10.667 -4.16699 20 -12.5 28
s-17.833 12 -28.5 12s-20.167 -4 -28.5 -12s-12.5 -17.333 -12.5 -28z" />
    <glyph glyph-name="AEacute" unicode="&#x1fc;" horiz-adv-x="1002" 
d="M20 0l401 700h535v-94h-388v-205h313v-94h-313v-212h393v-95h-502v147h-233l-82 -147h-124zM459 566l-180 -324h180v324zM411 819l208 110v-96l-208 -82v68z" />
    <glyph glyph-name="aeacute" unicode="&#x1fd;" horiz-adv-x="896" 
d="M45 139c0 47.333 18.833 84.335 56.5 111.002s89.834 40 156.501 40c30.667 0 67 -3.33301 109 -10v20c0 64.667 -46 97 -138 97c-61.333 0 -109.666 -14 -144.999 -42v92c45.333 28 100.666 42 165.999 42c85.333 0 146.666 -22.667 183.999 -68
c45.333 46.667 104.333 70 177 70c76 0 135.833 -26.333 179.5 -79s62.167 -121.334 55.5 -206.001h-374c10 -38.667 32.5 -69 67.5 -91s78.5 -33 130.5 -33c62.667 0 113.667 16 153 48v-94c-48.667 -31.333 -105.667 -47 -171 -47c-97.333 0 -172.333 29.333 -225 88
c-44.667 -56.667 -108.667 -85 -192 -85c-58 0 -104.167 13.167 -138.5 39.5s-51.5 62.166 -51.5 107.499zM471 288.002h273.999c-3.33301 34.667 -17 62.334 -41 83.001s-54.333 31 -91 31s-67.667 -10.333 -93 -31s-41.666 -48.334 -48.999 -83.001zM277.999 206.002
c-40 0 -71.668 -5.99902 -95.001 -17.999s-35 -28.333 -35 -49c0 -18.667 9.16699 -33.334 27.5 -44.001s42.833 -16 73.5 -16c60 0 106 20.667 138 62c-7.33301 16 -12.666 35 -15.999 57c-45.333 5.33301 -76.333 8 -93 8zM572.998 633.003l-207 -82v68l207 110v-96z" />
    <glyph glyph-name="Oslashacute" unicode="&#x1fe;" horiz-adv-x="841" 
d="M421 711c56 0 107.333 -9.66895 154 -29.002l29 51l57 -33l-28 -48c48.667 -31.333 86.5 -73.166 113.5 -125.499s40.5 -111.166 40.5 -176.499c0 -106.667 -34 -193.5 -102 -260.5s-156 -100.5 -264 -100.5c-54.667 0 -106 9.33301 -154 28l-29 -50l-57 33l28 48
c-49.333 31.333 -87.5 73 -114.5 125s-40.5 111 -40.5 177c0 106.667 34 193.5 102 260.5s156.333 100.5 265 100.5zM166 349.998c0 -90.667 31.999 -160.668 95.999 -210.001l261 452c-32.667 12.667 -66.667 19 -102 19c-75.333 0 -136.666 -24.167 -183.999 -72.5
s-71 -111.166 -71 -188.499zM420.999 89.9971c75.333 0 136.5 24.167 183.5 72.5s70.5 110.833 70.5 187.5c0 91.333 -31.667 161.333 -95 210l-261 -452c31.333 -12 65.333 -18 102 -18zM547.999 832.997l-207 -82v68l207 110v-96z" />
    <glyph glyph-name="oslashacute" unicode="&#x1ff;" 
d="M162 24l-42.001 -50l-50 42l40 48c-44 46 -66 104.667 -66 176c0 74 23.833 134.333 71.5 181s109.5 70 185.5 70c52.667 0 98.667 -11.667 138 -35l42 50l50 -42l-40 -48c44 -46 66 -104.667 66 -176c0 -74 -23.833 -134.333 -71.5 -181s-109.167 -70 -184.5 -70
c-53.333 0 -99.666 11.667 -138.999 35zM426.999 340l-204 -242.999c23.333 -12.667 49.333 -19 78 -19c46 0 83.5 15 112.5 45s43.5 69 43.5 117c0 39.333 -10 72.666 -30 99.999zM173.999 140.001l204.001 243.999c-24 12 -49.667 18 -77 18
c-46.667 0 -84.334 -15 -113.001 -45s-43 -69 -43 -117c0 -39.333 9.66699 -72.666 29 -99.999zM221 619l207 110v-96l-207 -82v68z" />
    <glyph glyph-name="uni0218" unicode="&#x218;" horiz-adv-x="645" 
d="M57 519c0 61.333 22.332 108.67 66.999 142.003s108.334 50 191.001 50c98.667 0 175 -24.333 229 -73v-96c-47.333 46 -119 69 -215 69c-52.667 0 -93.667 -7.83301 -123 -23.5s-44 -37.5 -44 -65.5c0 -26.667 14 -48.834 42 -66.501s71.667 -32.5 131 -44.5
c89.333 -16.667 155.166 -42.834 197.499 -78.501s63.5 -82.5 63.5 -140.5c0 -64.667 -24.667 -114.334 -74 -149.001s-119.666 -52 -210.999 -52c-106 0 -189.667 24.333 -251 73v96c56 -46 135.333 -69 238 -69c60 0 107.167 8.83301 141.5 26.5s51.5 42.167 51.5 73.5
c0 26.667 -14 49 -42 67s-72.667 33.333 -134 46c-90 18 -155.5 44.167 -196.5 78.5s-61.5 79.833 -61.5 136.5zM262.999 -226.996c30.667 26 46 50.666 46 73.999c0 10 -4.66699 20.167 -14 30.5s-14 20.833 -14 31.5c0 12.667 4.33301 23 13 31s19.667 12 33 12
c16 0 28.333 -5.66699 37 -17s13 -26.666 13 -45.999c0 -22 -5.5 -43.5 -16.5 -64.5s-26.5 -38.167 -46.5 -51.5h-51z" />
    <glyph glyph-name="uni0219" unicode="&#x219;" horiz-adv-x="502" 
d="M50 350c0 45.333 16.667 80.167 50 104.5s82 36.5 146 36.5c74.667 0 131.334 -16.333 170.001 -49v-90c-33.333 30 -86 45 -158 45c-73.333 0 -110 -15.333 -110 -46c0 -26 36.667 -45.333 110 -58c67.333 -11.333 117 -29.833 149 -55.5s48 -59.834 48 -102.501
c0 -47.333 -18.667 -83.5 -56 -108.5s-91.333 -37.5 -162 -37.5c-78.667 0 -139.334 16.333 -182.001 49v90c38.667 -30 96.334 -45 173.001 -45c39.333 0 70.666 4.66699 93.999 14s35 22 35 38c0 27.333 -38 47.333 -114 60c-66.667 11.333 -115.5 29.333 -146.5 54
s-46.5 58.334 -46.5 101.001zM187 -226.999c31.333 26 47 50.666 47 73.999c0 9.33301 -4.83301 19.333 -14.5 30s-14.5 21.334 -14.5 32.001c0 12.667 4.33301 23 13 31s19.667 12 33 12c16 0 28.5 -5.66699 37.5 -17s13.5 -26.666 13.5 -45.999
c0 -22.667 -5.66699 -44.334 -17 -65.001s-27 -37.667 -47 -51h-51z" />
    <glyph glyph-name="uni021A" unicode="&#x21a;" horiz-adv-x="700" 
d="M29 606v94h642v-94h-267v-606h-108v606h-267zM289 -227c30 25.333 45 50.001 45 74.001c0 10 -4.66699 20.167 -14 30.5s-14 20.833 -14 31.5c0 12.667 4.33301 23 13 31s20 12 34 12c16 0 28.333 -5.83301 37 -17.5s13 -26.834 13 -45.501
c0 -22 -5.66699 -43.5 -17 -64.5s-27 -38.167 -47 -51.5h-50z" />
    <glyph glyph-name="uni021B" unicode="&#x21b;" horiz-adv-x="396" 
d="M212 480l143 -0.00195312v-89h-143v-226c0 -25.333 7.5 -45.666 22.5 -60.999s35.167 -23 60.5 -23s45.333 6.33301 60 19v-85c-26 -15.333 -55.333 -23 -88 -23c-47.333 0 -85.5 13.833 -114.5 41.5s-43.5 63.834 -43.5 108.501v249h-86v89h86v75l103 50v-125z
M171 -227.002c30.667 26 46 50.666 46 73.999c0 10 -4.66699 20.167 -14 30.5s-14 20.833 -14 31.5c0 12.667 4.16699 23 12.5 31s19.5 12 33.5 12c16 0 28.333 -5.66699 37 -17s13 -26.666 13 -45.999c0 -22 -5.5 -43.5 -16.5 -64.5s-26.5 -38.167 -46.5 -51.5h-51z" />
    <glyph glyph-name="uni0237" unicode="&#x237;" horiz-adv-x="249" 
d="M-4 -130c24 0 42.832 5.66797 56.499 17.001s20.5 26.666 20.5 45.999v547h103v-563c0 -36.667 -12 -66.5 -36 -89.5s-54.667 -34.5 -92 -34.5c-19.333 0 -36.666 3.33301 -51.999 10v67z" />
    <glyph glyph-name="uni0259" unicode="&#x259;" horiz-adv-x="572" 
d="M50 274l374 -0.00195312c-10 38.667 -32.5 69 -67.5 91s-78.833 33 -131.5 33c-62 0 -112.667 -16 -152 -48v94c47.333 31.333 103.666 47 168.999 47c86.667 0 156.167 -23.167 208.5 -69.5s78.5 -108.166 78.5 -185.499c0 -72.667 -22.667 -132 -68 -178
s-104.333 -69 -177 -69c-76 0 -135.667 26.333 -179 79s-61.666 121.334 -54.999 206.001zM283 77.998c36.667 0 67.668 10.333 93.001 31s41.666 48.334 48.999 83.001h-274c2.66699 -34.667 16.167 -62.334 40.5 -83.001s54.833 -31 91.5 -31z" />
    <glyph glyph-name="circumflex" unicode="&#x2c6;" horiz-adv-x="423" 
d="M60 625l152 85l151 -85v-65l-151 57l-152 -57v65z" />
    <glyph glyph-name="caron" unicode="&#x2c7;" horiz-adv-x="423" 
d="M60 644v65l152 -56l151 56v-65l-151 -84z" />
    <glyph glyph-name="breve" unicode="&#x2d8;" horiz-adv-x="423" 
d="M68 631v67c44.667 -37.333 92.667 -56 144 -56c50 0 97.333 18.667 142 56v-67c-34 -44.667 -81.333 -67 -142 -67c-60 0 -108 22.333 -144 67z" />
    <glyph glyph-name="dotaccent" unicode="&#x2d9;" horiz-adv-x="251" 
d="M59 644c0 18.667 6.33301 34 19 46s28.667 18 48 18s35 -6 47 -18s18 -27.333 18 -46c0 -19.333 -6 -35.166 -18 -47.499s-27.667 -18.5 -47 -18.5s-35.333 6.16699 -48 18.5s-19 28.166 -19 47.499z" />
    <glyph glyph-name="ring" unicode="&#x2da;" horiz-adv-x="309" 
d="M156 755c25.333 0 47.333 -9.33301 66 -28s28 -40.667 28 -66c0 -26.667 -9.33301 -49.5 -28 -68.5s-40.667 -28.5 -66 -28.5c-26.667 0 -49.5 9.5 -68.5 28.5s-28.5 41.833 -28.5 68.5c0 25.333 9.5 47.333 28.5 66s41.833 28 68.5 28zM114 661
c0 -11.333 4.16699 -21.166 12.5 -29.499s18.166 -12.5 29.499 -12.5c10.667 0 20 4.16699 28 12.5s12 18.166 12 29.499c0 10.667 -4 20 -12 28s-17.333 12 -28 12c-11.333 0 -21.166 -4 -29.499 -12s-12.5 -17.333 -12.5 -28z" />
    <glyph glyph-name="ogonek" unicode="&#x2db;" horiz-adv-x="346" 
d="M59 -105c0 22.667 6.1709 43.499 18.5039 62.499s29.166 33.167 50.499 42.5h71c-20.667 -8.66699 -36.834 -20.5 -48.501 -35.5s-17.5 -31.167 -17.5 -48.5s6.16699 -31.666 18.5 -42.999s28.166 -17 47.499 -17c36 0 64.667 15.333 86 46v-70
c-26.667 -28.667 -61.334 -43 -104.001 -43c-36 0 -65.333 9.83301 -88 29.5s-34 45.167 -34 76.5z" />
    <glyph glyph-name="tilde" unicode="&#x2dc;" horiz-adv-x="457" 
d="M137 569l-78 0.000976562c0 36 10 65 30 87s45.667 33 77 33c22.667 0 44.834 -8.16699 66.501 -24.5s37.5 -24.5 47.5 -24.5c11.333 0 20.666 4.16699 27.999 12.5s11 19.166 11 32.499h78c0 -35.333 -10 -64.333 -30 -87s-45.667 -34 -77 -34
c-22 0 -43.667 8.5 -65 25.5s-37.333 25.5 -48 25.5c-11.333 0 -20.833 -4.33301 -28.5 -13s-11.5 -19.667 -11.5 -33z" />
    <glyph glyph-name="hungarumlaut" unicode="&#x2dd;" horiz-adv-x="481" 
d="M126 557h-66l91 143h99zM231 557l92 143h98l-124 -143h-66z" />
    <glyph glyph-name="uni0400" unicode="&#x400;" horiz-adv-x="655" 
d="M83 0v700h526v-94h-417v-205h342v-94h-342v-212h422v-95h-531zM429 751l-202 80v98l202 -110v-68z" />
    <glyph glyph-name="uni0401" unicode="&#x401;" horiz-adv-x="655" 
d="M83 700h526v-94h-417v-205h342v-94h-342v-212h422v-95h-531v700zM399 836c0 17.333 5.5 31.333 16.5 42s24.833 16 41.5 16s30.5 -5.33301 41.5 -16s16.5 -24.667 16.5 -42s-5.5 -31.333 -16.5 -42s-24.833 -16 -41.5 -16s-30.5 5.33301 -41.5 16s-16.5 24.667 -16.5 42z
M241 778c-16.667 0 -30.5 5.33301 -41.5 16s-16.5 24.667 -16.5 42s5.5 31.333 16.5 42s24.833 16 41.5 16s30.334 -5.33301 41.001 -16s16 -24.667 16 -42s-5.33301 -31.333 -16 -42s-24.334 -16 -41.001 -16z" />
    <glyph glyph-name="uni0402" unicode="&#x402;" horiz-adv-x="929" 
d="M296 606h-267v94h642v-94h-267v-220c50.667 29.333 115 44 193 44c90 0 157.833 -20.333 203.5 -61s68.5 -100 68.5 -178v-237c0 -49.333 -14.833 -88.666 -44.5 -117.999s-69.167 -44 -118.5 -44c-33.333 0 -63 7.66699 -89 23v91c16 -12.667 36 -19 60 -19
c25.333 0 45.5 7.5 60.5 22.5s22.5 35.5 22.5 61.5v218c0 49.333 -14.167 85.666 -42.5 108.999s-73.5 35 -135.5 35c-72 0 -131.333 -14 -178 -42v-291h-108v606z" />
    <glyph glyph-name="uni0403" unicode="&#x403;" horiz-adv-x="610" 
d="M83 700h499v-94h-390v-606h-109v700zM253 751v68l207 110v-96z" />
    <glyph glyph-name="uni0404" unicode="&#x404;" horiz-adv-x="710" 
d="M42 350c0 106.667 34.6689 193.499 104.002 260.499s158.666 100.5 267.999 100.5c91.333 0 169.666 -24.667 234.999 -74v-114c-54.667 58.667 -128 88 -220 88c-71.333 0 -131.5 -19.167 -180.5 -57.5s-79.167 -89.166 -90.5 -152.499h382v-94h-383
c9.33301 -65.333 38.666 -117.833 87.999 -157.5s110.666 -59.5 183.999 -59.5c92.667 0 166 29 220 87v-114c-65.333 -49.333 -143.666 -74 -234.999 -74c-109.333 0 -198.666 33.5 -267.999 100.5s-104 153.833 -104 260.5z" />
    <glyph glyph-name="uni0405" unicode="&#x405;" horiz-adv-x="645" 
d="M57 519c0 61.333 22.332 108.67 66.999 142.003s108.334 50 191.001 50c98.667 0 175 -24.333 229 -73v-96c-47.333 46 -119 69 -215 69c-52.667 0 -93.667 -7.83301 -123 -23.5s-44 -37.5 -44 -65.5c0 -26.667 14 -48.834 42 -66.501s71.667 -32.5 131 -44.5
c89.333 -16.667 155.166 -42.834 197.499 -78.501s63.5 -82.5 63.5 -140.5c0 -64.667 -24.667 -114.334 -74 -149.001s-119.666 -52 -210.999 -52c-106 0 -189.667 24.333 -251 73v96c56 -46 135.333 -69 238 -69c60 0 107.167 8.83301 141.5 26.5s51.5 42.167 51.5 73.5
c0 26.667 -14 49 -42 67s-72.667 33.333 -134 46c-90 18 -155.5 44.167 -196.5 78.5s-61.5 79.833 -61.5 136.5z" />
    <glyph glyph-name="uni0406" unicode="&#x406;" horiz-adv-x="274" 
d="M83 700h109v-700h-109v700z" />
    <glyph glyph-name="uni0407" unicode="&#x407;" horiz-adv-x="274" 
d="M192 0h-109v700h109v-700zM237 778c-16.667 0 -30.334 5.33301 -41.001 16s-16 24.667 -16 42s5.33301 31.333 16 42s24.334 16 41.001 16s30.5 -5.33301 41.5 -16s16.5 -24.667 16.5 -42s-5.5 -31.333 -16.5 -42s-24.833 -16 -41.5 -16zM-20 836
c0 17.333 5.33301 31.333 16 42s24.667 16 42 16c16.667 0 30.334 -5.33301 41.001 -16s16 -24.667 16 -42s-5.33301 -31.333 -16 -42s-24.334 -16 -41.001 -16c-17.333 0 -31.333 5.33301 -42 16s-16 24.667 -16 42z" />
    <glyph glyph-name="uni0408" unicode="&#x408;" horiz-adv-x="310" 
d="M64 -208c-33.333 0 -62.999 7.66602 -88.999 22.999v91c16 -12.667 36 -19 60 -19c25.333 0 45.666 7.5 60.999 22.5s23 35.5 23 61.5v729h108v-746c0 -49.333 -14.833 -88.666 -44.5 -117.999s-69.167 -44 -118.5 -44z" />
    <glyph glyph-name="uni0409" unicode="&#x409;" horiz-adv-x="1196" 
d="M26 79l19 0.000976562c23.333 0 42.666 6.5 57.999 19.5s29.333 37 42 72s21.834 85.667 27.501 152s8.5 150.166 8.5 251.499v126h536v-280h201c68.667 0 124.334 -19.5 167.001 -58.5s64 -89.5 64 -151.5s-21.333 -112.5 -64 -151.5s-98.334 -58.5 -167.001 -58.5h-310
v606h-324v-47c0 -96.667 -3.33301 -179.834 -10 -249.501s-15.5 -124.667 -26.5 -165s-25.333 -72.166 -43 -95.499s-35 -38.5 -52 -45.5s-37.5 -10.5 -61.5 -10.5c-25.333 0 -47 3.33301 -65 10v76zM908 326.001h-191v-231h191c38 0 69.167 10.667 93.5 32s36.5 49 36.5 83
s-12.167 61.833 -36.5 83.5s-55.5 32.5 -93.5 32.5z" />
    <glyph glyph-name="uni040A" unicode="&#x40a;" horiz-adv-x="1196" 
d="M192 0h-109v700h109v-288h416v288h109v-288h201c68.667 0 124.334 -19 167.001 -57s64 -87.667 64 -149c0 -60.667 -21.333 -110.167 -64 -148.5s-98.334 -57.5 -167.001 -57.5h-310v318h-416v-318zM908 318l-191 -0.000976562v-223h191c38 0 69.167 10.333 93.5 31
s36.5 47.334 36.5 80.001s-12.167 59.5 -36.5 80.5s-55.5 31.5 -93.5 31.5z" />
    <glyph glyph-name="uni040B" unicode="&#x40b;" horiz-adv-x="929" 
d="M29 700l642 0.000976562v-94h-267v-220c50.667 29.333 115 44 193 44c90 0 157.833 -20.333 203.5 -61s68.5 -100 68.5 -178v-191h-109v189c0 49.333 -14.167 85.666 -42.5 108.999s-73.5 35 -135.5 35c-72 0 -131.333 -14 -178 -42v-291h-108v606h-267v94z" />
    <glyph glyph-name="uni040C" unicode="&#x40c;" horiz-adv-x="725" 
d="M192 0h-109v700h109v-293h125l222 293h135l-266 -342l290 -358h-137l-245 312h-124v-312zM280 819l208 110v-96l-208 -82v68z" />
    <glyph glyph-name="uni040D" unicode="&#x40d;" horiz-adv-x="853" 
d="M144 0h-61v700h109v-513l514 508h62v-695h-109v509zM304 929l202 -110v-68l-202 80v98z" />
    <glyph glyph-name="uni040E" unicode="&#x40e;" horiz-adv-x="747" 
d="M20 700h126.999l234 -407l221 407h125l-329 -583c-47.333 -83.333 -107.666 -125 -180.999 -125c-34.667 0 -64.667 7.66699 -90 23v88c18 -12.667 40.667 -19 68 -19c46.667 0 85 26.667 115 80l16 29zM220.999 868h70.999c0 -21.333 7.66699 -38.833 23 -52.5
s35.333 -20.5 60 -20.5c24 0 43.667 6.83301 59 20.5s23 31.167 23 52.5h71c0 -42.667 -14.167 -77.334 -42.5 -104.001s-65.166 -40 -110.499 -40s-82.333 13.333 -111 40s-43 61.334 -43 104.001z" />
    <glyph glyph-name="uni040F" unicode="&#x40f;" horiz-adv-x="828" 
d="M83 0v700h109v-605h445v605h109v-700h-277v-160h-109v160h-277z" />
    <glyph glyph-name="uni0410" unicode="&#x410;" horiz-adv-x="798" 
d="M20 0l354 700h50l354 -700h-121l-70 144h-376l-70 -144h-121zM399 531l-142 -292h284z" />
    <glyph glyph-name="uni0411" unicode="&#x411;" horiz-adv-x="694" 
d="M83 700h496v-94h-387v-186h218c68.667 0 124.5 -19.5 167.5 -58.5s64.5 -89.5 64.5 -151.5s-21.5 -112.5 -64.5 -151.5s-98.833 -58.5 -167.5 -58.5h-327v700zM400 326h-208v-231h208c38.667 0 70 10.667 94 32s36 49 36 83s-12 61.833 -36 83.5s-55.333 32.5 -94 32.5z
" />
    <glyph glyph-name="uni0412" unicode="&#x412;" horiz-adv-x="708" 
d="M83 0v700h333c61.333 0 111.333 -17.167 150 -51.5s58 -78.833 58 -133.5c0 -67.333 -27.333 -118 -82 -152c34.667 -16 61.667 -38.667 81 -68s29 -63.333 29 -102c0 -57.333 -20.5 -103.833 -61.5 -139.5s-94.167 -53.5 -159.5 -53.5h-348zM417 312l-225 0.000976562
v-217h225c36 0 65.5 10.167 88.5 30.5s34.5 46.166 34.5 77.499c0 32 -11.5 58.167 -34.5 78.5s-52.5 30.5 -88.5 30.5zM398 606.001l-206 0.000976562v-203h206c33.333 0 60.833 9.5 82.5 28.5s32.5 43.167 32.5 72.5s-10.833 53.666 -32.5 72.999s-49.167 29 -82.5 29z
" />
    <glyph glyph-name="uni0413" unicode="&#x413;" horiz-adv-x="610" 
d="M83 700h499v-94h-390v-606h-109v700z" />
    <glyph glyph-name="uni0414" unicode="&#x414;" horiz-adv-x="854" 
d="M137 -160h-108v255h74c30 21.333 51.833 68 65.5 140s20.5 185 20.5 339v126h536v-605h100v-255h-109v160h-579v-160zM227 95h389v511h-324v-46c0 -230.667 -21.667 -385.667 -65 -465z" />
    <glyph glyph-name="uni0415" unicode="&#x415;" horiz-adv-x="655" 
d="M83 0v700h526v-94h-417v-205h342v-94h-342v-212h422v-95h-531z" />
    <glyph glyph-name="uni0416" unicode="&#x416;" horiz-adv-x="1133" 
d="M27 0l273 358l-256 342h133l215 -293h120v293h109v-293h120l215 293h134l-257 -342l273 -358h-134l-233 312h-118v-312h-109v312h-118l-233 -312h-134z" />
    <glyph glyph-name="uni0417" unicode="&#x417;" horiz-adv-x="671" 
d="M312 -11c-101.333 0 -185.003 25.665 -251.003 76.998v114c54.667 -60 134 -90 238 -90c60.667 0 109.834 10.5 147.501 31.5s56.5 49.5 56.5 85.5c0 30 -11.667 55 -35 75s-52.666 30 -87.999 30h-148v91h134c33.333 0 60.833 9.5 82.5 28.5s32.5 42.5 32.5 70.5
c0 34 -16.667 60.667 -50 80s-77.666 29 -132.999 29c-100.667 0 -178 -30.333 -232 -91v114c64.667 51.333 146.667 77 246 77c85.333 0 153.5 -17.5 204.5 -52.5s76.5 -83.167 76.5 -144.5c0 -66.667 -28.667 -117.667 -86 -153c34 -15.333 60.5 -37.666 79.5 -66.999
s28.5 -62.666 28.5 -99.999c0 -64 -27.5 -114.167 -82.5 -150.5s-128.5 -54.5 -220.5 -54.5z" />
    <glyph glyph-name="uni0418" unicode="&#x418;" horiz-adv-x="853" 
d="M144 0h-61v700h109v-513l514 508h62v-695h-109v509z" />
    <glyph glyph-name="uni0419" unicode="&#x419;" horiz-adv-x="853" 
d="M144 0h-61v700h109v-513l514 508h62v-695h-109v509zM273 868h71.001c0 -21.333 7.66699 -38.833 23 -52.5s35.333 -20.5 60 -20.5c24 0 43.667 6.83301 59 20.5s23 31.167 23 52.5h71c0 -42.667 -14.333 -77.334 -43 -104.001s-65.334 -40 -110.001 -40
c-45.333 0 -82.333 13.333 -111 40s-43 61.334 -43 104.001z" />
    <glyph glyph-name="uni041A" unicode="&#x41a;" horiz-adv-x="725" 
d="M83 0v700h109v-293h125l222 293h135l-266 -342l290 -358h-137l-245 312h-124v-312h-109z" />
    <glyph glyph-name="uni041B" unicode="&#x41b;" horiz-adv-x="799" 
d="M26 3v76.001h19c23.333 0 42.666 6.5 57.999 19.5s29.333 37 42 72s21.834 85.667 27.501 152s8.5 150.166 8.5 251.499v126h536v-700h-109v606h-324v-47c0 -96.667 -3.33301 -179.834 -10 -249.501s-15.5 -124.667 -26.5 -165s-25.333 -72.166 -43 -95.499
s-35 -38.5 -52 -45.5s-37.5 -10.5 -61.5 -10.5c-25.333 0 -47 3.33301 -65 10z" />
    <glyph glyph-name="uni041C" unicode="&#x41c;" horiz-adv-x="964" 
d="M192 0h-109v700h62l337 -506l337 507h62v-701h-109v456l-265 -406h-50l-265 405v-455z" />
    <glyph glyph-name="uni041D" unicode="&#x41d;" horiz-adv-x="843" 
d="M192 0h-109v700h109v-299h460v299h109v-700h-109v307h-460v-307z" />
    <glyph glyph-name="uni041E" unicode="&#x41e;" horiz-adv-x="841" 
d="M421 711c108 0 196 -33.5 264 -100.5s102 -153.833 102 -260.5s-34 -193.5 -102 -260.5s-156 -100.5 -264 -100.5c-108.667 0 -197 33.5 -265 100.5s-102 153.833 -102 260.5s34 193.5 102 260.5s156.333 100.5 265 100.5zM166 350c0 -76.667 23.667 -139.167 71 -187.5
s108.666 -72.5 183.999 -72.5s136.5 24.167 183.5 72.5s70.5 110.833 70.5 187.5c0 77.333 -23.667 140.166 -71 188.499s-108.333 72.5 -183 72.5c-75.333 0 -136.666 -24.167 -183.999 -72.5s-71 -111.166 -71 -188.499z" />
    <glyph glyph-name="uni041F" unicode="&#x41f;" horiz-adv-x="831" 
d="M83 0v700h666v-700h-109v606h-448v-606h-109z" />
    <glyph glyph-name="uni0420" unicode="&#x420;" horiz-adv-x="671" 
d="M192 0h-109v700h310c68.667 0 124.334 -19.5 167.001 -58.5s64 -89.5 64 -151.5s-21.333 -112.5 -64 -151.5s-98.334 -58.5 -167.001 -58.5h-201v-280zM192 374h191c38 0 69.167 10.833 93.5 32.5s36.5 49.5 36.5 83.5s-12.167 61.833 -36.5 83.5s-55.5 32.5 -93.5 32.5
h-191v-232z" />
    <glyph glyph-name="uni0421" unicode="&#x421;" horiz-adv-x="710" 
d="M414 -11c-109.333 0 -198.666 33.499 -267.999 100.499s-104 153.833 -104 260.5s34.667 193.5 104 260.5s158.666 100.5 267.999 100.5c91.333 0 169.666 -24.667 234.999 -74v-114c-54.667 58.667 -128 88 -220 88c-81.333 0 -147.5 -24.167 -198.5 -72.5
s-76.5 -111.166 -76.5 -188.499s25.5 -140 76.5 -188s117.167 -72 198.5 -72c92.667 0 166 29 220 87v-114c-65.333 -49.333 -143.666 -74 -234.999 -74z" />
    <glyph glyph-name="uni0422" unicode="&#x422;" horiz-adv-x="700" 
d="M296 606h-267v94h642v-94h-267v-606h-108v606z" />
    <glyph glyph-name="uni0423" unicode="&#x423;" horiz-adv-x="747" 
d="M20 700h126.999l234 -407l221 407h125l-329 -583c-47.333 -83.333 -107.666 -125 -180.999 -125c-34.667 0 -64.667 7.66699 -90 23v88c18 -12.667 40.667 -19 68 -19c46.667 0 85 26.667 115 80l16 29z" />
    <glyph glyph-name="uni0424" unicode="&#x424;" horiz-adv-x="873" 
d="M384 64c-100.667 0 -182.667 26.833 -246 80.5s-95 123.167 -95 208.5s31.667 154.833 95 208.5s145.333 80.5 246 80.5v69h106v-69c100 0 181.833 -27 245.5 -81s95.5 -123.333 95.5 -208s-31.833 -154 -95.5 -208s-145.5 -81 -245.5 -81v-75h-106v75zM719 353
c0 55.333 -21.333 100.668 -64 136.001s-97.667 53 -165 53v-378c67.333 0 122.333 17.667 165 53s64 80.666 64 135.999zM155 353.002c0 -55.333 21.333 -100.668 64 -136.001s97.667 -53 165 -53v378c-67.333 0 -122.333 -17.667 -165 -53s-64 -80.666 -64 -135.999z" />
    <glyph glyph-name="uni0425" unicode="&#x425;" horiz-adv-x="765" 
d="M162 0h-135l285 360l-266 340h134l203 -267l202 267h135l-267 -340l285 -360h-134l-221 288z" />
    <glyph glyph-name="uni0426" unicode="&#x426;" horiz-adv-x="867" 
d="M83 700h109v-605h438v605h109v-605h100v-255h-109v160h-647v700z" />
    <glyph glyph-name="uni0427" unicode="&#x427;" horiz-adv-x="739" 
d="M60 485l-0.000976562 215h109v-213c0 -96.667 65.667 -145 197 -145c72.667 0 133.334 14 182.001 42v316h109v-700h-109v289c-52 -28.667 -117.333 -43 -196 -43c-94.667 0 -167 20.5 -217 61.5s-75 100.167 -75 177.5z" />
    <glyph glyph-name="uni0428" unicode="&#x428;" horiz-adv-x="1194" 
d="M83 0v700h109v-605h351v605h109v-605h351v605h108v-700h-1028z" />
    <glyph glyph-name="uni0429" unicode="&#x429;" horiz-adv-x="1240" 
d="M83 700h109v-605h351v605h109v-605h351v605h108v-605h100v-255h-108v160h-1020v700z" />
    <glyph glyph-name="uni042A" unicode="&#x42a;" horiz-adv-x="884" 
d="M29 700h375v-280h202c68.667 0 124.334 -19.5 167.001 -58.5s64 -89.5 64 -151.5s-21.333 -112.5 -64 -151.5s-98.334 -58.5 -167.001 -58.5h-310v606h-267v94zM404 95h192c38 0 69 10.667 93 32s36 49 36 83s-12 61.833 -36 83.5s-55 32.5 -93 32.5h-192v-231z" />
    <glyph glyph-name="uni042B" unicode="&#x42b;" horiz-adv-x="931" 
d="M83 0v700h109v-280h201c68.667 0 124.334 -19.5 167.001 -58.5s64 -89.5 64 -151.5s-21.333 -112.5 -64 -151.5s-98.334 -58.5 -167.001 -58.5h-310zM740 0v700h109v-700h-109zM192 95h191c38 0 69.167 10.667 93.5 32s36.5 49 36.5 83s-12.167 61.833 -36.5 83.5
s-55.5 32.5 -93.5 32.5h-191v-231z" />
    <glyph glyph-name="uni042C" unicode="&#x42c;" horiz-adv-x="671" 
d="M83 0v700h109v-280h201c68.667 0 124.334 -19.5 167.001 -58.5s64 -89.5 64 -151.5s-21.333 -112.5 -64 -151.5s-98.334 -58.5 -167.001 -58.5h-310zM383 326h-191v-231h191c38 0 69.167 10.667 93.5 32s36.5 49 36.5 83s-12.167 61.833 -36.5 83.5
s-55.5 32.5 -93.5 32.5z" />
    <glyph glyph-name="uni042D" unicode="&#x42d;" horiz-adv-x="710" 
d="M61 177c54 -58 127.335 -86.999 220.002 -86.999c73.333 0 134.666 19.833 183.999 59.5s78.666 92.167 87.999 157.5h-306v94h305c-11.333 63.333 -41.5 114.166 -90.5 152.499s-109.167 57.5 -180.5 57.5c-92 0 -165.333 -29.333 -220 -88v114
c65.333 49.333 143.666 74 234.999 74c109.333 0 198.666 -33.5 267.999 -100.5s104 -153.833 104 -260.5s-34.667 -193.5 -104 -260.5s-158.666 -100.5 -267.999 -100.5c-91.333 0 -169.666 24.667 -234.999 74v114z" />
    <glyph glyph-name="uni042E" unicode="&#x42e;" horiz-adv-x="1105" 
d="M83 0l-0.000976562 700.001h109v-299h149c10.667 92.667 48.167 167.5 112.5 224.5s144.5 85.5 240.5 85.5c105.333 0 191.166 -33.5 257.499 -100.5s99.5 -153.833 99.5 -260.5s-33.167 -193.5 -99.5 -260.5s-152.166 -100.5 -257.499 -100.5
c-98 0 -179.167 29.167 -243.5 87.5s-101.166 135.166 -110.499 230.499h-148v-307h-109zM449.999 350.001c0 -76.667 22.667 -139.167 68 -187.5s104 -72.5 176 -72.5c72.667 0 131.667 24.167 177 72.5s68 110.833 68 187.5c0 77.333 -22.667 140.166 -68 188.499
s-104.333 72.5 -177 72.5c-72 0 -130.667 -24.167 -176 -72.5s-68 -111.166 -68 -188.499z" />
    <glyph glyph-name="uni042F" unicode="&#x42f;" horiz-adv-x="716" 
d="M175 0h-129l183 281c-52.667 11.333 -94.5 35.333 -125.5 72s-46.5 81.667 -46.5 135c0 62.667 21.5 113.667 64.5 153s98.833 59 167.5 59h344v-700h-109v275h-184zM298 606c-38 0 -69 -11 -93 -33s-36 -50.333 -36 -85c0 -35.333 12 -64 36 -86s55 -33 93 -33h226v237
h-226z" />
    <glyph glyph-name="uni0430" unicode="&#x430;" horiz-adv-x="553" 
d="M237 -8c-59.333 0 -106.167 13.168 -140.5 39.501s-51.5 62.166 -51.5 107.499c0 47.333 18.833 84.333 56.5 111s89.834 40 156.501 40c30.667 0 67 -3.33301 109 -10v20c0 64.667 -45.667 97 -137 97c-62 0 -110.667 -14 -146 -42v92c45.333 28 100.666 42 165.999 42
c70 0 124.167 -15.5 162.5 -46.5s57.5 -74.833 57.5 -131.5v-197c0 -29.333 19.667 -44 59 -44v-66c-11.333 -6.66699 -28.333 -10 -51 -10c-41.333 0 -72 13.333 -92 40c-40 -28 -89.667 -42 -149 -42zM279.999 206.001c-41.333 0 -73.667 -5.99902 -97 -17.999
s-35 -28.333 -35 -49c0 -18.667 9.5 -33.334 28.5 -44.001s45.167 -16 78.5 -16c48 0 85.333 13.333 112 40v79c-35.333 5.33301 -64.333 8 -87 8z" />
    <glyph glyph-name="uni0431" unicode="&#x431;" horiz-adv-x="606" 
d="M304 708l217.997 22.999v-98l-204 -23c-48.667 -5.33301 -86.167 -23 -112.5 -53s-42.833 -74.667 -49.5 -134c36.667 43.333 90.334 65 161.001 65c72 0 130.833 -23.167 176.5 -69.5s68.5 -106.166 68.5 -179.499s-23.167 -133.333 -69.5 -180
s-106.166 -70 -179.499 -70c-83.333 0 -148.166 32 -194.499 96s-69.5 154 -69.5 270c0 217.333 85 335 255 353zM152.997 314.999c4.66699 -74 20.833 -131 48.5 -171s64.834 -60 111.501 -60c41.333 0 75.5 14.5 102.5 43.5s40.5 66.5 40.5 112.5
c0 48 -14.833 86.833 -44.5 116.5s-67.834 44.5 -114.501 44.5c-66 0 -114 -28.667 -144 -86z" />
    <glyph glyph-name="uni0432" unicode="&#x432;" horiz-adv-x="555" 
d="M71 0v480h263c45.333 0 82 -12.5 110 -37.5s42 -57.167 42 -96.5c0 -40 -14.333 -72.333 -43 -97c42 -26 63 -63.333 63 -112c0 -40.667 -14 -73.667 -42 -99s-65 -38 -111 -38h-282zM334 201h-159v-118h159c21.333 0 38.666 5.5 51.999 16.5s20 25.167 20 42.5
s-6.66699 31.5 -20 42.5s-30.666 16.5 -51.999 16.5zM319 397h-144v-114h144c20.667 0 37.5 5.5 50.5 16.5s19.5 24.833 19.5 41.5s-6.5 30.167 -19.5 40.5s-29.833 15.5 -50.5 15.5z" />
    <glyph glyph-name="uni0433" unicode="&#x433;" horiz-adv-x="443" 
d="M73 0v480h347v-89h-244v-391h-103z" />
    <glyph glyph-name="uni0434" unicode="&#x434;" horiz-adv-x="648" 
d="M31 -134v222.999h61c39.333 40.667 59 145.334 59 314.001v77h386v-391h80v-223h-103v134h-380v-134h-103zM199 88.999h235v302h-188v-27c0 -124 -15.667 -215.667 -47 -275z" />
    <glyph glyph-name="uni0435" unicode="&#x435;" horiz-adv-x="572" 
d="M288 491c76 0 135.668 -26.333 179.001 -79s61.666 -121.334 54.999 -206.001h-374c10 -38.667 32.667 -69 68 -91s79 -33 131 -33c62.667 0 113.667 16 153 48v-94c-50 -31.333 -106.667 -47 -170 -47c-86.667 0 -156.167 23.333 -208.5 70s-78.5 108.334 -78.5 185.001
c0 72.667 22.667 132 68 178s104.333 69 177 69zM147.001 288h273.999c-2.66699 34.667 -16.167 62.334 -40.5 83.001s-54.833 31 -91.5 31s-67.667 -10.333 -93 -31s-41.666 -48.334 -48.999 -83.001z" />
    <glyph glyph-name="uni0436" unicode="&#x436;" horiz-adv-x="831" 
d="M141 0h-119l185 243l-172 237h117l136 -191h77v191h101v-191h77l136 191h117l-172 -237l185 -243h-120l-147 200h-76v-200h-101v200h-76z" />
    <glyph glyph-name="uni0437" unicode="&#x437;" horiz-adv-x="499" 
d="M205 78c44.667 0 80.1689 6.00098 106.502 18.001s39.5 28.333 39.5 49c0 16 -7 29.333 -21 40s-32.333 16 -55 16h-114v82h102c22 0 40.167 5.33301 54.5 16s21.5 24 21.5 40c0 19.333 -12 34.666 -36 45.999s-56.667 17 -98 17c-64.667 0 -114.667 -16 -150 -48v93
c42.667 29.333 98 44 166 44c66 0 118.333 -13 157 -39s58 -61.333 58 -106c0 -40.667 -15.333 -73.667 -46 -99c41.333 -24.667 62 -61 62 -109c0 -46 -20.833 -82.333 -62.5 -109s-97.834 -40 -168.501 -40c-71.333 0 -128 14.667 -170 44v93
c35.333 -32 86.666 -48 153.999 -48z" />
    <glyph glyph-name="uni0438" unicode="&#x438;" horiz-adv-x="622" 
d="M134 0h-61v480h103v-309l312 309h61v-480h-103v309z" />
    <glyph glyph-name="uni0439" unicode="&#x439;" horiz-adv-x="622" 
d="M134 0h-61v480h103v-309l312 309h61v-480h-103v309zM229 689c0 -21.333 7.66699 -39 23 -53s35 -21 59 -21s43.833 7 59.5 21s23.5 31.667 23.5 53h70c0 -42.667 -14.167 -77.334 -42.5 -104.001s-64.833 -40 -109.5 -40c-45.333 0 -82.333 13.333 -111 40
s-43 61.334 -43 104.001h71z" />
    <glyph glyph-name="uni043A" unicode="&#x43a;" horiz-adv-x="558" 
d="M73 0v480h103v-191h81l146 191h120l-185 -237l198 -243h-122l-158 200h-80v-200h-103z" />
    <glyph glyph-name="uni043B" unicode="&#x43b;" horiz-adv-x="594" 
d="M20 3v66h15c22 0 39.833 8.83301 53.5 26.5s24.5 51 32.5 100s12 116.167 12 201.5v83h389v-480h-104v391h-191v-33c0 -76.667 -4.16699 -140.667 -12.5 -192s-20.333 -88.833 -36 -112.5s-31.5 -39.667 -47.5 -48s-35 -12.5 -57 -12.5c-20.667 0 -38.667 3.33301 -54 10
z" />
    <glyph glyph-name="uni043C" unicode="&#x43c;" horiz-adv-x="703" 
d="M170 0h-97v480h61l218 -319l217 319h62v-480h-98v271l-156 -235h-51l-156 236v-272z" />
    <glyph glyph-name="uni043D" unicode="&#x43d;" horiz-adv-x="615" 
d="M176 0h-103v480h103v-191h263v191h103v-480h-103v200h-263v-200z" />
    <glyph glyph-name="uni043E" unicode="&#x43e;" 
d="M301 491c75.333 0 136.833 -23.333 184.5 -70s71.5 -107 71.5 -181s-23.833 -134.333 -71.5 -181s-109.167 -70 -184.5 -70c-76 0 -137.833 23.333 -185.5 70s-71.5 107 -71.5 181s23.833 134.333 71.5 181s109.5 70 185.5 70zM150 240c0 -46 14 -83.5 42 -112.5
s64.333 -43.5 109 -43.5s80.834 14.5 108.501 43.5s41.5 66.5 41.5 112.5s-13.833 83.5 -41.5 112.5s-63.834 43.5 -108.501 43.5s-81 -14.5 -109 -43.5s-42 -66.5 -42 -112.5z" />
    <glyph glyph-name="uni043F" unicode="&#x43f;" horiz-adv-x="605" 
d="M73 480h459v-480h-103v391h-253v-391h-103v480z" />
    <glyph glyph-name="uni0440" unicode="&#x440;" horiz-adv-x="590" 
d="M73 -200v680h91l5 -28c35.333 24 78.666 36 129.999 36c72 0 130.667 -23 176 -69s68 -105.667 68 -179s-22.5 -132.833 -67.5 -178.5s-103.5 -68.5 -175.5 -68.5c-49.333 0 -90.666 10.333 -123.999 31v-224h-103zM281 399c-42.667 0 -77.667 -12.001 -105 -36.001v-245
c27.333 -24 62.333 -36 105 -36c46 0 83.5 14.667 112.5 44s43.5 67.333 43.5 114s-14.5 84.834 -43.5 114.501s-66.5 44.5 -112.5 44.5z" />
    <glyph glyph-name="uni0441" unicode="&#x441;" horiz-adv-x="506" 
d="M307 -11c-77.333 0 -140.501 23.3311 -189.501 69.998s-73.5 107 -73.5 181s24.5 134.333 73.5 181s112.167 70 189.5 70c54 0 103 -13.333 147 -40v-97c-33.333 30 -75.666 45 -126.999 45c-52.667 0 -95.334 -14.667 -128.001 -44s-49 -67.666 -49 -114.999
s16.333 -85.666 49 -114.999s75.334 -44 128.001 -44c50.667 0 93 15 127 45v-97c-44 -26.667 -93 -40 -147 -40z" />
    <glyph glyph-name="uni0442" unicode="&#x442;" horiz-adv-x="500" 
d="M198 391h-175v89h454v-89h-175v-391h-104v391z" />
    <glyph glyph-name="uni0443" unicode="&#x443;" horiz-adv-x="566" 
d="M232 52l-217 428h109l159 -320l159 320h109l-344 -680h-111z" />
    <glyph glyph-name="uni0444" unicode="&#x444;" horiz-adv-x="726" 
d="M313 -11c-79.333 0 -144 23.333 -194 70s-75 107 -75 181s25 134.333 75 181s114.667 70 194 70v229h100v-229c79.333 0 144 -23.333 194 -70s75 -107 75 -181s-25 -134.333 -75 -181s-114.667 -70 -194 -70v-189h-100v189zM576 240c0 46 -15.167 83.5 -45.5 112.5
s-69.5 43.5 -117.5 43.5v-312c48 0 87.167 14.5 117.5 43.5s45.5 66.5 45.5 112.5zM313 396c-48 0 -87.167 -14.5 -117.5 -43.5s-45.5 -66.5 -45.5 -112.5s15.167 -83.5 45.5 -112.5s69.5 -43.5 117.5 -43.5v312z" />
    <glyph glyph-name="uni0445" unicode="&#x445;" horiz-adv-x="569" 
d="M147 0h-123l197 243l-191 237h123l132 -169l132 169h122l-190 -237l196 -243h-123l-137 176z" />
    <glyph glyph-name="uni0446" unicode="&#x446;" horiz-adv-x="640" 
d="M509 0h-436v480h103v-391h253v391h103v-391h80v-229h-103v140z" />
    <glyph glyph-name="uni0447" unicode="&#x447;" horiz-adv-x="577" 
d="M56 347l-0.000976562 133h104v-133c0 -34.667 9.66699 -60 29 -76s49.333 -24 90 -24c50.667 0 91.334 11.667 122.001 35v198h103v-480h-103v192c-37.333 -22.667 -84 -34 -140 -34c-66.667 0 -117.5 16 -152.5 48s-52.5 79 -52.5 141z" />
    <glyph glyph-name="uni0448" unicode="&#x448;" horiz-adv-x="900" 
d="M73 480h103v-391h222v391h104v-391h222v391h103v-480h-754v480z" />
    <glyph glyph-name="uni0449" unicode="&#x449;" horiz-adv-x="935" 
d="M73 480h103v-391h222v391h104v-391h222v391h103v-391h80v-229h-103v140h-731v480z" />
    <glyph glyph-name="uni044A" unicode="&#x44a;" horiz-adv-x="660" 
d="M23 391v89h279v-170h142c52.667 0 95.167 -14.333 127.5 -43s48.5 -66 48.5 -112s-16.333 -83.333 -49 -112s-75 -43 -127 -43h-246v391h-175zM438 223l-136 -0.000976562v-136h136c22.667 0 41 6.33301 55 19s21 29.334 21 50.001c0 19.333 -7 35.333 -21 48
s-32.333 19 -55 19z" />
    <glyph glyph-name="uni044B" unicode="&#x44b;" horiz-adv-x="750" 
d="M73 0v480h103v-170h142c52.667 0 95.334 -14.333 128.001 -43s49 -66 49 -112c0 -45.333 -16.333 -82.5 -49 -111.5s-75.334 -43.5 -128.001 -43.5h-245zM574 0v480h103v-480h-103zM313 223l-137 -0.000976562v-136h137c22.667 0 41 6.33301 55 19s21 29.334 21 50.001
c0 19.333 -7 35.333 -21 48s-32.333 19 -55 19z" />
    <glyph glyph-name="uni044C" unicode="&#x44c;" horiz-adv-x="534" 
d="M73 480h103v-170h142c52.667 0 95.334 -14.333 128.001 -43s49 -66 49 -112c0 -45.333 -16.333 -82.5 -49 -111.5s-75.334 -43.5 -128.001 -43.5h-245v480zM313 223l-137 -0.000976562v-136h137c22.667 0 41 6.33301 55 19s21 29.334 21 50.001
c0 19.333 -7 35.333 -21 48s-32.333 19 -55 19z" />
    <glyph glyph-name="uni044D" unicode="&#x44d;" horiz-adv-x="503" 
d="M51 123c33.333 -30 76.332 -45 128.999 -45c46 0 84.667 11 116 33s51.333 52 60 90h-198v83h197c-9.33301 36 -29.666 64.667 -60.999 86s-69.333 32 -114 32c-52.667 0 -95.667 -15 -129 -45v94c42.667 26.667 91.667 40 147 40c77.333 0 140.333 -23.333 189 -70
s73 -107 73 -181s-24.333 -134.333 -73 -181s-111.667 -70 -189 -70c-55.333 0 -104.333 13.333 -147 40v94z" />
    <glyph glyph-name="uni044E" unicode="&#x44e;" horiz-adv-x="813" 
d="M73 0l-0.000976562 480h103v-191h104c10 60.667 37 109.5 81 146.5s97.667 55.5 161 55.5c72.667 0 132 -23.333 178 -70s69 -107 69 -181s-23 -134.333 -69 -181s-105.333 -70 -178 -70c-65.333 0 -120.166 19.333 -164.499 58s-70.5 89.667 -78.5 153h-103v-200h-103z
M381.999 240c0 -46 13 -83.5 39 -112.5s59.667 -43.5 101 -43.5s75.166 14.5 101.499 43.5s39.5 66.5 39.5 112.5s-13.167 83.5 -39.5 112.5s-60.166 43.5 -101.499 43.5s-75 -14.5 -101 -43.5s-39 -66.5 -39 -112.5z" />
    <glyph glyph-name="uni044F" unicode="&#x44f;" horiz-adv-x="571" 
d="M163 0l-119 -0.000976562l131 180c-36 10.667 -64.167 28.834 -84.5 54.501s-30.5 56.167 -30.5 91.5c0 45.333 16.667 82.333 50 111s77 43 131 43h259v-480h-104v171h-109zM166 323.999c0 -20.667 7.33301 -37.5 22 -50.5s33.667 -19.5 57 -19.5h151v137h-151
c-23.333 0 -42.333 -6.33301 -57 -19s-22 -28.667 -22 -48z" />
    <glyph glyph-name="uni0450" unicode="&#x450;" horiz-adv-x="572" 
d="M43 244c0 72.667 22.668 132 68.001 178s104.333 69 177 69c76 0 135.667 -26.333 179 -79s61.666 -121.334 54.999 -206.001h-374c10 -38.667 32.667 -69 68 -91s79 -33 131 -33c62.667 0 113.667 16 153 48v-94c-50 -31.333 -106.667 -47 -170 -47
c-86.667 0 -156.167 23.333 -208.5 70s-78.5 108.334 -78.5 185.001zM147.001 288h273.999c-2.66699 34.667 -16.167 62.334 -40.5 83.001s-54.833 31 -91.5 31s-67.667 -10.333 -93 -31s-41.666 -48.334 -48.999 -83.001zM165 728l202 -109v-68l-202 80v97z" />
    <glyph glyph-name="uni0451" unicode="&#x451;" horiz-adv-x="572" 
d="M43 244c0 72.667 22.668 132 68.001 178s104.333 69 177 69c76 0 135.667 -26.333 179 -79s61.666 -121.334 54.999 -206.001h-374c10 -38.667 32.667 -69 68 -91s79 -33 131 -33c62.667 0 113.667 16 153 48v-94c-50 -31.333 -106.667 -47 -170 -47
c-86.667 0 -156.167 23.333 -208.5 70s-78.5 108.334 -78.5 185.001zM147.001 288h273.999c-2.66699 34.667 -16.167 62.334 -40.5 83.001s-54.833 31 -91.5 31s-67.667 -10.333 -93 -31s-41.666 -48.334 -48.999 -83.001zM121 636c0 17.333 5.16895 31.166 15.502 41.499
s24.166 15.5 41.499 15.5s31.333 -5.16699 42 -15.5s16 -24.166 16 -41.499s-5.33301 -31.333 -16 -42s-24.667 -16 -42 -16c-16.667 0 -30.334 5.33301 -41.001 16s-16 24.667 -16 42zM337.002 636c0 16.667 5.33301 30.332 16 40.999s24.667 16 42 16
c16.667 0 30.334 -5.16699 41.001 -15.5s16 -24.166 16 -41.499s-5.33301 -31.333 -16 -42s-24.334 -16 -41.001 -16s-30.5 5.33301 -41.5 16s-16.5 24.667 -16.5 42z" />
    <glyph glyph-name="uni0452" unicode="&#x452;" horiz-adv-x="606" 
d="M176 632l137 0.000976562v-66h-137v-121c36.667 29.333 82.667 44 138 44c69.333 0 124 -19.5 164 -58.5s60 -92.167 60 -159.5v-354c0 -36.667 -12 -66.5 -36 -89.5s-54.667 -34.5 -92 -34.5c-19.333 0 -36.666 3.33301 -51.999 10v67c24 0 42.833 5.66699 56.5 17
s20.5 26.666 20.5 45.999v338c0 40 -12.5 71.5 -37.5 94.5s-59.167 34.5 -102.5 34.5c-48.667 0 -88.334 -17 -119.001 -51v-349h-103v566h-72v66h72v88h103v-88z" />
    <glyph glyph-name="uni0453" unicode="&#x453;" horiz-adv-x="443" 
d="M73 0v480h347v-89h-244v-391h-103zM166 551v68l208 110v-96z" />
    <glyph glyph-name="uni0454" unicode="&#x454;" horiz-adv-x="503" 
d="M43 240c0 74 24.3311 134.332 72.998 180.999s111.667 70 189 70c55.333 0 104.333 -13.333 147 -40v-94c-33.333 30 -76.333 45 -129 45c-44 0 -81.667 -10.667 -113 -32s-51.666 -50 -60.999 -86h232v-83h-234c8.66699 -37.333 28.834 -67.166 60.501 -89.499
s70.167 -33.5 115.5 -33.5c52.667 0 95.667 15 129 45v-94c-42.667 -26.667 -91.667 -40 -147 -40c-77.333 0 -140.333 23.333 -189 70s-73 107 -73 181z" />
    <glyph glyph-name="uni0455" unicode="&#x455;" horiz-adv-x="502" 
d="M50 350c0 45.333 16.667 80.167 50 104.5s82 36.5 146 36.5c74.667 0 131.334 -16.333 170.001 -49v-90c-33.333 30 -86 45 -158 45c-73.333 0 -110 -15.333 -110 -46c0 -26 36.667 -45.333 110 -58c67.333 -11.333 117 -29.833 149 -55.5s48 -59.834 48 -102.501
c0 -47.333 -18.667 -83.5 -56 -108.5s-91.333 -37.5 -162 -37.5c-78.667 0 -139.334 16.333 -182.001 49v90c38.667 -30 96.334 -45 173.001 -45c39.333 0 70.666 4.66699 93.999 14s35 22 35 38c0 27.333 -38 47.333 -114 60c-66.667 11.333 -115.5 29.333 -146.5 54
s-46.5 58.334 -46.5 101.001z" />
    <glyph glyph-name="uni0456" unicode="&#x456;" horiz-adv-x="249" 
d="M73 0v480h103v-480h-103zM58 644c0 19.333 6.16699 35 18.5 47s28.166 18 47.499 18s35 -6 47 -18s18 -27.667 18 -47s-6 -35.166 -18 -47.499s-27.667 -18.5 -47 -18.5s-35.166 6.16699 -47.499 18.5s-18.5 28.166 -18.5 47.499z" />
    <glyph glyph-name="uni0457" unicode="&#x457;" horiz-adv-x="249" 
d="M73 480h103v-480h-103v480zM-31 641c0 16.667 5.5 30.5 16.5 41.5s24.833 16.5 41.5 16.5s30.5 -5.5 41.5 -16.5s16.5 -24.833 16.5 -41.5s-5.5 -30.5 -16.5 -41.5s-24.833 -16.5 -41.5 -16.5s-30.5 5.5 -41.5 16.5s-16.5 24.833 -16.5 41.5zM222 583
c-16.667 0 -30.334 5.33301 -41.001 16s-16 24.667 -16 42s5.33301 31.333 16 42s24.334 16 41.001 16c17.333 0 31.333 -5.5 42 -16.5s16 -24.833 16 -41.5s-5.33301 -30.5 -16 -41.5s-24.667 -16.5 -42 -16.5z" />
    <glyph glyph-name="uni0458" unicode="&#x458;" horiz-adv-x="249" 
d="M-4 -197l-0.000976562 67.001c24 0 42.833 5.66699 56.5 17s20.5 26.666 20.5 45.999v547h103v-563c0 -36.667 -12 -66.5 -36 -89.5s-54.667 -34.5 -92 -34.5c-19.333 0 -36.666 3.33301 -51.999 10zM57.999 644.001c0 19.333 6.16699 35 18.5 47s28.166 18 47.499 18
s35 -6 47 -18s18 -27.667 18 -47s-6 -35.166 -18 -47.499s-27.667 -18.5 -47 -18.5s-35.166 6.16699 -47.499 18.5s-18.5 28.166 -18.5 47.499z" />
    <glyph glyph-name="uni0459" unicode="&#x459;" horiz-adv-x="880" 
d="M20 69h15c22 0 39.833 8.83301 53.5 26.5s24.5 51 32.5 100s12 116.167 12 201.5v83h389v-170h142c52.667 0 95.167 -14.333 127.5 -43s48.5 -66 48.5 -112s-16.333 -83.333 -49 -112s-75 -43 -127 -43h-246v391h-191v-33c0 -76.667 -4.16699 -140.667 -12.5 -192
s-20.333 -88.833 -36 -112.5s-31.5 -39.667 -47.5 -48s-35 -12.5 -57 -12.5c-20.667 0 -38.667 3.33301 -54 10v66zM658 223l-136 -0.000976562v-136h136c22.667 0 41 6.33301 55 19s21 29.334 21 50.001c0 19.333 -7 35.333 -21 48s-32.333 19 -55 19z" />
    <glyph glyph-name="uni045A" unicode="&#x45a;" horiz-adv-x="882" 
d="M73 480h103v-181h245v181h103v-181h145c51.333 0 93.166 -14 125.499 -42s48.5 -63.667 48.5 -107c0 -44 -16.167 -80 -48.5 -108s-74.166 -42 -125.499 -42h-248v214h-245v-214h-103v480zM663 214h-139v-127h139c21.333 0 39 6.16699 53 18.5s21 27.833 21 46.5
c0 18 -7 32.833 -21 44.5s-31.667 17.5 -53 17.5z" />
    <glyph glyph-name="uni045B" unicode="&#x45b;" horiz-adv-x="606" 
d="M73 566h-71.999v66h72v88h103v-88h137v-66h-137v-121c36.667 29.333 82.667 44 138 44c69.333 0 124 -19.5 164 -58.5s60 -92.167 60 -159.5v-271h-103v271c0 40 -12.5 71.5 -37.5 94.5s-59.167 34.5 -102.5 34.5c-48.667 0 -88.334 -17 -119.001 -51v-349h-103v566z" />
    <glyph glyph-name="uni045C" unicode="&#x45c;" horiz-adv-x="558" 
d="M176 0h-103v480h103v-191h81l146 191h120l-185 -237l198 -243h-122l-158 200h-80v-200zM213 551v68l208 110v-96z" />
    <glyph glyph-name="uni045D" unicode="&#x45d;" horiz-adv-x="622" 
d="M134 0h-61v480h103v-309l312 309h61v-480h-103v309zM189 631v98l202 -110v-68z" />
    <glyph glyph-name="uni045E" unicode="&#x45e;" horiz-adv-x="566" 
d="M232 52l-217 428h109l159 -320l159 320h109l-344 -680h-111zM130 689h71c0 -21.333 7.66699 -39 23 -53s35 -21 59 -21c24.667 0 44.667 7 60 21s23 31.667 23 53h70c0 -42.667 -14.167 -77.334 -42.5 -104.001s-64.833 -40 -109.5 -40c-45.333 0 -82.333 13.333 -111 40
s-43 61.334 -43 104.001z" />
    <glyph glyph-name="uni045F" unicode="&#x45f;" horiz-adv-x="603" 
d="M250 0h-177v480h103v-391h251v391h103v-480h-177v-140h-103v140z" />
    <glyph glyph-name="uni0490" unicode="&#x490;" horiz-adv-x="610" 
d="M192 0h-109v700h383v150h108v-244h-382v-606z" />
    <glyph glyph-name="uni0491" unicode="&#x491;" horiz-adv-x="443" 
d="M73 0v480h239v125h103v-214h-239v-391h-103z" />
    <glyph glyph-name="uni04D8" unicode="&#x4d8;" horiz-adv-x="798" 
d="M57 388l575.002 -0.000976562c-11.333 68 -44.833 122 -100.5 162s-125.834 60 -210.501 60c-95.333 0 -172.333 -25.333 -231 -76v100c69.333 51.333 154.333 77 255 77c119.333 0 215.666 -33.5 288.999 -100.5s110 -155.5 110 -265.5
c0 -103.333 -32.167 -188.166 -96.5 -254.499s-147.833 -99.5 -250.5 -99.5c-109.333 0 -195.5 36.833 -258.5 110.5s-90.167 169.167 -81.5 286.5zM392.002 90.999c64 0 117.833 19 161.5 57s70.167 87.333 79.5 148h-465c4 -62 26.667 -111.667 68 -149
s93.333 -56 156 -56z" />
    <glyph glyph-name="uni04D9" unicode="&#x4d9;" horiz-adv-x="572" 
d="M50 274l374 -0.00195312c-10 38.667 -32.5 69 -67.5 91s-78.833 33 -131.5 33c-62 0 -112.667 -16 -152 -48v94c47.333 31.333 103.666 47 168.999 47c86.667 0 156.167 -23.167 208.5 -69.5s78.5 -108.166 78.5 -185.499c0 -72.667 -22.667 -132 -68 -178
s-104.333 -69 -177 -69c-76 0 -135.667 26.333 -179 79s-61.666 121.334 -54.999 206.001zM283 77.998c36.667 0 67.668 10.333 93.001 31s41.666 48.334 48.999 83.001h-274c2.66699 -34.667 16.167 -62.334 40.5 -83.001s54.833 -31 91.5 -31z" />
    <glyph glyph-name="Wgrave" unicode="&#x1e80;" horiz-adv-x="1145" 
d="M20 700h118l198 -508l211 508h50l211 -508l198 508h119l-289 -700h-51l-213 512l-213 -512h-51zM450 831v98l202 -110v-68z" />
    <glyph glyph-name="wgrave" unicode="&#x1e81;" horiz-adv-x="810" 
d="M15 480h107l128 -313l130 313h51l130 -313l128 313h106l-209 -480h-51l-130 315l-130 -315h-51zM283 631v98l203 -110v-68z" />
    <glyph glyph-name="Wacute" unicode="&#x1e82;" horiz-adv-x="1145" 
d="M20 700h118l198 -508l211 508h50l211 -508l198 508h119l-289 -700h-51l-213 512l-213 -512h-51zM492 819l208 110v-96l-208 -82v68z" />
    <glyph glyph-name="wacute" unicode="&#x1e83;" horiz-adv-x="810" 
d="M15 480h107l128 -313l130 313h51l130 -313l128 313h106l-209 -480h-51l-130 315l-130 -315h-51zM325 619l208 110v-96l-208 -82v68z" />
    <glyph glyph-name="Wdieresis" unicode="&#x1e84;" horiz-adv-x="1145" 
d="M20 700h118l198 -508l211 508h50l211 -508l198 508h119l-289 -700h-51l-213 512l-213 -512h-51zM681 894c16.667 0 30.334 -5.33301 41.001 -16s16 -24.667 16 -42s-5.33301 -31.333 -16 -42s-24.334 -16 -41.001 -16c-17.333 0 -31.333 5.33301 -42 16
s-16 24.667 -16 42s5.33301 31.333 16 42s24.667 16 42 16zM407 836c0 17.333 5.33301 31.333 16 42s24.334 16 41.001 16c17.333 0 31.333 -5.33301 42 -16s16 -24.667 16 -42s-5.33301 -31.333 -16 -42s-24.667 -16 -42 -16c-16.667 0 -30.334 5.33301 -41.001 16
s-16 24.667 -16 42z" />
    <glyph glyph-name="wdieresis" unicode="&#x1e85;" horiz-adv-x="810" 
d="M15 480h107l128 -313l130 313h51l130 -313l128 313h106l-209 -480h-51l-130 315l-130 -315h-51zM514 694c16.667 0 30.334 -5.33301 41.001 -16s16 -24.667 16 -42s-5.33301 -31.333 -16 -42s-24.334 -16 -41.001 -16c-17.333 0 -31.333 5.33301 -42 16
s-16 24.667 -16 42s5.33301 31.333 16 42s24.667 16 42 16zM298 694c16.667 0 30.334 -5.5 41.001 -16.5s16 -24.833 16 -41.5s-5.33301 -30.5 -16 -41.5s-24.334 -16.5 -41.001 -16.5c-17.333 0 -31.333 5.33301 -42 16s-16 24.667 -16 42s5.33301 31.333 16 42
s24.667 16 42 16z" />
    <glyph glyph-name="Germandbls" unicode="&#x1e9e;" horiz-adv-x="758" 
d="M83 479c0 65.333 20.333 118.5 61 159.5s93.334 61.5 158.001 61.5h368v-50l-168 -235c61.333 -9.33301 110.666 -34.166 147.999 -74.499s56 -88.833 56 -145.5c0 -60.667 -21.333 -109.834 -64 -147.501s-99.334 -56.5 -170.001 -56.5
c-77.333 0 -140.666 23.667 -189.999 71v92c42 -42 97.667 -63 167 -63c46 0 83 10.167 111 30.5s42 46.5 42 78.5c0 40 -22 73.167 -66 99.5s-100.667 40.5 -170 42.5v51l153 213h-188c-40.667 0 -74 -13.333 -100 -40s-39 -61 -39 -103v-463h-109v479z" />
    <glyph glyph-name="Ygrave" unicode="&#x1ef2;" horiz-adv-x="724" 
d="M308 294l-291 406h132l213 -307l213 307h132l-291 -406v-294h-108v294zM240 831v98l202 -110v-68z" />
    <glyph glyph-name="ygrave" unicode="&#x1ef3;" horiz-adv-x="566" 
d="M15 480h109l159 -320l159 320h109l-344 -680h-111l136 252zM161 729l202 -110v-68l-202 80v98z" />
    <glyph glyph-name="figuredash" unicode="&#x2012;" horiz-adv-x="620" 
d="M93 306v88h434v-88h-434z" />
    <glyph glyph-name="endash" unicode="&#x2013;" horiz-adv-x="500" 
d="M63 252v66h374v-66h-374z" />
    <glyph glyph-name="emdash" unicode="&#x2014;" horiz-adv-x="1000" 
d="M63 252v66h874v-66h-874z" />
    <glyph glyph-name="quoteleft" unicode="&#x2018;" horiz-adv-x="200" 
d="M43 587c0 59.333 24.667 107.333 74 144h60c-34 -36.667 -51 -71 -51 -103c0 -12 5.16699 -24.333 15.5 -37s15.5 -25 15.5 -37c0 -15.333 -4.66699 -27.666 -14 -36.999s-22 -14 -38 -14c-20 0 -35.333 7.66699 -46 23s-16 35.666 -16 60.999z" />
    <glyph glyph-name="quoteright" unicode="&#x2019;" horiz-adv-x="200" 
d="M82 503l-59 0.00195312c34 36 51 70.333 51 103c0 12 -5.16699 24.333 -15.5 37s-15.5 25 -15.5 37c0 15.333 4.66699 27.666 14 36.999s22 14 38 14c20 0 35.333 -7.83301 46 -23.5s16 -35.834 16 -60.501c0 -59.333 -25 -107.333 -75 -144z" />
    <glyph glyph-name="quotesinglbase" unicode="&#x201a;" horiz-adv-x="200" 
d="M82 -115h-59c34 36 51 70.333 51 103c0 12.667 -5.16699 25.167 -15.5 37.5s-15.5 24.5 -15.5 36.5c0 15.333 4.66699 27.666 14 36.999s22 14 38 14c20 0 35.333 -7.66699 46 -23s16 -35.666 16 -60.999c0 -59.333 -25 -107.333 -75 -144z" />
    <glyph glyph-name="quotereversed" unicode="&#x201b;" horiz-adv-x="200" 
d="M43 647c0 25.333 5.33301 45.666 16 60.999s26 23 46 23c16 0 28.667 -4.66699 38 -14s14 -21.666 14 -36.999c0 -12 -5.16699 -24.333 -15.5 -37s-15.5 -25 -15.5 -37c0 -32.667 17 -67 51 -103h-60c-49.333 36.667 -74 84.667 -74 144z" />
    <glyph glyph-name="quotedblleft" unicode="&#x201c;" horiz-adv-x="350" 
d="M105 503c-20 0 -35.333 7.66699 -46 23s-16 35.666 -16 60.999c0 59.333 24.667 107.333 74 144h60c-34 -36.667 -51 -71 -51 -103c0 -12 5.16699 -24.333 15.5 -37s15.5 -25 15.5 -37c0 -15.333 -4.66699 -27.666 -14 -36.999s-22 -14 -38 -14zM255 503
c-20 0 -35.167 7.66699 -45.5 23s-15.5 35.666 -15.5 60.999c0 59.333 24.667 107.333 74 144h59c-34 -38 -51 -72.333 -51 -103c0 -12 5.33301 -24.333 16 -37s16 -25 16 -37c0 -15.333 -4.83301 -27.666 -14.5 -36.999s-22.5 -14 -38.5 -14z" />
    <glyph glyph-name="quotedblright" unicode="&#x201d;" horiz-adv-x="350" 
d="M23 503c34 36 51 70.335 51 103.002c0 12 -5.16699 24.333 -15.5 37s-15.5 25 -15.5 37c0 15.333 4.66699 27.666 14 36.999s22 14 38 14c20 0 35.333 -7.83301 46 -23.5s16 -35.834 16 -60.501c0 -59.333 -25 -107.333 -75 -144h-59zM174 503.002
c34 36 51 70.335 51 103.002c0 12 -5.16699 24.333 -15.5 37s-15.5 25 -15.5 37c0 15.333 4.66699 27.666 14 36.999s22 14 38 14c20 0 35.333 -7.83301 46 -23.5s16 -35.834 16 -60.501c0 -58.667 -25 -106.667 -75 -144h-59z" />
    <glyph glyph-name="quotedblbase" unicode="&#x201e;" horiz-adv-x="350" 
d="M23 -115c34 36 51 70.333 51 103c0 12.667 -5.16699 25.167 -15.5 37.5s-15.5 24.5 -15.5 36.5c0 15.333 4.66699 27.666 14 36.999s22 14 38 14c20 0 35.333 -7.66699 46 -23s16 -35.666 16 -60.999c0 -59.333 -25 -107.333 -75 -144h-59zM174 -115
c34 36 51 70.333 51 103c0 12.667 -5.16699 25.167 -15.5 37.5s-15.5 24.5 -15.5 36.5c0 15.333 4.66699 27.666 14 36.999s22 14 38 14c20 0 35.333 -7.66699 46 -23s16 -35.666 16 -60.999c0 -58.667 -25 -106.667 -75 -144h-59z" />
    <glyph glyph-name="uni201F" unicode="&#x201f;" horiz-adv-x="350" 
d="M43 647c0 25.333 5.33301 45.666 16 60.999s26 23 46 23c16 0 28.667 -4.66699 38 -14s14 -21.666 14 -36.999c0 -12 -5.16699 -24.333 -15.5 -37s-15.5 -25 -15.5 -37c0 -32.667 17 -67 51 -103h-60c-49.333 36.667 -74 84.667 -74 144zM194 647
c0 25.333 5.16699 45.666 15.5 60.999s25.5 23 45.5 23c16 0 28.833 -4.66699 38.5 -14s14.5 -21.666 14.5 -36.999c0 -12 -5.33301 -24.333 -16 -37s-16 -25 -16 -37c0 -32 17 -66.333 51 -103h-59c-49.333 36.667 -74 84.667 -74 144z" />
    <glyph glyph-name="dagger" unicode="&#x2020;" horiz-adv-x="389" 
d="M161 516h-118v66h118v118h66v-118h119v-66h-119v-316h-66v316z" />
    <glyph glyph-name="daggerdbl" unicode="&#x2021;" horiz-adv-x="389" 
d="M227 582h119v-66h-119v-132h119v-65h-119v-119h-66v119h-118v65h118v132h-118v66h118v118h66v-118z" />
    <glyph glyph-name="bullet" unicode="&#x2022;" horiz-adv-x="328" 
d="M42 350c0 36 11.333 65.333 34 88s52 34 88 34s65.333 -11.333 88 -34s34 -52 34 -88s-11.333 -65.167 -34 -87.5s-52 -33.5 -88 -33.5s-65.333 11.167 -88 33.5s-34 51.5 -34 87.5z" />
    <glyph glyph-name="ellipsis" unicode="&#x2026;" horiz-adv-x="643" 
d="M471 54c0 19.333 6 35.166 18 47.499s28 18.5 48 18.5c19.333 0 35 -6.16699 47 -18.5s18 -28.166 18 -47.499c0 -18.667 -6 -34.167 -18 -46.5s-27.667 -18.5 -47 -18.5c-20 0 -36 6 -48 18s-18 27.667 -18 47zM322 -11c-19.333 0 -35.166 6 -47.499 18
s-18.5 27.667 -18.5 47s6.16699 35.166 18.5 47.499s28.166 18.5 47.499 18.5s35 -6.16699 47 -18.5s18 -28.166 18 -47.499s-6 -35 -18 -47s-27.667 -18 -47 -18zM42 54c0 19.333 6 35.166 18 47.499s28 18.5 48 18.5c19.333 0 35 -6.16699 47 -18.5s18 -28.166 18 -47.499
c0 -18.667 -6.16699 -34.167 -18.5 -46.5s-27.833 -18.5 -46.5 -18.5c-20 0 -36 6 -48 18s-18 27.667 -18 47z" />
    <glyph glyph-name="perthousand" unicode="&#x2030;" horiz-adv-x="1201" 
d="M199 325c-46 0 -83.5 18 -112.5 54s-43.5 82.333 -43.5 139s14.5 103 43.5 139s66.5 54 112.5 54c46.667 0 84.5 -18 113.5 -54s43.5 -82.333 43.5 -139s-14.5 -103 -43.5 -139s-66.833 -54 -113.5 -54zM647 -11c-46 0 -83.5 18 -112.5 54s-43.5 82.333 -43.5 139
s14.5 103 43.5 139s66.5 54 112.5 54s83.667 -18 113 -54s44 -82.333 44 -139s-14.667 -103 -44 -139s-67 -54 -113 -54zM846 182c0 56.667 14.5 103 43.5 139s66.5 54 112.5 54s83.667 -18 113 -54s44 -82.333 44 -139s-14.667 -103 -44 -139s-67 -54 -113 -54
s-83.5 18 -112.5 54s-43.5 82.333 -43.5 139zM138 0l490 700h80l-489 -700h-81zM917 182c0 -36.667 7.83301 -66.5 23.5 -89.5s36.167 -34.5 61.5 -34.5s45.833 11.5 61.5 34.5s23.5 52.833 23.5 89.5s-7.83301 66.5 -23.5 89.5s-36.167 34.5 -61.5 34.5
s-45.833 -11.5 -61.5 -34.5s-23.5 -52.833 -23.5 -89.5zM562 182c0 -36.667 7.83301 -66.5 23.5 -89.5s36.167 -34.5 61.5 -34.5s45.833 11.5 61.5 34.5s23.5 52.833 23.5 89.5s-7.83301 66.5 -23.5 89.5s-36.167 34.5 -61.5 34.5s-45.833 -11.5 -61.5 -34.5
s-23.5 -52.833 -23.5 -89.5zM114 518c0 -36.667 7.83301 -66.5 23.5 -89.5s36.167 -34.5 61.5 -34.5s45.833 11.5 61.5 34.5s23.5 52.833 23.5 89.5s-7.83301 66.5 -23.5 89.5s-36.167 34.5 -61.5 34.5s-45.833 -11.5 -61.5 -34.5s-23.5 -52.833 -23.5 -89.5z" />
    <glyph glyph-name="guilsinglleft" unicode="&#x2039;" horiz-adv-x="253" 
d="M137 115l-98 170l98 170h66l-71 -170l71 -170h-66z" />
    <glyph glyph-name="guilsinglright" unicode="&#x203a;" horiz-adv-x="253" 
d="M116 115h-66l70 170l-70 170h66l98 -170z" />
    <glyph glyph-name="fraction" unicode="&#x2044;" horiz-adv-x="569" 
d="M80 0h-80l489 700h80z" />
    <glyph glyph-name="Euro" unicode="&#x20ac;" horiz-adv-x="781" 
d="M249 464l300.002 -0.000976562v-66h-320c-2.66699 -13.333 -4 -29.333 -4 -48c0 -16 1 -31 3 -45h321v-66h-301c20 -46 52.167 -82.333 96.5 -109s96.166 -40 155.499 -40c92.667 0 166 29 220 87v-114c-65.333 -49.333 -143.333 -74 -234 -74
c-88.667 0 -164.834 22.5 -228.501 67.5s-106.5 105.833 -128.5 182.5h-92v66h79c-1.33301 20 -2 35 -2 45c0 16 1 32 3 48h-80v66h93c22 75.333 64.833 135.333 128.5 180s139.5 67 227.5 67c90.667 0 168.667 -24.667 234 -74v-114c-54.667 58.667 -128 88 -220 88
c-58.667 0 -110 -13.167 -154 -39.5s-76.333 -62.166 -97 -107.499z" />
    <glyph glyph-name="uni20B4" unicode="&#x20b4;" horiz-adv-x="633" 
d="M44 241l-0.000976562 66h545v-66h-391c-10.667 -12.667 -16 -28.667 -16 -48c0 -32 15.333 -57 46 -75s72.667 -27 126 -27c88 0 156.333 21 205 63v-92c-57.333 -47.333 -132.666 -71 -225.999 -71c-82 0 -145 17 -189 51s-66 83.333 -66 148c0 18.667 4 35.667 12 51
h-46zM43.999 400v65.999h390c14 14.667 21 32.334 21 53.001c0 28.667 -13.5 51.167 -40.5 67.5s-64.833 24.5 -113.5 24.5c-82.667 0 -145.667 -21 -189 -63v92c50.667 47.333 121 71 211 71c76 0 134.333 -16.5 175 -49.5s61 -80.167 61 -141.5
c0 -21.333 -4 -39.333 -12 -54h42v-66h-545z" />
    <glyph glyph-name="uni2116" unicode="&#x2116;" horiz-adv-x="1233" 
d="M189 0h-106v695h61l518 -505v510h106v-700h-62l-517 504v-504zM1020 325c-46 0 -83.5 18 -112.5 54s-43.5 82.333 -43.5 139s14.5 103 43.5 139s66.5 54 112.5 54s83.5 -18 112.5 -54s43.5 -82.333 43.5 -139s-14.5 -103 -43.5 -139s-66.5 -54 -112.5 -54zM935 518
c0 -36.667 7.83301 -66.5 23.5 -89.5s36.167 -34.5 61.5 -34.5s45.833 11.5 61.5 34.5s23.5 52.833 23.5 89.5s-7.83301 66.5 -23.5 89.5s-36.167 34.5 -61.5 34.5s-45.833 -11.5 -61.5 -34.5s-23.5 -52.833 -23.5 -89.5zM871 178v66h298v-66h-298z" />
    <glyph glyph-name="uni2117" unicode="&#x2117;" horiz-adv-x="820" 
d="M410 -11c-99.333 0 -184.333 35.333 -255 106s-106 155.667 -106 255s35.333 184.333 106 255s155.667 106 255 106s184.333 -35.333 255 -106s106 -155.667 106 -255s-35.333 -184.333 -106 -255s-155.667 -106 -255 -106zM115 350
c0 -81.333 28.833 -150.833 86.5 -208.5s127.167 -86.5 208.5 -86.5s150.833 28.833 208.5 86.5s86.5 127.167 86.5 208.5s-28.833 150.833 -86.5 208.5s-127.167 86.5 -208.5 86.5s-150.833 -28.833 -208.5 -86.5s-86.5 -127.167 -86.5 -208.5zM360 175h-67v350h160
c34.667 0 63 -10 85 -30s33 -45.667 33 -77c0 -32 -11 -58 -33 -78s-50.333 -30 -85 -30h-93v-135zM447 468l-87 0.000976562v-101h87c16.667 0 30.167 4.66699 40.5 14s15.5 21.666 15.5 36.999c0 14.667 -5.16699 26.667 -15.5 36s-23.833 14 -40.5 14z" />
    <glyph glyph-name="trademark" unicode="&#x2122;" horiz-adv-x="837" 
d="M389 700h38l165 -239l166 240h38v-351h-67v204l-121 -179h-31l-121 180v-205h-67v350zM18 643v57h321v-57h-127v-293h-66v293h-128z" />
    <glyph glyph-name="estimated" unicode="&#x212e;" horiz-adv-x="808" 
d="M49 350c0 98 34.8291 181.668 104.496 251.001s153.167 104 250.5 104c94.667 0 176.334 -32.833 245.001 -98.5s105.334 -146.167 110.001 -241.5v-30h-585v-215c63.333 -63.333 140 -95 230 -95c56.667 0 109.334 13.5 158.001 40.5s87.334 63.5 116.001 109.5h35
c-31.333 -54.667 -74.5 -98.334 -129.5 -131.001s-114.833 -49 -179.5 -49c-97.333 0 -180.833 34.667 -250.5 104s-104.5 153 -104.5 251zM403.996 675.001c-90 0 -166.667 -31.667 -230 -95v-215h460v215c-63.333 63.333 -140 95 -230 95z" />
    <glyph glyph-name="uni2150" unicode="&#x2150;" horiz-adv-x="772" 
d="M65 0l489 700h80l-489 -700h-80zM464 385h283v-29l-167 -356h-63l156 333h-209v52zM120 627l-80 -35v61l108 47h32v-385h-60v312z" />
    <glyph glyph-name="uni2151" unicode="&#x2151;" horiz-adv-x="777" 
d="M452 266c0 37.333 12.667 67.668 38 91.001s58 35 98 35c48 0 85.667 -16.833 113 -50.5s41 -80.167 41 -139.5c0 -64.667 -16.333 -115.5 -49 -152.5s-77.334 -55.5 -134.001 -55.5c-33.333 0 -62.333 6.66699 -87 20v56c20 -14.667 45.333 -22 76 -22
c38.667 0 69.334 11.333 92.001 34s36 55 40 97c-18.667 -26 -49.667 -39 -93 -39c-40 0 -72.5 11.667 -97.5 35s-37.5 53.666 -37.5 90.999zM145 0.00195312h-80l489 700h80zM120 627.002l-80 -35v61l108 47h32v-385h-60v312zM599 190.002c38 0 64.332 17 78.999 51
c-4.66699 30 -14.667 53.333 -30 70s-35 25 -59 25c-22 0 -39.833 -6.5 -53.5 -19.5s-20.5 -29.833 -20.5 -50.5c0 -22.667 7.83301 -41 23.5 -55s35.834 -21 60.501 -21z" />
    <glyph glyph-name="uni2152" unicode="&#x2152;" horiz-adv-x="1032" 
d="M684 193c0 58.667 14.5 106.334 43.5 143.001s66.833 55 113.5 55c46 0 83.5 -18.333 112.5 -55s43.5 -84.334 43.5 -143.001s-14.5 -106.5 -43.5 -143.5s-66.5 -55.5 -112.5 -55.5c-46.667 0 -84.5 18.5 -113.5 55.5s-43.5 84.833 -43.5 143.5zM145 0h-80l489 700h80z
M841 49c27.333 0 49.833 13.333 67.5 40s26.5 61.334 26.5 104.001c0 42 -8.83301 76.333 -26.5 103s-40.167 40 -67.5 40c-28 0 -50.833 -13.333 -68.5 -40s-26.5 -61 -26.5 -103c0 -42.667 8.83301 -77.334 26.5 -104.001s40.5 -40 68.5 -40zM40 592v61l108 47h32v-385
h-60v312zM457 277v61l108 47h32v-385h-60v313z" />
    <glyph glyph-name="onethird" unicode="&#x2153;" horiz-adv-x="760" 
d="M145 0h-80l489 700h80zM456 34l0.000976562 63.998c25.333 -32.667 62.333 -49 111 -49c27.333 0 49.666 5.83301 66.999 17.5s26 27.5 26 47.5c0 16.667 -5.83301 30.334 -17.5 41.001s-26.5 16 -44.5 16h-48v50h41c16.667 0 30.334 5.16699 41.001 15.5
s16 23.5 16 39.5c0 18.667 -7.5 33.334 -22.5 44.001s-34.833 16 -59.5 16c-46.667 0 -82.667 -16.333 -108 -49v64c30.667 26.667 69.334 40 116.001 40c41.333 0 74.333 -9.66699 99 -29s37 -46 37 -80c0 -37.333 -13 -65.333 -39 -84c34 -18 51 -48.333 51 -91
c0 -35.333 -13.333 -63 -40 -83s-62.334 -30 -107.001 -30c-48.667 0 -88.334 13.333 -119.001 40zM40.001 652.998l108 47h32v-385h-60v312l-80 -35v61z" />
    <glyph glyph-name="twothirds" unicode="&#x2154;" horiz-adv-x="830" 
d="M215 0h-80l489 700h80zM526 34l0.000976562 63.998c25.333 -32.667 62.333 -49 111 -49c27.333 0 49.666 5.83301 66.999 17.5s26 27.5 26 47.5c0 16.667 -5.83301 30.334 -17.5 41.001s-26.5 16 -44.5 16h-48v50h41c16.667 0 30.334 5.16699 41.001 15.5
s16 23.5 16 39.5c0 18.667 -7.5 33.334 -22.5 44.001s-34.833 16 -59.5 16c-46.667 0 -82.667 -16.333 -108 -49v64c30.667 26.667 69.334 40 116.001 40c41.333 0 74.333 -9.66699 99 -29s37 -46 37 -80c0 -37.333 -13 -65.333 -39 -84c34 -18 51 -48.333 51 -91
c0 -35.333 -13.333 -63 -40 -83s-62.334 -30 -107.001 -30c-48.667 0 -88.334 13.333 -119.001 40zM36.001 314.998v30.002l140 150c36 39.333 54 72.333 54 99c0 17.333 -7.16699 31.166 -21.5 41.499s-33.5 15.5 -57.5 15.5c-46.667 0 -82.667 -16.333 -108 -49v62
c30 28 69.333 42 118 42c39.333 0 71 -9 95 -27s36 -42.333 36 -73c0 -44.667 -24.667 -93.334 -74 -146.001l-88 -93h172v-52h-266z" />
    <glyph glyph-name="uni2155" unicode="&#x2155;" horiz-adv-x="760" 
d="M145 0h-80l489 700h80zM453 32v63.999c25.333 -31.333 62.333 -47 111 -47c28.667 0 51.834 7 69.501 21s26.5 32.667 26.5 56c0 20.667 -9.83301 37.334 -29.5 50.001s-45.834 19 -78.501 19c-32 0 -59 -5 -81 -15l14 205h201v-52h-150l-7 -90c12.667 2 27 3 43 3
c45.333 0 81.833 -11.167 109.5 -33.5s41.5 -51.833 41.5 -88.5c0 -40.667 -13.667 -72.5 -41 -95.5s-64 -34.5 -110 -34.5c-48 0 -87.667 12.667 -119 38zM40 591.999v61l108 47h32v-385h-60v312z" />
    <glyph glyph-name="uni2156" unicode="&#x2156;" horiz-adv-x="830" 
d="M135 0l489 700h80l-489 -700h-80zM523 32v63.999c25.333 -31.333 62.333 -47 111 -47c28.667 0 51.834 7 69.501 21s26.5 32.667 26.5 56c0 20.667 -9.83301 37.334 -29.5 50.001s-45.834 19 -78.501 19c-32 0 -59 -5 -81 -15l14 205h201v-52h-150l-7 -90
c12.667 2 27 3 43 3c45.333 0 81.833 -11.167 109.5 -33.5s41.5 -51.833 41.5 -88.5c0 -40.667 -13.667 -72.5 -41 -95.5s-64 -34.5 -110 -34.5c-48 0 -87.667 12.667 -119 38zM36 344.999l140 150.002c36 39.333 54 72.333 54 99c0 17.333 -7.16699 31.166 -21.5 41.499
s-33.5 15.5 -57.5 15.5c-46.667 0 -82.667 -16.333 -108 -49v62c30 28 69.333 42 118 42c39.333 0 71 -9 95 -27s36 -42.333 36 -73c0 -44.667 -24.667 -93.334 -74 -146.001l-88 -93h172v-52h-266v30z" />
    <glyph glyph-name="uni2157" unicode="&#x2157;" horiz-adv-x="822" 
d="M126 0l490 700h80l-489 -700h-81zM514 32v63.999c26 -31.333 63.333 -47 112 -47c28.667 0 51.834 7 69.501 21s26.5 32.667 26.5 56c0 20.667 -9.83301 37.334 -29.5 50.001s-45.834 19 -78.501 19c-32 0 -59 -5 -81 -15l14 205h201v-52h-151l-6 -90c12.667 2 27 3 43 3
c45.333 0 81.833 -11.167 109.5 -33.5s41.5 -51.833 41.5 -88.5c0 -40.667 -13.667 -72.5 -41 -95.5s-64 -34.5 -110 -34.5c-47.333 0 -87.333 12.667 -120 38zM39 412.999c26.667 -32.667 63.668 -49.001 111.001 -49.001c27.333 0 49.666 5.83301 66.999 17.5
s26 27.5 26 47.5c0 16.667 -5.83301 30.334 -17.5 41.001s-26.167 16 -43.5 16h-49v50h41c16.667 0 30.334 5.16699 41.001 15.5s16 23.5 16 39.5c0 18.667 -7.5 33.334 -22.5 44.001s-34.833 16 -59.5 16c-45.333 0 -81.333 -16.333 -108 -49v64
c30.667 26.667 69.334 40 116.001 40c41.333 0 74.333 -9.66699 99 -29s37 -46 37 -80c0 -36.667 -13 -64.334 -39 -83.001c34 -19.333 51 -50 51 -92c0 -35.333 -13.333 -63 -40 -83s-62.334 -30 -107.001 -30c-48.667 0 -88.334 13.333 -119.001 40v64z" />
    </font>
</defs>
</svg>
