<?xml version="1.0" standalone="no"?>
<!DOCTYPE svg PUBLIC "-//W3C//DTD SVG 1.1//EN" "http://www.w3.org/Graphics/SVG/1.1/DTD/svg11.dtd" >
<svg>
<metadata>
Created by FontForge 20090914 at Fri Sep 18 15:30:37 2020
 By www-data
Round -a-
</metadata>
<defs>
<font id="Greenwich-Light" horiz-adv-x="800" >
  <font-face 
    font-family="Greenwich Light"
    font-weight="350"
    font-stretch="normal"
    units-per-em="1000"
    panose-1="0 0 0 0 0 0 0 0 0 0"
    ascent="850"
    descent="-150"
    x-height="480"
    cap-height="700"
    bbox="-90.002 -217.003 1239 955"
    underline-thickness="50"
    underline-position="-225"
    unicode-range="U+000D-U+FB04"
  />
<missing-glyph horiz-adv-x="364" 
d="M33 0v666h265v-666h-265zM66 33h199v600h-199v-600z" />
    <glyph glyph-name="f_f" unicode="ff" horiz-adv-x="753" 
d="M122 422h-91.999v58h92v102c0 44 13 79.333 39 106s60.667 40 104 40c30 0 57 -7 81 -21v-56c-16.667 12.667 -38.334 19 -65.001 19c-28 0 -50.333 -9 -67 -27s-25 -41.667 -25 -71v-92h157v-58h-157v-422h-67v422zM499.001 422h-91.998v58h92v102
c0 44 13 79.333 39 106s60.333 40 103 40c30.667 0 58 -7 82 -21v-56c-16.667 12.667 -38.334 19 -65.001 19c-28.667 0 -51.334 -9 -68.001 -27s-25 -41.667 -25 -71v-92h158v-58h-158v-422h-66v422z" />
    <glyph glyph-name="fi" unicode="fi" horiz-adv-x="621" 
d="M189 480h157.001v-58h-157v-422h-67v422h-92v58h92v102c0 44 13 79.333 39 106s60.667 40 104 40c30 0 57 -7 81 -21v-56c-16.667 12.667 -38.334 19 -65.001 19c-28 0 -50.333 -9 -67 -27s-25 -41.667 -25 -71v-92zM466.001 480h66v-480h-66v480zM499.001 601
c-14.667 0 -26.334 4.5 -35.001 13.5s-13 20.5 -13 34.5s4.33301 25.333 13 34s20.334 13 35.001 13c14 0 25.333 -4.33301 34 -13s13 -20 13 -34s-4.33301 -25.5 -13 -34.5s-20 -13.5 -34 -13.5z" />
    <glyph glyph-name="fl" unicode="fl" horiz-adv-x="651" 
d="M30 422l0.000976562 58h92v102c0 44 13 79.333 39 106s60.667 40 104 40c30 0 57 -7 81 -21v-56c-16.667 12.667 -38.334 19 -65.001 19c-28 0 -50.333 -9 -67 -27s-25 -41.667 -25 -71v-92h157v-58h-157v-422h-67v422h-92zM466.001 720h66v-608
c0 -20 7.16699 -35.833 21.5 -47.5s33.833 -17.5 58.5 -17.5v-45c-12 -4.66699 -25.333 -7 -40 -7c-30.667 0 -56 10 -76 30s-30 45.667 -30 77v618z" />
    <glyph glyph-name="f_f_i" unicode="ffi" horiz-adv-x="998" 
d="M30 422l0.000976562 58h92v102c0 44 13 79.333 39 106s60.667 40 104 40c30 0 57 -7 81 -21v-56c-16.667 12.667 -38.334 19 -65.001 19c-28 0 -50.333 -9 -67 -27s-25 -41.667 -25 -71v-92h157v-58h-157v-422h-67v422h-92zM565.001 480h158.002v-58h-158v-422h-66v422
h-92v58h92v102c0 44 13 79.333 39 106s60.333 40 103 40c30.667 0 58 -7 82 -21v-56c-16.667 12.667 -38.334 19 -65.001 19c-28.667 0 -51.334 -9 -68.001 -27s-25 -41.667 -25 -71v-92zM842.003 480h67v-480h-67v480zM828.003 649c0 14 4.33301 25.333 13 34s20 13 34 13
c14.667 0 26.334 -4.33301 35.001 -13s13 -20 13 -34s-4.33301 -25.5 -13 -34.5s-20.334 -13.5 -35.001 -13.5c-14 0 -25.333 4.5 -34 13.5s-13 20.5 -13 34.5z" />
    <glyph glyph-name="f_f_l" unicode="ffl" horiz-adv-x="1028" 
d="M30 422l0.000976562 58h92v102c0 44 13 79.333 39 106s60.667 40 104 40c30 0 57 -7 81 -21v-56c-16.667 12.667 -38.334 19 -65.001 19c-28 0 -50.333 -9 -67 -27s-25 -41.667 -25 -71v-92h157v-58h-157v-422h-67v422h-92zM407.001 422l0.00195312 58h92v102
c0 44 13 79.333 39 106s60.333 40 103 40c30.667 0 58 -7 82 -21v-56c-16.667 12.667 -38.334 19 -65.001 19c-28.667 0 -51.334 -9 -68.001 -27s-25 -41.667 -25 -71v-92h158v-58h-158v-422h-66v422h-92zM842.003 720h67v-608c0 -20 7.16699 -35.833 21.5 -47.5
s33.833 -17.5 58.5 -17.5v-45c-12.667 -4.66699 -26 -7 -40 -7c-31.333 0 -57 10 -77 30s-30 45.667 -30 77v618z" />
    <glyph glyph-name=".notdef" horiz-adv-x="364" 
d="M33 0v666h265v-666h-265zM66 33h199v600h-199v-600z" />
    <glyph glyph-name="uni0000" horiz-adv-x="0" 
 />
    <glyph glyph-name="uni0000" horiz-adv-x="0" 
 />
    <glyph glyph-name="uni000D" unicode="&#xd;" horiz-adv-x="250" 
 />
    <glyph glyph-name="space" unicode=" " horiz-adv-x="267" 
 />
    <glyph glyph-name="exclam" unicode="!" horiz-adv-x="252" 
d="M91 700h70l-7 -487h-57zM126 -8c-14 0 -25.5 4.33301 -34.5 13s-13.5 20 -13.5 34s4.5 25.5 13.5 34.5s20.5 13.5 34.5 13.5s25.333 -4.5 34 -13.5s13 -20.5 13 -34.5s-4.33301 -25.333 -13 -34s-20 -13 -34 -13z" />
    <glyph glyph-name="quotedbl" unicode="&#x22;" horiz-adv-x="402" 
d="M245 700h69l-12 -219h-44zM88 700h69l-13 -219h-44z" />
    <glyph glyph-name="numbersign" unicode="#" horiz-adv-x="658" 
d="M28 187l6 46h121l32 234h-120l6 46h121l26 187h53l-26 -187h210l26 187h54l-26 -187h120l-7 -46h-120l-32 -234h120l-7 -46h-120l-26 -187h-54l26 187h-210l-26 -187h-53l26 187h-120zM208 233h210l32 234h-210z" />
    <glyph glyph-name="dollar" unicode="$" horiz-adv-x="658" 
d="M69 130c58 -48 140.001 -72 246.001 -72c67.333 0 120 10.833 158 32.5s57 52.167 57 91.5c0 34 -16.167 62.167 -48.5 84.5s-83.833 41.166 -154.5 56.499c-90 19.333 -155.333 45.333 -196 78s-61 75.334 -61 128.001c0 54.667 20.333 97.5 61 128.5
s98 47.833 172 50.5v92h46v-93c84 -4 151 -28 201 -72v-64c-50 48 -123.667 72 -221 72c-60 0 -107 -9.83301 -141 -29.5s-51 -47.5 -51 -83.5c0 -33.333 16.167 -61 48.5 -83s83.166 -40.333 152.499 -55c89.333 -18 154.833 -44 196.5 -78s62.5 -78 62.5 -132
c0 -56.667 -21.5 -101.334 -64.5 -134.001s-104.167 -50.667 -183.5 -54v-94h-46v93c-98.667 2.66699 -176.667 27.334 -234 74.001v63z" />
    <glyph glyph-name="percent" unicode="%" horiz-adv-x="854" 
d="M202 325c-44.667 0 -81.167 17.833 -109.5 53.5s-42.5 81.834 -42.5 138.501c0 56 14.167 101.833 42.5 137.5s64.833 53.5 109.5 53.5s81 -17.833 109 -53.5s42 -81.5 42 -137.5c0 -56.667 -14 -102.834 -42 -138.501s-64.333 -53.5 -109 -53.5zM652 -8
c-44.667 0 -81 17.833 -109 53.5s-42 81.5 -42 137.5c0 56.667 14 102.834 42 138.501s64.333 53.5 109 53.5s81 -17.833 109 -53.5s42 -81.834 42 -138.501c0 -56 -14 -101.833 -42 -137.5s-64.333 -53.5 -109 -53.5zM549 183c0 -42.667 9.5 -77.334 28.5 -104.001
s43.833 -40 74.5 -40s55.5 13.333 74.5 40s28.5 61.334 28.5 104.001s-9.5 77.5 -28.5 104.5s-43.833 40.5 -74.5 40.5s-55.5 -13.5 -74.5 -40.5s-28.5 -61.833 -28.5 -104.5zM99 517c0 -42.667 9.5 -77.5 28.5 -104.5s43.833 -40.5 74.5 -40.5s55.334 13.5 74.001 40.5
s28 61.833 28 104.5s-9.33301 77.334 -28 104.001s-43.334 40 -74.001 40s-55.5 -13.333 -74.5 -40s-28.5 -61.334 -28.5 -104.001zM155 0l488 700h56l-489 -700h-55z" />
    <glyph glyph-name="ampersand" unicode="&#x26;" horiz-adv-x="729" 
d="M59 233c0 52.667 13.667 97.501 41 134.501s63.333 60.167 108 69.5c-2 12.667 -3 26.667 -3 42c0 66.667 21.5 121 64.5 163s98.167 63 165.5 63c54.667 0 101.667 -14.333 141 -43v-65c-34 32 -76.667 48 -128 48c-52 0 -94.333 -15.833 -127 -47.5
s-49 -72.834 -49 -123.501c0 -51.333 15.333 -90.333 46 -117l203 -186c35.333 58 53 128.667 53 212h68c0 -101.333 -23.667 -187.333 -71 -258l136 -125h-91l-85 78c-57.333 -57.333 -128.333 -86 -213 -86c-76 0 -138.167 22.333 -186.5 67s-72.5 102.667 -72.5 174z
M127 234.001c0 -53.333 18.168 -96.832 54.501 -130.499s82.5 -50.5 138.5 -50.5c64.667 0 119 23 163 69l-216 198c-16.667 14.667 -30.334 33.667 -41.001 57c-30 -6.66699 -54 -22.834 -72 -48.501s-27 -57.167 -27 -94.5z" />
    <glyph glyph-name="quotesingle" unicode="'" horiz-adv-x="244" 
d="M100 481l-12 219h69l-13 -219h-44z" />
    <glyph glyph-name="parenleft" unicode="(" horiz-adv-x="293" 
d="M64 300c0 98 12.168 185.83 36.501 263.497s58.166 139.834 101.499 186.501h67c-44.667 -39.333 -79.667 -98.333 -105 -177s-38 -169.667 -38 -273s12.5 -194.166 37.5 -272.499s59.833 -137.166 104.5 -176.499h-67c-43.333 46.667 -77 108.667 -101 186
s-36 165 -36 263z" />
    <glyph glyph-name="parenright" unicode=")" horiz-adv-x="293" 
d="M24 750l67.001 0.00292969c43.333 -46.667 77.166 -108.834 101.499 -186.501s36.5 -165.5 36.5 -263.5s-12 -185.667 -36 -263s-57.667 -139.333 -101 -186h-67c44.667 39.333 79.5 98.166 104.5 176.499s37.5 169.166 37.5 272.499s-12.667 194.333 -38 273
s-60.333 137.667 -105 177z" />
    <glyph glyph-name="asterisk" unicode="*" horiz-adv-x="491" 
d="M57 545l16 49l155 -60l-9 166h52l-8 -166l155 60l16 -49l-161 -43l105 -130l-43 -30l-90 139l-90 -139l-42 30l104 130z" />
    <glyph glyph-name="plus" unicode="+" horiz-adv-x="620" 
d="M94 373h193v193h46v-193h193v-46h-193v-193h-46v193h-193v46z" />
    <glyph glyph-name="comma" unicode="," horiz-adv-x="190" 
d="M70 -137h-46.001c34 36.667 51 73.334 51 110.001c0 14 -4.16699 27 -12.5 39s-12.5 22.667 -12.5 32c0 12 3.66699 21.833 11 29.5s17.333 11.5 30 11.5c16.667 0 29.334 -7.16699 38.001 -21.5s13 -32.5 13 -54.5c0 -56.667 -24 -105.334 -72 -146.001z" />
    <glyph glyph-name="hyphen" unicode="-" horiz-adv-x="398" 
d="M67 256v58h263v-58h-263z" />
    <glyph glyph-name="period" unicode="." horiz-adv-x="190" 
d="M48 39c0 14 4.33301 25.5 13 34.5s20 13.5 34 13.5c14.667 0 26.334 -4.5 35.001 -13.5s13 -20.5 13 -34.5s-4.33301 -25.333 -13 -34s-20.334 -13 -35.001 -13c-14 0 -25.333 4.33301 -34 13s-13 20 -13 34z" />
    <glyph glyph-name="slash" unicode="/" horiz-adv-x="464" 
d="M41 -162l-41 18l422 906l42 -18z" />
    <glyph glyph-name="zero" unicode="0" horiz-adv-x="680" 
d="M340 708c80.667 0 146.334 -33.167 197.001 -99.5s76 -152.5 76 -258.5s-25.333 -192.167 -76 -258.5s-116.334 -99.5 -197.001 -99.5s-146.334 33.167 -197.001 99.5s-76 152.5 -76 258.5s25.333 192.167 76 258.5s116.334 99.5 197.001 99.5zM135 350
c0 -87.333 19 -158.666 57 -213.999s87.333 -83 148 -83s110 27.667 148 83s57 126.666 57 213.999s-19 158.666 -57 213.999s-87.333 83 -148 83s-110 -27.667 -148 -83s-57 -126.666 -57 -213.999z" />
    <glyph glyph-name="one" unicode="1" horiz-adv-x="411" 
d="M224 620l-157 -70v67l188 83h35v-700h-66v620z" />
    <glyph glyph-name="two" unicode="2" horiz-adv-x="602" 
d="M535 0l-475.998 -0.000976562v32l279 286c72 73.333 108 140 108 200c0 38.667 -15.333 69.834 -46 93.501s-71.334 35.5 -122.001 35.5c-43.333 0 -83.333 -8.83301 -120 -26.5s-66.667 -42.5 -90 -74.5v73c57.333 59.333 130.666 89 219.999 89
c67.333 0 121.833 -16.333 163.5 -49s62.5 -75.667 62.5 -129c0 -80 -43.333 -164.333 -130 -253l-217 -219h368v-58z" />
    <glyph glyph-name="three" unicode="3" horiz-adv-x="622" 
d="M296 -8c-92.667 0 -168 29.001 -226 87.001v75c50.667 -67.333 123.667 -101 219 -101c57.333 0 103.833 13 139.5 39s53.5 61.333 53.5 106c0 38 -12.833 69.5 -38.5 94.5s-58.5 37.5 -98.5 37.5h-92v57h80c36.667 0 66.834 11.833 90.501 35.5s35.5 53.5 35.5 89.5
c0 41.333 -15.833 74.166 -47.5 98.499s-73.167 36.5 -124.5 36.5c-90.667 0 -161.334 -33.667 -212.001 -101v75c58 58 131 87 219 87c71.333 0 128 -16.833 170 -50.5s63 -80.167 63 -139.5c0 -34.667 -7.5 -65.5 -22.5 -92.5s-35.5 -48.167 -61.5 -63.5
c33.333 -14 59.5 -36 78.5 -66s28.5 -64.667 28.5 -104c0 -62 -23.167 -110.833 -69.5 -146.5s-107.833 -53.5 -184.5 -53.5z" />
    <glyph glyph-name="four" unicode="4" horiz-adv-x="640" 
d="M39 144v32l415 524h52v-501h94v-55h-94v-144h-67v144h-400zM131 199h308v389z" />
    <glyph glyph-name="five" unicode="5" horiz-adv-x="617" 
d="M288 -8c-91.333 0 -165.668 27 -223.001 81v74c52 -62.667 124 -94 216 -94c59.333 0 107.333 15 144 45s55 70.333 55 121c0 49.333 -20.333 88.166 -61 116.499s-96 42.5 -166 42.5c-61.333 0 -112.333 -10.333 -153 -31l29 353h357v-58h-301l-19 -218
c30 8.66699 65.333 13 106 13c84.667 0 151.834 -19.833 201.501 -59.5s74.5 -93.167 74.5 -160.5c0 -69.333 -23.5 -124.166 -70.5 -164.499s-110.167 -60.5 -189.5 -60.5z" />
    <glyph glyph-name="six" unicode="6" horiz-adv-x="644" 
d="M365 709c58.667 0 111.333 -14.334 158 -43.001v-64c-41.333 31.333 -90.333 47 -147 47c-74.667 0 -133.667 -28 -177 -84s-65 -132 -65 -228c39.333 68.667 105.333 103 198 103c72.667 0 131.667 -21.167 177 -63.5s68 -97.166 68 -164.499
c0 -65.333 -21.667 -118.333 -65 -159s-100 -61 -170 -61c-85.333 0 -152.5 30.833 -201.5 92.5s-73.5 146.167 -73.5 253.5c0 113.333 26.833 203.5 80.5 270.5s126.167 100.5 217.5 100.5zM137.999 265.999c9.33301 -67.333 31.667 -119.667 67 -157s80.333 -56 135 -56
c50.667 0 91.5 14.667 122.5 44s46.5 68 46.5 116c0 50.667 -17.333 91.667 -52 123s-79.667 47 -135 47c-88.667 0 -150 -39 -184 -117z" />
    <glyph glyph-name="seven" unicode="7" horiz-adv-x="589" 
d="M44 700h501v-32l-316 -668h-70l305 642h-420v58z" />
    <glyph glyph-name="eight" unicode="8" horiz-adv-x="614" 
d="M197 375c-33.333 14.667 -59.333 35.5 -78 62.5s-28 58.167 -28 93.5c0 52.667 20 95.334 60 128.001s92 49 156 49c63.333 0 115.166 -16.333 155.499 -49s60.5 -75.334 60.5 -128.001c0 -35.333 -9.5 -66.5 -28.5 -93.5s-45.167 -47.833 -78.5 -62.5
c42.667 -15.333 76.5 -39 101.5 -71s37.5 -69 37.5 -111c0 -59.333 -23.167 -107.666 -69.5 -144.999s-105.833 -56 -178.5 -56c-73.333 0 -133 18.667 -179 56s-69 85.666 -69 144.999c0 42 12.333 79 37 111s58.334 55.667 101.001 71zM125 199
c0 -42.667 17 -77.667 51 -105s77.667 -41 131 -41s96.833 13.5 130.5 40.5s50.5 62.167 50.5 105.5c0 42.667 -16.833 77.5 -50.5 104.5s-77.167 40.5 -130.5 40.5s-97 -13.5 -131 -40.5s-51 -61.833 -51 -104.5zM307 403c44 0 80 11.333 108 34s42 52 42 88
c0 35.333 -14 64.5 -42 87.5s-64 34.5 -108 34.5s-80 -11.5 -108 -34.5s-42 -52.167 -42 -87.5c0 -36 14 -65.333 42 -88s64 -34 108 -34z" />
    <glyph glyph-name="nine" unicode="9" horiz-adv-x="644" 
d="M305 709c85.333 0 152.001 -30.167 200.001 -90.5s72 -144.166 72 -251.499c0 -116 -27.833 -207.5 -83.5 -274.5s-131.5 -100.5 -227.5 -100.5c-64 0 -120 14 -168 42v65c42 -31.333 94 -47 156 -47c80 0 142.5 27.667 187.5 83s67.833 132 68.5 230
c-39.333 -67.333 -105 -101 -197 -101c-72.667 0 -131.834 20.833 -177.501 62.5s-68.5 96.167 -68.5 163.5c0 65.333 21.833 118.166 65.5 158.499s101.167 60.5 172.5 60.5zM135.001 489c0 -50 17.334 -90.5 52.001 -121.5s79.667 -46.5 135 -46.5
c87.333 0 148.666 38.333 183.999 115c-9.33301 67.333 -31.333 119.333 -66 156s-80 55 -136 55c-50.667 0 -91.5 -14.5 -122.5 -43.5s-46.5 -67.167 -46.5 -114.5z" />
    <glyph glyph-name="colon" unicode=":" horiz-adv-x="190" 
d="M48 39c0 14 4.33301 25.5 13 34.5s20 13.5 34 13.5c14.667 0 26.334 -4.5 35.001 -13.5s13 -20.5 13 -34.5s-4.33301 -25.333 -13 -34s-20.334 -13 -35.001 -13c-14 0 -25.333 4.33301 -34 13s-13 20 -13 34zM48 441c0 14 4.33301 25.333 13 34s20 13 34 13
c14.667 0 26.334 -4.33301 35.001 -13s13 -20 13 -34s-4.33301 -25.5 -13 -34.5s-20.334 -13.5 -35.001 -13.5c-14 0 -25.333 4.5 -34 13.5s-13 20.5 -13 34.5z" />
    <glyph glyph-name="semicolon" unicode=";" horiz-adv-x="190" 
d="M70 -137h-46.001c34 36.667 51 73.334 51 110.001c0 14 -4.16699 27 -12.5 39s-12.5 22.667 -12.5 32c0 12 3.66699 21.833 11 29.5s17.333 11.5 30 11.5c16.667 0 29.334 -7.16699 38.001 -21.5s13 -32.5 13 -54.5c0 -56.667 -24 -105.334 -72 -146.001zM47.999 441
c0 14 4.33301 25.333 13 34s20 13 34 13c14.667 0 26.334 -4.33301 35.001 -13s13 -20 13 -34s-4.33301 -25.5 -13 -34.5s-20.334 -13.5 -35.001 -13.5c-14 0 -25.333 4.5 -34 13.5s-13 20.5 -13 34.5z" />
    <glyph glyph-name="less" unicode="&#x3c;" horiz-adv-x="620" 
d="M74 366l452 190v-49l-375 -157l375 -156v-50l-452 190v32z" />
    <glyph glyph-name="equal" unicode="=" horiz-adv-x="620" 
d="M94 447v46h432v-46h-432zM526 207h-432v46h432v-46z" />
    <glyph glyph-name="greater" unicode="&#x3e;" horiz-adv-x="620" 
d="M94 194l375 156l-375 157v49l452 -190v-32l-452 -190v50z" />
    <glyph glyph-name="question" unicode="?" horiz-adv-x="527" 
d="M247 647c-86.667 0 -154.332 -33.667 -202.999 -101v73c55.333 59.333 126.666 89 213.999 89c65.333 0 118 -15.667 158 -47s60 -73 60 -125c0 -46 -17.167 -90 -51.5 -132s-80.5 -74.333 -138.5 -97l-1 -94h-57l-2 127c55.333 20.667 99.5 47.667 132.5 81
s49.5 67.333 49.5 102c0 37.333 -14.667 67.333 -44 90s-68.333 34 -117 34zM257.002 -8c-14.667 0 -26.334 4.33301 -35.001 13s-13 20 -13 34s4.33301 25.5 13 34.5s20.334 13.5 35.001 13.5c14 0 25.333 -4.5 34 -13.5s13 -20.5 13 -34.5s-4.33301 -25.333 -13 -34
s-20 -13 -34 -13z" />
    <glyph glyph-name="at" unicode="@" horiz-adv-x="847" 
d="M399 -8c-114.667 0 -202.667 33.1709 -264 99.5039s-84.333 153.166 -69 260.499c15.333 104.667 61 190.167 137 256.5s166.333 99.5 271 99.5c104 0 184.833 -32.5 242.5 -97.5s79.834 -146.5 66.501 -244.5c-8.66699 -60 -28.334 -108.5 -59.001 -145.5
s-66.667 -55.5 -108 -55.5c-30 0 -53 9.83301 -69 29.5s-22 45.5 -18 77.5c-21.333 -32.667 -47.333 -58.834 -78 -78.501s-61.667 -29.5 -93 -29.5c-42 0 -74 16.5 -96 49.5s-29.333 75.167 -22 126.5c8.66699 59.333 33.167 107.166 73.5 143.499s87.833 54.5 142.5 54.5
c44.667 0 80 -13 106 -39l9 31h44l-35 -254c-2.66699 -18.667 0.333008 -33.834 9 -45.501s21.334 -17.5 38.001 -17.5c25.333 0 47.666 13.667 66.999 41s32.333 63.333 39 108c11.333 85.333 -7.66699 155.666 -57 210.999s-118.666 83 -207.999 83
c-90.667 0 -168.334 -28.167 -233.001 -84.5s-103.667 -129.166 -117 -218.499c-12.667 -92 7.5 -166.5 60.5 -223.5s129.5 -85.5 229.5 -85.5c100.667 0 186.334 25.667 257.001 77l-9 -58c-74.667 -47.333 -160.334 -71 -257.001 -71zM293 342.004
c-5.33301 -38.667 -0.167969 -70.667 15.499 -96s38.167 -38 67.5 -38c30.667 0 60.834 13.833 90.501 41.5s54.5 64.5 74.5 110.5l12 91c-20.667 29.333 -52.667 44 -96 44c-42 0 -78.167 -14 -108.5 -42s-48.833 -65 -55.5 -111z" />
    <glyph glyph-name="A" unicode="A" 
d="M29 0l355 700h33l354 -700h-77l-86 173h-416l-86 -173h-77zM400 592l-177 -357h354z" />
    <glyph glyph-name="B" unicode="B" horiz-adv-x="715" 
d="M99 700h315c60 0 109 -16.833 147 -50.5s57 -77.167 57 -130.5c0 -71.333 -32 -123.333 -96 -156c38.667 -14 69 -36.167 91 -66.5s33 -65.833 33 -106.5c0 -56 -20 -101.667 -60 -137s-92 -53 -156 -53h-331v700zM422 329h-253v-267h253
c44.667 0 81.334 12.333 110.001 37s43 56.667 43 96s-14.333 71.5 -43 96.5s-65.334 37.5 -110.001 37.5zM404 638l-235 0.000976562v-250h235c42 0 76.333 11.667 103 35s40 53.666 40 90.999c0 36.667 -13.333 66.5 -40 89.5s-61 34.5 -103 34.5z" />
    <glyph glyph-name="C" unicode="C" horiz-adv-x="736" 
d="M417 -8c-108 0 -195.833 33.167 -263.5 99.5s-101.5 152.5 -101.5 258.5s33.833 192.167 101.5 258.5s155.5 99.5 263.5 99.5c97.333 0 179 -28.667 245 -86v-77c-56.667 65.333 -135.667 98 -237 98c-89.333 0 -162 -27.167 -218 -81.5s-84 -124.833 -84 -211.5
s28 -157.167 84 -211.5s128.667 -81.5 218 -81.5c100.667 0 179.667 33 237 99v-77c-65.333 -58 -147 -87 -245 -87z" />
    <glyph glyph-name="D" unicode="D" horiz-adv-x="806" 
d="M99 700h285c105.333 0 191 -32.5 257 -97.5s99 -149.167 99 -252.5s-33 -187.5 -99 -252.5s-151.667 -97.5 -257 -97.5h-285v700zM384 638l-215 -0.00195312v-576h215c84 0 152.5 26.833 205.5 80.5s79.5 122.834 79.5 207.501s-26.5 153.834 -79.5 207.501
s-121.5 80.5 -205.5 80.5z" />
    <glyph glyph-name="E" unicode="E" horiz-adv-x="667" 
d="M99 0v700h516v-62h-446v-254h371v-61h-371v-261h451v-62h-521z" />
    <glyph glyph-name="F" unicode="F" horiz-adv-x="657" 
d="M169 0h-70v700h516v-62h-446v-254h371v-61h-371v-323z" />
    <glyph glyph-name="G" unicode="G" horiz-adv-x="778" 
d="M52 351c0 105.333 34.168 191.165 102.501 257.498s156.5 99.5 264.5 99.5c99.333 0 182 -28.333 248 -85v-75c-58.667 64 -138 96 -238 96c-90.667 0 -164.167 -27.167 -220.5 -81.5s-84.5 -125.166 -84.5 -212.499s28 -158.166 84 -212.499s129 -81.5 219 -81.5
c68 0 128.667 16 182 48v185h-167v59h234v-280h-3c-66.667 -50.667 -148.334 -76 -245.001 -76c-111.333 0 -201.833 33.333 -271.5 100s-104.5 153 -104.5 259z" />
    <glyph glyph-name="H" unicode="H" horiz-adv-x="857" 
d="M169 0h-70v700h70v-316h520v316h69v-700h-69v323h-520v-323z" />
    <glyph glyph-name="I" unicode="I" horiz-adv-x="268" 
d="M99 700h70v-700h-70v700z" />
    <glyph glyph-name="J" unicode="J" horiz-adv-x="301" 
d="M59 -207c-32.667 0 -60.666 8 -83.999 24v60c16.667 -14.667 39 -22 67 -22c27.333 0 49.166 8.16699 65.499 24.5s24.5 38.5 24.5 66.5v754h70v-763c0 -44 -13 -79 -39 -105s-60.667 -39 -104 -39z" />
    <glyph glyph-name="K" unicode="K" horiz-adv-x="711" 
d="M99 0v700h70v-310h145l249 310h86l-277 -341l301 -359h-88l-271 329h-145v-329h-70z" />
    <glyph glyph-name="L" unicode="L" horiz-adv-x="647" 
d="M99 0v700h70v-638h444v-62h-514z" />
    <glyph glyph-name="M" unicode="M" horiz-adv-x="972" 
d="M169 0h-70v700h39l348 -555l348 557h39v-702h-70v537l-300 -487h-33l-301 485v-535z" />
    <glyph glyph-name="N" unicode="N" horiz-adv-x="870" 
d="M99 697h39l561 -572v575h68v-700h-39l-561 573v-573h-68v697z" />
    <glyph glyph-name="O" unicode="O" horiz-adv-x="854" 
d="M427 708c106.667 0 193.5 -33.167 260.5 -99.5s100.5 -152.5 100.5 -258.5s-33.5 -192.167 -100.5 -258.5s-153.833 -99.5 -260.5 -99.5s-193.5 33.167 -260.5 99.5s-100.5 152.5 -100.5 258.5s33.5 192.167 100.5 258.5s153.833 99.5 260.5 99.5zM137 350
c0 -86.667 27 -157.167 81 -211.5s123.667 -81.5 209 -81.5s155 27.167 209 81.5s81 124.833 81 211.5s-27 157.167 -81 211.5s-123.667 81.5 -209 81.5s-155 -27.167 -209 -81.5s-81 -124.833 -81 -211.5z" />
    <glyph glyph-name="P" unicode="P" horiz-adv-x="675" 
d="M169 0l-70 -0.00195312v700h296c66 0 119.667 -18.667 161 -56s62 -85.666 62 -144.999s-20.667 -107.666 -62 -144.999s-95 -56 -161 -56h-226v-298zM169 358.998h221c46 0 83.667 13 113 39s44 59.667 44 101c0 40.667 -14.667 74 -44 100s-67 39 -113 39h-221v-279z
" />
    <glyph glyph-name="Q" unicode="Q" horiz-adv-x="854" 
d="M427 708c106.667 0 193.5 -33.167 260.5 -99.5s100.5 -152.5 100.5 -258.5c0 -73.333 -16.667 -138 -50 -194s-79.333 -98.333 -138 -127l118 -179h-83l-93 157c-36 -10 -74.333 -15 -115 -15c-106.667 0 -193.5 33.167 -260.5 99.5s-100.5 152.5 -100.5 258.5
s33.5 192.167 100.5 258.5s153.833 99.5 260.5 99.5zM427 57c85.333 0 155 27.167 209 81.5s81 124.833 81 211.5s-27 157.167 -81 211.5s-123.667 81.5 -209 81.5s-155 -27.167 -209 -81.5s-81 -124.833 -81 -211.5s27 -157.167 81 -211.5s123.667 -81.5 209 -81.5z" />
    <glyph glyph-name="R" unicode="R" horiz-adv-x="717" 
d="M169 0l-70 -0.00292969v700h313c66 0 119.667 -18.667 161 -56s62 -85.666 62 -144.999c0 -51.333 -15.833 -94.666 -47.5 -129.999s-73.5 -57.666 -125.5 -66.999l199 -302h-82l-188 298h-222v-298zM407 637.997h-238v-279h238c46 0 83.667 13 113 39s44 59.667 44 101
c0 40.667 -14.667 74 -44 100s-67 39 -113 39z" />
    <glyph glyph-name="S" unicode="S" horiz-adv-x="658" 
d="M69 67l0.00195312 63.001c58 -48 140 -72 246 -72c67.333 0 120 10.833 158 32.5s57 52.167 57 91.5c0 34 -16.167 62.167 -48.5 84.5s-83.833 41.166 -154.5 56.499c-90 19.333 -155.333 45.333 -196 78s-61 75.334 -61 128.001c0 56.667 22 100.667 66 132
s105.667 47 185 47c97.333 0 173.666 -24.333 228.999 -73v-64c-50 48 -123.667 72 -221 72c-60 0 -107 -9.83301 -141 -29.5s-51 -47.5 -51 -83.5c0 -33.333 16.167 -61 48.5 -83s83.166 -40.333 152.499 -55c89.333 -18 154.833 -44 196.5 -78s62.5 -78 62.5 -132
c0 -60.667 -24 -107.334 -72 -140.001s-116 -49 -204 -49c-106.667 0 -190.667 24.667 -252 74z" />
    <glyph glyph-name="T" unicode="T" horiz-adv-x="709" 
d="M320 638h-286v62h641v-62h-286v-638h-69v638z" />
    <glyph glyph-name="U" unicode="U" horiz-adv-x="828" 
d="M91 303l-0.000976562 397h69v-394c0 -73.333 23.667 -133.166 71 -179.499s108.666 -69.5 183.999 -69.5c74.667 0 135.334 23.167 182.001 69.5s70 106.166 70 179.499v394h70v-397c0 -92 -29.833 -166.833 -89.5 -224.5s-137.167 -86.5 -232.5 -86.5
s-173.166 29 -233.499 87s-90.5 132.667 -90.5 224z" />
    <glyph glyph-name="V" unicode="V" 
d="M29 700h77l294 -592l294 592h77l-354 -700h-33z" />
    <glyph glyph-name="W" unicode="W" horiz-adv-x="1150" 
d="M312 0l-283 700h76l225 -575l228 575h33l228 -575l226 575h76l-284 -700h-33l-229 577l-229 -577h-34z" />
    <glyph glyph-name="X" unicode="X" horiz-adv-x="757" 
d="M124 0h-87l296 361l-275 339h87l233 -292l234 292h87l-276 -339l297 -361h-87l-255 313z" />
    <glyph glyph-name="Y" unicode="Y" horiz-adv-x="709" 
d="M320 302l-293 398h85l243 -334l242 334h85l-293 -399v-301h-69v302z" />
    <glyph glyph-name="Z" unicode="Z" horiz-adv-x="758" 
d="M689 0h-620v32l507 606h-502v62h610v-32l-508 -606h513v-62z" />
    <glyph glyph-name="bracketleft" unicode="[" horiz-adv-x="308" 
d="M91 -150v900h187v-47h-127v-806h127v-47h-187z" />
    <glyph glyph-name="backslash" unicode="\" horiz-adv-x="464" 
d="M422 -162l-422 906l41 18l423 -906z" />
    <glyph glyph-name="bracketright" unicode="]" horiz-adv-x="308" 
d="M218 -150h-188v47h128v806h-128v47h188v-900z" />
    <glyph glyph-name="asciicircum" unicode="^" horiz-adv-x="620" 
d="M100 499l210 209l210 -209l-33 -33l-177 178l-177 -178z" />
    <glyph glyph-name="underscore" unicode="_" horiz-adv-x="500" 
d="M0 -146v46h500v-46h-500z" />
    <glyph glyph-name="grave" unicode="`" horiz-adv-x="347" 
d="M269 575l-191 80v65l191 -99v-46z" />
    <glyph glyph-name="a" unicode="a" horiz-adv-x="563" 
d="M247 -6c-58.667 0 -104.833 12.167 -138.5 36.5s-50.5 58.166 -50.5 101.499c0 46.667 19.333 82.834 58 108.501s92 38.5 160 38.5c32.667 0 73.667 -3.66699 123 -11v35c0 81.333 -51.333 122 -154 122c-63.333 0 -114 -15.333 -152 -46v62
c42.667 29.333 97.334 44 164.001 44c68 0 119.833 -15 155.5 -45s53.5 -73.667 53.5 -131v-218c0 -29.333 21.333 -44 64 -44v-45c-10.667 -4 -24 -6 -40 -6c-40.667 0 -68.334 15 -83.001 45c-42 -31.333 -95.333 -47 -160 -47zM288.001 223
c-51.333 0 -91.334 -7.83203 -120.001 -23.499s-43 -37.834 -43 -66.501c0 -25.333 11.667 -45.333 35 -60s55.333 -22 96 -22c60.667 0 108.334 16.667 143.001 50v113c-52.667 6 -89.667 9 -111 9z" />
    <glyph glyph-name="b" unicode="b" horiz-adv-x="597" 
d="M89 0v720h67v-274c40 27.333 86.667 41 140 41c72.667 0 131.834 -22.833 177.501 -68.5s68.5 -105.167 68.5 -178.5c0 -72.667 -22.833 -132 -68.5 -178s-104.834 -69 -177.501 -69c-55.333 0 -103 14.667 -143 44l-4 -37h-60zM156 100
c33.333 -32 76.666 -48 129.999 -48c55.333 0 100.5 17.5 135.5 52.5s52.5 80.167 52.5 135.5s-17.5 100.5 -52.5 135.5s-80.167 52.5 -135.5 52.5c-53.333 0 -96.666 -16 -129.999 -48v-280z" />
    <glyph glyph-name="c" unicode="c" horiz-adv-x="530" 
d="M312 -8c-76 0 -137.667 23 -185 69s-71 105.667 -71 179s23.667 133 71 179s109 69 185 69c60.667 0 112.334 -15.667 155.001 -47v-67c-37.333 36 -85.333 54 -144 54s-106.5 -17.5 -143.5 -52.5s-55.5 -80.167 -55.5 -135.5s18.5 -100.5 55.5 -135.5
s84.833 -52.5 143.5 -52.5s106.667 18 144 54v-67c-42.667 -31.333 -94.334 -47 -155.001 -47z" />
    <glyph glyph-name="d" unicode="d" horiz-adv-x="597" 
d="M56 240c0 73.333 22.667 132.833 68 178.5s104.333 68.5 177 68.5c54.667 0 101.667 -14 141 -42v275h66v-720h-60l-3 37c-40 -29.333 -88 -44 -144 -44c-72.667 0 -131.667 22.833 -177 68.5s-68 105.167 -68 178.5zM312 428c-56 0 -101.333 -17.5 -136 -52.5
s-52 -80.167 -52 -135.5s17.333 -100.5 52 -135.5s80 -52.5 136 -52.5c54 0 97.333 16.333 130 49v278c-32.667 32.667 -76 49 -130 49z" />
    <glyph glyph-name="e" unicode="e" horiz-adv-x="591" 
d="M295 488c73.333 0 131.831 -24.668 175.498 -74.001s63.5 -113.666 59.5 -192.999h-408c6 -51.333 28.833 -92.333 68.5 -123s90.167 -46 151.5 -46c66.667 0 121.334 18.667 164.001 56v-65c-48 -34 -105.667 -51 -173 -51c-83.333 0 -150.5 23 -201.5 69
s-76.5 107 -76.5 183c0 71.333 22.333 129.833 67 175.5s102.334 68.5 173.001 68.5zM121.998 275.999h341.999c-3.33301 46 -20.333 83.167 -51 111.5s-69.667 42.5 -117 42.5s-86.666 -14.167 -117.999 -42.5s-50 -65.5 -56 -111.5z" />
    <glyph glyph-name="f" unicode="f" horiz-adv-x="377" 
d="M189 480h157.001v-58h-157v-422h-67v422h-92v58h92v102c0 44 13 79.333 39 106s60.667 40 104 40c30 0 57 -7 81 -21v-56c-16.667 12.667 -38.334 19 -65.001 19c-28 0 -50.333 -9 -67 -27s-25 -41.667 -25 -71v-92z" />
    <glyph glyph-name="g" unicode="g" horiz-adv-x="597" 
d="M301 -6c-72.667 0 -131.667 22.833 -177 68.5s-68 105.167 -68 178.5c0 72.667 22.667 131.834 68 177.501s104.333 68.5 177 68.5c56.667 0 104.334 -14.333 143.001 -43l4 36h60v-501c0 -60 -20.833 -106.167 -62.5 -138.5s-100.834 -48.5 -177.501 -48.5
c-68 0 -125.667 13.667 -173 41v59c40 -27.333 94.333 -41 163 -41c59.333 0 104.833 11.167 136.5 33.5s47.5 54.166 47.5 95.499v55c-40 -27.333 -87 -41 -141 -41zM124 241c0 -55.333 17.334 -100.5 52.001 -135.5s80 -52.5 136 -52.5c53.333 0 96.666 16 129.999 48v279
c-34 32.667 -77.333 49 -130 49c-56 0 -101.333 -17.5 -136 -52.5s-52 -80.167 -52 -135.5z" />
    <glyph glyph-name="h" unicode="h" horiz-adv-x="621" 
d="M89 720h67.001v-289c41.333 38 93.666 57 156.999 57c69.333 0 124 -19.5 164 -58.5s60 -92.167 60 -159.5v-270h-67v271c0 48.667 -15 87.167 -45 115.5s-70.667 42.5 -122 42.5c-57.333 0 -106.333 -21.667 -147 -65v-364h-67v720z" />
    <glyph glyph-name="i" unicode="i" horiz-adv-x="245" 
d="M89 0v480h67v-480h-67zM75 649c0 14 4.33301 25.333 13 34s20 13 34 13s25.5 -4.33301 34.5 -13s13.5 -20 13.5 -34s-4.5 -25.5 -13.5 -34.5s-20.5 -13.5 -34.5 -13.5s-25.333 4.5 -34 13.5s-13 20.5 -13 34.5z" />
    <glyph glyph-name="j" unicode="j" horiz-adv-x="245" 
d="M9 -198v45c24.667 0 44.167 5.83301 58.5 17.5s21.5 27.167 21.5 46.5v569h67v-578c0 -31.333 -10 -57 -30 -77s-45.667 -30 -77 -30c-14 0 -27.333 2.33301 -40 7zM75 649c0 14 4.33301 25.333 13 34s20 13 34 13s25.5 -4.33301 34.5 -13s13.5 -20 13.5 -34
s-4.5 -25.5 -13.5 -34.5s-20.5 -13.5 -34.5 -13.5s-25.333 4.5 -34 13.5s-13 20.5 -13 34.5z" />
    <glyph glyph-name="k" unicode="k" horiz-adv-x="530" 
d="M156 0h-67v720h67v-446h74l175 206h80l-203 -236l216 -244h-82l-186 215h-74v-215z" />
    <glyph glyph-name="l" unicode="l" horiz-adv-x="275" 
d="M196 -5c-31.333 0 -57 10 -77 30s-30 45.667 -30 77v618h67v-608c0 -20 7.16699 -35.833 21.5 -47.5s33.833 -17.5 58.5 -17.5v-45c-12.667 -4.66699 -26 -7 -40 -7z" />
    <glyph glyph-name="m" unicode="m" horiz-adv-x="955" 
d="M156 0l-67 -0.000976562v480h60l5 -51c38 39.333 88.333 59 151 59c78 0 135.667 -26.667 173 -80c42 53.333 102 80 180 80c64.667 0 116.334 -18.667 155.001 -56s58 -87.666 58 -150.999v-281h-67v281c0 45.333 -14 81.333 -42 108s-65.667 40 -113 40
c-60 0 -109 -23.667 -147 -71c7.33301 -24 11 -49.667 11 -77v-281h-66v281c0 46 -13.833 82.167 -41.5 108.5s-65.167 39.5 -112.5 39.5c-54.667 0 -100.334 -21.333 -137.001 -64v-365z" />
    <glyph glyph-name="n" unicode="n" horiz-adv-x="621" 
d="M89 480h60l5 -51c41.333 39.333 94.333 59 159 59c69.333 0 124 -19.5 164 -58.5s60 -92.167 60 -159.5v-270h-67v271c0 48.667 -15 87.167 -45 115.5s-70.667 42.5 -122 42.5c-57.333 0 -106.333 -21.667 -147 -65v-364h-67v480z" />
    <glyph glyph-name="o" unicode="o" horiz-adv-x="614" 
d="M307 488c74.667 0 135.167 -23 181.5 -69s69.5 -105.667 69.5 -179s-23.167 -133 -69.5 -179s-106.833 -69 -181.5 -69c-74 0 -134.333 23 -181 69s-70 105.667 -70 179s23.333 133 70 179s107 69 181 69zM124 240c0 -55.333 17 -100.333 51 -135s78 -52 132 -52
s98 17.333 132 52s51 79.667 51 135s-17 100.333 -51 135s-78 52 -132 52s-98 -17.333 -132 -52s-51 -79.667 -51 -135z" />
    <glyph glyph-name="p" unicode="p" horiz-adv-x="597" 
d="M89 -200v680.001h60l4 -36c38.667 28.667 86.334 43 143.001 43c72.667 0 131.834 -22.833 177.501 -68.5s68.5 -104.834 68.5 -177.501c0 -73.333 -22.833 -132.833 -68.5 -178.5s-104.834 -68.5 -177.501 -68.5c-52.667 0 -99.334 13.333 -140.001 40v-234h-67z
M286 429.001c-52.667 0 -95.999 -16 -129.999 -48v-281c33.333 -31.333 76.666 -47 129.999 -47c55.333 0 100.5 17.5 135.5 52.5s52.5 80.167 52.5 135.5s-17.5 100.5 -52.5 135.5s-80.167 52.5 -135.5 52.5z" />
    <glyph glyph-name="q" unicode="q" horiz-adv-x="597" 
d="M56 241c0 72.667 22.667 131.833 68 177.5s104.333 68.5 177 68.5c57.333 0 105.333 -14.333 144 -43l3 36h60v-680h-66v235c-40 -27.333 -87 -41 -141 -41c-72.667 0 -131.667 22.833 -177 68.5s-68 105.167 -68 178.5zM312 428.999
c-56 0 -101.332 -17.5 -135.999 -52.5s-52 -80.167 -52 -135.5s17.333 -100.5 52 -135.5s80 -52.5 136 -52.5c53.333 0 96.666 16 129.999 48v279c-34 32.667 -77.333 49 -130 49z" />
    <glyph glyph-name="r" unicode="r" horiz-adv-x="424" 
d="M89 0v480h60l3 -66c41.333 49.333 95.333 74 162 74c28 0 53 -4.33301 75 -13v-65c-22.667 12.667 -51 19 -85 19c-60 0 -109.333 -26.667 -148 -80v-349h-67z" />
    <glyph glyph-name="s" unicode="s" horiz-adv-x="519" 
d="M65 358c0 42 16.332 74.168 48.999 96.501s79.334 33.5 140.001 33.5c74.667 0 131 -17 169 -51v-62c-34.667 34.667 -88.667 52 -162 52c-42 0 -74.5 -6 -97.5 -18s-34.5 -29 -34.5 -51c0 -19.333 10.667 -35.5 32 -48.5s55.666 -23.833 102.999 -32.5
c66.667 -12.667 115.5 -30.834 146.5 -54.501s46.5 -55.167 46.5 -94.5c0 -43.333 -18 -76.833 -54 -100.5s-87.667 -35.5 -155 -35.5c-79.333 0 -140 17 -182 51v62c38.667 -34.667 98 -52 178 -52c46.667 0 83.167 6.5 109.5 19.5s39.5 31.5 39.5 55.5
c0 20 -10.667 36.667 -32 50s-56.666 25 -105.999 35c-66.667 13.333 -115 31.333 -145 54s-45 53 -45 91z" />
    <glyph glyph-name="t" unicode="t" horiz-adv-x="400" 
d="M189 480h157.002v-58h-157v-279c0 -28 8.16699 -50.167 24.5 -66.5s38.166 -24.5 65.499 -24.5c28 0 50.333 7.33301 67 22v-57c-23.333 -16 -51 -24 -83 -24c-42.667 0 -76.834 12.5 -102.501 37.5s-38.5 58.167 -38.5 99.5v292h-92v58h92v84l67 32v-116z" />
    <glyph glyph-name="u" unicode="u" horiz-adv-x="616" 
d="M84 200l0.000976562 280.002h67v-281c0 -46.667 14 -82.834 42 -108.501s67.333 -38.5 118 -38.5c60 0 109.667 21 149 63v365h67v-480h-60l-5 51c-40.667 -38.667 -94.334 -58 -161.001 -58c-68 0 -121.167 18.167 -159.5 54.5s-57.5 87.166 -57.5 152.499z" />
    <glyph glyph-name="v" unicode="v" horiz-adv-x="567" 
d="M24 480h70l190 -378l189 378h71l-244 -480h-33z" />
    <glyph glyph-name="w" unicode="w" horiz-adv-x="821" 
d="M228 0l-204 480h69l151 -370l150 370h33l150 -370l151 370h69l-203 -480h-34l-149 371l-150 -371h-33z" />
    <glyph glyph-name="x" unicode="x" horiz-adv-x="565" 
d="M116 0h-80l205 244l-199 236h80l161 -192l159 192h81l-199 -236l205 -244h-80l-166 200z" />
    <glyph glyph-name="y" unicode="y" horiz-adv-x="567" 
d="M250 34l-226 446h70l190 -376l189 376h71l-345 -680h-72z" />
    <glyph glyph-name="z" unicode="z" horiz-adv-x="543" 
d="M494 0h-440v32l332 390h-327v58h430v-32l-333 -390h338v-58z" />
    <glyph glyph-name="braceleft" unicode="{" horiz-adv-x="343" 
d="M30 323c36 0 65.333 11.333 88 34s32.667 51.334 30 86.001l-13 140c-4.66699 50 10.333 91.5 45 124.5s78.667 49.5 132 49.5v-46c-35.333 0 -64.333 -11.333 -87 -34s-32.667 -51.334 -30 -86.001l12 -137c2.66699 -34.667 -4.16602 -65.5 -20.499 -92.5
s-39.833 -47.5 -70.5 -61.5c30.667 -14 54.167 -34.5 70.5 -61.5s23.166 -57.833 20.499 -92.5l-12 -137c-2.66699 -34.667 7.33301 -63.334 30 -86.001s51.667 -34 87 -34v-46c-53.333 0 -97.333 16.5 -132 49.5s-49.667 74.5 -45 124.5l13 140
c2.66699 34.667 -7.33301 63.334 -30 86.001s-52 34 -88 34v46z" />
    <glyph glyph-name="bar" unicode="|" horiz-adv-x="287" 
d="M166 -100h-45v900h45v-900z" />
    <glyph glyph-name="braceright" unicode="}" horiz-adv-x="343" 
d="M208 17c4.66699 -50 -10.5 -91.5 -45.5 -124.5s-79.167 -49.5 -132.5 -49.5v46c36 0 65.333 11.333 88 34s32.667 51.334 30 86.001l-12 137c-2.66699 34.667 4.16602 65.5 20.499 92.5s39.5 47.5 69.5 61.5c-30 14 -53.167 34.5 -69.5 61.5s-23.166 57.833 -20.499 92.5
l12 137c2.66699 34.667 -7.33301 63.334 -30 86.001s-52 34 -88 34v46c53.333 0 97.5 -16.5 132.5 -49.5s50.167 -74.5 45.5 -124.5l-13 -140c-2.66699 -34.667 7.33301 -63.334 30 -86.001s51.667 -34 87 -34v-46c-35.333 0 -64.333 -11.333 -87 -34
s-32.667 -51.334 -30 -86.001z" />
    <glyph glyph-name="asciitilde" unicode="~" horiz-adv-x="620" 
d="M200 422c21.333 0 42.667 -5.00195 64 -15.002s39.333 -21.167 54 -33.5s31.334 -23.5 50.001 -33.5s36 -15 52 -15c23.333 0 42.666 8.33301 57.999 25s23 37.334 23 62.001h45c0 -38.667 -12 -70.5 -36 -95.5s-54 -37.5 -90 -37.5c-26.667 0 -53 8.16699 -79 24.5
l-74.5 48.5c-23.667 16 -45.834 24 -66.501 24c-23.333 0 -42.666 -8.16699 -57.999 -24.5s-23 -37.166 -23 -62.499h-45c0 38.667 12 70.5 36 95.5s54 37.5 90 37.5z" />
    <glyph glyph-name="exclamdown" unicode="&#xa1;" horiz-adv-x="252" 
d="M161 -200h-70l6 467h57zM126 393c-14 0 -25.5 4.5 -34.5 13.5s-13.5 20.5 -13.5 34.5s4.5 25.333 13.5 34s20.5 13 34.5 13s25.333 -4.33301 34 -13s13 -20 13 -34s-4.33301 -25.5 -13 -34.5s-20 -13.5 -34 -13.5z" />
    <glyph glyph-name="cent" unicode="&#xa2;" horiz-adv-x="530" 
d="M56 240c0 68 20.5 124.331 61.5 168.998s95.167 70.334 162.5 77.001v94h46v-92c55.333 -3.33301 102.333 -19 141 -47v-67c-37.333 36 -85.333 54 -144 54s-106.5 -17.5 -143.5 -52.5s-55.5 -80.167 -55.5 -135.5s18.5 -100.5 55.5 -135.5s84.833 -52.5 143.5 -52.5
s106.667 18 144 54v-67c-38.667 -28 -85.667 -43.667 -141 -47v-92h-46v94c-67.333 6.66699 -121.5 32.334 -162.5 77.001s-61.5 101 -61.5 169z" />
    <glyph glyph-name="sterling" unicode="&#xa3;" horiz-adv-x="588" 
d="M50 299v46h92v115c0 73.333 22.5 133 67.5 179s103.5 69 175.5 69c56.667 0 106 -15.667 148 -47v-67c-36 36 -81.667 54 -137 54s-100.333 -17.5 -135 -52.5s-52 -80.167 -52 -135.5v-115h212v-46h-212v-241h337v-58h-496v58h92v241h-92z" />
    <glyph glyph-name="currency" unicode="&#xa4;" horiz-adv-x="620" 
d="M70 557l33 33l81 -82c37.333 30 79.333 45 126 45c47.333 0 89.333 -15 126 -45l81 82l33 -33l-82 -81c30 -36.667 45 -78.667 45 -126c0 -46.667 -15 -88.667 -45 -126l82 -81l-33 -33l-81 82c-36.667 -30 -78.667 -45 -126 -45c-46.667 0 -88.667 15 -126 45l-81 -82
l-33 33l82 81c-30 37.333 -45 79.333 -45 126c0 47.333 15 89.333 45 126zM310 507c-43.333 0 -80.333 -15.167 -111 -45.5s-46 -67.5 -46 -111.5s15.167 -81.167 45.5 -111.5s67.5 -45.5 111.5 -45.5s81.167 15.167 111.5 45.5s45.5 67.5 45.5 111.5
c0 43.333 -15.167 80.333 -45.5 111s-67.5 46 -111.5 46z" />
    <glyph glyph-name="yen" unicode="&#xa5;" horiz-adv-x="709" 
d="M302 327l-275 373h85l243 -334l242 334h85l-274 -373h151v-46h-170v-118h170v-45h-170v-118h-69v118h-170v45h170v118h-170v46h152z" />
    <glyph glyph-name="brokenbar" unicode="&#xa6;" horiz-adv-x="287" 
d="M166 -100h-45v350h45v-350zM121 800h45v-350h-45v350z" />
    <glyph glyph-name="section" unicode="&#xa7;" horiz-adv-x="520" 
d="M250 -8c-80.667 0 -141.998 17.001 -183.998 51.001v62c38.667 -34.667 98.667 -52 180 -52c46 0 82 6 108 18s39 29 39 51c0 18.667 -10.167 34.167 -30.5 46.5s-53.5 22.833 -99.5 31.5c-68 13.333 -117.167 32.166 -147.5 56.499s-45.5 56.833 -45.5 97.5
c0 58 30 96.667 90 116c-62 25.333 -93 62.333 -93 111c0 40.667 16.5 72 49.5 94s80.5 33 142.5 33c73.333 0 129.666 -17 168.999 -51v-62c-36 34.667 -90.667 52 -164 52c-42 0 -74.667 -5.83301 -98 -17.5s-35 -27.834 -35 -48.501c0 -19.333 10.333 -35.5 31 -48.5
s54.334 -24.167 101.001 -33.5c65.333 -13.333 113.166 -32 143.499 -56s45.5 -55.667 45.5 -95c0 -57.333 -31 -95.666 -93 -114.999c34 -12.667 58.833 -28 74.5 -46s23.5 -40 23.5 -66c0 -42 -17.833 -74 -53.5 -96s-86.834 -33 -153.501 -33zM134.002 360.001
c0 -22 11 -40.5 33 -55.5s57.667 -27.833 107 -38.5c36.667 2.66699 64.834 10.667 84.501 24s29.5 31 29.5 53c0 42.667 -50.667 74 -152 94c-30.667 -2 -55.334 -9.66699 -74.001 -23s-28 -31.333 -28 -54z" />
    <glyph glyph-name="dieresis" unicode="&#xa8;" horiz-adv-x="451" 
d="M119 601c-12.667 0 -22.834 3.83301 -30.501 11.5s-11.5 17.5 -11.5 29.5s3.83301 21.833 11.5 29.5s17.834 11.5 30.501 11.5c12 0 21.833 -3.83301 29.5 -11.5s11.5 -17.5 11.5 -29.5s-3.83301 -21.833 -11.5 -29.5s-17.5 -11.5 -29.5 -11.5zM333 601
c-12.667 0 -22.834 3.83301 -30.501 11.5s-11.5 17.5 -11.5 29.5s3.83301 21.833 11.5 29.5s17.834 11.5 30.501 11.5c12 0 21.667 -3.83301 29 -11.5s11 -17.5 11 -29.5s-3.66699 -21.833 -11 -29.5s-17 -11.5 -29 -11.5z" />
    <glyph glyph-name="copyright" unicode="&#xa9;" horiz-adv-x="838" 
d="M419 -8c-99.333 0 -183.833 35 -253.5 105s-104.5 154.333 -104.5 253s34.833 183 104.5 253s154.167 105 253.5 105c98.667 0 183 -35 253 -105s105 -154.333 105 -253s-35 -183 -105 -253s-154.333 -105 -253 -105zM419 663c-86.667 0 -160.5 -30.5 -221.5 -91.5
s-91.5 -134.833 -91.5 -221.5s30.5 -160.5 91.5 -221.5s134.833 -91.5 221.5 -91.5s160.334 30.5 221.001 91.5s91 134.833 91 221.5s-30.333 160.5 -91 221.5s-134.334 91.5 -221.001 91.5zM430 170c-54.667 0 -99 16.6699 -133 50.0029s-51 76.666 -51 129.999
s17 96.666 51 129.999s78.333 50 133 50c48 0 88 -13.333 120 -40v-48c-28.667 30.667 -66.667 46 -114 46c-42.667 0 -77.167 -12.833 -103.5 -38.5s-39.5 -58.834 -39.5 -99.501s13.167 -73.667 39.5 -99s60.833 -38 103.5 -38c48.667 0 86.667 15.333 114 46v-49
c-33.333 -26.667 -73.333 -40 -120 -40z" />
    <glyph glyph-name="ordfeminine" unicode="&#xaa;" horiz-adv-x="431" 
d="M190 335c-44.667 0 -79.501 9.33203 -104.501 27.999s-37.5 44.334 -37.5 77.001c0 34.667 14.5 61.834 43.5 81.501s68.833 29.5 119.5 29.5c14 0 44.333 -2.66699 91 -8v24c0 60 -38 90 -114 90c-48 0 -86 -11.333 -114 -34v48c32.667 22 73.667 33 123 33
c51.333 0 90.5 -11.333 117.5 -34s40.5 -55.334 40.5 -98.001v-162c0 -22 16 -33 48 -33v-35c-7.33301 -3.33301 -17.666 -5 -30.999 -5c-30.667 0 -51.667 11 -63 33c-33.333 -23.333 -73 -35 -119 -35zM220.999 506.999c-37.333 0 -66.834 -5.99902 -88.501 -17.999
s-32.5 -28.333 -32.5 -49c0 -18.667 8.66699 -33.334 26 -44.001s41.333 -16 72 -16c44.667 0 79.334 12.333 104.001 37v83c-37.333 4.66699 -64.333 7 -81 7z" />
    <glyph glyph-name="guillemotleft" unicode="&#xab;" horiz-adv-x="398" 
d="M294 115l-92 170l92 170h46l-75 -170l75 -170h-46zM44 285l92 170h46l-75 -170l75 -170h-46z" />
    <glyph glyph-name="logicalnot" unicode="&#xac;" horiz-adv-x="620" 
d="M94 377v46h432v-188h-45v142h-387z" />
    <glyph glyph-name="uni00AD" unicode="&#xad;" horiz-adv-x="398" 
d="M67 256v58h263v-58h-263z" />
    <glyph glyph-name="registered" unicode="&#xae;" horiz-adv-x="838" 
d="M419 -8c-99.333 0 -183.833 35 -253.5 105s-104.5 154.333 -104.5 253s34.833 183 104.5 253s154.167 105 253.5 105c98.667 0 183 -35 253 -105s105 -154.333 105 -253s-35 -183 -105 -253s-154.333 -105 -253 -105zM419 663c-86.667 0 -160.5 -30.5 -221.5 -91.5
s-91.5 -134.833 -91.5 -221.5s30.5 -160.5 91.5 -221.5s134.833 -91.5 221.5 -91.5s160.334 30.5 221.001 91.5s91 134.833 91 221.5s-30.333 160.5 -91 221.5s-134.334 91.5 -221.001 91.5zM337 175h-45.999v350h160c33.333 0 60.666 -9.5 81.999 -28.5
s32 -43.833 32 -74.5c0 -24.667 -7.5 -46 -22.5 -64s-34.833 -30 -59.5 -36l97 -147h-55l-89 144h-99v-144zM337.001 359l110 -0.000976562c20.667 0 37.667 6 51 18s20 27 20 45c0 18.667 -6.66699 33.834 -20 45.501s-30.333 17.5 -51 17.5h-110v-126z" />
    <glyph glyph-name="macron" unicode="&#xaf;" horiz-adv-x="415" 
d="M77 601v45h260v-45h-260z" />
    <glyph glyph-name="degree" unicode="&#xb0;" horiz-adv-x="390" 
d="M195 705c35.333 0 65.5 -12.5 90.5 -37.5s37.5 -55.167 37.5 -90.5s-12.5 -65.5 -37.5 -90.5s-55.167 -37.5 -90.5 -37.5s-65.5 12.5 -90.5 37.5s-37.5 55.167 -37.5 90.5s12.5 65.5 37.5 90.5s55.167 37.5 90.5 37.5zM113 577c0 -22.667 8 -42 24 -58s35.333 -24 58 -24
s42 8 58 24s24 35.333 24 58c0 23.333 -7.83301 42.833 -23.5 58.5s-35.167 23.5 -58.5 23.5s-42.833 -7.83301 -58.5 -23.5s-23.5 -35.167 -23.5 -58.5z" />
    <glyph glyph-name="plusminus" unicode="&#xb1;" horiz-adv-x="620" 
d="M94 431h193v185h46v-185h193v-46h-193v-185h-46v185h-193v46zM526 84h-432v45h432v-45z" />
    <glyph glyph-name="twosuperior" unicode="&#xb2;" horiz-adv-x="343" 
d="M301 365h-263v21l150 155c38.667 40.667 58 76.667 58 108c0 20 -8.16699 36.167 -24.5 48.5s-37.833 18.5 -64.5 18.5c-48.667 0 -86.667 -18 -114 -54v45c30.667 32 70.667 48 120 48c38 0 68.667 -9 92 -27s35 -41.667 35 -71c0 -44 -24.333 -91 -73 -141l-111 -114
h195v-37z" />
    <glyph glyph-name="threesuperior" unicode="&#xb3;" horiz-adv-x="350" 
d="M165 360c-50.667 0 -91.333 15.333 -122 46v47c27.333 -36 66.666 -54 117.999 -54c30.667 0 55.334 6.83301 74.001 20.5s28 32.167 28 55.5c0 20 -6.66699 36.5 -20 49.5s-30.333 19.5 -51 19.5h-50v36h43c19.333 0 35.166 6.16699 47.499 18.5s18.5 27.833 18.5 46.5
c0 22 -8.33301 39.333 -25 52s-38.667 19 -66 19c-49.333 0 -87.666 -18 -114.999 -54v47c32 30.667 71.667 46 119 46c40 0 71.667 -9.5 95 -28.5s35 -44.833 35 -77.5c0 -38 -14.667 -66.333 -44 -85c38 -17.333 57 -48.333 57 -93c0 -34 -13 -61 -39 -81
s-60.333 -30 -103 -30z" />
    <glyph glyph-name="acute" unicode="&#xb4;" horiz-adv-x="350" 
d="M78 575v46l194 99v-65z" />
    <glyph glyph-name="mu" unicode="&#xb5;" horiz-adv-x="616" 
d="M84 -150l0.000976562 630.001h67v-281c0 -46.667 14 -82.834 42 -108.501s67.333 -38.5 118 -38.5c60 0 109.667 21 149 63v365h67v-480h-60l-5 51c-40.667 -38.667 -94.334 -58 -161.001 -58c-62 0 -112 15.333 -150 46v-189h-67z" />
    <glyph glyph-name="paragraph" unicode="&#xb6;" horiz-adv-x="587" 
d="M57 499c0 59.333 20.668 107.668 62.001 145.001s95 56 161 56h208v-763c0 -44 -12 -79 -36 -105s-56.333 -39 -97 -39c-29.333 0 -55.333 7 -78 21v50c18 -14.667 40.667 -22 68 -22s49.166 8.33301 65.499 25s24.5 39 24.5 67v720h-101v-654h-54v298
c-66 0 -119.667 18.667 -161 56s-62 85.666 -62 144.999z" />
    <glyph glyph-name="periodcentered" unicode="&#xb7;" horiz-adv-x="190" 
d="M48 350c0 14 4.33301 25.333 13 34s20 13 34 13c14.667 0 26.334 -4.33301 35.001 -13s13 -20 13 -34s-4.33301 -25.333 -13 -34s-20.334 -13 -35.001 -13c-14 0 -25.333 4.33301 -34 13s-13 20 -13 34z" />
    <glyph glyph-name="cedilla" unicode="&#xb8;" horiz-adv-x="333" 
d="M78 -127c21.333 -16.667 45.665 -25 72.998 -25c16.667 0 30.334 3 41.001 9s16 13.667 16 23c0 11.333 -7 21 -21 29s-32.333 13 -55 15l9 86h46l-8 -64c22.667 -3.33301 41 -11.5 55 -24.5s21 -28.5 21 -46.5c0 -19.333 -8.66699 -35.5 -26 -48.5
s-39.666 -19.5 -66.999 -19.5c-34 0 -62 9 -84 27v39z" />
    <glyph glyph-name="onesuperior" unicode="&#xb9;" horiz-adv-x="238" 
d="M126 699l-85 -39v44l105 46h23v-385h-43v334z" />
    <glyph glyph-name="ordmasculine" unicode="&#xba;" horiz-adv-x="469" 
d="M235 706c56 0 101.5 -17.1709 136.5 -51.5039s52.5 -79.166 52.5 -134.499s-17.5 -100.166 -52.5 -134.499s-80.5 -51.5 -136.5 -51.5c-55.333 0 -100.666 17.333 -135.999 52s-53 79.334 -53 134.001s17.667 99.334 53 134.001s80.666 52 135.999 52zM101 519.996
c0 -40.667 12.5 -73.667 37.5 -99s57.167 -38 96.5 -38s71.666 12.667 96.999 38s38 58.333 38 99s-12.667 73.834 -38 99.501s-57.666 38.5 -96.999 38.5s-71.5 -12.833 -96.5 -38.5s-37.5 -58.834 -37.5 -99.501z" />
    <glyph glyph-name="guillemotright" unicode="&#xbb;" horiz-adv-x="398" 
d="M291 285l-74 170h45l93 -170l-93 -170h-45zM59 455h45l93 -170l-93 -170h-45l74 170z" />
    <glyph glyph-name="onequarter" unicode="&#xbc;" horiz-adv-x="705" 
d="M374 102l225 283h29v-273h52v-33h-52v-79h-43v79h-211v23zM120 0h-56l489 700h55zM41 610v44l105 46h23v-385h-43v334zM425 112h160v201z" />
    <glyph glyph-name="onehalf" unicode="&#xbd;" horiz-adv-x="741" 
d="M120 0h-56l489 700h55zM700 0h-263v21l149 155c39.333 40.667 59 76.667 59 108c0 20 -8.16699 36.167 -24.5 48.5s-37.833 18.5 -64.5 18.5c-48.667 0 -86.667 -18 -114 -54v45c30.667 32 70.667 48 120 48c38 0 68.5 -9 91.5 -27s34.5 -41.667 34.5 -71
c0 -44.667 -24 -91.667 -72 -141l-111 -114h195v-37zM41 610v44l105 46h23v-385h-43v334z" />
    <glyph glyph-name="threequarters" unicode="&#xbe;" horiz-adv-x="781" 
d="M450 102l226 283h29v-273h52v-33h-52v-79h-43v79h-212v23zM196 0h-55l488 700h56zM165 310c-50.667 0 -91.333 15.333 -122 46v47c27.333 -36 66.666 -54 117.999 -54c30.667 0 55.334 6.83301 74.001 20.5s28 32.167 28 55.5c0 20 -6.66699 36.5 -20 49.5
s-30.333 19.5 -51 19.5h-50v36h43c19.333 0 35.166 6.16699 47.499 18.5s18.5 27.833 18.5 46.5c0 22 -8.33301 39.333 -25 52s-38.667 19 -66 19c-49.333 0 -87.666 -18 -114.999 -54v47c32 30.667 71.667 46 119 46c40 0 71.667 -9.5 95 -28.5s35 -44.833 35 -77.5
c0 -38 -14.667 -66.333 -44 -85c38 -17.333 57 -48.333 57 -93c0 -34 -13 -61 -39 -81s-60.333 -30 -103 -30zM501.001 112h161v201z" />
    <glyph glyph-name="questiondown" unicode="&#xbf;" horiz-adv-x="527" 
d="M50 -43c0 46.667 17.332 90.001 51.999 130.001s81 70 139 90l1 90h57l2 -124c-55.333 -17.333 -99.666 -41.833 -132.999 -73.5s-50 -65.834 -50 -102.501c0 -34 14.667 -61.5 44 -82.5s67.666 -31.5 114.999 -31.5c88.667 0 157.334 33.667 206.001 101v-73
c-55.333 -59.333 -127.333 -89 -216 -89c-64.667 0 -117 15 -157 45s-60 70 -60 120zM269.999 393.001c-14 0 -25.333 4.5 -34 13.5s-13 20.5 -13 34.5s4.33301 25.333 13 34s20 13 34 13s25.5 -4.33301 34.5 -13s13.5 -20 13.5 -34s-4.5 -25.5 -13.5 -34.5
s-20.5 -13.5 -34.5 -13.5z" />
    <glyph glyph-name="Agrave" unicode="&#xc0;" 
d="M29 0l355 700h33l354 -700h-77l-86 173h-416l-86 -173h-77zM400 592l-177 -357h354zM472 769l-192 80v66l192 -99v-47z" />
    <glyph glyph-name="Aacute" unicode="&#xc1;" 
d="M29 0l355 700h33l354 -700h-77l-86 173h-416l-86 -173h-77zM400 592l-177 -357h354zM329 769v47l195 99v-65z" />
    <glyph glyph-name="Acircumflex" unicode="&#xc2;" 
d="M29 0l355 700h33l354 -700h-77l-86 173h-416l-86 -173h-77zM400 592l-177 -357h354zM400 834l-147 -60v45l147 78l148 -78v-45z" />
    <glyph glyph-name="Atilde" unicode="&#xc3;" 
d="M29 0l355 700h33l354 -700h-77l-86 173h-416l-86 -173h-77zM400 592l-177 -357h354zM337 890c22 0 44.5 -9.5 67.5 -28.5s40.833 -28.5 53.5 -28.5c13.333 0 24.333 4.83301 33 14.5s13 22.167 13 37.5h52c0 -29.333 -8.66699 -53.666 -26 -72.999s-39.333 -29 -66 -29
c-21.333 0 -43.666 9.33301 -66.999 28s-41.333 28 -54 28c-13.333 0 -24.5 -4.83301 -33.5 -14.5s-13.5 -21.834 -13.5 -36.501h-52c0 30 8.66699 54.5 26 73.5s39.666 28.5 66.999 28.5z" />
    <glyph glyph-name="Adieresis" unicode="&#xc4;" 
d="M106 0h-77l355 700h33l354 -700h-77l-86 173h-416zM400 592l-177 -357h354zM466 842c0 12.667 3.83301 22.667 11.5 30s17.5 11 29.5 11c12.667 0 22.667 -3.66699 30 -11s11 -17.333 11 -30c0 -12 -3.66699 -21.833 -11 -29.5s-17.333 -11.5 -30 -11.5
c-12 0 -21.833 3.83301 -29.5 11.5s-11.5 17.5 -11.5 29.5zM294 883c12 0 21.833 -3.66699 29.5 -11s11.5 -17.333 11.5 -30c0 -12 -3.83301 -21.833 -11.5 -29.5s-17.5 -11.5 -29.5 -11.5c-12.667 0 -22.667 3.83301 -30 11.5s-11 17.5 -11 29.5
c0 12.667 3.66699 22.667 11 30s17.333 11 30 11z" />
    <glyph glyph-name="Aring" unicode="&#xc5;" 
d="M29 0l355 700h33l354 -700h-77l-86 173h-416l-86 -173h-77zM400 592l-177 -357h354zM400 955c24 0 44.5 -8.5 61.5 -25.5s25.5 -37.167 25.5 -60.5s-8.5 -43.5 -25.5 -60.5s-37.5 -25.5 -61.5 -25.5c-23.333 0 -43.5 8.5 -60.5 25.5s-25.5 37.167 -25.5 60.5
s8.5 43.5 25.5 60.5s37.167 25.5 60.5 25.5zM353 869c0 -12.667 4.66699 -23.667 14 -33s20.333 -14 33 -14c13.333 0 24.5 4.66699 33.5 14s13.5 20.333 13.5 33s-4.66699 23.667 -14 33s-20.333 14 -33 14s-23.667 -4.66699 -33 -14s-14 -20.333 -14 -33z" />
    <glyph glyph-name="AE" unicode="&#xc6;" horiz-adv-x="1001" 
d="M108 0h-79l409 700h511v-62h-416v-254h341v-61h-341v-261h421v-62h-491v175h-254zM463 614l-219 -378h219v378z" />
    <glyph glyph-name="Ccedilla" unicode="&#xc7;" horiz-adv-x="736" 
d="M382 -7c-98.667 7.33301 -178.334 43.667 -239.001 109s-91 148 -91 248c0 106 33.833 192.167 101.5 258.5s155.5 99.5 263.5 99.5c97.333 0 179 -28.667 245 -86v-77c-56.667 65.333 -135.667 98 -237 98c-89.333 0 -162 -27.167 -218 -81.5s-84 -124.833 -84 -211.5
s28 -157.167 84 -211.5s128.667 -81.5 218 -81.5c100.667 0 179.667 33 237 99v-77c-63.333 -56 -141.666 -85 -234.999 -87l-5 -46c22.667 -3.33301 41.167 -11.5 55.5 -24.5s21.5 -28.167 21.5 -45.5c0 -20 -8.83301 -36.5 -26.5 -49.5s-40.5 -19.5 -68.5 -19.5
c-34 0 -61.667 9 -83 27v39c20.667 -16.667 45 -25 73 -25c16.667 0 30.167 3 40.5 9s15.5 13.667 15.5 23c0 11.333 -6.83301 21 -20.5 29s-32.167 13.333 -55.5 16z" />
    <glyph glyph-name="Egrave" unicode="&#xc8;" horiz-adv-x="667" 
d="M99 0v700h516v-62h-446v-254h371v-61h-371v-261h451v-62h-521zM431 769l-191 80v66l191 -99v-47z" />
    <glyph glyph-name="Eacute" unicode="&#xc9;" horiz-adv-x="667" 
d="M99 0v700h516v-62h-446v-254h371v-61h-371v-261h451v-62h-521zM483 850l-194 -81v47l194 99v-65z" />
    <glyph glyph-name="Ecircumflex" unicode="&#xca;" horiz-adv-x="667" 
d="M99 0v700h516v-62h-446v-254h371v-61h-371v-261h451v-62h-521zM360 834l-147 -60v45l147 78l147 -78v-45z" />
    <glyph glyph-name="Edieresis" unicode="&#xcb;" horiz-adv-x="667" 
d="M99 0v700h516v-62h-446v-254h371v-61h-371v-261h451v-62h-521zM467 801c-12.667 0 -22.667 3.83301 -30 11.5s-11 17.5 -11 29.5c0 12.667 3.66699 22.667 11 30s17.333 11 30 11c12 0 21.833 -3.66699 29.5 -11s11.5 -17.333 11.5 -30
c0 -12 -3.83301 -21.833 -11.5 -29.5s-17.5 -11.5 -29.5 -11.5zM253 801c-12 0 -21.833 3.83301 -29.5 11.5s-11.5 17.5 -11.5 29.5c0 12.667 3.83301 22.667 11.5 30s17.5 11 29.5 11c12.667 0 22.667 -3.66699 30 -11s11 -17.333 11 -30c0 -12 -3.66699 -21.833 -11 -29.5
s-17.333 -11.5 -30 -11.5z" />
    <glyph glyph-name="Igrave" unicode="&#xcc;" horiz-adv-x="268" 
d="M99 700h70v-700h-70v700zM205 769l-191 80v66l191 -99v-47z" />
    <glyph glyph-name="Iacute" unicode="&#xcd;" horiz-adv-x="268" 
d="M99 700h70v-700h-70v700zM63 769v47l195 99v-65z" />
    <glyph glyph-name="Icircumflex" unicode="&#xce;" horiz-adv-x="268" 
d="M99 700h70v-700h-70v700zM-13 819l147 78l148 -78v-45l-148 60l-147 -60v45z" />
    <glyph glyph-name="Idieresis" unicode="&#xcf;" horiz-adv-x="268" 
d="M169 0h-70v700h70v-700zM228 801c-12.667 0 -22.834 3.83301 -30.501 11.5s-11.5 17.5 -11.5 29.5c0 12.667 3.83301 22.667 11.5 30s17.834 11 30.501 11c12 0 21.667 -3.66699 29 -11s11 -17.333 11 -30c0 -12 -3.66699 -21.833 -11 -29.5s-17 -11.5 -29 -11.5zM0 842
c0 12.667 3.83301 22.667 11.5 30s17.5 11 29.5 11s21.833 -3.66699 29.5 -11s11.5 -17.333 11.5 -30c0 -12 -3.83301 -21.833 -11.5 -29.5s-17.5 -11.5 -29.5 -11.5s-21.833 3.83301 -29.5 11.5s-11.5 17.5 -11.5 29.5z" />
    <glyph glyph-name="Eth" unicode="&#xd0;" horiz-adv-x="806" 
d="M5 375h94v325h285c105.333 0 191 -32.5 257 -97.5s99 -149.167 99 -252.5s-33 -187.5 -99 -252.5s-151.667 -97.5 -257 -97.5h-285v330h-94v45zM169 375l201 -0.00195312v-45h-201v-268h215c84 0 152.5 26.833 205.5 80.5s79.5 122.834 79.5 207.501
s-26.5 153.834 -79.5 207.501s-121.5 80.5 -205.5 80.5h-215v-263z" />
    <glyph glyph-name="Ntilde" unicode="&#xd1;" horiz-adv-x="870" 
d="M99 697h39l561 -572v575h68v-700h-39l-561 573v-573h-68v697zM277 788c0 30 8.66699 54.5 26 73.5s39.666 28.5 66.999 28.5c22 0 44.5 -9.5 67.5 -28.5s40.833 -28.5 53.5 -28.5c13.333 0 24.333 4.83301 33 14.5s13 22.167 13 37.5h52
c0 -29.333 -8.66699 -53.666 -26 -72.999s-39.333 -29 -66 -29c-21.333 0 -43.666 9.33301 -66.999 28s-41.333 28 -54 28c-13.333 0 -24.5 -4.83301 -33.5 -14.5s-13.5 -21.834 -13.5 -36.501h-52z" />
    <glyph glyph-name="Ograve" unicode="&#xd2;" horiz-adv-x="854" 
d="M66 350c0 106 33.5 192.167 100.5 258.5s153.833 99.5 260.5 99.5s193.5 -33.167 260.5 -99.5s100.5 -152.5 100.5 -258.5s-33.5 -192.167 -100.5 -258.5s-153.833 -99.5 -260.5 -99.5s-193.5 33.167 -260.5 99.5s-100.5 152.5 -100.5 258.5zM427 57
c85.333 0 155 27.167 209 81.5s81 124.833 81 211.5s-27 157.167 -81 211.5s-123.667 81.5 -209 81.5s-155 -27.167 -209 -81.5s-81 -124.833 -81 -211.5s27 -157.167 81 -211.5s123.667 -81.5 209 -81.5zM307 849v66l191 -99v-47z" />
    <glyph glyph-name="Oacute" unicode="&#xd3;" horiz-adv-x="854" 
d="M66 350c0 106 33.5 192.167 100.5 258.5s153.833 99.5 260.5 99.5s193.5 -33.167 260.5 -99.5s100.5 -152.5 100.5 -258.5s-33.5 -192.167 -100.5 -258.5s-153.833 -99.5 -260.5 -99.5s-193.5 33.167 -260.5 99.5s-100.5 152.5 -100.5 258.5zM427 57
c85.333 0 155 27.167 209 81.5s81 124.833 81 211.5s-27 157.167 -81 211.5s-123.667 81.5 -209 81.5s-155 -27.167 -209 -81.5s-81 -124.833 -81 -211.5s27 -157.167 81 -211.5s123.667 -81.5 209 -81.5zM356 816l194 99v-65l-194 -81v47z" />
    <glyph glyph-name="Ocircumflex" unicode="&#xd4;" horiz-adv-x="854" 
d="M427 708c106.667 0 193.5 -33.167 260.5 -99.5s100.5 -152.5 100.5 -258.5s-33.5 -192.167 -100.5 -258.5s-153.833 -99.5 -260.5 -99.5s-193.5 33.167 -260.5 99.5s-100.5 152.5 -100.5 258.5s33.5 192.167 100.5 258.5s153.833 99.5 260.5 99.5zM427 57
c85.333 0 155 27.167 209 81.5s81 124.833 81 211.5s-27 157.167 -81 211.5s-123.667 81.5 -209 81.5s-155 -27.167 -209 -81.5s-81 -124.833 -81 -211.5s27 -157.167 81 -211.5s123.667 -81.5 209 -81.5zM427 834l-147 -60v45l147 78l147 -78v-45z" />
    <glyph glyph-name="Otilde" unicode="&#xd5;" horiz-adv-x="854" 
d="M427 708c106.667 0 193.5 -33.167 260.5 -99.5s100.5 -152.5 100.5 -258.5s-33.5 -192.167 -100.5 -258.5s-153.833 -99.5 -260.5 -99.5s-193.5 33.167 -260.5 99.5s-100.5 152.5 -100.5 258.5s33.5 192.167 100.5 258.5s153.833 99.5 260.5 99.5zM137 350
c0 -86.667 27 -157.167 81 -211.5s123.667 -81.5 209 -81.5s155 27.167 209 81.5s81 124.833 81 211.5s-27 157.167 -81 211.5s-123.667 81.5 -209 81.5s-155 -27.167 -209 -81.5s-81 -124.833 -81 -211.5zM323 788h-51.999c0 30 8.5 54.5 25.5 73.5s39.167 28.5 66.5 28.5
c22 0 44.667 -9.5 68 -28.5s41.333 -28.5 54 -28.5c13.333 0 24.333 4.83301 33 14.5s13 22.167 13 37.5h52c0 -29.333 -8.83301 -53.666 -26.5 -72.999s-39.834 -29 -66.501 -29c-21.333 0 -43.5 9.33301 -66.5 28s-41.167 28 -54.5 28s-24.333 -4.83301 -33 -14.5
s-13 -21.834 -13 -36.501z" />
    <glyph glyph-name="Odieresis" unicode="&#xd6;" horiz-adv-x="854" 
d="M427 708c106.667 0 193.5 -33.167 260.5 -99.5s100.5 -152.5 100.5 -258.5s-33.5 -192.167 -100.5 -258.5s-153.833 -99.5 -260.5 -99.5s-193.5 33.167 -260.5 99.5s-100.5 152.5 -100.5 258.5s33.5 192.167 100.5 258.5s153.833 99.5 260.5 99.5zM137 350
c0 -86.667 27 -157.167 81 -211.5s123.667 -81.5 209 -81.5s155 27.167 209 81.5s81 124.833 81 211.5s-27 157.167 -81 211.5s-123.667 81.5 -209 81.5s-155 -27.167 -209 -81.5s-81 -124.833 -81 -211.5zM534 883c12 0 21.833 -3.66699 29.5 -11s11.5 -17.333 11.5 -30
c0 -12 -3.83301 -21.833 -11.5 -29.5s-17.5 -11.5 -29.5 -11.5c-12.667 0 -22.667 3.83301 -30 11.5s-11 17.5 -11 29.5c0 12.667 3.66699 22.667 11 30s17.333 11 30 11zM320 883c12.667 0 22.667 -3.66699 30 -11s11 -17.333 11 -30c0 -12 -3.66699 -21.833 -11 -29.5
s-17.333 -11.5 -30 -11.5c-12 0 -21.833 3.83301 -29.5 11.5s-11.5 17.5 -11.5 29.5c0 12.667 3.83301 22.667 11.5 30s17.5 11 29.5 11z" />
    <glyph glyph-name="multiply" unicode="&#xd7;" horiz-adv-x="620" 
d="M117 510l33 33l160 -161l160 161l33 -33l-161 -160l161 -160l-33 -33l-160 161l-160 -161l-33 33l161 160z" />
    <glyph glyph-name="Oslash" unicode="&#xd8;" horiz-adv-x="854" 
d="M427 708c59.333 0 113.333 -10.667 162 -32l27 47l39 -23l-26 -45c50 -30.667 89 -72.5 117 -125.5s42 -112.833 42 -179.5c0 -106 -33.5 -192.167 -100.5 -258.5s-153.833 -99.5 -260.5 -99.5c-59.333 0 -113.333 10.667 -162 32l-27 -47l-39 23l26 46
c-50 30 -89 71.5 -117 124.5s-42 112.833 -42 179.5c0 106 33.5 192.167 100.5 258.5s153.833 99.5 260.5 99.5zM427 57c85.333 0 154.999 27.1689 208.999 81.502s81 124.833 81 211.5c0 53.333 -10.667 101.166 -32 143.499s-51.333 76.166 -90 101.499l-296 -512
c38.667 -17.333 81.334 -26 128.001 -26zM136.999 350.002c0 -53.333 10.668 -101.168 32.001 -143.501s51.333 -76.166 90 -101.499l296 512c-38.667 17.333 -81.334 26 -128.001 26c-85.333 0 -155 -27.167 -209 -81.5s-81 -124.833 -81 -211.5z" />
    <glyph glyph-name="Ugrave" unicode="&#xd9;" horiz-adv-x="828" 
d="M91 303l-0.000976562 397h69v-394c0 -73.333 23.667 -133.166 71 -179.499s108.666 -69.5 183.999 -69.5c74.667 0 135.334 23.167 182.001 69.5s70 106.166 70 179.499v394h70v-397c0 -92 -29.833 -166.833 -89.5 -224.5s-137.167 -86.5 -232.5 -86.5
s-173.166 29 -233.499 87s-90.5 132.667 -90.5 224zM293.999 915l191 -99v-47l-191 80v66z" />
    <glyph glyph-name="Uacute" unicode="&#xda;" horiz-adv-x="828" 
d="M91 303l-0.000976562 397h69v-394c0 -73.333 23.667 -133.166 71 -179.499s108.666 -69.5 183.999 -69.5c74.667 0 135.334 23.167 182.001 69.5s70 106.166 70 179.499v394h70v-397c0 -92 -29.833 -166.833 -89.5 -224.5s-137.167 -86.5 -232.5 -86.5
s-173.166 29 -233.499 87s-90.5 132.667 -90.5 224zM536.999 850l-194 -81v47l194 99v-65z" />
    <glyph glyph-name="Ucircumflex" unicode="&#xdb;" horiz-adv-x="828" 
d="M91 303l-0.000976562 397h69v-394c0 -73.333 23.667 -133.166 71 -179.499s108.666 -69.5 183.999 -69.5c74.667 0 135.334 23.167 182.001 69.5s70 106.166 70 179.499v394h70v-397c0 -92 -29.833 -166.833 -89.5 -224.5s-137.167 -86.5 -232.5 -86.5
s-173.166 29 -233.499 87s-90.5 132.667 -90.5 224zM265.999 774v45l148 78l147 -78v-45l-147 60z" />
    <glyph glyph-name="Udieresis" unicode="&#xdc;" horiz-adv-x="828" 
d="M91 303l-0.000976562 397h69v-394c0 -73.333 23.667 -133.166 71 -179.499s108.666 -69.5 183.999 -69.5c74.667 0 135.334 23.167 182.001 69.5s70 106.166 70 179.499v394h70v-397c0 -92 -29.833 -166.833 -89.5 -224.5s-137.167 -86.5 -232.5 -86.5
s-173.166 29 -233.499 87s-90.5 132.667 -90.5 224zM520.999 883c12 0 21.833 -3.66699 29.5 -11s11.5 -17.333 11.5 -30c0 -12 -3.83301 -21.833 -11.5 -29.5s-17.5 -11.5 -29.5 -11.5c-12.667 0 -22.667 3.83301 -30 11.5s-11 17.5 -11 29.5
c0 12.667 3.66699 22.667 11 30s17.333 11 30 11zM306.999 883c12 0 21.833 -3.66699 29.5 -11s11.5 -17.333 11.5 -30c0 -12 -3.83301 -21.833 -11.5 -29.5s-17.5 -11.5 -29.5 -11.5s-21.833 3.83301 -29.5 11.5s-11.5 17.5 -11.5 29.5c0 12.667 3.83301 22.667 11.5 30
s17.5 11 29.5 11z" />
    <glyph glyph-name="Yacute" unicode="&#xdd;" horiz-adv-x="709" 
d="M320 302l-293 398h85l243 -334l242 334h85l-293 -399v-301h-69v302zM283 816l195 99v-65l-195 -81v47z" />
    <glyph glyph-name="Thorn" unicode="&#xde;" horiz-adv-x="675" 
d="M169 0l-70 -0.00195312v700h70v-144h226c66 0 119.667 -18.667 161 -56s62 -85.666 62 -144.999s-20.667 -107.666 -62 -144.999s-95 -56 -161 -56h-226v-154zM390 494.998h-221v-280h221c46 0 83.667 13 113 39s44 59.667 44 101s-14.667 75 -44 101s-67 39 -113 39z
" />
    <glyph glyph-name="germandbls" unicode="&#xdf;" horiz-adv-x="594" 
d="M89 0l0.00292969 548.999c0 52.667 18.667 95.667 56 129s85.666 50 144.999 50s107.666 -16.833 144.999 -50.5s56 -77.5 56 -131.5c0 -35.333 -8.16699 -66.833 -24.5 -94.5s-38.833 -49.167 -67.5 -64.5c43.333 -15.333 77.666 -39.666 102.999 -72.999
s38 -72 38 -116c0 -60.667 -22.5 -110.167 -67.5 -148.5s-102.833 -57.5 -173.5 -57.5v61c51.333 0 93.166 14 125.499 42s48.5 64.333 48.5 109c0 44 -16.167 80 -48.5 108s-74.166 42 -125.499 42v59c37.333 0 67.666 11.833 90.999 35.5s35 54.167 35 91.5
s-12.667 67.833 -38 91.5s-57.666 35.5 -96.999 35.5s-71.5 -11.5 -96.5 -34.5s-37.5 -52.833 -37.5 -89.5v-543h-67z" />
    <glyph glyph-name="agrave" unicode="&#xe0;" horiz-adv-x="563" 
d="M58 132c0 46.667 19.334 82.834 58.001 108.501s92 38.5 160 38.5c32.667 0 73.667 -3.66699 123 -11v35c0 81.333 -51.333 122 -154 122c-63.333 0 -114 -15.333 -152 -46v62c42.667 29.333 97.334 44 164.001 44c68 0 119.833 -15 155.5 -45s53.5 -73.667 53.5 -131
v-218c0 -29.333 21.333 -44 64 -44v-45c-10.667 -4 -24 -6 -40 -6c-40.667 0 -68.334 15 -83.001 45c-42 -31.333 -95.333 -47 -160 -47c-58.667 0 -104.834 12.167 -138.501 36.5s-50.5 58.166 -50.5 101.499zM125.001 133c0 -25.333 11.666 -45.332 34.999 -59.999
s55.333 -22 96 -22c60.667 0 108.334 16.667 143.001 50v113c-52.667 6 -89.667 9 -111 9c-51.333 0 -91.333 -7.83301 -120 -23.5s-43 -37.834 -43 -66.501zM148 649.001v65l191 -98v-47z" />
    <glyph glyph-name="aacute" unicode="&#xe1;" horiz-adv-x="563" 
d="M58 132c0 46.667 19.334 82.834 58.001 108.501s92 38.5 160 38.5c32.667 0 73.667 -3.66699 123 -11v35c0 81.333 -51.333 122 -154 122c-63.333 0 -114 -15.333 -152 -46v62c42.667 29.333 97.334 44 164.001 44c68 0 119.833 -15 155.5 -45s53.5 -73.667 53.5 -131
v-218c0 -29.333 21.333 -44 64 -44v-45c-10.667 -4 -24 -6 -40 -6c-40.667 0 -68.334 15 -83.001 45c-42 -31.333 -95.333 -47 -160 -47c-58.667 0 -104.834 12.167 -138.501 36.5s-50.5 58.166 -50.5 101.499zM125.001 133c0 -25.333 11.666 -45.332 34.999 -59.999
s55.333 -22 96 -22c60.667 0 108.334 16.667 143.001 50v113c-52.667 6 -89.667 9 -111 9c-51.333 0 -91.333 -7.83301 -120 -23.5s-43 -37.834 -43 -66.501zM197 616.001l194 99v-65l-194 -81v47z" />
    <glyph glyph-name="acircumflex" unicode="&#xe2;" horiz-adv-x="563" 
d="M247 -6c-58.667 0 -104.833 12.167 -138.5 36.5s-50.5 58.166 -50.5 101.499c0 46.667 19.333 82.834 58 108.501s92 38.5 160 38.5c32.667 0 73.667 -3.66699 123 -11v35c0 81.333 -51.333 122 -154 122c-63.333 0 -114 -15.333 -152 -46v62
c42.667 29.333 97.334 44 164.001 44c68 0 119.833 -15 155.5 -45s53.5 -73.667 53.5 -131v-218c0 -29.333 21.333 -44 64 -44v-45c-10.667 -4 -24 -6 -40 -6c-40.667 0 -68.334 15 -83.001 45c-42 -31.333 -95.333 -47 -160 -47zM125.001 133
c0 -25.333 11.666 -45.332 34.999 -59.999s55.333 -22 96 -22c60.667 0 108.334 16.667 143.001 50v113c-52.667 6 -89.667 9 -111 9c-51.333 0 -91.333 -7.83301 -120 -23.5s-43 -37.834 -43 -66.501zM268 634.001l-148 -60v45l148 78l147 -78v-45z" />
    <glyph glyph-name="atilde" unicode="&#xe3;" horiz-adv-x="563" 
d="M247 -6c-58.667 0 -104.833 12.167 -138.5 36.5s-50.5 58.166 -50.5 101.499c0 46.667 19.333 82.834 58 108.501s92 38.5 160 38.5c32.667 0 73.667 -3.66699 123 -11v35c0 81.333 -51.333 122 -154 122c-63.333 0 -114 -15.333 -152 -46v62
c42.667 29.333 97.334 44 164.001 44c68 0 119.833 -15 155.5 -45s53.5 -73.667 53.5 -131v-218c0 -29.333 21.333 -44 64 -44v-45c-10.667 -4 -24 -6 -40 -6c-40.667 0 -68.334 15 -83.001 45c-42 -31.333 -95.333 -47 -160 -47zM125.001 133
c0 -25.333 11.666 -45.332 34.999 -59.999s55.333 -22 96 -22c60.667 0 108.334 16.667 143.001 50v113c-52.667 6 -89.667 9 -111 9c-51.333 0 -91.333 -7.83301 -120 -23.5s-43 -37.834 -43 -66.501zM164 587.001h-51.999c0 30.667 8.5 55.5 25.5 74.5
s39.167 28.5 66.5 28.5c22 0 44.5 -9.5 67.5 -28.5s40.833 -28.5 53.5 -28.5c14 0 25.333 4.83301 34 14.5s13 22.167 13 37.5h52c0 -29.333 -8.83301 -53.833 -26.5 -73.5s-39.834 -29.5 -66.501 -29.5c-21.333 0 -43.5 9.5 -66.5 28.5s-41.167 28.5 -54.5 28.5
s-24.333 -4.83301 -33 -14.5s-13 -22.167 -13 -37.5z" />
    <glyph glyph-name="adieresis" unicode="&#xe4;" horiz-adv-x="563" 
d="M247 -6c-58.667 0 -104.833 12.167 -138.5 36.5s-50.5 58.166 -50.5 101.499c0 46.667 19.333 82.834 58 108.501s92 38.5 160 38.5c32.667 0 73.667 -3.66699 123 -11v35c0 81.333 -51.333 122 -154 122c-63.333 0 -114 -15.333 -152 -46v62
c42.667 29.333 97.334 44 164.001 44c68 0 119.833 -15 155.5 -45s53.5 -73.667 53.5 -131v-218c0 -29.333 21.333 -44 64 -44v-45c-10.667 -4 -24 -6 -40 -6c-40.667 0 -68.334 15 -83.001 45c-42 -31.333 -95.333 -47 -160 -47zM125.001 133
c0 -25.333 11.666 -45.332 34.999 -59.999s55.333 -22 96 -22c60.667 0 108.334 16.667 143.001 50v113c-52.667 6 -89.667 9 -111 9c-51.333 0 -91.333 -7.83301 -120 -23.5s-43 -37.834 -43 -66.501zM334 642.001c0 12 3.66699 21.833 11 29.5s17.333 11.5 30 11.5
c12 0 21.833 -3.83301 29.5 -11.5s11.5 -17.5 11.5 -29.5s-3.83301 -21.833 -11.5 -29.5s-17.5 -11.5 -29.5 -11.5c-12.667 0 -22.667 3.83301 -30 11.5s-11 17.5 -11 29.5zM120 642.001c0 12 3.83301 21.833 11.5 29.5s17.5 11.5 29.5 11.5
c12.667 0 22.667 -3.83301 30 -11.5s11 -17.5 11 -29.5s-3.66699 -21.833 -11 -29.5s-17.333 -11.5 -30 -11.5c-12 0 -21.833 3.83301 -29.5 11.5s-11.5 17.5 -11.5 29.5z" />
    <glyph glyph-name="aring" unicode="&#xe5;" horiz-adv-x="563" 
d="M247 -6c-58.667 0 -104.833 12.167 -138.5 36.5s-50.5 58.166 -50.5 101.499c0 46.667 19.333 82.834 58 108.501s92 38.5 160 38.5c32.667 0 73.667 -3.66699 123 -11v35c0 81.333 -51.333 122 -154 122c-63.333 0 -114 -15.333 -152 -46v62
c42.667 29.333 97.334 44 164.001 44c68 0 119.833 -15 155.5 -45s53.5 -73.667 53.5 -131v-218c0 -29.333 21.333 -44 64 -44v-45c-10.667 -4 -24 -6 -40 -6c-40.667 0 -68.334 15 -83.001 45c-42 -31.333 -95.333 -47 -160 -47zM288.001 223
c-51.333 0 -91.334 -7.83203 -120.001 -23.499s-43 -37.834 -43 -66.501c0 -25.333 11.667 -45.333 35 -60s55.333 -22 96 -22c60.667 0 108.334 16.667 143.001 50v113c-52.667 6 -89.667 9 -111 9zM268 582.001c-24 0 -44.5 8.66699 -61.5 26s-25.5 37.666 -25.5 60.999
s8.5 43.5 25.5 60.5s37.5 25.5 61.5 25.5c23.333 0 43.5 -8.5 60.5 -25.5s25.5 -37.167 25.5 -60.5s-8.5 -43.666 -25.5 -60.999s-37.167 -26 -60.5 -26zM268 716.001c-12.667 0 -23.667 -4.66699 -33 -14s-14 -20.333 -14 -33s4.5 -23.667 13.5 -33s20.167 -14 33.5 -14
c12.667 0 23.667 4.66699 33 14s14 20.333 14 33s-4.66699 23.667 -14 33s-20.333 14 -33 14z" />
    <glyph glyph-name="ae" unicode="&#xe6;" horiz-adv-x="935" 
d="M401 213c-42 6.66699 -80.0029 10 -114.003 10c-51.333 0 -91.166 -7.83301 -119.499 -23.5s-42.5 -37.834 -42.5 -66.501c0 -25.333 11.5 -45.333 34.5 -60s53.167 -22 90.5 -22c76.667 0 133.334 29.333 170.001 88c-9.33301 20.667 -15.666 45.334 -18.999 74.001z
M465.997 276h342c-3.33301 46 -20.333 83.167 -51 111.5s-69.667 42.5 -117 42.5s-86.833 -14.167 -118.5 -42.5s-50.167 -65.5 -55.5 -111.5zM444.997 94c-42.667 -66.667 -110.336 -100.001 -203.003 -100.001c-55.333 0 -99.833 12.333 -133.5 37s-50.5 58.667 -50.5 102
c0 46 19.167 81.833 57.5 107.5s91.5 38.5 159.5 38.5c34.667 0 76 -3.66699 124 -11v35c0 81.333 -51.333 122 -154 122c-63.333 0 -114 -15.333 -152 -46v62c42.667 29.333 97.334 44 164.001 44c95.333 0 158.333 -29.667 189 -89c44.667 61.333 109 92 193 92
c73.333 0 131.833 -24.667 175.5 -74s63.5 -113.666 59.5 -192.999h-409c6.66699 -51.333 29.834 -92.333 69.501 -123s90.167 -46 151.5 -46c66.667 0 121.334 18.667 164.001 56v-65c-48 -34 -106.333 -51 -175 -51c-102 0 -178.667 34 -230 102z" />
    <glyph glyph-name="ccedilla" unicode="&#xe7;" horiz-adv-x="530" 
d="M281 -7c-68 6.66699 -122.501 32.5 -163.501 77.5s-61.5 101.5 -61.5 169.5c0 73.333 23.667 133 71 179s109 69 185 69c60.667 0 112.334 -15.667 155.001 -47v-67c-37.333 36 -85.333 54 -144 54s-106.5 -17.5 -143.5 -52.5s-55.5 -80.167 -55.5 -135.5
s18.5 -100.5 55.5 -135.5s84.833 -52.5 143.5 -52.5s106.667 18 144 54v-67c-38.667 -28 -85.667 -43.667 -141 -47l-5 -46c22.667 -3.33301 41 -11.333 55 -24s21 -28 21 -46c0 -20 -8.66699 -36.5 -26 -49.5s-40 -19.5 -68 -19.5c-34 0 -62 9 -84 27v39
c21.333 -16.667 46 -25 74 -25c16.667 0 30.167 3 40.5 9s15.5 13.667 15.5 23c0 11.333 -6.83301 21 -20.5 29s-32.167 13.333 -55.5 16z" />
    <glyph glyph-name="egrave" unicode="&#xe8;" horiz-adv-x="591" 
d="M55 244c0 71.333 22.3311 129.832 66.998 175.499s102.334 68.5 173.001 68.5c73.333 0 131.833 -24.667 175.5 -74s63.5 -113.666 59.5 -192.999h-408c6 -51.333 28.833 -92.333 68.5 -123s90.167 -46 151.5 -46c66.667 0 121.334 18.667 164.001 56v-65
c-48 -34 -105.667 -51 -173 -51c-83.333 0 -150.5 23 -201.5 69s-76.5 107 -76.5 183zM121.998 275.999h341.999c-3.33301 46 -20.333 83.167 -51 111.5s-69.667 42.5 -117 42.5s-86.666 -14.167 -117.999 -42.5s-50 -65.5 -56 -111.5zM175.997 713.999l191 -98v-47l-191 80
v65z" />
    <glyph glyph-name="eacute" unicode="&#xe9;" horiz-adv-x="591" 
d="M55 244c0 71.333 22.3311 129.832 66.998 175.499s102.334 68.5 173.001 68.5c73.333 0 131.833 -24.667 175.5 -74s63.5 -113.666 59.5 -192.999h-408c6 -51.333 28.833 -92.333 68.5 -123s90.167 -46 151.5 -46c66.667 0 121.334 18.667 164.001 56v-65
c-48 -34 -105.667 -51 -173 -51c-83.333 0 -150.5 23 -201.5 69s-76.5 107 -76.5 183zM121.998 275.999h341.999c-3.33301 46 -20.333 83.167 -51 111.5s-69.667 42.5 -117 42.5s-86.666 -14.167 -117.999 -42.5s-50 -65.5 -56 -111.5zM418.997 649.999l-194 -81v47l194 99
v-65z" />
    <glyph glyph-name="ecircumflex" unicode="&#xea;" horiz-adv-x="591" 
d="M55 244c0 71.333 22.3311 129.832 66.998 175.499s102.334 68.5 173.001 68.5c73.333 0 131.833 -24.667 175.5 -74s63.5 -113.666 59.5 -192.999h-408c6 -51.333 28.833 -92.333 68.5 -123s90.167 -46 151.5 -46c66.667 0 121.334 18.667 164.001 56v-65
c-48 -34 -105.667 -51 -173 -51c-83.333 0 -150.5 23 -201.5 69s-76.5 107 -76.5 183zM121.998 275.999h341.999c-3.33301 46 -20.333 83.167 -51 111.5s-69.667 42.5 -117 42.5s-86.666 -14.167 -117.999 -42.5s-50 -65.5 -56 -111.5zM295.997 633.999l-148 -60v45l148 78
l147 -78v-45z" />
    <glyph glyph-name="edieresis" unicode="&#xeb;" horiz-adv-x="591" 
d="M55 244c0 71.333 22.3311 129.832 66.998 175.499s102.334 68.5 173.001 68.5c73.333 0 131.833 -24.667 175.5 -74s63.5 -113.666 59.5 -192.999h-408c6 -51.333 28.833 -92.333 68.5 -123s90.167 -46 151.5 -46c66.667 0 121.334 18.667 164.001 56v-65
c-48 -34 -105.667 -51 -173 -51c-83.333 0 -150.5 23 -201.5 69s-76.5 107 -76.5 183zM121.998 275.999h341.999c-3.33301 46 -20.333 83.167 -51 111.5s-69.667 42.5 -117 42.5s-86.666 -14.167 -117.999 -42.5s-50 -65.5 -56 -111.5zM188.997 682.999
c12.667 0 22.667 -3.83301 30 -11.5s11 -17.5 11 -29.5s-3.66699 -21.833 -11 -29.5s-17.333 -11.5 -30 -11.5c-12 0 -21.833 3.83301 -29.5 11.5s-11.5 17.5 -11.5 29.5s3.83301 21.833 11.5 29.5s17.5 11.5 29.5 11.5zM402.997 682.999c12 0 21.833 -3.83301 29.5 -11.5
s11.5 -17.5 11.5 -29.5s-3.83301 -21.833 -11.5 -29.5s-17.5 -11.5 -29.5 -11.5s-21.833 3.83301 -29.5 11.5s-11.5 17.5 -11.5 29.5s3.83301 21.833 11.5 29.5s17.5 11.5 29.5 11.5z" />
    <glyph glyph-name="igrave" unicode="&#xec;" horiz-adv-x="245" 
d="M89 0v480h67v-480h-67zM194 574l-192 80v66l192 -99v-47z" />
    <glyph glyph-name="iacute" unicode="&#xed;" horiz-adv-x="245" 
d="M89 0v480h67v-480h-67zM51 574v47l195 99v-65z" />
    <glyph glyph-name="icircumflex" unicode="&#xee;" horiz-adv-x="245" 
d="M89 0v480h67v-480h-67zM-25 624l148 78l147 -78v-45l-147 60l-148 -60v45z" />
    <glyph glyph-name="idieresis" unicode="&#xef;" horiz-adv-x="245" 
d="M89 480h67v-480h-67v480zM213 606c-12.667 0 -22.834 3.83301 -30.501 11.5s-11.5 17.5 -11.5 29.5c0 12.667 3.83301 22.667 11.5 30s17.834 11 30.501 11c12 0 21.667 -3.66699 29 -11s11 -17.333 11 -30c0 -12 -3.66699 -21.833 -11 -29.5s-17 -11.5 -29 -11.5z
M-8 647c0 12.667 3.83301 22.667 11.5 30s17.5 11 29.5 11s21.833 -3.66699 29.5 -11s11.5 -17.333 11.5 -30c0 -12 -3.83301 -21.833 -11.5 -29.5s-17.5 -11.5 -29.5 -11.5s-21.833 3.83301 -29.5 11.5s-11.5 17.5 -11.5 29.5z" />
    <glyph glyph-name="eth" unicode="&#xf0;" horiz-adv-x="629" 
d="M307 487c78.667 0 139.665 -27.667 182.998 -83c-14 89.333 -54 157.333 -120 204l-58 -73l-35 26l56 69c-55.333 28.667 -123.333 43 -204 43v55c94.667 0 175 -17 241 -51l57 71l34 -25l-53 -67c103.333 -69.333 155 -179 155 -329
c0 -100.667 -23.167 -181.667 -69.5 -243s-110.166 -92 -191.499 -92c-71.333 0 -129.333 22.833 -174 68.5s-67 104.834 -67 177.501c0 73.333 22.833 133.166 68.5 179.499s104.834 69.5 177.501 69.5zM301.998 53c59.333 0 106.166 24.668 140.499 74.001
s52.166 114 53.499 194c-37.333 72.667 -96.666 109 -177.999 109c-55.333 0 -100.666 -17.667 -135.999 -53s-53 -81.333 -53 -138c0 -54.667 16.167 -99.334 48.5 -134.001s73.833 -52 124.5 -52z" />
    <glyph glyph-name="ntilde" unicode="&#xf1;" horiz-adv-x="621" 
d="M89 0v480h60l5 -51c41.333 39.333 94.333 59 159 59c69.333 0 124 -19.5 164 -58.5s60 -92.167 60 -159.5v-270h-67v271c0 48.667 -15 87.167 -45 115.5s-70.667 42.5 -122 42.5c-57.333 0 -106.333 -21.667 -147 -65v-364h-67zM151 588c0 30 8.50098 54.5 25.501 73.5
s39.167 28.5 66.5 28.5c22 0 44.667 -9.5 68 -28.5s41.333 -28.5 54 -28.5c13.333 0 24.333 4.83301 33 14.5s13 22.167 13 37.5h52c0 -29.333 -8.83301 -53.666 -26.5 -72.999s-39.834 -29 -66.501 -29c-21.333 0 -43.5 9.33301 -66.5 28s-41.167 28 -54.5 28
s-24.333 -4.83301 -33 -14.5s-13 -21.834 -13 -36.501h-52z" />
    <glyph glyph-name="ograve" unicode="&#xf2;" horiz-adv-x="614" 
d="M56 240c0 73.333 23.333 133 70 179s107 69 181 69c74.667 0 135.167 -23 181.5 -69s69.5 -105.667 69.5 -179s-23.167 -133 -69.5 -179s-106.833 -69 -181.5 -69c-74 0 -134.333 23 -181 69s-70 105.667 -70 179zM307 53c54 0 98 17.333 132 52s51 79.667 51 135
s-17 100.333 -51 135s-78 52 -132 52s-98 -17.333 -132 -52s-51 -79.667 -51 -135s17 -100.333 51 -135s78 -52 132 -52zM187 649v66l191 -99v-47z" />
    <glyph glyph-name="oacute" unicode="&#xf3;" horiz-adv-x="614" 
d="M56 240c0 73.333 23.333 133 70 179s107 69 181 69c74.667 0 135.167 -23 181.5 -69s69.5 -105.667 69.5 -179s-23.167 -133 -69.5 -179s-106.833 -69 -181.5 -69c-74 0 -134.333 23 -181 69s-70 105.667 -70 179zM307 53c54 0 98 17.333 132 52s51 79.667 51 135
s-17 100.333 -51 135s-78 52 -132 52s-98 -17.333 -132 -52s-51 -79.667 -51 -135s17 -100.333 51 -135s78 -52 132 -52zM236 616l194 99v-65l-194 -81v47z" />
    <glyph glyph-name="ocircumflex" unicode="&#xf4;" horiz-adv-x="614" 
d="M307 488c74.667 0 135.167 -23 181.5 -69s69.5 -105.667 69.5 -179s-23.167 -133 -69.5 -179s-106.833 -69 -181.5 -69c-74 0 -134.333 23 -181 69s-70 105.667 -70 179s23.333 133 70 179s107 69 181 69zM307 53c54 0 98 17.333 132 52s51 79.667 51 135
s-17 100.333 -51 135s-78 52 -132 52s-98 -17.333 -132 -52s-51 -79.667 -51 -135s17 -100.333 51 -135s78 -52 132 -52zM307 634l-147 -60v45l147 78l147 -78v-45z" />
    <glyph glyph-name="otilde" unicode="&#xf5;" horiz-adv-x="614" 
d="M307 488c74.667 0 135.167 -23 181.5 -69s69.5 -105.667 69.5 -179s-23.167 -133 -69.5 -179s-106.833 -69 -181.5 -69c-74 0 -134.333 23 -181 69s-70 105.667 -70 179s23.333 133 70 179s107 69 181 69zM124 240c0 -55.333 17 -100.333 51 -135s78 -52 132 -52
s98 17.333 132 52s51 79.667 51 135s-17 100.333 -51 135s-78 52 -132 52s-98 -17.333 -132 -52s-51 -79.667 -51 -135zM203 588h-51.999c0 30 8.5 54.5 25.5 73.5s39.167 28.5 66.5 28.5c22 0 44.667 -9.5 68 -28.5s41.333 -28.5 54 -28.5c13.333 0 24.333 4.83301 33 14.5
s13 22.167 13 37.5h52c0 -29.333 -8.83301 -53.666 -26.5 -72.999s-39.834 -29 -66.501 -29c-21.333 0 -43.5 9.33301 -66.5 28s-41.167 28 -54.5 28s-24.333 -4.83301 -33 -14.5s-13 -21.834 -13 -36.501z" />
    <glyph glyph-name="odieresis" unicode="&#xf6;" horiz-adv-x="614" 
d="M307 488c74.667 0 135.167 -23 181.5 -69s69.5 -105.667 69.5 -179s-23.167 -133 -69.5 -179s-106.833 -69 -181.5 -69c-74 0 -134.333 23 -181 69s-70 105.667 -70 179s23.333 133 70 179s107 69 181 69zM124 240c0 -55.333 17 -100.333 51 -135s78 -52 132 -52
s98 17.333 132 52s51 79.667 51 135s-17 100.333 -51 135s-78 52 -132 52s-98 -17.333 -132 -52s-51 -79.667 -51 -135zM414 683c12 0 21.833 -3.66699 29.5 -11s11.5 -17.333 11.5 -30c0 -12 -3.83301 -21.833 -11.5 -29.5s-17.5 -11.5 -29.5 -11.5
c-12.667 0 -22.667 3.83301 -30 11.5s-11 17.5 -11 29.5c0 12.667 3.66699 22.667 11 30s17.333 11 30 11zM200 683c12.667 0 22.667 -3.66699 30 -11s11 -17.333 11 -30c0 -12 -3.66699 -21.833 -11 -29.5s-17.333 -11.5 -30 -11.5c-12 0 -21.833 3.83301 -29.5 11.5
s-11.5 17.5 -11.5 29.5c0 12.667 3.83301 22.667 11.5 30s17.5 11 29.5 11z" />
    <glyph glyph-name="divide" unicode="&#xf7;" horiz-adv-x="620" 
d="M94 373h432v-46h-432v46zM310 130c-13.333 0 -23.833 4 -31.5 12s-11.5 18.333 -11.5 31s4 23 12 31s18.333 12 31 12s23 -4 31 -12s12 -18.333 12 -31s-4 -23 -12 -31s-18.333 -12 -31 -12zM267 527c0 12.667 3.83301 23 11.5 31s18.167 12 31.5 12
c12.667 0 23 -4 31 -12s12 -18.333 12 -31s-4 -23 -12 -31s-18.333 -12 -31 -12s-23 4 -31 12s-12 18.333 -12 31z" />
    <glyph glyph-name="oslash" unicode="&#xf8;" horiz-adv-x="614" 
d="M307 488c55.333 0 103.667 -13.333 145 -40l43 51l34 -28l-42 -50c47.333 -46 71 -106.333 71 -181c0 -73.333 -23.167 -133 -69.5 -179s-106.833 -69 -181.5 -69c-55.333 0 -104 13.667 -146 41l-43 -52l-34 28l43 51c-47.333 46 -71 106 -71 180
c0 73.333 23.333 133 70 179s107 69 181 69zM446.001 372l-245 -292c30.667 -20 66 -30 106 -30c55.333 0 100.333 17.667 135 53s52 81 52 137c0 52.667 -16 96.667 -48 132zM167.001 108l246 293c-30.667 19.333 -66 29 -106 29c-55.333 0 -100.333 -17.667 -135 -53
s-52 -81 -52 -137c0 -53.333 15.667 -97.333 47 -132z" />
    <glyph glyph-name="ugrave" unicode="&#xf9;" horiz-adv-x="616" 
d="M84 480l67.001 0.00195312v-281c0 -46.667 14 -82.834 42 -108.501s67.333 -38.5 118 -38.5c60 0 109.667 21 149 63v365h67v-480h-60l-5 51c-40.667 -38.667 -94.334 -58 -161.001 -58c-68 0 -121.167 18.167 -159.5 54.5s-57.5 87.166 -57.5 152.499v280z
M185.001 715.002l192 -99v-47l-192 80v66z" />
    <glyph glyph-name="uacute" unicode="&#xfa;" horiz-adv-x="616" 
d="M84 480l67.001 0.00195312v-281c0 -46.667 14 -82.834 42 -108.501s67.333 -38.5 118 -38.5c60 0 109.667 21 149 63v365h67v-480h-60l-5 51c-40.667 -38.667 -94.334 -58 -161.001 -58c-68 0 -121.167 18.167 -159.5 54.5s-57.5 87.166 -57.5 152.499v280z
M429.001 650.002l-195 -81v47l195 99v-65z" />
    <glyph glyph-name="ucircumflex" unicode="&#xfb;" horiz-adv-x="616" 
d="M84 200l0.000976562 280.002h67v-281c0 -46.667 14 -82.834 42 -108.501s67.333 -38.5 118 -38.5c60 0 109.667 21 149 63v365h67v-480h-60l-5 51c-40.667 -38.667 -94.334 -58 -161.001 -58c-68 0 -121.167 18.167 -159.5 54.5s-57.5 87.166 -57.5 152.499z
M158.001 574.002v45l147 78l148 -78v-45l-148 60z" />
    <glyph glyph-name="udieresis" unicode="&#xfc;" horiz-adv-x="616" 
d="M301 -7c-68 0 -121.166 18.1689 -159.499 54.502s-57.5 87.166 -57.5 152.499v280h67v-281c0 -46.667 14 -82.834 42 -108.501s67.333 -38.5 118 -38.5c60 0 109.667 21 149 63v365h67v-480h-60l-5 51c-40.667 -38.667 -94.334 -58 -161.001 -58zM412.001 601.002
c-12 0 -21.833 3.83301 -29.5 11.5s-11.5 17.5 -11.5 29.5c0 12.667 3.83301 22.667 11.5 30s17.5 11 29.5 11c12.667 0 22.667 -3.66699 30 -11s11 -17.333 11 -30c0 -12 -3.66699 -21.833 -11 -29.5s-17.333 -11.5 -30 -11.5zM199.001 601.002
c-12.667 0 -22.667 3.83301 -30 11.5s-11 17.5 -11 29.5c0 12.667 3.66699 22.667 11 30s17.333 11 30 11c12 0 21.833 -3.66699 29.5 -11s11.5 -17.333 11.5 -30c0 -12 -3.83301 -21.833 -11.5 -29.5s-17.5 -11.5 -29.5 -11.5z" />
    <glyph glyph-name="yacute" unicode="&#xfd;" horiz-adv-x="567" 
d="M24 480h70l190 -376l189 376h71l-345 -680h-72l123 234zM408 650l-195 -81v47l195 99v-65z" />
    <glyph glyph-name="thorn" unicode="&#xfe;" horiz-adv-x="597" 
d="M89 720l67 0.000976562v-273c38.667 26.667 85.334 40 140.001 40c72.667 0 131.834 -22.833 177.501 -68.5s68.5 -104.834 68.5 -177.501c0 -73.333 -22.833 -132.833 -68.5 -178.5s-104.834 -68.5 -177.501 -68.5c-52.667 0 -99.334 13.333 -140.001 40v-234h-67v920z
M286 429.001c-52.667 0 -95.999 -16 -129.999 -48v-281c33.333 -31.333 76.666 -47 129.999 -47c55.333 0 100.5 17.5 135.5 52.5s52.5 80.167 52.5 135.5s-17.5 100.5 -52.5 135.5s-80.167 52.5 -135.5 52.5z" />
    <glyph glyph-name="ydieresis" unicode="&#xff;" horiz-adv-x="567" 
d="M24 480h70l190 -376l189 376h71l-345 -680h-72l123 234zM177 683c12.667 0 22.667 -3.66699 30 -11s11 -17.333 11 -30c0 -12 -3.66699 -21.833 -11 -29.5s-17.333 -11.5 -30 -11.5c-12 0 -21.833 3.83301 -29.5 11.5s-11.5 17.5 -11.5 29.5
c0 12.667 3.83301 22.667 11.5 30s17.5 11 29.5 11zM391 683c12 0 21.833 -3.66699 29.5 -11s11.5 -17.333 11.5 -30c0 -12 -3.83301 -21.833 -11.5 -29.5s-17.5 -11.5 -29.5 -11.5s-21.833 3.83301 -29.5 11.5s-11.5 17.5 -11.5 29.5c0 12.667 3.83301 22.667 11.5 30
s17.5 11 29.5 11z" />
    <glyph glyph-name="Amacron" unicode="&#x100;" 
d="M29 0l355 700h33l354 -700h-77l-86 173h-416l-86 -173h-77zM400 592l-177 -357h354zM271 801v45h259v-45h-259z" />
    <glyph glyph-name="amacron" unicode="&#x101;" horiz-adv-x="563" 
d="M58 132c0 46.667 19.334 82.834 58.001 108.501s92 38.5 160 38.5c32.667 0 73.667 -3.66699 123 -11v35c0 81.333 -51.333 122 -154 122c-63.333 0 -114 -15.333 -152 -46v62c42.667 29.333 97.334 44 164.001 44c68 0 119.833 -15 155.5 -45s53.5 -73.667 53.5 -131
v-218c0 -29.333 21.333 -44 64 -44v-45c-10.667 -4 -24 -6 -40 -6c-40.667 0 -68.334 15 -83.001 45c-42 -31.333 -95.333 -47 -160 -47c-58.667 0 -104.834 12.167 -138.501 36.5s-50.5 58.166 -50.5 101.499zM125.001 133c0 -25.333 11.666 -45.332 34.999 -59.999
s55.333 -22 96 -22c60.667 0 108.334 16.667 143.001 50v113c-52.667 6 -89.667 9 -111 9c-51.333 0 -91.333 -7.83301 -120 -23.5s-43 -37.834 -43 -66.501zM138 646.001h259v-45h-259v45z" />
    <glyph glyph-name="Abreve" unicode="&#x102;" 
d="M29 0l355 700h33l354 -700h-77l-86 173h-416l-86 -173h-77zM400 592l-177 -357h354zM267 842l0.000976562 47c39.333 -36 84 -54 134 -54c49.333 0 93.666 18 132.999 54v-47c-32 -39.333 -76.333 -59 -133 -59c-57.333 0 -102 19.667 -134 59z" />
    <glyph glyph-name="abreve" unicode="&#x103;" horiz-adv-x="563" 
d="M58 132c0 46.667 19.334 82.834 58.001 108.501s92 38.5 160 38.5c32.667 0 73.667 -3.66699 123 -11v35c0 81.333 -51.333 122 -154 122c-63.333 0 -114 -15.333 -152 -46v62c42.667 29.333 97.334 44 164.001 44c68 0 119.833 -15 155.5 -45s53.5 -73.667 53.5 -131
v-218c0 -29.333 21.333 -44 64 -44v-45c-10.667 -4 -24 -6 -40 -6c-40.667 0 -68.334 15 -83.001 45c-42 -31.333 -95.333 -47 -160 -47c-58.667 0 -104.834 12.167 -138.501 36.5s-50.5 58.166 -50.5 101.499zM288.001 223c-51.333 0 -91.334 -7.83203 -120.001 -23.499
s-43 -37.834 -43 -66.501c0 -25.333 11.667 -45.333 35 -60s55.333 -22 96 -22c60.667 0 108.334 16.667 143.001 50v113c-52.667 6 -89.667 9 -111 9zM134 689.001c39.333 -36 84.333 -54 135 -54c48.667 0 93 18 133 54v-47c-32.667 -40 -77 -60 -133 -60
c-57.333 0 -102.333 20 -135 60v47z" />
    <glyph glyph-name="Aogonek" unicode="&#x104;" 
d="M29 0l355.001 700h33l354 -700h-26c-22.667 -10 -40 -23.333 -52 -40s-18 -34.667 -18 -54c0 -20 6.66699 -36.333 20 -49s30.333 -19 51 -19c36.667 0 66.667 15.667 90 47v-48c-26 -30 -59.333 -45 -100 -45c-32.667 0 -59.334 9.5 -80.001 28.5s-31 43.5 -31 73.5
c0 22.667 6.16699 43.5 18.5 62.5s29.833 33.5 52.5 43.5h-2l-86 173h-416l-86 -173h-77zM400.001 592l-177 -357h354z" />
    <glyph glyph-name="aogonek" unicode="&#x105;" horiz-adv-x="563" 
d="M247 -6c-58.667 0 -104.833 12.166 -138.5 36.499s-50.5 58.166 -50.5 101.499c0 46.667 19.333 82.834 58 108.501s92 38.5 160 38.5c32.667 0 73.667 -3.66699 123 -11v35c0 81.333 -51.333 122 -154 122c-63.333 0 -114 -15.333 -152 -46v62
c42.667 29.333 97.334 44 164.001 44c68 0 119.833 -15 155.5 -45s53.5 -73.667 53.5 -131v-218c0 -29.333 21.333 -44 64 -44v-45c-12 -4 -27.333 -6 -46 -6c-36 -21.333 -54 -49.666 -54 -84.999c0 -20 6.66699 -36.333 20 -49s30.666 -19 51.999 -19
c35.333 0 65.333 15.667 90 47v-48c-26 -30 -59.333 -45 -100 -45c-32.667 0 -59.5 9.5 -80.5 28.5s-31.5 43.5 -31.5 73.5c0 22 6 42.333 18 61s28.667 33 50 43c-18 8 -31.667 20.667 -41 38c-42 -31.333 -95.333 -47 -160 -47zM288.001 222.999
c-51.333 0 -91.334 -7.83203 -120.001 -23.499s-43 -37.834 -43 -66.501c0 -25.333 11.667 -45.333 35 -60s55.333 -22 96 -22c60.667 0 108.334 16.667 143.001 50v113c-52.667 6 -89.667 9 -111 9z" />
    <glyph glyph-name="Cacute" unicode="&#x106;" horiz-adv-x="736" 
d="M52 350c0 106 33.833 192.167 101.5 258.5s155.5 99.5 263.5 99.5c97.333 0 179 -28.667 245 -86v-77c-56.667 65.333 -135.667 98 -237 98c-89.333 0 -162 -27.167 -218 -81.5s-84 -124.833 -84 -211.5s28 -157.167 84 -211.5s128.667 -81.5 218 -81.5
c100.667 0 179.667 33 237 99v-77c-65.333 -58 -147 -87 -245 -87c-108 0 -195.833 33.167 -263.5 99.5s-101.5 152.5 -101.5 258.5zM529 850l-195 -81v47l195 99v-65z" />
    <glyph glyph-name="cacute" unicode="&#x107;" horiz-adv-x="530" 
d="M56 240c0 73.333 23.667 133 71 179s109 69 185 69c60.667 0 112.334 -15.667 155.001 -47v-67c-37.333 36 -85.333 54 -144 54s-106.5 -17.5 -143.5 -52.5s-55.5 -80.167 -55.5 -135.5s18.5 -100.5 55.5 -135.5s84.833 -52.5 143.5 -52.5s106.667 18 144 54v-67
c-42.667 -31.333 -94.334 -47 -155.001 -47c-76 0 -137.667 23 -185 69s-71 105.667 -71 179zM419 650l-194 -81v47l194 99v-65z" />
    <glyph glyph-name="Ccircumflex" unicode="&#x108;" horiz-adv-x="736" 
d="M417 -8c-108 0 -195.833 33.167 -263.5 99.5s-101.5 152.5 -101.5 258.5s33.833 192.167 101.5 258.5s155.5 99.5 263.5 99.5c97.333 0 179 -28.667 245 -86v-77c-56.667 65.333 -135.667 98 -237 98c-89.333 0 -162 -27.167 -218 -81.5s-84 -124.833 -84 -211.5
s28 -157.167 84 -211.5s128.667 -81.5 218 -81.5c100.667 0 179.667 33 237 99v-77c-65.333 -58 -147 -87 -245 -87zM405 834l-147 -60v45l147 78l148 -78v-45z" />
    <glyph glyph-name="ccircumflex" unicode="&#x109;" horiz-adv-x="530" 
d="M312 -8c-76 0 -137.667 23 -185 69s-71 105.667 -71 179s23.667 133 71 179s109 69 185 69c60.667 0 112.334 -15.667 155.001 -47v-67c-37.333 36 -85.333 54 -144 54s-106.5 -17.5 -143.5 -52.5s-55.5 -80.167 -55.5 -135.5s18.5 -100.5 55.5 -135.5
s84.833 -52.5 143.5 -52.5s106.667 18 144 54v-67c-42.667 -31.333 -94.334 -47 -155.001 -47zM296 634l-148 -60v45l148 78l147 -78v-45z" />
    <glyph glyph-name="Cdotaccent" unicode="&#x10a;" horiz-adv-x="736" 
d="M417 -8c-108 0 -195.833 33.167 -263.5 99.5s-101.5 152.5 -101.5 258.5s33.833 192.167 101.5 258.5s155.5 99.5 263.5 99.5c97.333 0 179 -28.667 245 -86v-77c-56.667 65.333 -135.667 98 -237 98c-89.333 0 -162 -27.167 -218 -81.5s-84 -124.833 -84 -211.5
s28 -157.167 84 -211.5s128.667 -81.5 218 -81.5c100.667 0 179.667 33 237 99v-77c-65.333 -58 -147 -87 -245 -87zM405 801c-14 0 -25.333 4.5 -34 13.5s-13 20.5 -13 34.5s4.33301 25.333 13 34s20 13 34 13s25.5 -4.33301 34.5 -13s13.5 -20 13.5 -34
s-4.5 -25.5 -13.5 -34.5s-20.5 -13.5 -34.5 -13.5z" />
    <glyph glyph-name="cdotaccent" unicode="&#x10b;" horiz-adv-x="530" 
d="M312 -8c-76 0 -137.667 23 -185 69s-71 105.667 -71 179s23.667 133 71 179s109 69 185 69c60.667 0 112.334 -15.667 155.001 -47v-67c-37.333 36 -85.333 54 -144 54s-106.5 -17.5 -143.5 -52.5s-55.5 -80.167 -55.5 -135.5s18.5 -100.5 55.5 -135.5
s84.833 -52.5 143.5 -52.5s106.667 18 144 54v-67c-42.667 -31.333 -94.334 -47 -155.001 -47zM296 601c-14.667 0 -26.334 4.5 -35.001 13.5s-13 20.5 -13 34.5s4.33301 25.333 13 34s20.334 13 35.001 13c14 0 25.333 -4.33301 34 -13s13 -20 13 -34
s-4.33301 -25.5 -13 -34.5s-20 -13.5 -34 -13.5z" />
    <glyph glyph-name="Ccaron" unicode="&#x10c;" horiz-adv-x="736" 
d="M417 -8c-108 0 -195.833 33.167 -263.5 99.5s-101.5 152.5 -101.5 258.5s33.833 192.167 101.5 258.5s155.5 99.5 263.5 99.5c97.333 0 179 -28.667 245 -86v-77c-56.667 65.333 -135.667 98 -237 98c-89.333 0 -162 -27.167 -218 -81.5s-84 -124.833 -84 -211.5
s28 -157.167 84 -211.5s128.667 -81.5 218 -81.5c100.667 0 179.667 33 237 99v-77c-65.333 -58 -147 -87 -245 -87zM405 774l-147 78v45l147 -60l148 60v-45z" />
    <glyph glyph-name="ccaron" unicode="&#x10d;" horiz-adv-x="530" 
d="M312 -8c-76 0 -137.667 23 -185 69s-71 105.667 -71 179s23.667 133 71 179s109 69 185 69c60.667 0 112.334 -15.667 155.001 -47v-67c-37.333 36 -85.333 54 -144 54s-106.5 -17.5 -143.5 -52.5s-55.5 -80.167 -55.5 -135.5s18.5 -100.5 55.5 -135.5
s84.833 -52.5 143.5 -52.5s106.667 18 144 54v-67c-42.667 -31.333 -94.334 -47 -155.001 -47zM296 574l-148 78v45l148 -60l147 60v-45z" />
    <glyph glyph-name="Dcaron" unicode="&#x10e;" horiz-adv-x="806" 
d="M99 700h285c105.333 0 191 -32.5 257 -97.5s99 -149.167 99 -252.5s-33 -187.5 -99 -252.5s-151.667 -97.5 -257 -97.5h-285v700zM384 638l-215 -0.00195312v-576h215c84 0 152.5 26.833 205.5 80.5s79.5 122.834 79.5 207.501s-26.5 153.834 -79.5 207.501
s-121.5 80.5 -205.5 80.5zM242 896.998l147 -60l148 60v-45l-148 -78l-147 78v45z" />
    <glyph glyph-name="dcaron" unicode="&#x10f;" horiz-adv-x="719" 
d="M56 240c0 73.333 22.667 132.833 68 178.5s104.333 68.5 177 68.5c54.667 0 101.667 -14 141 -42v275h66v-720h-60l-3 37c-40 -29.333 -88 -44 -144 -44c-72.667 0 -131.667 22.833 -177 68.5s-68 105.167 -68 178.5zM312 428c-56 0 -101.333 -17.5 -136 -52.5
s-52 -80.167 -52 -135.5s17.333 -100.5 52 -135.5s80 -52.5 136 -52.5c54 0 97.333 16.333 130 49v278c-32.667 32.667 -76 49 -130 49zM634 528l-41 -0.000976562c30.667 34.667 46 68 46 100c0 12 -3.83301 23.333 -11.5 34s-11.5 20.334 -11.5 29.001
c0 11.333 3.33301 20.333 10 27s15.667 10 27 10c15.333 0 26.833 -6.5 34.5 -19.5s11.5 -29.5 11.5 -49.5c0 -51.333 -21.667 -95 -65 -131z" />
    <glyph glyph-name="Dcroat" unicode="&#x110;" horiz-adv-x="806" 
d="M5 375h94v325h285c105.333 0 191 -32.5 257 -97.5s99 -149.167 99 -252.5s-33 -187.5 -99 -252.5s-151.667 -97.5 -257 -97.5h-285v330h-94v45zM169 375l201 -0.00195312v-45h-201v-268h215c84 0 152.5 26.833 205.5 80.5s79.5 122.834 79.5 207.501
s-26.5 153.834 -79.5 207.501s-121.5 80.5 -205.5 80.5h-215v-263z" />
    <glyph glyph-name="dcroat" unicode="&#x111;" horiz-adv-x="597" 
d="M56 240c0 73.333 22.667 132.833 68 178.5s104.333 68.5 177 68.5c54.667 0 101.667 -14 141 -42v134h-148v46h148v95h66v-95h84v-46h-84v-579h-60l-3 37c-40 -29.333 -88 -44 -144 -44c-72.667 0 -131.667 22.833 -177 68.5s-68 105.167 -68 178.5zM312 428
c-56 0 -101.333 -17.5 -136 -52.5s-52 -80.167 -52 -135.5s17.333 -100.5 52 -135.5s80 -52.5 136 -52.5c54 0 97.333 16.333 130 49v278c-32.667 32.667 -76 49 -130 49z" />
    <glyph glyph-name="Emacron" unicode="&#x112;" horiz-adv-x="667" 
d="M99 0v700h516v-62h-446v-254h371v-61h-371v-261h451v-62h-521zM490 801h-260v45h260v-45z" />
    <glyph glyph-name="emacron" unicode="&#x113;" horiz-adv-x="591" 
d="M55 244c0 71.333 22.3311 129.832 66.998 175.499s102.334 68.5 173.001 68.5c73.333 0 131.833 -24.667 175.5 -74s63.5 -113.666 59.5 -192.999h-408c6 -51.333 28.833 -92.333 68.5 -123s90.167 -46 151.5 -46c66.667 0 121.334 18.667 164.001 56v-65
c-48 -34 -105.667 -51 -173 -51c-83.333 0 -150.5 23 -201.5 69s-76.5 107 -76.5 183zM121.998 275.999h341.999c-3.33301 46 -20.333 83.167 -51 111.5s-69.667 42.5 -117 42.5s-86.666 -14.167 -117.999 -42.5s-50 -65.5 -56 -111.5zM424.997 600.999h-259v45h259v-45z
" />
    <glyph glyph-name="Ebreve" unicode="&#x114;" horiz-adv-x="667" 
d="M620 0h-521v700h516v-62h-446v-254h371v-61h-371v-261h451v-62zM226 842v47c39.333 -36 84.333 -54 135 -54c48.667 0 93 18 133 54v-47c-32 -39.333 -76.333 -59 -133 -59c-58 0 -103 19.667 -135 59z" />
    <glyph glyph-name="ebreve" unicode="&#x115;" horiz-adv-x="591" 
d="M55 244c0 71.333 22.3311 129.832 66.998 175.499s102.334 68.5 173.001 68.5c73.333 0 131.833 -24.667 175.5 -74s63.5 -113.666 59.5 -192.999h-408c6 -51.333 28.833 -92.333 68.5 -123s90.167 -46 151.5 -46c66.667 0 121.334 18.667 164.001 56v-65
c-48 -34 -105.667 -51 -173 -51c-83.333 0 -150.5 23 -201.5 69s-76.5 107 -76.5 183zM121.998 275.999h341.999c-3.33301 46 -20.333 83.167 -51 111.5s-69.667 42.5 -117 42.5s-86.666 -14.167 -117.999 -42.5s-50 -65.5 -56 -111.5zM161.997 641.999v47
c39.333 -36 84.333 -54 135 -54c48.667 0 93 18 133 54v-47c-32.667 -40 -77 -60 -133 -60c-56.667 0 -101.667 20 -135 60z" />
    <glyph glyph-name="Edotaccent" unicode="&#x116;" horiz-adv-x="667" 
d="M99 0v700h516v-62h-446v-254h371v-61h-371v-261h451v-62h-521zM312 849c0 14 4.5 25.333 13.5 34s20.5 13 34.5 13s25.333 -4.33301 34 -13s13 -20 13 -34s-4.33301 -25.5 -13 -34.5s-20 -13.5 -34 -13.5s-25.5 4.5 -34.5 13.5s-13.5 20.5 -13.5 34.5z" />
    <glyph glyph-name="edotaccent" unicode="&#x117;" horiz-adv-x="591" 
d="M55 244c0 71.333 22.3311 129.832 66.998 175.499s102.334 68.5 173.001 68.5c73.333 0 131.833 -24.667 175.5 -74s63.5 -113.666 59.5 -192.999h-408c6 -51.333 28.833 -92.333 68.5 -123s90.167 -46 151.5 -46c66.667 0 121.334 18.667 164.001 56v-65
c-48 -34 -105.667 -51 -173 -51c-83.333 0 -150.5 23 -201.5 69s-76.5 107 -76.5 183zM121.998 275.999h341.999c-3.33301 46 -20.333 83.167 -51 111.5s-69.667 42.5 -117 42.5s-86.666 -14.167 -117.999 -42.5s-50 -65.5 -56 -111.5zM247.997 648.999
c0 14 4.5 25.333 13.5 34s20.5 13 34.5 13s25.333 -4.33301 34 -13s13 -20 13 -34c0 -14.667 -4.33301 -26.334 -13 -35.001s-20 -13 -34 -13s-25.5 4.33301 -34.5 13s-13.5 20.334 -13.5 35.001z" />
    <glyph glyph-name="Eogonek" unicode="&#x118;" horiz-adv-x="667" 
d="M99 0l0.00195312 700h516v-62h-446v-254h371v-61h-371v-261h451v-62h-82c-47.333 -20.667 -71 -52 -71 -94c0 -20 6.66699 -36.333 20 -49s30.666 -19 51.999 -19c36.667 0 66.667 15.667 90 47v-48c-26 -30 -59.333 -45 -100 -45c-32.667 0 -59.334 9.5 -80.001 28.5
s-31 43.5 -31 73.5c0 22.667 6.16699 43.5 18.5 62.5s29.833 33.5 52.5 43.5h-390z" />
    <glyph glyph-name="eogonek" unicode="&#x119;" horiz-adv-x="591" 
d="M55 244c0 71.333 22.3311 129.833 66.998 175.5s102.334 68.5 173.001 68.5c73.333 0 131.833 -24.667 175.5 -74s63.5 -113.666 59.5 -192.999h-408c6 -51.333 28.833 -92.333 68.5 -123s90.167 -46 151.5 -46c66.667 0 121.334 18.667 164.001 56v-65
c-27.333 -18.667 -57 -32.334 -89 -41.001c-43.333 -20.667 -65 -51 -65 -91c0 -20 6.66699 -36.333 20 -49s30.666 -19 51.999 -19c34.667 0 64.334 15.667 89.001 47v-48c-26 -30 -59 -45 -99 -45c-32.667 0 -59.5 9.5 -80.5 28.5s-31.5 43.5 -31.5 73.5
c0 38.667 16.333 69.667 49 93h-18c-83.333 0 -150.5 23 -201.5 69s-76.5 107 -76.5 183zM121.998 276h341.999c-3.33301 46 -20.333 83.167 -51 111.5s-69.667 42.5 -117 42.5s-86.666 -14.167 -117.999 -42.5s-50 -65.5 -56 -111.5z" />
    <glyph glyph-name="Ecaron" unicode="&#x11a;" horiz-adv-x="667" 
d="M99 0v700h516v-62h-446v-254h371v-61h-371v-261h451v-62h-521zM213 897l147 -60l147 60v-45l-147 -78l-147 78v45z" />
    <glyph glyph-name="ecaron" unicode="&#x11b;" horiz-adv-x="591" 
d="M55 244c0 71.333 22.3311 129.832 66.998 175.499s102.334 68.5 173.001 68.5c73.333 0 131.833 -24.667 175.5 -74s63.5 -113.666 59.5 -192.999h-408c6 -51.333 28.833 -92.333 68.5 -123s90.167 -46 151.5 -46c66.667 0 121.334 18.667 164.001 56v-65
c-48 -34 -105.667 -51 -173 -51c-83.333 0 -150.5 23 -201.5 69s-76.5 107 -76.5 183zM121.998 275.999h341.999c-3.33301 46 -20.333 83.167 -51 111.5s-69.667 42.5 -117 42.5s-86.666 -14.167 -117.999 -42.5s-50 -65.5 -56 -111.5zM147.997 696.999l148 -60l147 60v-45
l-147 -78l-148 78v45z" />
    <glyph glyph-name="Gcircumflex" unicode="&#x11c;" horiz-adv-x="778" 
d="M52 351c0 105.333 34.168 191.165 102.501 257.498s156.5 99.5 264.5 99.5c99.333 0 182 -28.333 248 -85v-75c-58.667 64 -138 96 -238 96c-90.667 0 -164.167 -27.167 -220.5 -81.5s-84.5 -125.166 -84.5 -212.499s28 -158.166 84 -212.499s129 -81.5 219 -81.5
c68 0 128.667 16 182 48v185h-167v59h234v-280h-3c-66.667 -50.667 -148.334 -76 -245.001 -76c-111.333 0 -201.833 33.333 -271.5 100s-104.5 153 -104.5 259zM407.001 833.999l-147 -60v45l147 78l148 -78v-45z" />
    <glyph glyph-name="gcircumflex" unicode="&#x11d;" horiz-adv-x="597" 
d="M301 -6c-72.667 0 -131.667 22.833 -177 68.5s-68 105.167 -68 178.5c0 72.667 22.667 131.834 68 177.501s104.333 68.5 177 68.5c56.667 0 104.334 -14.333 143.001 -43l4 36h60v-501c0 -60 -20.833 -106.167 -62.5 -138.5s-100.834 -48.5 -177.501 -48.5
c-68 0 -125.667 13.667 -173 41v59c40 -27.333 94.333 -41 163 -41c59.333 0 104.833 11.167 136.5 33.5s47.5 54.166 47.5 95.499v55c-40 -27.333 -87 -41 -141 -41zM124 241c0 -55.333 17.334 -100.5 52.001 -135.5s80 -52.5 136 -52.5c53.333 0 96.666 16 129.999 48v279
c-34 32.667 -77.333 49 -130 49c-56 0 -101.333 -17.5 -136 -52.5s-52 -80.167 -52 -135.5zM154.001 574v45l147 78l148 -78v-45l-148 60z" />
    <glyph glyph-name="Gbreve" unicode="&#x11e;" horiz-adv-x="778" 
d="M428 -8c-111.333 0 -201.832 33.332 -271.499 99.999s-104.5 153 -104.5 259c0 105.333 34.167 191.166 102.5 257.499s156.5 99.5 264.5 99.5c99.333 0 182 -28.333 248 -85v-75c-58.667 64 -138 96 -238 96c-90.667 0 -164.167 -27.167 -220.5 -81.5
s-84.5 -125.166 -84.5 -212.499s28 -158.166 84 -212.499s129 -81.5 219 -81.5c68 0 128.667 16 182 48v185h-167v59h234v-280h-3c-66.667 -50.667 -148.334 -76 -245.001 -76zM408.001 781.999c-56.667 0 -101.667 20 -135 60v47c40 -36 85 -54 135 -54
c48.667 0 93 18 133 54v-47c-32.667 -40 -77 -60 -133 -60z" />
    <glyph glyph-name="gbreve" unicode="&#x11f;" horiz-adv-x="597" 
d="M301 -6c-72.667 0 -131.667 22.833 -177 68.5s-68 105.167 -68 178.5c0 72.667 22.667 131.834 68 177.501s104.333 68.5 177 68.5c56.667 0 104.334 -14.333 143.001 -43l4 36h60v-501c0 -60 -20.833 -106.167 -62.5 -138.5s-100.834 -48.5 -177.501 -48.5
c-68 0 -125.667 13.667 -173 41v59c40 -27.333 94.333 -41 163 -41c59.333 0 104.833 11.167 136.5 33.5s47.5 54.166 47.5 95.499v55c-40 -27.333 -87 -41 -141 -41zM124 241c0 -55.333 17.334 -100.5 52.001 -135.5s80 -52.5 136 -52.5c53.333 0 96.666 16 129.999 48v279
c-34 32.667 -77.333 49 -130 49c-56 0 -101.333 -17.5 -136 -52.5s-52 -80.167 -52 -135.5zM168.001 642l0.000976562 47c39.333 -36 84 -54 134 -54c49.333 0 93.666 18 132.999 54v-47c-32 -39.333 -76.333 -59 -133 -59c-57.333 0 -102 19.667 -134 59z" />
    <glyph glyph-name="Gdotaccent" unicode="&#x120;" horiz-adv-x="778" 
d="M52 351c0 105.333 34.168 191.165 102.501 257.498s156.5 99.5 264.5 99.5c99.333 0 182 -28.333 248 -85v-75c-58.667 64 -138 96 -238 96c-90.667 0 -164.167 -27.167 -220.5 -81.5s-84.5 -125.166 -84.5 -212.499s28 -158.166 84 -212.499s129 -81.5 219 -81.5
c68 0 128.667 16 182 48v185h-167v59h234v-280h-3c-66.667 -50.667 -148.334 -76 -245.001 -76c-111.333 0 -201.833 33.333 -271.5 100s-104.5 153 -104.5 259zM407.001 800.999c-14 0 -25.5 4.33301 -34.5 13s-13.5 20.334 -13.5 35.001c0 14 4.5 25.333 13.5 34
s20.5 13 34.5 13s25.333 -4.33301 34 -13s13 -20 13 -34c0 -14.667 -4.33301 -26.334 -13 -35.001s-20 -13 -34 -13z" />
    <glyph glyph-name="gdotaccent" unicode="&#x121;" horiz-adv-x="597" 
d="M56 241c0 72.667 22.667 131.834 68 177.501s104.333 68.5 177 68.5c56.667 0 104.334 -14.333 143.001 -43l4 36h60v-501c0 -60 -20.833 -106.167 -62.5 -138.5s-100.834 -48.5 -177.501 -48.5c-68 0 -125.667 13.667 -173 41v59c40 -27.333 94.333 -41 163 -41
c59.333 0 104.833 11.167 136.5 33.5s47.5 54.166 47.5 95.499v55c-40 -27.333 -87 -41 -141 -41c-72.667 0 -131.667 22.833 -177 68.5s-68 105.167 -68 178.5zM124 241c0 -55.333 17.334 -100.5 52.001 -135.5s80 -52.5 136 -52.5c53.333 0 96.666 16 129.999 48v279
c-34 32.667 -77.333 49 -130 49c-56 0 -101.333 -17.5 -136 -52.5s-52 -80.167 -52 -135.5zM254.001 649c0 14 4.33301 25.333 13 34s20 13 34 13c14.667 0 26.334 -4.33301 35.001 -13s13 -20 13 -34s-4.33301 -25.5 -13 -34.5s-20.334 -13.5 -35.001 -13.5
c-14 0 -25.333 4.5 -34 13.5s-13 20.5 -13 34.5z" />
    <glyph glyph-name="uni0122" unicode="&#x122;" horiz-adv-x="778" 
d="M428 -8c-111.333 0 -201.832 33.332 -271.499 99.999s-104.5 153 -104.5 259c0 105.333 34.167 191.166 102.5 257.499s156.5 99.5 264.5 99.5c99.333 0 182 -28.333 248 -85v-75c-58.667 64 -138 96 -238 96c-90.667 0 -164.167 -27.167 -220.5 -81.5
s-84.5 -125.166 -84.5 -212.499s28 -158.166 84 -212.499s129 -81.5 219 -81.5c68 0 128.667 16 182 48v185h-167v59h234v-280h-3c-66.667 -50.667 -148.334 -76 -245.001 -76zM371.001 -217.001c28 26 41.999 51.666 41.999 76.999c0 10 -3.5 19.5 -10.5 28.5
s-10.5 17.167 -10.5 24.5c0 9.33301 3 17 9 23s13.667 9 23 9c12.667 0 22.334 -5.16699 29.001 -15.5s10 -23.166 10 -38.499c0 -43.333 -19 -79.333 -57 -108h-35z" />
    <glyph glyph-name="uni0123" unicode="&#x123;" horiz-adv-x="597" 
d="M301 -6c-72.667 0 -131.667 22.833 -177 68.5s-68 105.167 -68 178.5c0 72.667 22.667 131.834 68 177.501s104.333 68.5 177 68.5c56.667 0 104.334 -14.333 143.001 -43l4 36h60v-501c0 -60 -20.833 -106.167 -62.5 -138.5s-100.834 -48.5 -177.501 -48.5
c-68 0 -125.667 13.667 -173 41v59c40 -27.333 94.333 -41 163 -41c59.333 0 104.833 11.167 136.5 33.5s47.5 54.166 47.5 95.499v55c-40 -27.333 -87 -41 -141 -41zM124 241c0 -55.333 17.334 -100.5 52.001 -135.5s80 -52.5 136 -52.5c53.333 0 96.666 16 129.999 48v279
c-34 32.667 -77.333 49 -130 49c-56 0 -101.333 -17.5 -136 -52.5s-52 -80.167 -52 -135.5zM297.001 572c-25.333 0 -38 18 -38 54c0 44 18.667 80 56 108h35c-27.333 -25.333 -41 -51 -41 -77c0 -10 3.5 -19.5 10.5 -28.5s10.5 -17.167 10.5 -24.5
c0 -9.33301 -3 -17 -9 -23s-14 -9 -24 -9z" />
    <glyph glyph-name="Hcircumflex" unicode="&#x124;" horiz-adv-x="857" 
d="M169 0h-70v700h70v-316h520v316h69v-700h-69v323h-520v-323zM429 834l-147 -60v45l147 78l148 -78v-45z" />
    <glyph glyph-name="hcircumflex" unicode="&#x125;" horiz-adv-x="621" 
d="M89 0l0.000976562 720h67v-289c41.333 38 93.666 57 156.999 57c69.333 0 124 -19.5 164 -58.5s60 -92.167 60 -159.5v-270h-67v271c0 48.667 -15 87.167 -45 115.5s-70.667 42.5 -122 42.5c-57.333 0 -106.333 -21.667 -147 -65v-364h-67zM122.001 820l-147 -60v45
l147 78l148 -78v-45z" />
    <glyph glyph-name="Hbar" unicode="&#x126;" horiz-adv-x="857" 
d="M758 559h94v-45h-94v-514h-69v323h-520v-323h-70v514h-94v45h94v141h70v-141h520v141h69v-141zM689 514h-520v-130h520v130z" />
    <glyph glyph-name="hbar" unicode="&#x127;" horiz-adv-x="621" 
d="M89 579h-83.999v46h84v95h67v-95h147v-46h-147v-148c41.333 38 93.666 57 156.999 57c69.333 0 124 -19.5 164 -58.5s60 -92.167 60 -159.5v-270h-67v271c0 48.667 -15 87.167 -45 115.5s-70.667 42.5 -122 42.5c-57.333 0 -106.333 -21.667 -147 -65v-364h-67v579z" />
    <glyph glyph-name="Itilde" unicode="&#x128;" horiz-adv-x="268" 
d="M99 700h70v-700h-70v700zM30 788h-52c0 30 8.66699 54.5 26 73.5s39.333 28.5 66 28.5c22 0 44.667 -9.5 68 -28.5s41.333 -28.5 54 -28.5c13.333 0 24.333 4.83301 33 14.5s13 22.167 13 37.5h52c0 -29.333 -8.66699 -53.666 -26 -72.999s-39.333 -29 -66 -29
c-22 0 -44.5 9.33301 -67.5 28s-40.833 28 -53.5 28c-13.333 0 -24.5 -4.83301 -33.5 -14.5s-13.5 -21.834 -13.5 -36.501z" />
    <glyph glyph-name="itilde" unicode="&#x129;" horiz-adv-x="245" 
d="M89 0v480h67v-480h-67zM19 593h-52c0 30 8.5 54.5 25.5 73.5s39.167 28.5 66.5 28.5c22 0 44.5 -9.5 67.5 -28.5s40.833 -28.5 53.5 -28.5c13.333 0 24.5 5 33.5 15s13.5 22.333 13.5 37h52c0 -29.333 -8.83301 -53.666 -26.5 -72.999s-39.834 -29 -66.501 -29
c-21.333 0 -43.666 9.33301 -66.999 28s-41.333 28 -54 28c-13.333 0 -24.333 -4.83301 -33 -14.5s-13 -21.834 -13 -36.501z" />
    <glyph glyph-name="Imacron" unicode="&#x12a;" horiz-adv-x="268" 
d="M99 700h70v-700h-70v700zM5 801v45h259v-45h-259z" />
    <glyph glyph-name="imacron" unicode="&#x12b;" horiz-adv-x="245" 
d="M89 0v480h67v-480h-67zM-7 606v45h259v-45h-259z" />
    <glyph glyph-name="Ibreve" unicode="&#x12c;" horiz-adv-x="268" 
d="M169 0h-70v700h70v-700zM0 889c40 -36 85 -54 135 -54c48.667 0 93 18 133 54v-47c-32 -39.333 -76.333 -59 -133 -59c-57.333 0 -102.333 19.667 -135 59v47z" />
    <glyph glyph-name="ibreve" unicode="&#x12d;" horiz-adv-x="245" 
d="M89 0v480h67v-480h-67zM-11 694c39.333 -36 84.001 -54 134.001 -54c49.333 0 93.666 18 132.999 54v-47c-32 -39.333 -76.333 -59 -133 -59c-57.333 0 -102 19.667 -134 59v47z" />
    <glyph glyph-name="Iogonek" unicode="&#x12e;" horiz-adv-x="268" 
d="M147 -208c-32.667 0 -59.332 9.5 -79.999 28.5s-31 43.5 -31 73.5c0 22.667 6.16699 43.5 18.5 62.5s29.833 33.5 52.5 43.5h-8v700h70v-700h-13c-47.333 -20.667 -71 -52 -71 -94c0 -20 6.66699 -36.333 20 -49s30.666 -19 51.999 -19c36.667 0 66.667 15.667 90 47v-48
c-26 -30 -59.333 -45 -100 -45z" />
    <glyph glyph-name="iogonek" unicode="&#x12f;" horiz-adv-x="245" 
d="M26 -106c0 22.667 6.16895 43.5 18.502 62.5s29.833 33.5 52.5 43.5h-8v480h67v-480h-10c-47.333 -20.667 -71 -52 -71 -94c0 -20 6.66699 -36.333 20 -49s30.666 -19 51.999 -19c36.667 0 66.667 15.667 90 47v-48c-26 -30 -59.333 -45 -100 -45
c-32.667 0 -59.334 9.5 -80.001 28.5s-31 43.5 -31 73.5zM122.002 601c-14 0 -25.333 4.5 -34 13.5s-13 20.5 -13 34.5s4.33301 25.333 13 34s20 13 34 13s25.5 -4.33301 34.5 -13s13.5 -20 13.5 -34s-4.5 -25.5 -13.5 -34.5s-20.5 -13.5 -34.5 -13.5z" />
    <glyph glyph-name="Idotaccent" unicode="&#x130;" horiz-adv-x="268" 
d="M99 700h70v-700h-70v700zM86 849c0 14 4.5 25.333 13.5 34s20.5 13 34.5 13s25.5 -4.33301 34.5 -13s13.5 -20 13.5 -34s-4.5 -25.5 -13.5 -34.5s-20.5 -13.5 -34.5 -13.5s-25.5 4.5 -34.5 13.5s-13.5 20.5 -13.5 34.5z" />
    <glyph glyph-name="dotlessi" unicode="&#x131;" horiz-adv-x="245" 
d="M89 0v480h67v-480h-67z" />
    <glyph glyph-name="IJ" unicode="&#x132;" horiz-adv-x="569" 
d="M243 -183l0.000976562 60c16.667 -14.667 39 -22 67 -22c27.333 0 49.166 8.16699 65.499 24.5s24.5 38.5 24.5 66.5v754h70v-763c0 -44 -13 -79 -39 -105s-60.667 -39 -104 -39c-32.667 0 -60.667 8 -84 24zM99.001 700h70v-700h-70v700z" />
    <glyph glyph-name="ij" unicode="&#x133;" horiz-adv-x="490" 
d="M254 -153c24.667 0 44.167 5.83301 58.5 17.5s21.5 27.167 21.5 46.5v569h66v-578c0 -31.333 -9.83301 -57 -29.5 -77s-45.167 -30 -76.5 -30c-14 0 -27.333 2.33301 -40 7v45zM89 480h67v-480h-67v480zM367 601c-14 0 -25.5 4.5 -34.5 13.5s-13.5 20.5 -13.5 34.5
s4.5 25.333 13.5 34s20.5 13 34.5 13s25.333 -4.33301 34 -13s13 -20 13 -34s-4.33301 -25.5 -13 -34.5s-20 -13.5 -34 -13.5zM75 649c0 14 4.33301 25.333 13 34s20 13 34 13s25.5 -4.33301 34.5 -13s13.5 -20 13.5 -34s-4.5 -25.5 -13.5 -34.5s-20.5 -13.5 -34.5 -13.5
s-25.333 4.5 -34 13.5s-13 20.5 -13 34.5z" />
    <glyph glyph-name="Jcircumflex" unicode="&#x134;" horiz-adv-x="301" 
d="M59 -207c-32.667 0 -60.666 8 -83.999 24v60c16.667 -14.667 39 -22 67 -22c27.333 0 49.166 8.16699 65.499 24.5s24.5 38.5 24.5 66.5v754h70v-763c0 -44 -13 -79 -39 -105s-60.667 -39 -104 -39zM20.001 774v45l147 78l148 -78v-45l-148 60z" />
    <glyph glyph-name="jcircumflex" unicode="&#x135;" horiz-adv-x="245" 
d="M49 -205c-14 0 -27.333 2.33301 -40 7v45c24.667 0 44.167 5.83301 58.5 17.5s21.5 27.167 21.5 46.5v569h67v-578c0 -31.333 -10 -57 -30 -77s-45.667 -30 -77 -30zM122 634l-147 -60v45l147 78l148 -78v-45z" />
    <glyph glyph-name="uni0136" unicode="&#x136;" horiz-adv-x="711" 
d="M169 0h-70v700h70v-310h145l249 310h86l-277 -341l301 -359h-88l-271 329h-145v-329zM353 -217h-35c27.333 25.333 41 51 41 77c0 10 -3.5 19.5 -10.5 28.5s-10.5 17.167 -10.5 24.5c0 9.33301 3 17 9 23s14 9 24 9c25.333 0 38 -18 38 -54c0 -44 -18.667 -80 -56 -108z
" />
    <glyph glyph-name="uni0137" unicode="&#x137;" horiz-adv-x="530" 
d="M156 0h-67v720h67v-446h74l175 206h80l-203 -236l216 -244h-82l-186 215h-74v-215zM279 -217l-35 -0.000976562c28 26 42 51.667 42 77c0 10 -3.5 19.5 -10.5 28.5s-10.5 17.167 -10.5 24.5c0 9.33301 3 17 9 23s14 9 24 9c12.667 0 22.167 -5.16699 28.5 -15.5
s9.5 -23.166 9.5 -38.499c0 -43.333 -19 -79.333 -57 -108z" />
    <glyph glyph-name="Lacute" unicode="&#x139;" horiz-adv-x="647" 
d="M99 0v700h70v-638h444v-62h-514zM63 769v47l194 99v-65z" />
    <glyph glyph-name="lacute" unicode="&#x13a;" horiz-adv-x="275" 
d="M89 102v618h67v-608c0 -20 7.16699 -35.833 21.5 -47.5s33.833 -17.5 58.5 -17.5v-45c-12.667 -4.66699 -26 -7 -40 -7c-31.333 0 -57 10 -77 30s-30 45.667 -30 77zM51 802l195 99v-65l-195 -81v47z" />
    <glyph glyph-name="uni013B" unicode="&#x13b;" horiz-adv-x="647" 
d="M613 0h-514v700h70v-638h444v-62zM308 -217c28 26 42 51.667 42 77c0 10 -3.5 19.5 -10.5 28.5s-10.5 17.167 -10.5 24.5c0 9.33301 3 17 9 23s14 9 24 9c25.333 0 38 -18 38 -54c0 -44 -18.667 -80 -56 -108h-36z" />
    <glyph glyph-name="uni013C" unicode="&#x13c;" horiz-adv-x="275" 
d="M89 102v618h67v-608c0 -20 7.16699 -35.833 21.5 -47.5s33.833 -17.5 58.5 -17.5v-45c-12.667 -4.66699 -26 -7 -40 -7c-31.333 0 -57 10 -77 30s-30 45.667 -30 77zM149 -217h-35c27.333 25.333 41 51 41 77c0 10 -3.5 19.5 -10.5 28.5s-10.5 17.167 -10.5 24.5
c0 9.33301 3 17 9 23s14 9 24 9c25.333 0 38 -18 38 -54c0 -44 -18.667 -80 -56 -108z" />
    <glyph glyph-name="Lcaron" unicode="&#x13d;" horiz-adv-x="647" 
d="M613 0h-514v700h70v-638h444v-62zM353 508c30.667 33.333 46 66.666 46 99.999c0 12 -3.83301 23.333 -11.5 34s-11.5 20.334 -11.5 29.001c0 11.333 3.33301 20.333 10 27s15.667 10 27 10c30.667 0 46 -23 46 -69c0 -51.333 -21.667 -95 -65 -131h-41z" />
    <glyph glyph-name="lcaron" unicode="&#x13e;" horiz-adv-x="387" 
d="M196 -5c-31.333 0 -57 10 -77 30s-30 45.667 -30 77v618h67v-608c0 -20 7.16699 -35.833 21.5 -47.5s33.833 -17.5 58.5 -17.5v-45c-12.667 -4.66699 -26 -7 -40 -7zM302 528l-41 -0.000976562c30.667 34.667 46 68 46 100c0 12 -3.83301 23.333 -11.5 34
s-11.5 20.334 -11.5 29.001c0 11.333 3.33301 20.333 10 27s15.667 10 27 10c15.333 0 26.833 -6.5 34.5 -19.5s11.5 -29.5 11.5 -49.5c0 -51.333 -21.667 -95 -65 -131z" />
    <glyph glyph-name="Ldot" unicode="&#x13f;" horiz-adv-x="647" 
d="M99 700h70v-638h444v-62h-514v700zM462 352c-14.667 0 -26.334 4.5 -35.001 13.5s-13 20.5 -13 34.5s4.33301 25.333 13 34s20.334 13 35.001 13c14 0 25.333 -4.33301 34 -13s13 -20 13 -34s-4.33301 -25.5 -13 -34.5s-20 -13.5 -34 -13.5z" />
    <glyph glyph-name="ldot" unicode="&#x140;" horiz-adv-x="362" 
d="M196 -5c-31.333 0 -57 10 -77 30s-30 45.667 -30 77v618h67v-608c0 -20 7.16699 -35.833 21.5 -47.5s33.833 -17.5 58.5 -17.5v-45c-12.667 -4.66699 -26 -7 -40 -7zM308 303c-14 0 -25.5 4.33301 -34.5 13s-13.5 20 -13.5 34s4.5 25.333 13.5 34s20.5 13 34.5 13
s25.333 -4.33301 34 -13s13 -20 13 -34s-4.33301 -25.333 -13 -34s-20 -13 -34 -13z" />
    <glyph glyph-name="Lslash" unicode="&#x141;" horiz-adv-x="647" 
d="M22 259l-23 40l100 58v343h70v-303l127 73l23 -40l-150 -86v-282h444v-62h-514v303z" />
    <glyph glyph-name="lslash" unicode="&#x142;" horiz-adv-x="275" 
d="M22 279l-23 40l90 52v349h67v-311l90 52l23 -40l-113 -65v-244c0 -20 7.16699 -35.833 21.5 -47.5s33.833 -17.5 58.5 -17.5v-45c-12.667 -4.66699 -26 -7 -40 -7c-31.333 0 -57 10 -77 30s-30 45.667 -30 77v216z" />
    <glyph glyph-name="Nacute" unicode="&#x143;" horiz-adv-x="870" 
d="M99 697h39l561 -572v575h68v-700h-39l-561 573v-573h-68v697zM362 816l195 99v-65l-195 -81v47z" />
    <glyph glyph-name="nacute" unicode="&#x144;" horiz-adv-x="621" 
d="M89 480h60l5 -51c41.333 39.333 94.333 59 159 59c69.333 0 124 -19.5 164 -58.5s60 -92.167 60 -159.5v-270h-67v271c0 48.667 -15 87.167 -45 115.5s-70.667 42.5 -122 42.5c-57.333 0 -106.333 -21.667 -147 -65v-364h-67v480zM236 616l194 99v-65l-194 -81v47z" />
    <glyph glyph-name="uni0145" unicode="&#x145;" horiz-adv-x="870" 
d="M99 0v697h39l561 -572v575h68v-700h-39l-561 573v-573h-68zM381 -217c28 26 42 51.666 42 76.999c0 10 -3.5 19.5 -10.5 28.5s-10.5 17.167 -10.5 24.5c0 9.33301 3 17 9 23s14 9 24 9c12.667 0 22.167 -5.16699 28.5 -15.5s9.5 -23.166 9.5 -38.499
c0 -44 -19 -80 -57 -108h-35z" />
    <glyph glyph-name="uni0146" unicode="&#x146;" horiz-adv-x="621" 
d="M156 0h-67v480h60l5 -51c41.333 39.333 94.333 59 159 59c69.333 0 124 -19.5 164 -58.5s60 -92.167 60 -159.5v-270h-67v271c0 48.667 -15 87.167 -45 115.5s-70.667 42.5 -122 42.5c-57.333 0 -106.333 -21.667 -147 -65v-364zM296 -217l-35 -0.000976562
c28 26 42 51.667 42 77c0 10 -3.5 19.5 -10.5 28.5s-10.5 17.167 -10.5 24.5c0 9.33301 3 17 9 23s14 9 24 9c12.667 0 22.167 -5.16699 28.5 -15.5s9.5 -23.166 9.5 -38.499c0 -44 -19 -80 -57 -108z" />
    <glyph glyph-name="Ncaron" unicode="&#x147;" horiz-adv-x="870" 
d="M99 697h39l561 -572v575h68v-700h-39l-561 573v-573h-68v697zM286 897l147 -60l148 60v-45l-148 -78l-147 78v45z" />
    <glyph glyph-name="ncaron" unicode="&#x148;" horiz-adv-x="621" 
d="M156 0h-67v480h60l5 -51c41.333 39.333 94.333 59 159 59c69.333 0 124 -19.5 164 -58.5s60 -92.167 60 -159.5v-270h-67v271c0 48.667 -15 87.167 -45 115.5s-70.667 42.5 -122 42.5c-57.333 0 -106.333 -21.667 -147 -65v-364zM307 574l-147 78v45l147 -60l147 60v-45z
" />
    <glyph glyph-name="Eng" unicode="&#x14a;" horiz-adv-x="870" 
d="M99 697h38.999l561 -572v575h68v-763c0 -44 -13 -79 -39 -105s-61 -39 -105 -39c-32 0 -59.667 8 -83 24v60c16.667 -14.667 39.334 -22 68.001 -22c27.333 0 49.333 8.16699 66 24.5s25 38.5 25 66.5v84l-532 543v-573h-68v697z" />
    <glyph glyph-name="eng" unicode="&#x14b;" horiz-adv-x="621" 
d="M156 0h-67v480h60l5 -51c41.333 39.333 94.333 59 159 59c69.333 0 124 -19.5 164 -58.5s60 -92.167 60 -159.5v-368c0 -31.333 -10 -57 -30 -77s-45.667 -30 -77 -30c-14 0 -27.333 2.33301 -40 7v45c24.667 0 44.167 5.83301 58.5 17.5s21.5 27.167 21.5 46.5v360
c0 48.667 -15 87.167 -45 115.5s-70.667 42.5 -122 42.5c-57.333 0 -106.333 -21.667 -147 -65v-364z" />
    <glyph glyph-name="Omacron" unicode="&#x14c;" horiz-adv-x="854" 
d="M66 350c0 106 33.5 192.167 100.5 258.5s153.833 99.5 260.5 99.5s193.5 -33.167 260.5 -99.5s100.5 -152.5 100.5 -258.5s-33.5 -192.167 -100.5 -258.5s-153.833 -99.5 -260.5 -99.5s-193.5 33.167 -260.5 99.5s-100.5 152.5 -100.5 258.5zM427 57
c85.333 0 155 27.167 209 81.5s81 124.833 81 211.5s-27 157.167 -81 211.5s-123.667 81.5 -209 81.5s-155 -27.167 -209 -81.5s-81 -124.833 -81 -211.5s27 -157.167 81 -211.5s123.667 -81.5 209 -81.5zM297 846h260v-45h-260v45z" />
    <glyph glyph-name="omacron" unicode="&#x14d;" horiz-adv-x="614" 
d="M56 240c0 73.333 23.333 133 70 179s107 69 181 69c74.667 0 135.167 -23 181.5 -69s69.5 -105.667 69.5 -179s-23.167 -133 -69.5 -179s-106.833 -69 -181.5 -69c-74 0 -134.333 23 -181 69s-70 105.667 -70 179zM307 53c54 0 98 17.333 132 52s51 79.667 51 135
s-17 100.333 -51 135s-78 52 -132 52s-98 -17.333 -132 -52s-51 -79.667 -51 -135s17 -100.333 51 -135s78 -52 132 -52zM177 646h260v-45h-260v45z" />
    <glyph glyph-name="Obreve" unicode="&#x14e;" horiz-adv-x="854" 
d="M427 708c106.667 0 193.5 -33.167 260.5 -99.5s100.5 -152.5 100.5 -258.5s-33.5 -192.167 -100.5 -258.5s-153.833 -99.5 -260.5 -99.5s-193.5 33.167 -260.5 99.5s-100.5 152.5 -100.5 258.5s33.5 192.167 100.5 258.5s153.833 99.5 260.5 99.5zM427 57
c85.333 0 155 27.167 209 81.5s81 124.833 81 211.5s-27 157.167 -81 211.5s-123.667 81.5 -209 81.5s-155 -27.167 -209 -81.5s-81 -124.833 -81 -211.5s27 -157.167 81 -211.5s123.667 -81.5 209 -81.5zM293 842v47c40 -36 85 -54 135 -54c48.667 0 93 18 133 54v-47
c-32 -39.333 -76.333 -59 -133 -59c-58 0 -103 19.667 -135 59z" />
    <glyph glyph-name="obreve" unicode="&#x14f;" horiz-adv-x="614" 
d="M307 488c74.667 0 135.167 -23 181.5 -69s69.5 -105.667 69.5 -179s-23.167 -133 -69.5 -179s-106.833 -69 -181.5 -69c-74 0 -134.333 23 -181 69s-70 105.667 -70 179s23.333 133 70 179s107 69 181 69zM307 53c54 0 98 17.333 132 52s51 79.667 51 135
s-17 100.333 -51 135s-78 52 -132 52s-98 -17.333 -132 -52s-51 -79.667 -51 -135s17 -100.333 51 -135s78 -52 132 -52zM173 642v47c40 -36 85 -54 135 -54c48.667 0 93 18 133 54v-47c-32 -39.333 -76.333 -59 -133 -59c-58 0 -103 19.667 -135 59z" />
    <glyph glyph-name="Ohungarumlaut" unicode="&#x150;" horiz-adv-x="854" 
d="M66 350c0 106 33.5 192.167 100.5 258.5s153.833 99.5 260.5 99.5s193.5 -33.167 260.5 -99.5s100.5 -152.5 100.5 -258.5s-33.5 -192.167 -100.5 -258.5s-153.833 -99.5 -260.5 -99.5s-193.5 33.167 -260.5 99.5s-100.5 152.5 -100.5 258.5zM137 350
c0 -86.667 27 -157.167 81 -211.5s123.667 -81.5 209 -81.5s155 27.167 209 81.5s81 124.833 81 211.5s-27 157.167 -81 211.5s-123.667 81.5 -209 81.5s-155 -27.167 -209 -81.5s-81 -124.833 -81 -211.5zM516 767h-45l94 133h69zM304 767l95 133h68l-118 -133h-45z" />
    <glyph glyph-name="ohungarumlaut" unicode="&#x151;" horiz-adv-x="614" 
d="M56 240c0 73.333 23.333 133 70 179s107 69 181 69c74.667 0 135.167 -23 181.5 -69s69.5 -105.667 69.5 -179s-23.167 -133 -69.5 -179s-106.833 -69 -181.5 -69c-74 0 -134.333 23 -181 69s-70 105.667 -70 179zM124 240c0 -55.333 17 -100.333 51 -135s78 -52 132 -52
s98 17.333 132 52s51 79.667 51 135s-17 100.333 -51 135s-78 52 -132 52s-98 -17.333 -132 -52s-51 -79.667 -51 -135zM396 567h-45l94 133h69zM184 567l95 133h68l-118 -133h-45z" />
    <glyph glyph-name="OE" unicode="&#x152;" horiz-adv-x="1286" 
d="M66 350c0 106 33.333 192.165 100 258.498s153 99.5 259 99.5c64 0 121.5 -12.667 172.5 -38s92.167 -60.666 123.5 -105.999v136h513v-62h-446v-254h371v-61h-371v-261h451v-62h-518v136c-31.333 -45.333 -72.5 -80.666 -123.5 -105.999s-108.5 -38 -172.5 -38
c-106 0 -192.333 33.167 -259 99.5s-100 152.5 -100 258.5zM427 56.998c85.333 0 155 27.167 209 81.5s81 124.833 81 211.5s-27 157.167 -81 211.5s-123.667 81.5 -209 81.5s-155 -27.167 -209 -81.5s-81 -124.833 -81 -211.5s27 -157.167 81 -211.5
s123.667 -81.5 209 -81.5z" />
    <glyph glyph-name="oe" unicode="&#x153;" horiz-adv-x="1030" 
d="M305 488c48.667 0 92.167 -10.668 130.5 -32.001s67.833 -51 88.5 -89c20 38 48.333 67.667 85 89s78.667 32 126 32c72.667 0 130.667 -24.667 174 -74s63.333 -113.666 60 -192.999h-408c6 -51.333 28.833 -92.333 68.5 -123s90.167 -46 151.5 -46
c66.667 0 121.334 18.667 164.001 56v-65c-48 -34 -105.667 -51 -173 -51c-56.667 0 -106.334 11 -149.001 33s-75 52.667 -97 92c-20 -38.667 -49.333 -69.167 -88 -91.5s-83 -33.5 -133 -33.5c-73.333 0 -133.166 23 -179.499 69s-69.5 105.667 -69.5 179
s23.167 133 69.5 179s106.166 69 179.499 69zM307 52.999c54 0 98.167 17.5 132.5 52.5s51.5 79.833 51.5 134.5s-17.167 99.5 -51.5 134.5s-78.5 52.5 -132.5 52.5s-98 -17.333 -132 -52s-51 -79.667 -51 -135s17 -100.333 51 -135s78 -52 132 -52zM561 275.999h341.999
c-3.33301 46 -20.5 83.167 -51.5 111.5s-69.833 42.5 -116.5 42.5c-47.333 0 -86.666 -14.167 -117.999 -42.5s-50 -65.5 -56 -111.5z" />
    <glyph glyph-name="Racute" unicode="&#x154;" horiz-adv-x="717" 
d="M169 0l-70 -0.00292969v700h313c66 0 119.667 -18.667 161 -56s62 -85.666 62 -144.999c0 -51.333 -15.833 -94.666 -47.5 -129.999s-73.5 -57.666 -125.5 -66.999l199 -302h-82l-188 298h-222v-298zM407 637.997h-238v-279h238c46 0 83.667 13 113 39s44 59.667 44 101
c0 40.667 -14.667 74 -44 100s-67 39 -113 39zM286 815.997l194 99v-65l-194 -81v47z" />
    <glyph glyph-name="racute" unicode="&#x155;" horiz-adv-x="424" 
d="M89 0v480h60l3 -66c41.333 49.333 95.333 74 162 74c28 0 53 -4.33301 75 -13v-65c-22.667 12.667 -51 19 -85 19c-60 0 -109.333 -26.667 -148 -80v-349h-67zM168 616l194 99v-65l-194 -81v47z" />
    <glyph glyph-name="uni0156" unicode="&#x156;" horiz-adv-x="717" 
d="M169 0l-70 -0.00292969v700h313c66 0 119.667 -18.667 161 -56s62 -85.666 62 -144.999c0 -51.333 -15.833 -94.666 -47.5 -129.999s-73.5 -57.666 -125.5 -66.999l199 -302h-82l-188 298h-222v-298zM407 637.997h-238v-279h238c46 0 83.667 13 113 39s44 59.667 44 101
c0 40.667 -14.667 74 -44 100s-67 39 -113 39zM360 -217.003h-35c27.333 25.333 41 51 41 77c0 10 -3.5 19.5 -10.5 28.5s-10.5 17.167 -10.5 24.5c0 9.33301 3 17 9 23s14 9 24 9c25.333 0 38 -18 38 -54c0 -44 -18.667 -80 -56 -108z" />
    <glyph glyph-name="uni0157" unicode="&#x157;" horiz-adv-x="424" 
d="M89 0v480h60l3 -66c41.333 49.333 95.333 74 162 74c28 0 53 -4.33301 75 -13v-65c-22.667 12.667 -51 19 -85 19c-60 0 -109.333 -26.667 -148 -80v-349h-67zM70 -217c28 26 42 51.666 42 76.999c0 10 -3.5 19.5 -10.5 28.5s-10.5 17.167 -10.5 24.5
c0 9.33301 3 17 9 23s14 9 24 9c12.667 0 22.167 -5.16699 28.5 -15.5s9.5 -23.166 9.5 -38.499c0 -43.333 -19 -79.333 -57 -108h-35z" />
    <glyph glyph-name="Rcaron" unicode="&#x158;" horiz-adv-x="717" 
d="M99 700l313 -0.00292969c66 0 119.667 -18.667 161 -56s62 -85.666 62 -144.999c0 -51.333 -15.833 -94.666 -47.5 -129.999s-73.5 -57.666 -125.5 -66.999l199 -302h-82l-188 298h-222v-298h-70v700zM169 358.997h238c46 0 83.667 13 113 39s44 59.667 44 101
c0 40.667 -14.667 74 -44 100s-67 39 -113 39h-238v-279zM357 773.997l-147 78v45l147 -60l147 60v-45z" />
    <glyph glyph-name="rcaron" unicode="&#x159;" horiz-adv-x="424" 
d="M89 0v480h60l3 -66c41.333 49.333 95.333 74 162 74c28 0 53 -4.33301 75 -13v-65c-22.667 12.667 -51 19 -85 19c-60 0 -109.333 -26.667 -148 -80v-349h-67zM91 697l148 -60l147 60v-45l-147 -78l-148 78v45z" />
    <glyph glyph-name="Sacute" unicode="&#x15a;" horiz-adv-x="658" 
d="M69 67l0.00195312 63.001c58 -48 140 -72 246 -72c67.333 0 120 10.833 158 32.5s57 52.167 57 91.5c0 34 -16.167 62.167 -48.5 84.5s-83.833 41.166 -154.5 56.499c-90 19.333 -155.333 45.333 -196 78s-61 75.334 -61 128.001c0 56.667 22 100.667 66 132
s105.667 47 185 47c97.333 0 173.666 -24.333 228.999 -73v-64c-50 48 -123.667 72 -221 72c-60 0 -107 -9.83301 -141 -29.5s-51 -47.5 -51 -83.5c0 -33.333 16.167 -61 48.5 -83s83.166 -40.333 152.499 -55c89.333 -18 154.833 -44 196.5 -78s62.5 -78 62.5 -132
c0 -60.667 -24 -107.334 -72 -140.001s-116 -49 -204 -49c-106.667 0 -190.667 24.667 -252 74zM450.002 850.001l-194 -81v47l194 99v-65z" />
    <glyph glyph-name="sacute" unicode="&#x15b;" horiz-adv-x="519" 
d="M255 213c-66.667 13.333 -115.001 31.334 -145.001 54.001s-45 53 -45 91c0 42 16.333 74.167 49 96.5s79.334 33.5 140.001 33.5c74.667 0 131 -17 169 -51v-62c-34.667 34.667 -88.667 52 -162 52c-42 0 -74.5 -6 -97.5 -18s-34.5 -29 -34.5 -51
c0 -19.333 10.667 -35.5 32 -48.5s55.666 -23.833 102.999 -32.5c66.667 -12.667 115.5 -30.834 146.5 -54.501s46.5 -55.167 46.5 -94.5c0 -43.333 -18 -76.833 -54 -100.5s-87.667 -35.5 -155 -35.5c-79.333 0 -140 17 -182 51v62c38.667 -34.667 98 -52 178 -52
c46.667 0 83.167 6.5 109.5 19.5s39.5 31.5 39.5 55.5c0 20 -10.667 36.667 -32 50s-56.666 25 -105.999 35zM377.999 650.001l-194 -81v47l194 99v-65z" />
    <glyph glyph-name="Scircumflex" unicode="&#x15c;" horiz-adv-x="658" 
d="M69 67l0.00195312 63.001c58 -48 140 -72 246 -72c67.333 0 120 10.833 158 32.5s57 52.167 57 91.5c0 34 -16.167 62.167 -48.5 84.5s-83.833 41.166 -154.5 56.499c-90 19.333 -155.333 45.333 -196 78s-61 75.334 -61 128.001c0 56.667 22 100.667 66 132
s105.667 47 185 47c97.333 0 173.666 -24.333 228.999 -73v-64c-50 48 -123.667 72 -221 72c-60 0 -107 -9.83301 -141 -29.5s-51 -47.5 -51 -83.5c0 -33.333 16.167 -61 48.5 -83s83.166 -40.333 152.499 -55c89.333 -18 154.833 -44 196.5 -78s62.5 -78 62.5 -132
c0 -60.667 -24 -107.334 -72 -140.001s-116 -49 -204 -49c-106.667 0 -190.667 24.667 -252 74zM180.002 774.001v45l147 78l147 -78v-45l-147 60z" />
    <glyph glyph-name="scircumflex" unicode="&#x15d;" horiz-adv-x="519" 
d="M65 358c0 42 16.332 74.168 48.999 96.501s79.334 33.5 140.001 33.5c74.667 0 131 -17 169 -51v-62c-34.667 34.667 -88.667 52 -162 52c-42 0 -74.5 -6 -97.5 -18s-34.5 -29 -34.5 -51c0 -19.333 10.667 -35.5 32 -48.5s55.666 -23.833 102.999 -32.5
c66.667 -12.667 115.5 -30.834 146.5 -54.501s46.5 -55.167 46.5 -94.5c0 -43.333 -18 -76.833 -54 -100.5s-87.667 -35.5 -155 -35.5c-79.333 0 -140 17 -182 51v62c38.667 -34.667 98 -52 178 -52c46.667 0 83.167 6.5 109.5 19.5s39.5 31.5 39.5 55.5
c0 20 -10.667 36.667 -32 50s-56.666 25 -105.999 35c-66.667 13.333 -115 31.333 -145 54s-45 53 -45 91zM106.999 574.001v45l148 78l147 -78v-45l-147 60z" />
    <glyph glyph-name="Scedilla" unicode="&#x15e;" horiz-adv-x="658" 
d="M69 130c58 -48 140.004 -72 246.004 -72c67.333 0 120 10.833 158 32.5s57 52.167 57 91.5c0 34 -16.167 62.167 -48.5 84.5s-83.833 41.166 -154.5 56.499c-90 19.333 -155.333 45.333 -196 78s-61 75.334 -61 128.001c0 56.667 22 100.667 66 132s105.667 47 185 47
c97.333 0 173.666 -24.333 228.999 -73v-64c-50 48 -123.667 72 -221 72c-60 0 -107 -9.83301 -141 -29.5s-51 -47.5 -51 -83.5c0 -33.333 16.167 -61 48.5 -83s83.166 -40.333 152.499 -55c89.333 -18 154.833 -44 196.5 -78s62.5 -78 62.5 -132
c0 -56 -21 -100.167 -63 -132.5s-101.333 -50.833 -178 -55.5l-5 -48c22 -3.33301 40.167 -11.5 54.5 -24.5s21.5 -28.167 21.5 -45.5c0 -20 -8.66699 -36.5 -26 -49.5s-40 -19.5 -68 -19.5c-34 0 -62 9 -84 27v39c21.333 -16.667 45.666 -25 72.999 -25
c17.333 0 31.166 3 41.499 9s15.5 13.667 15.5 23c0 11.333 -6.83301 21 -20.5 29s-32.167 13.333 -55.5 16l7 68c-102.667 2 -183 26.667 -241 74v63z" />
    <glyph glyph-name="scedilla" unicode="&#x15f;" horiz-adv-x="519" 
d="M255 213c-66.667 13.333 -115.001 31.333 -145.001 54s-45 53 -45 91c0 42 16.333 74.167 49 96.5s79.334 33.5 140.001 33.5c74.667 0 131 -17 169 -51v-62c-34.667 34.667 -88.667 52 -162 52c-42 0 -74.5 -6 -97.5 -18s-34.5 -29 -34.5 -51
c0 -19.333 10.667 -35.5 32 -48.5s55.666 -23.833 102.999 -32.5c66.667 -12.667 115.5 -30.834 146.5 -54.501s46.5 -55.167 46.5 -94.5s-14.833 -70.666 -44.5 -93.999s-72.834 -37 -129.501 -41l-5 -47c22.667 -3.33301 41 -11.5 55 -24.5s21 -28.5 21 -46.5
c0 -19.333 -8.66699 -35.5 -26 -48.5s-40 -19.5 -68 -19.5c-33.333 0 -61 9 -83 27v39c20.667 -16.667 45 -25 73 -25c16.667 0 30.167 3 40.5 9s15.5 13.667 15.5 23c0 11.333 -6.83301 21 -20.5 29s-32.167 13.333 -55.5 16l8 67c-75.333 2 -132.666 19 -171.999 51v62
c38.667 -34.667 98 -52 178 -52c46.667 0 83.167 6.5 109.5 19.5s39.5 31.5 39.5 55.5c0 20 -10.667 36.667 -32 50s-56.666 25 -105.999 35z" />
    <glyph glyph-name="Scaron" unicode="&#x160;" horiz-adv-x="658" 
d="M69 67l0.00195312 63.001c58 -48 140 -72 246 -72c67.333 0 120 10.833 158 32.5s57 52.167 57 91.5c0 34 -16.167 62.167 -48.5 84.5s-83.833 41.166 -154.5 56.499c-90 19.333 -155.333 45.333 -196 78s-61 75.334 -61 128.001c0 56.667 22 100.667 66 132
s105.667 47 185 47c97.333 0 173.666 -24.333 228.999 -73v-64c-50 48 -123.667 72 -221 72c-60 0 -107 -9.83301 -141 -29.5s-51 -47.5 -51 -83.5c0 -33.333 16.167 -61 48.5 -83s83.166 -40.333 152.499 -55c89.333 -18 154.833 -44 196.5 -78s62.5 -78 62.5 -132
c0 -60.667 -24 -107.334 -72 -140.001s-116 -49 -204 -49c-106.667 0 -190.667 24.667 -252 74zM327.002 774.001l-147 78v45l147 -60l147 60v-45z" />
    <glyph glyph-name="scaron" unicode="&#x161;" horiz-adv-x="519" 
d="M65 358c0 42 16.332 74.168 48.999 96.501s79.334 33.5 140.001 33.5c74.667 0 131 -17 169 -51v-62c-34.667 34.667 -88.667 52 -162 52c-42 0 -74.5 -6 -97.5 -18s-34.5 -29 -34.5 -51c0 -19.333 10.667 -35.5 32 -48.5s55.666 -23.833 102.999 -32.5
c66.667 -12.667 115.5 -30.834 146.5 -54.501s46.5 -55.167 46.5 -94.5c0 -43.333 -18 -76.833 -54 -100.5s-87.667 -35.5 -155 -35.5c-79.333 0 -140 17 -182 51v62c38.667 -34.667 98 -52 178 -52c46.667 0 83.167 6.5 109.5 19.5s39.5 31.5 39.5 55.5
c0 20 -10.667 36.667 -32 50s-56.666 25 -105.999 35c-66.667 13.333 -115 31.333 -145 54s-45 53 -45 91zM254.999 574.001l-148 78v45l148 -60l147 60v-45z" />
    <glyph glyph-name="uni0162" unicode="&#x162;" horiz-adv-x="709" 
d="M34 638v62h641v-62h-286v-638h-69v638h-286zM302 -217c28 26 42 51.667 42 77c0 10 -3.5 19.5 -10.5 28.5s-10.5 17.167 -10.5 24.5c0 9.33301 3 17 9 23s14 9 24 9c25.333 0 38 -18 38 -54c0 -44 -18.667 -80 -56 -108h-36z" />
    <glyph glyph-name="uni0163" unicode="&#x163;" horiz-adv-x="400" 
d="M189 480h157.002v-58h-157v-279c0 -28 8.16699 -50.167 24.5 -66.5s38.166 -24.5 65.499 -24.5c28 0 50.333 7.33301 67 22v-57c-23.333 -16 -51 -24 -83 -24c-42.667 0 -76.834 12.5 -102.501 37.5s-38.5 58.167 -38.5 99.5v292h-92v58h92v84l67 32v-116zM183.002 -217
c27.333 25.333 41.001 51 41.001 77c0 10 -3.5 19.5 -10.5 28.5s-10.5 17.167 -10.5 24.5c0 9.33301 3.16699 17 9.5 23s14.166 9 23.499 9c25.333 0 38 -18 38 -54c0 -44 -18.667 -80 -56 -108h-35z" />
    <glyph glyph-name="Tcaron" unicode="&#x164;" horiz-adv-x="709" 
d="M320 638h-286v62h641v-62h-286v-638h-69v638zM207 897l148 -60l147 60v-45l-147 -78l-148 78v45z" />
    <glyph glyph-name="tcaron" unicode="&#x165;" horiz-adv-x="422" 
d="M30 422l0.00195312 58h92v84l67 32v-116h157v-58h-157v-279c0 -28 8.16699 -50.167 24.5 -66.5s38.166 -24.5 65.499 -24.5c28 0 50.333 7.33301 67 22v-57c-23.333 -16 -51 -24 -83 -24c-42.667 0 -76.834 12.5 -102.501 37.5s-38.5 58.167 -38.5 99.5v292h-92z
M315.002 540l-39 0.000976562c28.667 32.667 43 64 43 94c0 11.333 -3.5 22.166 -10.5 32.499s-10.5 19.5 -10.5 27.5c0 10 3.16699 18.333 9.5 25s14.833 10 25.5 10c14 0 24.667 -6.16699 32 -18.5s11 -27.833 11 -46.5c0 -48 -20.333 -89.333 -61 -124z" />
    <glyph glyph-name="Tbar" unicode="&#x166;" horiz-adv-x="709" 
d="M34 638v62h641v-62h-286v-269h149v-46h-149v-323h-69v323h-150v46h150v269h-286z" />
    <glyph glyph-name="tbar" unicode="&#x167;" horiz-adv-x="400" 
d="M30 422l0.00195312 58h92v84l67 32v-116h157v-58h-157v-122h147v-46h-147v-111c0 -28 8.16699 -50.167 24.5 -66.5s38.166 -24.5 65.499 -24.5c28 0 50.333 7.33301 67 22v-57c-23.333 -16 -51 -24 -83 -24c-42.667 0 -76.834 12.5 -102.501 37.5
s-38.5 58.167 -38.5 99.5v124h-82v46h82v122h-92z" />
    <glyph glyph-name="Utilde" unicode="&#x168;" horiz-adv-x="828" 
d="M91 303l-0.000976562 397h69v-394c0 -73.333 23.667 -133.166 71 -179.499s108.666 -69.5 183.999 -69.5c74.667 0 135.334 23.167 182.001 69.5s70 106.166 70 179.499v394h70v-397c0 -92 -29.833 -166.833 -89.5 -224.5s-137.167 -86.5 -232.5 -86.5
s-173.166 29 -233.499 87s-90.5 132.667 -90.5 224zM349.999 890c22 0 44.501 -9.5 67.501 -28.5s40.833 -28.5 53.5 -28.5c13.333 0 24.5 5 33.5 15s13.5 22.333 13.5 37h52c0 -29.333 -8.83301 -53.666 -26.5 -72.999s-39.834 -29 -66.501 -29
c-21.333 0 -43.5 9.33301 -66.5 28s-41.167 28 -54.5 28s-24.333 -4.83301 -33 -14.5s-13 -21.834 -13 -36.501h-52c0 30 8.5 54.5 25.5 73.5s39.167 28.5 66.5 28.5z" />
    <glyph glyph-name="utilde" unicode="&#x169;" horiz-adv-x="616" 
d="M84 200l0.000976562 280.002h67v-281c0 -46.667 14 -82.834 42 -108.501s67.333 -38.5 118 -38.5c60 0 109.667 21 149 63v365h67v-480h-60l-5 51c-40.667 -38.667 -94.334 -58 -161.001 -58c-68 0 -121.167 18.167 -159.5 54.5s-57.5 87.166 -57.5 152.499z
M149.001 588.002c0 30 8.66699 54.5 26 73.5s39.666 28.5 66.999 28.5c22 0 44.5 -9.5 67.5 -28.5s40.833 -28.5 53.5 -28.5c13.333 0 24.333 4.83301 33 14.5s13 22.167 13 37.5h52c0 -29.333 -8.66699 -53.666 -26 -72.999s-39.333 -29 -66 -29
c-21.333 0 -43.666 9.33301 -66.999 28s-41.333 28 -54 28c-13.333 0 -24.5 -4.83301 -33.5 -14.5s-13.5 -21.834 -13.5 -36.501h-52z" />
    <glyph glyph-name="Umacron" unicode="&#x16a;" horiz-adv-x="828" 
d="M91 303l-0.000976562 397h69v-394c0 -73.333 23.667 -133.166 71 -179.499s108.666 -69.5 183.999 -69.5c74.667 0 135.334 23.167 182.001 69.5s70 106.166 70 179.499v394h70v-397c0 -92 -29.833 -166.833 -89.5 -224.5s-137.167 -86.5 -232.5 -86.5
s-173.166 29 -233.499 87s-90.5 132.667 -90.5 224zM542.999 801h-259v45h259v-45z" />
    <glyph glyph-name="umacron" unicode="&#x16b;" horiz-adv-x="616" 
d="M84 480l67.001 0.00195312v-281c0 -46.667 14 -82.834 42 -108.501s67.333 -38.5 118 -38.5c60 0 109.667 21 149 63v365h67v-480h-60l-5 51c-40.667 -38.667 -94.334 -58 -161.001 -58c-68 0 -121.167 18.167 -159.5 54.5s-57.5 87.166 -57.5 152.499v280z
M435.001 601.002h-259v45h259v-45z" />
    <glyph glyph-name="Ubreve" unicode="&#x16c;" horiz-adv-x="828" 
d="M91 303l-0.000976562 397h69v-394c0 -73.333 23.667 -133.166 71 -179.499s108.666 -69.5 183.999 -69.5c74.667 0 135.334 23.167 182.001 69.5s70 106.166 70 179.499v394h70v-397c0 -92 -29.833 -166.833 -89.5 -224.5s-137.167 -86.5 -232.5 -86.5
s-173.166 29 -233.499 87s-90.5 132.667 -90.5 224zM279.999 842v47c39.333 -36 84.333 -54 135 -54c48.667 0 93 18 133 54v-47c-32.667 -39.333 -77 -59 -133 -59c-58 0 -103 19.667 -135 59z" />
    <glyph glyph-name="ubreve" unicode="&#x16d;" horiz-adv-x="616" 
d="M301 -7c-68 0 -121.166 18.1689 -159.499 54.502s-57.5 87.166 -57.5 152.499v280h67v-281c0 -46.667 14 -82.834 42 -108.501s67.333 -38.5 118 -38.5c60 0 109.667 21 149 63v365h67v-480h-60l-5 51c-40.667 -38.667 -94.334 -58 -161.001 -58zM172.001 642.002
l0.000976562 47c39.333 -36 84 -54 134 -54c49.333 0 93.666 18 132.999 54v-47c-32 -39.333 -76.333 -59 -133 -59c-57.333 0 -102 19.667 -134 59z" />
    <glyph glyph-name="Uring" unicode="&#x16e;" horiz-adv-x="828" 
d="M91 303l-0.000976562 397h69v-394c0 -73.333 23.667 -133.166 71 -179.499s108.666 -69.5 183.999 -69.5c74.667 0 135.334 23.167 182.001 69.5s70 106.166 70 179.499v394h70v-397c0 -92 -29.833 -166.833 -89.5 -224.5s-137.167 -86.5 -232.5 -86.5
s-173.166 29 -233.499 87s-90.5 132.667 -90.5 224zM413.999 955c23.333 0 43.5 -8.5 60.5 -25.5s25.5 -37.167 25.5 -60.5s-8.5 -43.5 -25.5 -60.5s-37.167 -25.5 -60.5 -25.5c-24 0 -44.333 8.5 -61 25.5s-25 37.167 -25 60.5s8.33301 43.5 25 60.5s37 25.5 61 25.5z
M413.999 822c12.667 0 23.667 4.66699 33 14s14 20.333 14 33s-4.66699 23.667 -14 33s-20.333 14 -33 14s-23.667 -4.66699 -33 -14s-14 -20.333 -14 -33s4.5 -23.667 13.5 -33s20.167 -14 33.5 -14z" />
    <glyph glyph-name="uring" unicode="&#x16f;" horiz-adv-x="616" 
d="M84 200l0.000976562 280.002h67v-281c0 -46.667 14 -82.834 42 -108.501s67.333 -38.5 118 -38.5c60 0 109.667 21 149 63v365h67v-480h-60l-5 51c-40.667 -38.667 -94.334 -58 -161.001 -58c-68 0 -121.167 18.167 -159.5 54.5s-57.5 87.166 -57.5 152.499z
M305.001 583.002c-23.333 0 -43.5 8.5 -60.5 25.5s-25.5 37.167 -25.5 60.5s8.5 43.5 25.5 60.5s37.167 25.5 60.5 25.5c24 0 44.5 -8.5 61.5 -25.5s25.5 -37.167 25.5 -60.5s-8.5 -43.5 -25.5 -60.5s-37.5 -25.5 -61.5 -25.5zM258.001 669.002
c0 -12.667 4.66699 -23.667 14 -33s20.333 -14 33 -14s23.667 4.66699 33 14s14 20.333 14 33s-4.66699 23.667 -14 33s-20.333 14 -33 14s-23.667 -4.66699 -33 -14s-14 -20.333 -14 -33z" />
    <glyph glyph-name="Uhungarumlaut" unicode="&#x170;" horiz-adv-x="828" 
d="M91 303l-0.000976562 397h69v-394c0 -73.333 23.667 -133.166 71 -179.499s108.666 -69.5 183.999 -69.5c74.667 0 135.334 23.167 182.001 69.5s70 106.166 70 179.499v394h70v-397c0 -92 -29.833 -166.833 -89.5 -224.5s-137.167 -86.5 -232.5 -86.5
s-173.166 29 -233.499 87s-90.5 132.667 -90.5 224zM457.999 767l94 133h69l-118 -133h-45zM290.999 767l95 133h68l-118 -133h-45z" />
    <glyph glyph-name="uhungarumlaut" unicode="&#x171;" horiz-adv-x="616" 
d="M84 200l0.000976562 280.002h67v-281c0 -46.667 14 -82.834 42 -108.501s67.333 -38.5 118 -38.5c60 0 109.667 21 149 63v365h67v-480h-60l-5 51c-40.667 -38.667 -94.334 -58 -161.001 -58c-68 0 -121.167 18.167 -159.5 54.5s-57.5 87.166 -57.5 152.499z
M228.001 567.002h-45l94 133h69zM394.001 567.002h-45l95 133h68z" />
    <glyph glyph-name="Uogonek" unicode="&#x172;" horiz-adv-x="828" 
d="M91 303l0.00292969 397h69v-394c0 -73.333 23.667 -133.166 71 -179.499s108.666 -69.5 183.999 -69.5c74.667 0 135.334 23.167 182.001 69.5s70 106.166 70 179.499v394h70v-397c0 -78 -22.333 -144.333 -67 -199s-104.334 -89.667 -179.001 -105
c-39.333 -20.667 -59 -50 -59 -88c0 -20 6.66699 -36.333 20 -49s30.666 -19 51.999 -19c35.333 0 65.333 15.667 90 47v-48c-26.667 -30 -60.334 -45 -101.001 -45c-32.667 0 -59.334 9.5 -80.001 28.5s-31 43.5 -31 73.5c0 38.667 16.333 69.667 49 93h-16
c-95.333 0 -173.166 29 -233.499 87s-90.5 132.667 -90.5 224z" />
    <glyph glyph-name="uogonek" unicode="&#x173;" horiz-adv-x="616" 
d="M301 -7c-68 0 -121.164 18.1689 -159.497 54.502s-57.5 87.166 -57.5 152.499v280h67v-281c0 -46.667 14 -82.834 42 -108.501s67.333 -38.5 118 -38.5c60 0 109.667 21 149 63v365h67v-480h-10c-47.333 -20.667 -71 -52 -71 -94c0 -20 6.66699 -36.333 20 -49
s30.666 -19 51.999 -19c36.667 0 66.667 15.667 90 47v-48c-26 -30 -59.333 -45 -100 -45c-32.667 0 -59.334 9.5 -80.001 28.5s-31 43.5 -31 73.5c0 22.667 6.16699 43.5 18.5 62.5s29.833 33.5 52.5 43.5h-1l-5 51c-40.667 -38.667 -94.334 -58 -161.001 -58z" />
    <glyph glyph-name="Wcircumflex" unicode="&#x174;" horiz-adv-x="1150" 
d="M29 700h76l225 -575l228 575h33l228 -575l226 575h76l-284 -700h-33l-229 577l-229 -577h-34zM575 834l-148 -60v45l148 78l147 -78v-45z" />
    <glyph glyph-name="wcircumflex" unicode="&#x175;" horiz-adv-x="821" 
d="M24 480h69l151 -370l150 370h33l150 -370l151 370h69l-203 -480h-34l-149 371l-150 -371h-33zM411 634l-147 -60v45l147 78l147 -78v-45z" />
    <glyph glyph-name="Ycircumflex" unicode="&#x176;" horiz-adv-x="709" 
d="M320 302l-293 398h85l243 -334l242 334h85l-293 -399v-301h-69v302zM355 834l-148 -60v45l148 78l147 -78v-45z" />
    <glyph glyph-name="ycircumflex" unicode="&#x177;" horiz-adv-x="567" 
d="M250 34l-226 446h70l190 -376l189 376h71l-345 -680h-72zM137 574v45l147 78l148 -78v-45l-148 60z" />
    <glyph glyph-name="Ydieresis" unicode="&#x178;" horiz-adv-x="709" 
d="M320 302l-293 398h85l243 -334l242 334h85l-293 -399v-301h-69v302zM462 883c12 0 21.667 -3.66699 29 -11s11 -17.333 11 -30c0 -12 -3.66699 -21.833 -11 -29.5s-17 -11.5 -29 -11.5c-12.667 0 -22.834 3.83301 -30.501 11.5s-11.5 17.5 -11.5 29.5
c0 12.667 3.83301 22.667 11.5 30s17.834 11 30.501 11zM248 883c12 0 21.833 -3.66699 29.5 -11s11.5 -17.333 11.5 -30c0 -12 -3.83301 -21.833 -11.5 -29.5s-17.5 -11.5 -29.5 -11.5s-21.833 3.83301 -29.5 11.5s-11.5 17.5 -11.5 29.5c0 12.667 3.83301 22.667 11.5 30
s17.5 11 29.5 11z" />
    <glyph glyph-name="Zacute" unicode="&#x179;" horiz-adv-x="758" 
d="M689 0h-620v32l507 606h-502v62h610v-32l-508 -606h513v-62zM308 816l195 99v-65l-195 -81v47z" />
    <glyph glyph-name="zacute" unicode="&#x17a;" horiz-adv-x="543" 
d="M494 0h-440v32l332 390h-327v58h430v-32l-333 -390h338v-58zM203 616l195 99v-65l-195 -81v47z" />
    <glyph glyph-name="Zdotaccent" unicode="&#x17b;" horiz-adv-x="758" 
d="M69 0v32l507 606h-502v62h610v-32l-508 -606h513v-62h-620zM379 801c-14 0 -25.333 4.5 -34 13.5s-13 20.5 -13 34.5s4.33301 25.333 13 34s20 13 34 13c14.667 0 26.334 -4.33301 35.001 -13s13 -20 13 -34s-4.33301 -25.5 -13 -34.5s-20.334 -13.5 -35.001 -13.5z" />
    <glyph glyph-name="zdotaccent" unicode="&#x17c;" horiz-adv-x="543" 
d="M54 0v32l332 390h-327v58h430v-32l-333 -390h338v-58h-440zM274 601c-14 0 -25.333 4.5 -34 13.5s-13 20.5 -13 34.5s4.33301 25.333 13 34s20 13 34 13c14.667 0 26.334 -4.33301 35.001 -13s13 -20 13 -34s-4.33301 -25.5 -13 -34.5s-20.334 -13.5 -35.001 -13.5z" />
    <glyph glyph-name="Zcaron" unicode="&#x17d;" horiz-adv-x="758" 
d="M689 0h-620v32l507 606h-502v62h610v-32l-508 -606h513v-62zM379 774l-147 78v45l147 -60l148 60v-45z" />
    <glyph glyph-name="zcaron" unicode="&#x17e;" horiz-adv-x="543" 
d="M494 0h-440v32l332 390h-327v58h430v-32l-333 -390h338v-58zM127 652v45l147 -60l148 60v-45l-148 -78z" />
    <glyph glyph-name="uni018F" unicode="&#x18f;" horiz-adv-x="817" 
d="M67 371l613.997 0.000976562c-7.33301 82 -41.666 147.833 -102.999 197.5s-139.333 74.5 -234 74.5c-100 0 -180.667 -28 -242 -84v67c70 54.667 156 82 258 82c116.667 0 211 -33.333 283 -100s108 -154.334 108 -263.001c0 -103.333 -31.833 -187.833 -95.5 -253.5
s-146.167 -98.5 -247.5 -98.5c-105.333 0 -189.666 35 -252.999 105s-92.666 161 -87.999 273zM403.997 58.001c77.333 0 141.167 23.5 191.5 70.5s78.833 107.833 85.5 182.5h-543c4 -76.667 30.5 -138 79.5 -184s111.167 -69 186.5 -69z" />
    <glyph glyph-name="florin" unicode="&#x192;" horiz-adv-x="417" 
d="M-12 -208c-29.333 0 -55.335 7 -78.002 21l7 56c16.667 -12.667 37.667 -19 63 -19c28 0 51.667 9 71 27s31 41.667 35 71l60 424h-93l8 58h93l21 152c6.66699 44 24.834 79.333 54.501 106s65.834 40 108.501 40c30 0 56.333 -7 79 -21l-9 -56
c-14.667 12.667 -35.334 19 -62.001 19c-28 0 -51.667 -9 -71 -27s-31 -41.667 -35 -71l-20 -142h157l-8 -58h-157l-61 -434c-6.66699 -44 -24.667 -79.333 -54 -106s-65.666 -40 -108.999 -40z" />
    <glyph glyph-name="uni01DD" unicode="&#x1dd;" horiz-adv-x="591" 
d="M61 259l408.002 0.000976562c-6 51.333 -28.833 92.333 -68.5 123s-90.167 46 -151.5 46c-66.667 0 -121.334 -18.667 -164.001 -56v65c48 34 105.667 51 173 51c83.333 0 150.5 -23 201.5 -69s76.5 -107 76.5 -183c0 -71.333 -22.333 -129.833 -67 -175.5
s-102.334 -68.5 -173.001 -68.5c-73.333 0 -131.833 24.667 -175.5 74s-63.5 113.666 -59.5 192.999zM295.002 50.001c47.333 0 86.667 14.167 118 42.5s50 65.5 56 111.5h-342c3.33301 -46 20.5 -83.167 51.5 -111.5s69.833 -42.5 116.5 -42.5z" />
    <glyph glyph-name="Aringacute" unicode="&#x1fa;" 
d="M106 0l-76.998 0.000976562l342 674c-16.667 6 -30.334 16.5 -41.001 31.5s-16 31.5 -16 49.5c0 23.333 8.5 43.5 25.5 60.5s37.167 25.5 60.5 25.5c6 0 10.667 -0.333008 14 -1l63 100h68l-92 -117c22.667 -17.333 34 -40 34 -68c0 -18 -5.33301 -34.333 -16 -49
s-24.334 -25.334 -41.001 -32.001l341 -674h-77l-86 173h-416zM400.002 592.001l-177 -357h354zM400.002 708.001c12.667 0 23.667 4.66699 33 14s14 20.333 14 33s-4.5 23.667 -13.5 33s-20.167 14 -33.5 14c-12.667 0 -23.667 -4.66699 -33 -14s-14 -20.333 -14 -33
s4.66699 -23.667 14 -33s20.333 -14 33 -14z" />
    <glyph glyph-name="aringacute" unicode="&#x1fb;" horiz-adv-x="563" 
d="M247 -6c-58.667 0 -104.833 12.167 -138.5 36.5s-50.5 58.166 -50.5 101.499c0 46.667 19.333 82.834 58 108.501s92 38.5 160 38.5c32.667 0 73.667 -3.66699 123 -11v35c0 81.333 -51.333 122 -154 122c-63.333 0 -114 -15.333 -152 -46v62
c42.667 29.333 97.334 44 164.001 44c68 0 119.833 -15 155.5 -45s53.5 -73.667 53.5 -131v-218c0 -29.333 21.333 -44 64 -44v-45c-10.667 -4 -24 -6 -40 -6c-40.667 0 -68.334 15 -83.001 45c-42 -31.333 -95.333 -47 -160 -47zM288.001 223
c-51.333 0 -91.334 -7.83203 -120.001 -23.499s-43 -37.834 -43 -66.501c0 -25.333 11.667 -45.333 35 -60s55.333 -22 96 -22c60.667 0 108.334 16.667 143.001 50v113c-52.667 6 -89.667 9 -111 9zM181 608.001c0 23.333 8.5 43.499 25.5 60.499s37.5 25.5 61.5 25.5
c5.33301 0 9 -0.333008 11 -1l64 101h66l-91 -116c24 -17.333 36 -40.666 36 -69.999c0 -23.333 -8.5 -43.5 -25.5 -60.5s-37.167 -25.5 -60.5 -25.5c-24 0 -44.5 8.5 -61.5 25.5s-25.5 37.167 -25.5 60.5zM268 655c-12.667 0 -23.667 -4.66699 -33 -14s-14 -20.333 -14 -33
s4.66699 -23.667 14 -33s20.333 -14 33 -14s23.667 4.66699 33 14s14 20.333 14 33s-4.66699 23.667 -14 33s-20.333 14 -33 14z" />
    <glyph glyph-name="AEacute" unicode="&#x1fc;" horiz-adv-x="1001" 
d="M29 0l409 700h511v-62h-416v-254h341v-61h-341v-261h421v-62h-491v175h-254l-101 -175h-79zM463 614l-219 -378h219v378zM421 816l194 99v-65l-194 -81v47z" />
    <glyph glyph-name="aeacute" unicode="&#x1fd;" horiz-adv-x="935" 
d="M58 133c0 46 19.166 81.832 57.499 107.499s91.5 38.5 159.5 38.5c34.667 0 76 -3.66699 124 -11v35c0 81.333 -51.333 122 -154 122c-63.333 0 -114 -15.333 -152 -46v62c42.667 29.333 97.334 44 164.001 44c96.667 0 159.667 -29.667 189 -89
c45.333 61.333 109.666 92 192.999 92c73.333 0 131.833 -24.667 175.5 -74s63.5 -113.666 59.5 -192.999h-408c6 -51.333 28.833 -92.333 68.5 -123s90.167 -46 151.5 -46c66.667 0 121.334 18.667 164.001 56v-65c-48 -34 -106.333 -51 -175 -51
c-102 0 -178.667 34 -230 102c-41.333 -66.667 -109 -100 -203 -100c-55.333 0 -99.833 12.333 -133.5 37s-50.5 58.667 -50.5 102zM465.999 275.999h342.001c-3.33301 46 -20.333 83.167 -51 111.5s-69.667 42.5 -117 42.5c-46.667 0 -85.834 -14.167 -117.501 -42.5
s-50.5 -65.5 -56.5 -111.5zM287 222.999c-51.333 0 -91.167 -7.83203 -119.5 -23.499s-42.5 -37.834 -42.5 -66.501c0 -25.333 11.5 -45.333 34.5 -60s53.167 -22 90.5 -22c77.333 0 134 29.333 170 88c-10.667 23.333 -17 48.333 -19 75c-52.667 6 -90.667 9 -114 9z
M589.999 650l-194 -81v47l194 99v-65z" />
    <glyph glyph-name="Oslashacute" unicode="&#x1fe;" horiz-adv-x="854" 
d="M427 708c59.333 0 113.333 -10.667 162 -32l27 47l39 -23l-26 -45c50 -30.667 89 -72.5 117 -125.5s42 -112.833 42 -179.5c0 -106 -33.5 -192.167 -100.5 -258.5s-153.833 -99.5 -260.5 -99.5c-59.333 0 -113.333 10.667 -162 32l-27 -47l-39 23l26 46
c-50 30 -89 71.5 -117 124.5s-42 112.833 -42 179.5c0 106 33.5 192.167 100.5 258.5s153.833 99.5 260.5 99.5zM427 57c85.333 0 154.999 27.1689 208.999 81.502s81 124.833 81 211.5c0 53.333 -10.667 101.166 -32 143.499s-51.333 76.166 -90 101.499l-296 -512
c38.667 -17.333 81.334 -26 128.001 -26zM136.999 350.002c0 -53.333 10.668 -101.168 32.001 -143.501s51.333 -76.166 90 -101.499l296 512c-38.667 17.333 -81.334 26 -128.001 26c-85.333 0 -155 -27.167 -209 -81.5s-81 -124.833 -81 -211.5zM550 850l-194 -81v47
l194 99v-65z" />
    <glyph glyph-name="oslashacute" unicode="&#x1ff;" horiz-adv-x="614" 
d="M161 33l-42.999 -52l-34 28l43 51c-47.333 46 -71 106 -71 180c0 73.333 23.333 133 70 179s107 69 181 69c55.333 0 103.666 -13.333 144.999 -40l43 51l34 -28l-42 -50c47.333 -46 71 -106.333 71 -181c0 -73.333 -23.167 -133 -69.5 -179s-106.833 -69 -181.5 -69
c-55.333 0 -104 13.667 -146 41zM446.001 372l-245 -292c30.667 -20 66 -30 106 -30c55.333 0 100.333 17.667 135 53s52 81 52 137c0 52.667 -16 96.667 -48 132zM167.001 108l246 293c-30.667 19.333 -66 29 -106 29c-55.333 0 -100.333 -17.667 -135 -53
s-52 -81 -52 -137c0 -53.333 15.667 -97.333 47 -132zM236.001 616l194 99v-65l-194 -81v47z" />
    <glyph glyph-name="uni0218" unicode="&#x218;" horiz-adv-x="658" 
d="M69 67l0.00195312 63.001c58 -48 140 -72 246 -72c67.333 0 120 10.833 158 32.5s57 52.167 57 91.5c0 34 -16.167 62.167 -48.5 84.5s-83.833 41.166 -154.5 56.499c-90 19.333 -155.333 45.333 -196 78s-61 75.334 -61 128.001c0 56.667 22 100.667 66 132
s105.667 47 185 47c97.333 0 173.666 -24.333 228.999 -73v-64c-50 48 -123.667 72 -221 72c-60 0 -107 -9.83301 -141 -29.5s-51 -47.5 -51 -83.5c0 -33.333 16.167 -61 48.5 -83s83.166 -40.333 152.499 -55c89.333 -18 154.833 -44 196.5 -78s62.5 -78 62.5 -132
c0 -60.667 -24 -107.334 -72 -140.001s-116 -49 -204 -49c-106.667 0 -190.667 24.667 -252 74zM282.002 -216.999c27.333 25.333 41 51 41 77c0 10 -3.5 19.5 -10.5 28.5s-10.5 17.167 -10.5 24.5c0 9.33301 3 17 9 23s14 9 24 9c25.333 0 38 -18 38 -54
c0 -44 -18.667 -80 -56 -108h-35z" />
    <glyph glyph-name="uni0219" unicode="&#x219;" horiz-adv-x="519" 
d="M65 358c0 42 16.332 74.168 48.999 96.501s79.334 33.5 140.001 33.5c74.667 0 131 -17 169 -51v-62c-34.667 34.667 -88.667 52 -162 52c-42 0 -74.5 -6 -97.5 -18s-34.5 -29 -34.5 -51c0 -19.333 10.667 -35.5 32 -48.5s55.666 -23.833 102.999 -32.5
c66.667 -12.667 115.5 -30.834 146.5 -54.501s46.5 -55.167 46.5 -94.5c0 -43.333 -18 -76.833 -54 -100.5s-87.667 -35.5 -155 -35.5c-79.333 0 -140 17 -182 51v62c38.667 -34.667 98 -52 178 -52c46.667 0 83.167 6.5 109.5 19.5s39.5 31.5 39.5 55.5
c0 20 -10.667 36.667 -32 50s-56.666 25 -105.999 35c-66.667 13.333 -115 31.333 -145 54s-45 53 -45 91zM208.999 -216.999c28 26 42 51.666 42 76.999c0 10 -3.66699 19.5 -11 28.5s-11 17.167 -11 24.5c0 9.33301 3.16699 17 9.5 23s14.166 9 23.499 9
c12.667 0 22.334 -5.16699 29.001 -15.5s10 -23.166 10 -38.499c0 -43.333 -19 -79.333 -57 -108h-35z" />
    <glyph glyph-name="uni021A" unicode="&#x21a;" horiz-adv-x="709" 
d="M34 638v62h641v-62h-286v-638h-69v638h-286zM302 -217c28 26 42 51.667 42 77c0 10 -3.5 19.5 -10.5 28.5s-10.5 17.167 -10.5 24.5c0 9.33301 3 17 9 23s14 9 24 9c25.333 0 38 -18 38 -54c0 -44 -18.667 -80 -56 -108h-36z" />
    <glyph glyph-name="uni021B" unicode="&#x21b;" horiz-adv-x="400" 
d="M189 480h157.002v-58h-157v-279c0 -28 8.16699 -50.167 24.5 -66.5s38.166 -24.5 65.499 -24.5c28 0 50.333 7.33301 67 22v-57c-23.333 -16 -51 -24 -83 -24c-42.667 0 -76.834 12.5 -102.501 37.5s-38.5 58.167 -38.5 99.5v292h-92v58h92v84l67 32v-116zM183.002 -217
c27.333 25.333 41.001 51 41.001 77c0 10 -3.5 19.5 -10.5 28.5s-10.5 17.167 -10.5 24.5c0 9.33301 3.16699 17 9.5 23s14.166 9 23.499 9c25.333 0 38 -18 38 -54c0 -44 -18.667 -80 -56 -108h-35z" />
    <glyph glyph-name="uni0237" unicode="&#x237;" horiz-adv-x="245" 
d="M9 -153c24.667 0 44.167 5.83301 58.5 17.5s21.5 27.167 21.5 46.5v569h67v-578c0 -31.333 -10 -57 -30 -77s-45.667 -30 -77 -30c-14 0 -27.333 2.33301 -40 7v45z" />
    <glyph glyph-name="uni0259" unicode="&#x259;" horiz-adv-x="591" 
d="M61 259l408.002 0.000976562c-6 51.333 -28.833 92.333 -68.5 123s-90.167 46 -151.5 46c-66.667 0 -121.334 -18.667 -164.001 -56v65c48 34 105.667 51 173 51c83.333 0 150.5 -23 201.5 -69s76.5 -107 76.5 -183c0 -71.333 -22.333 -129.833 -67 -175.5
s-102.334 -68.5 -173.001 -68.5c-73.333 0 -131.833 24.667 -175.5 74s-63.5 113.666 -59.5 192.999zM295.002 50.001c47.333 0 86.667 14.167 118 42.5s50 65.5 56 111.5h-342c3.33301 -46 20.5 -83.167 51.5 -111.5s69.833 -42.5 116.5 -42.5z" />
    <glyph glyph-name="circumflex" unicode="&#x2c6;" horiz-adv-x="450" 
d="M78 625l147 78l147 -78v-45l-147 60l-147 -60v45z" />
    <glyph glyph-name="caron" unicode="&#x2c7;" horiz-adv-x="450" 
d="M78 657v45l147 -59l147 59v-45l-147 -77z" />
    <glyph glyph-name="breve" unicode="&#x2d8;" horiz-adv-x="450" 
d="M91 642v47c39.333 -36 84.333 -54 135 -54c48.667 0 93 18 133 54v-47c-32.667 -40 -77 -60 -133 -60c-56.667 0 -101.667 20 -135 60z" />
    <glyph glyph-name="dotaccent" unicode="&#x2d9;" horiz-adv-x="251" 
d="M77 649c0 14 4.5 25.332 13.5 33.999s20.833 13 35.5 13c13.333 0 24.5 -4.33301 33.5 -13s13.5 -20 13.5 -34s-4.5 -25.5 -13.5 -34.5s-20.167 -13.5 -33.5 -13.5c-14.667 0 -26.5 4.33301 -35.5 13s-13.5 20.334 -13.5 35.001z" />
    <glyph glyph-name="ring" unicode="&#x2da;" horiz-adv-x="327" 
d="M164 755c23.333 0 43.5 -8.5 60.5 -25.5s25.5 -37.167 25.5 -60.5s-8.5 -43.666 -25.5 -60.999s-37.167 -26 -60.5 -26c-24 0 -44.5 8.66699 -61.5 26s-25.5 37.666 -25.5 60.999s8.5 43.5 25.5 60.5s37.5 25.5 61.5 25.5zM117 669c0 -12.667 4.5 -23.667 13.5 -33
s20.167 -14 33.5 -14c12.667 0 23.667 4.66699 33 14s14 20.333 14 33s-4.66699 23.667 -14 33s-20.333 14 -33 14s-23.667 -4.66699 -33 -14s-14 -20.333 -14 -33z" />
    <glyph glyph-name="ogonek" unicode="&#x2db;" horiz-adv-x="366" 
d="M77 -106c0 22.667 6.33301 43.502 19 62.502s30.334 33.5 53.001 43.5h49c-22.667 -10 -40.167 -23.333 -52.5 -40s-18.5 -34.334 -18.5 -53.001c0 -20.667 6.66699 -37.334 20 -50.001s30.666 -19 51.999 -19c36 0 66 15.333 90 46v-47c-26 -30 -59.333 -45 -100 -45
c-32.667 0 -59.5 9.5 -80.5 28.5s-31.5 43.5 -31.5 73.5z" />
    <glyph glyph-name="tilde" unicode="&#x2dc;" horiz-adv-x="467" 
d="M130 587h-52.999c0 30 8.66699 54.5 26 73.5s39.666 28.5 66.999 28.5c22 0 44.5 -9.33301 67.5 -28s40.833 -28 53.5 -28c13.333 0 24.333 4.83301 33 14.5s13 22.167 13 37.5h53c0 -29.333 -8.83301 -53.833 -26.5 -73.5s-39.834 -29.5 -66.501 -29.5
c-21.333 0 -43.666 9.5 -66.999 28.5s-41.333 28.5 -54 28.5c-13.333 0 -24.333 -4.83301 -33 -14.5s-13 -22.167 -13 -37.5z" />
    <glyph glyph-name="hungarumlaut" unicode="&#x2dd;" horiz-adv-x="485" 
d="M244 567l95 133h68l-118 -133h-45zM122 567h-44l94 133h69z" />
    <glyph glyph-name="uni0400" unicode="&#x400;" horiz-adv-x="667" 
d="M99 0v700h516v-62h-446v-254h371v-61h-371v-261h451v-62h-521zM431 769l-191 80v66l191 -99v-47z" />
    <glyph glyph-name="uni0401" unicode="&#x401;" horiz-adv-x="667" 
d="M99 0v700h516v-62h-446v-254h371v-61h-371v-261h451v-62h-521zM467 801c-12.667 0 -22.667 3.83301 -30 11.5s-11 17.5 -11 29.5c0 12.667 3.66699 22.667 11 30s17.333 11 30 11c12 0 21.833 -3.66699 29.5 -11s11.5 -17.333 11.5 -30
c0 -12 -3.83301 -21.833 -11.5 -29.5s-17.5 -11.5 -29.5 -11.5zM253 801c-12 0 -21.833 3.83301 -29.5 11.5s-11.5 17.5 -11.5 29.5c0 12.667 3.83301 22.667 11.5 30s17.5 11 29.5 11c12.667 0 22.667 -3.66699 30 -11s11 -17.333 11 -30c0 -12 -3.66699 -21.833 -11 -29.5
s-17.333 -11.5 -30 -11.5z" />
    <glyph glyph-name="uni0402" unicode="&#x402;" horiz-adv-x="941" 
d="M320 638h-286v62h641v-62h-286v-263c54.667 32.667 125.334 49 212.001 49c90 0 157.667 -19.333 203 -58s68 -95 68 -169v-260c0 -44 -13 -79 -39 -105s-60.667 -39 -104 -39c-32.667 0 -60.667 8 -84 24v60c16.667 -14.667 39 -22 67 -22
c27.333 0 49.166 8.16699 65.499 24.5s24.5 38.5 24.5 66.5v249c0 111.333 -69.667 167 -209 167c-81.333 0 -149.333 -16.667 -204 -50v-312h-69v638z" />
    <glyph glyph-name="uni0403" unicode="&#x403;" horiz-adv-x="622" 
d="M99 700h489v-62h-419v-638h-70v700zM273 769v47l195 99v-65z" />
    <glyph glyph-name="uni0404" unicode="&#x404;" horiz-adv-x="736" 
d="M52 350c0 106 33.833 192.167 101.5 258.5s155.5 99.5 263.5 99.5c97.333 0 179 -28.667 245 -86v-77c-56.667 65.333 -135.667 98 -237 98c-82.667 0 -151.5 -23.833 -206.5 -71.5s-86.167 -110.167 -93.5 -187.5h421v-61h-422c6 -79.333 36.667 -143.5 92 -192.5
s125 -73.5 209 -73.5c100.667 0 179.667 33 237 99v-77c-65.333 -58 -147 -87 -245 -87c-108 0 -195.833 33.167 -263.5 99.5s-101.5 152.5 -101.5 258.5z" />
    <glyph glyph-name="uni0405" unicode="&#x405;" horiz-adv-x="658" 
d="M69 67l0.00195312 63.001c58 -48 140 -72 246 -72c67.333 0 120 10.833 158 32.5s57 52.167 57 91.5c0 34 -16.167 62.167 -48.5 84.5s-83.833 41.166 -154.5 56.499c-90 19.333 -155.333 45.333 -196 78s-61 75.334 -61 128.001c0 56.667 22 100.667 66 132
s105.667 47 185 47c97.333 0 173.666 -24.333 228.999 -73v-64c-50 48 -123.667 72 -221 72c-60 0 -107 -9.83301 -141 -29.5s-51 -47.5 -51 -83.5c0 -33.333 16.167 -61 48.5 -83s83.166 -40.333 152.499 -55c89.333 -18 154.833 -44 196.5 -78s62.5 -78 62.5 -132
c0 -60.667 -24 -107.334 -72 -140.001s-116 -49 -204 -49c-106.667 0 -190.667 24.667 -252 74z" />
    <glyph glyph-name="uni0406" unicode="&#x406;" horiz-adv-x="268" 
d="M99 700h70v-700h-70v700z" />
    <glyph glyph-name="uni0407" unicode="&#x407;" horiz-adv-x="268" 
d="M169 0h-70v700h70v-700zM228 801c-12.667 0 -22.834 3.83301 -30.501 11.5s-11.5 17.5 -11.5 29.5c0 12.667 3.83301 22.667 11.5 30s17.834 11 30.501 11c12 0 21.667 -3.66699 29 -11s11 -17.333 11 -30c0 -12 -3.66699 -21.833 -11 -29.5s-17 -11.5 -29 -11.5zM0 842
c0 12.667 3.83301 22.667 11.5 30s17.5 11 29.5 11s21.833 -3.66699 29.5 -11s11.5 -17.333 11.5 -30c0 -12 -3.83301 -21.833 -11.5 -29.5s-17.5 -11.5 -29.5 -11.5s-21.833 3.83301 -29.5 11.5s-11.5 17.5 -11.5 29.5z" />
    <glyph glyph-name="uni0408" unicode="&#x408;" horiz-adv-x="301" 
d="M59 -207c-32.667 0 -60.666 8 -83.999 24v60c16.667 -14.667 39 -22 67 -22c27.333 0 49.166 8.16699 65.499 24.5s24.5 38.5 24.5 66.5v754h70v-763c0 -44 -13 -79 -39 -105s-60.667 -39 -104 -39z" />
    <glyph glyph-name="uni0409" unicode="&#x409;" horiz-adv-x="1218" 
d="M32 51l21 -0.00195312c23.333 0 42.666 6.16699 57.999 18.5s30 36.333 44 72s24.333 90.667 31 165s10 169.166 10 284.499v109h515v-298h227c66 0 119.667 -18.667 161 -56s62 -85.666 62 -144.999s-20.667 -107.666 -62 -144.999s-95 -56 -161 -56h-296v638h-380v-52
c0 -87.333 -2.16699 -164.166 -6.5 -230.499s-10.833 -120.5 -19.5 -162.5s-18 -76.667 -28 -104s-22.333 -47.5 -37 -60.5s-28.5 -21.833 -41.5 -26.5s-28.167 -7 -45.5 -7c-19.333 0 -36.666 2.33301 -51.999 7v49zM932 340.998h-221v-279h221
c46.667 0 84.5 12.833 113.5 38.5s43.5 59.167 43.5 100.5s-14.5 75 -43.5 101s-66.833 39 -113.5 39z" />
    <glyph glyph-name="uni040A" unicode="&#x40a;" horiz-adv-x="1218" 
d="M169 0l-70 0.00195312v700h70v-304h473v304h69v-304h227c66 0 119.667 -18.333 161 -55s62 -84.334 62 -143.001s-20.667 -106.334 -62 -143.001s-95 -55 -161 -55h-296v334h-473v-334zM932 334.002h-221v-272h221c46.667 0 84.5 12.667 113.5 38s43.5 58 43.5 98
s-14.5 72.667 -43.5 98s-66.833 38 -113.5 38z" />
    <glyph glyph-name="uni040B" unicode="&#x40b;" horiz-adv-x="941" 
d="M34 700h640.999v-62h-286v-263c54.667 32.667 125.334 49 212.001 49c90 0 157.667 -19.333 203 -58s68 -95 68 -169v-197h-70v195c0 111.333 -69.667 167 -209 167c-81.333 0 -149.333 -16.667 -204 -50v-312h-69v638h-286v62z" />
    <glyph glyph-name="uni040C" unicode="&#x40c;" horiz-adv-x="711" 
d="M169 0h-70v700h70v-310h145l249 310h86l-277 -341l301 -359h-88l-271 329h-145v-329zM289 816l194 99v-65l-194 -81v47z" />
    <glyph glyph-name="uni040D" unicode="&#x40d;" horiz-adv-x="870" 
d="M138 0h-39v700h70v-577l559 574h39v-697h-70v574zM313 915l192 -99v-47l-192 80v66z" />
    <glyph glyph-name="uni040E" unicode="&#x40e;" horiz-adv-x="746" 
d="M29 700h81.0029l271 -453l257 453h80l-338 -587c-46.667 -80 -102.334 -120 -167.001 -120c-31.333 0 -58.333 7.66699 -81 23v59c19.333 -14.667 42.666 -22 69.999 -22c47.333 0 87.666 30.333 120.999 91l22 40zM227.003 861h48.001
c0 -25.333 9.16699 -46.166 27.5 -62.499s42.166 -24.5 71.499 -24.5s53.166 8.16699 71.499 24.5s27.5 37.166 27.5 62.499h47c0 -39.333 -13.667 -71.5 -41 -96.5s-62.333 -37.5 -105 -37.5c-43.333 0 -78.666 12.5 -105.999 37.5s-41 57.167 -41 96.5z" />
    <glyph glyph-name="uni040F" unicode="&#x40f;" horiz-adv-x="842" 
d="M99 0v700h70v-638h505v638h69v-700h-287v-160h-70v160h-287z" />
    <glyph glyph-name="uni0410" unicode="&#x410;" 
d="M29 0l355 700h33l354 -700h-77l-86 173h-416l-86 -173h-77zM400 592l-177 -357h354z" />
    <glyph glyph-name="uni0411" unicode="&#x411;" horiz-adv-x="699" 
d="M99 700l482 -0.00195312v-62h-412v-236h245c66 0 119.5 -18.667 160.5 -56s61.5 -85.666 61.5 -144.999s-20.5 -107.666 -61.5 -144.999s-94.5 -56 -160.5 -56h-315v700zM169 61.998h239c46.667 0 84.5 12.833 113.5 38.5s43.5 59.167 43.5 100.5s-14.5 75 -43.5 101
s-66.833 39 -113.5 39h-239v-279z" />
    <glyph glyph-name="uni0412" unicode="&#x412;" horiz-adv-x="715" 
d="M99 700h315c60 0 109 -16.833 147 -50.5s57 -77.167 57 -130.5c0 -71.333 -32 -123.333 -96 -156c38.667 -14 69 -36.167 91 -66.5s33 -65.833 33 -106.5c0 -56 -20 -101.667 -60 -137s-92 -53 -156 -53h-331v700zM422 329h-253v-267h253
c44.667 0 81.334 12.333 110.001 37s43 56.667 43 96s-14.333 71.5 -43 96.5s-65.334 37.5 -110.001 37.5zM404 638l-235 0.000976562v-250h235c42 0 76.333 11.667 103 35s40 53.666 40 90.999c0 36.667 -13.333 66.5 -40 89.5s-61 34.5 -103 34.5z" />
    <glyph glyph-name="uni0413" unicode="&#x413;" horiz-adv-x="622" 
d="M99 700h489v-62h-419v-638h-70v700z" />
    <glyph glyph-name="uni0414" unicode="&#x414;" horiz-adv-x="850" 
d="M103 -160h-68.999v222h68c35.333 20.667 60.666 69 75.999 145s23 204 23 384v109h515v-638h100v-222h-69v160h-644v-160zM191.001 62h456v576h-380v-51c0 -278 -25.333 -453 -76 -525z" />
    <glyph glyph-name="uni0415" unicode="&#x415;" horiz-adv-x="667" 
d="M99 0v700h516v-62h-446v-254h371v-61h-371v-261h451v-62h-521z" />
    <glyph glyph-name="uni0416" unicode="&#x416;" horiz-adv-x="1103" 
d="M37 0l283 359l-265 341h86l238 -310h138v310h69v-310h137l239 310h85l-264 -341l283 -359h-87l-257 329h-136v-329h-69v329h-137l-256 -329h-87z" />
    <glyph glyph-name="uni0417" unicode="&#x417;" horiz-adv-x="693" 
d="M333 -8c-108 0 -194.333 29.333 -259 88v77c58 -66.667 142 -100 252 -100c67.333 0 122 12.667 164 38s63 60 63 104c0 36.667 -14.5 67.5 -43.5 92.5s-65.833 37.5 -110.5 37.5h-147v59h134c42 0 76.333 11.667 103 35s40 53 40 89c0 40.667 -18.5 72.667 -55.5 96
s-86.5 35 -148.5 35c-106 0 -188 -33.333 -246 -100v77c64.667 58.667 149.334 88 254.001 88c81.333 0 146.166 -17 194.499 -51s72.5 -80.333 72.5 -139c0 -34.667 -8.66699 -65.5 -26 -92.5s-41.333 -48.167 -72 -63.5c38 -14.667 67.833 -37 89.5 -67
s32.5 -64.667 32.5 -104c0 -61.333 -26.5 -109.833 -79.5 -145.5s-123.5 -53.5 -211.5 -53.5z" />
    <glyph glyph-name="uni0418" unicode="&#x418;" horiz-adv-x="870" 
d="M138 0h-39v700h70v-577l559 574h39v-697h-70v574z" />
    <glyph glyph-name="uni0419" unicode="&#x419;" horiz-adv-x="870" 
d="M138 0h-39v700h70v-577l559 574h39v-697h-70v574zM289 861h47.002c0 -25.333 9.16699 -46.166 27.5 -62.499s42.166 -24.5 71.499 -24.5s53.166 8.16699 71.499 24.5s27.5 37.166 27.5 62.499h47c0 -39.333 -13.5 -71.5 -40.5 -96.5s-62.167 -37.5 -105.5 -37.5
s-78.5 12.5 -105.5 37.5s-40.5 57.167 -40.5 96.5z" />
    <glyph glyph-name="uni041A" unicode="&#x41a;" horiz-adv-x="711" 
d="M99 0v700h70v-310h145l249 310h86l-277 -341l301 -359h-88l-271 329h-145v-329h-70z" />
    <glyph glyph-name="uni041B" unicode="&#x41b;" horiz-adv-x="811" 
d="M32 2v49h21c23.333 0 42.666 6.16699 57.999 18.5s30 36.333 44 72s24.333 90.667 31 165s10 169.166 10 284.499v109h515v-700h-69v638h-380v-52c0 -87.333 -2.16699 -164.166 -6.5 -230.499s-10.833 -120.5 -19.5 -162.5s-18 -76.667 -28 -104s-22.333 -47.5 -37 -60.5
s-28.5 -21.833 -41.5 -26.5s-28.167 -7 -45.5 -7c-19.333 0 -36.666 2.33301 -51.999 7z" />
    <glyph glyph-name="uni041C" unicode="&#x41c;" horiz-adv-x="972" 
d="M169 0h-70v700h39l348 -555l348 557h39v-702h-70v537l-300 -487h-33l-301 485v-535z" />
    <glyph glyph-name="uni041D" unicode="&#x41d;" horiz-adv-x="857" 
d="M169 0h-70v700h70v-316h520v316h69v-700h-69v323h-520v-323z" />
    <glyph glyph-name="uni041E" unicode="&#x41e;" horiz-adv-x="854" 
d="M427 708c106.667 0 193.5 -33.167 260.5 -99.5s100.5 -152.5 100.5 -258.5s-33.5 -192.167 -100.5 -258.5s-153.833 -99.5 -260.5 -99.5s-193.5 33.167 -260.5 99.5s-100.5 152.5 -100.5 258.5s33.5 192.167 100.5 258.5s153.833 99.5 260.5 99.5zM137 350
c0 -86.667 27 -157.167 81 -211.5s123.667 -81.5 209 -81.5s155 27.167 209 81.5s81 124.833 81 211.5s-27 157.167 -81 211.5s-123.667 81.5 -209 81.5s-155 -27.167 -209 -81.5s-81 -124.833 -81 -211.5z" />
    <glyph glyph-name="uni041F" unicode="&#x41f;" horiz-adv-x="844" 
d="M99 0v700h646v-700h-70v638h-506v-638h-70z" />
    <glyph glyph-name="uni0420" unicode="&#x420;" horiz-adv-x="675" 
d="M169 0l-70 -0.00195312v700h296c66 0 119.667 -18.667 161 -56s62 -85.666 62 -144.999s-20.667 -107.666 -62 -144.999s-95 -56 -161 -56h-226v-298zM169 358.998h221c46 0 83.667 13 113 39s44 59.667 44 101c0 40.667 -14.667 74 -44 100s-67 39 -113 39h-221v-279z
" />
    <glyph glyph-name="uni0421" unicode="&#x421;" horiz-adv-x="736" 
d="M417 -8c-108 0 -195.833 33.167 -263.5 99.5s-101.5 152.5 -101.5 258.5s33.833 192.167 101.5 258.5s155.5 99.5 263.5 99.5c97.333 0 179 -28.667 245 -86v-77c-56.667 65.333 -135.667 98 -237 98c-89.333 0 -162 -27.167 -218 -81.5s-84 -124.833 -84 -211.5
s28 -157.167 84 -211.5s128.667 -81.5 218 -81.5c100.667 0 179.667 33 237 99v-77c-65.333 -58 -147 -87 -245 -87z" />
    <glyph glyph-name="uni0422" unicode="&#x422;" horiz-adv-x="709" 
d="M320 638h-286v62h641v-62h-286v-638h-69v638z" />
    <glyph glyph-name="uni0423" unicode="&#x423;" horiz-adv-x="746" 
d="M29 700h81.0029l271 -453l257 453h80l-338 -587c-46.667 -80 -102.334 -120 -167.001 -120c-31.333 0 -58.333 7.66699 -81 23v59c19.333 -14.667 42.666 -22 69.999 -22c47.333 0 87.666 30.333 120.999 91l22 40z" />
    <glyph glyph-name="uni0424" unicode="&#x424;" horiz-adv-x="841" 
d="M387 69c-99.333 0 -180.335 26.333 -243.002 79s-94 120.667 -94 204s31.333 151.333 94 204s143.667 79 243 79v73h68v-73c98.667 0 179.334 -26.333 242.001 -79s94 -120.667 94 -204s-31.167 -151.333 -93.5 -204s-143.166 -79 -242.499 -79v-77h-68v77zM121.998 352
c0 -64.667 24.5 -117.333 73.5 -158s112.833 -61 191.5 -61v437c-78.667 0 -142.5 -20.333 -191.5 -61s-73.5 -93 -73.5 -157zM718.998 352.001c0 64 -24.5 116.332 -73.5 156.999s-112.5 61 -190.5 61v-437c78 0 141.5 20.333 190.5 61s73.5 93.334 73.5 158.001z" />
    <glyph glyph-name="uni0425" unicode="&#x425;" horiz-adv-x="757" 
d="M124 0h-87l296 361l-275 339h87l233 -292l234 292h87l-276 -339l297 -361h-87l-255 313z" />
    <glyph glyph-name="uni0426" unicode="&#x426;" horiz-adv-x="868" 
d="M99 700h70v-638h496v638h70v-638h100v-222h-70v160h-666v700z" />
    <glyph glyph-name="uni0427" unicode="&#x427;" horiz-adv-x="742" 
d="M69 485v215h69v-213c0 -110.667 75.667 -166 227 -166c84 0 153.333 16.333 208 49v330h70v-700h-70v308c-54 -33.333 -125.667 -50 -215 -50c-93.333 0 -164.833 19.5 -214.5 58.5s-74.5 95.167 -74.5 168.5z" />
    <glyph glyph-name="uni0428" unicode="&#x428;" horiz-adv-x="1223" 
d="M99 0v700h70v-638h408v638h69v-638h408v638h70v-700h-1025z" />
    <glyph glyph-name="uni0429" unicode="&#x429;" horiz-adv-x="1258" 
d="M99 700h70v-638h408v638h69v-638h408v638h70v-638h100v-222h-70v160h-1055v700z" />
    <glyph glyph-name="uni042A" unicode="&#x42a;" horiz-adv-x="896" 
d="M34 700l355 -0.00195312v-298h227c66 0 119.5 -18.667 160.5 -56s61.5 -85.666 61.5 -144.999s-20.5 -107.666 -61.5 -144.999s-94.5 -56 -160.5 -56h-296v638h-286v62zM389 61.998h221c46.667 0 84.5 12.833 113.5 38.5s43.5 59.167 43.5 100.5s-14.5 75 -43.5 101
s-66.833 39 -113.5 39h-221v-279z" />
    <glyph glyph-name="uni042B" unicode="&#x42b;" horiz-adv-x="926" 
d="M99 0v699.998h70v-298h226c66 0 119.667 -18.667 161 -56s62 -85.666 62 -144.999s-20.667 -107.666 -62 -144.999s-95 -56 -161 -56h-296zM169 61.998h221c46 0 83.667 13 113 39s44 59.333 44 100c0 41.333 -14.667 75 -44 101s-67 39 -113 39h-221v-279z
M758 -0.00195312v700h69v-700h-69z" />
    <glyph glyph-name="uni042C" unicode="&#x42c;" horiz-adv-x="675" 
d="M99 0v699.998h70v-298h226c66 0 119.667 -18.667 161 -56s62 -85.666 62 -144.999s-20.667 -107.666 -62 -144.999s-95 -56 -161 -56h-296zM390 340.998h-221v-279h221c46 0 83.667 13 113 39s44 59.333 44 100c0 41.333 -14.667 75 -44 101s-67 39 -113 39z" />
    <glyph glyph-name="uni042D" unicode="&#x42d;" horiz-adv-x="736" 
d="M74 156c58.667 -66 138.001 -99 238.001 -99c84 0 153.5 24.5 208.5 73.5s85.5 113.167 91.5 192.5h-334v61h333c-7.33301 78 -38.333 140.667 -93 188s-123.334 71 -206.001 71c-100.667 0 -180 -32.667 -238 -98v77c66 57.333 148 86 246 86
c107.333 0 194.833 -33.167 262.5 -99.5s101.5 -152.5 101.5 -258.5s-33.833 -192.167 -101.5 -258.5s-155.167 -99.5 -262.5 -99.5c-98.667 0 -180.667 29 -246 87v77z" />
    <glyph glyph-name="uni042E" unicode="&#x42e;" horiz-adv-x="1105" 
d="M99 0v699.999h70v-316h169c7.33301 96.667 43 174.834 107 234.501s145 89.5 243 89.5c104 0 188.5 -33.167 253.5 -99.5s97.5 -152.5 97.5 -258.5s-32.5 -192.167 -97.5 -258.5s-149.5 -99.5 -253.5 -99.5c-98.667 0 -180.167 30.5 -244.5 91.5
s-99.5 140.833 -105.5 239.5h-169v-323h-70zM408 349.999c0 -86.667 26 -157.167 78 -211.5s119.333 -81.5 202 -81.5s150 27.167 202 81.5s78 124.833 78 211.5s-26 157.167 -78 211.5s-119.333 81.5 -202 81.5s-150 -27.167 -202 -81.5s-78 -124.833 -78 -211.5z" />
    <glyph glyph-name="uni042F" unicode="&#x42f;" horiz-adv-x="722" 
d="M143 0h-82l197 295c-58 6 -104.333 27.333 -139 64s-52 82.667 -52 138c0 60 20.667 108.833 62 146.5s95 56.5 161 56.5h333v-700h-70v293h-222zM296 638c-46.667 0 -84.667 -13.168 -114 -39.501s-44 -60.166 -44 -101.499c0 -42 14.667 -76.333 44 -103
s67.333 -40 114 -40h257v284h-257z" />
    <glyph glyph-name="uni0430" unicode="&#x430;" horiz-adv-x="563" 
d="M247 -6c-58.667 0 -104.833 12.167 -138.5 36.5s-50.5 58.166 -50.5 101.499c0 46.667 19.333 82.834 58 108.501s92 38.5 160 38.5c32.667 0 73.667 -3.66699 123 -11v35c0 81.333 -51.333 122 -154 122c-63.333 0 -114 -15.333 -152 -46v62
c42.667 29.333 97.334 44 164.001 44c68 0 119.833 -15 155.5 -45s53.5 -73.667 53.5 -131v-218c0 -29.333 21.333 -44 64 -44v-45c-10.667 -4 -24 -6 -40 -6c-40.667 0 -68.334 15 -83.001 45c-42 -31.333 -95.333 -47 -160 -47zM288.001 223
c-51.333 0 -91.334 -7.83203 -120.001 -23.499s-43 -37.834 -43 -66.501c0 -25.333 11.667 -45.333 35 -60s55.333 -22 96 -22c60.667 0 108.334 16.667 143.001 50v113c-52.667 6 -89.667 9 -111 9z" />
    <glyph glyph-name="uni0431" unicode="&#x431;" horiz-adv-x="619" 
d="M310 705l217 23.002v-63l-210 -24c-58.667 -7.33301 -103.667 -30.666 -135 -69.999s-49.333 -97 -54 -173c43.333 59.333 106.333 89 189 89c72 0 131 -23.333 177 -70s69 -106.334 69 -179.001s-22.5 -131.834 -67.5 -177.501s-103.5 -68.5 -175.5 -68.5
c-82 0 -145.667 31.833 -191 95.5s-68 153.167 -68 268.5c0 213.333 83 329.666 249 348.999zM128 322.002c3.33301 -85.333 21.832 -151.501 55.499 -198.501s79.5 -70.5 137.5 -70.5c50.667 0 92.334 17.333 125.001 52s49 79.334 49 134.001
c0 56.667 -17.667 102.667 -53 138s-81 53 -137 53c-80.667 0 -139.667 -36 -177 -108z" />
    <glyph glyph-name="uni0432" unicode="&#x432;" horiz-adv-x="570" 
d="M88 0v479.999h253c44.667 0 80.667 -12 108 -36s41 -55 41 -93c0 -45.333 -18.667 -79.666 -56 -102.999c50.667 -22.667 76 -61 76 -115c0 -39.333 -14 -71.333 -42 -96s-64.667 -37 -110 -37h-270zM348 215.999h-193v-161h193c29.333 0 53 7.5 71 22.5s27 34.5 27 58.5
c0 23.333 -9.16699 42.5 -27.5 57.5s-41.833 22.5 -70.5 22.5zM332 424.999h-177v-154h177c28.667 0 51.667 7 69 21s26 32.667 26 56s-8.66699 42 -26 56s-40.333 21 -69 21z" />
    <glyph glyph-name="uni0433" unicode="&#x433;" horiz-adv-x="459" 
d="M89 0v480h340v-58h-273v-422h-67z" />
    <glyph glyph-name="uni0434" unicode="&#x434;" horiz-adv-x="647" 
d="M37 -137v195h56c47.333 34.667 71 152 71 352v70h366v-422h80v-195h-67v137h-440v-137h-66zM168 58h295v364h-237v-33c0 -162.667 -19.333 -273 -58 -331z" />
    <glyph glyph-name="uni0435" unicode="&#x435;" horiz-adv-x="591" 
d="M295 488c73.333 0 131.831 -24.668 175.498 -74.001s63.5 -113.666 59.5 -192.999h-408c6 -51.333 28.833 -92.333 68.5 -123s90.167 -46 151.5 -46c66.667 0 121.334 18.667 164.001 56v-65c-48 -34 -105.667 -51 -173 -51c-83.333 0 -150.5 23 -201.5 69
s-76.5 107 -76.5 183c0 71.333 22.333 129.833 67 175.5s102.334 68.5 173.001 68.5zM121.998 275.999h341.999c-3.33301 46 -20.333 83.167 -51 111.5s-69.667 42.5 -117 42.5s-86.666 -14.167 -117.999 -42.5s-50 -65.5 -56 -111.5z" />
    <glyph glyph-name="uni0436" unicode="&#x436;" horiz-adv-x="818" 
d="M32 0l198 244l-185 236h77l160 -206h95v206h64v-206h95l160 206h77l-185 -236l198 -244h-79l-171 215h-95v-215h-64v215h-95l-171 -215h-79z" />
    <glyph glyph-name="uni0437" unicode="&#x437;" horiz-adv-x="520" 
d="M229 50c50.667 0 90.998 8 120.998 24s45 37.333 45 64c0 22 -9.33301 40.5 -28 55.5s-42.667 22.5 -72 22.5h-118v55h105c29.333 0 53.166 7 71.499 21s27.5 32 27.5 54c0 26 -13.667 46.5 -41 61.5s-64.666 22.5 -111.999 22.5c-68 0 -122 -18.333 -162 -55v64
c44 32.667 101 49 171 49c64 0 114.5 -12.333 151.5 -37s55.5 -58.334 55.5 -101.001c0 -45.333 -19.333 -79.666 -58 -102.999c49.333 -22.667 74 -60 74 -112c0 -44 -20.167 -78.833 -60.5 -104.5s-94.5 -38.5 -162.5 -38.5c-73.333 0 -131.666 16.333 -174.999 49v64
c38.667 -36.667 94.334 -55 167.001 -55z" />
    <glyph glyph-name="uni0438" unicode="&#x438;" horiz-adv-x="641" 
d="M128 0h-39v480h67v-366l357 366h39v-480h-67v366z" />
    <glyph glyph-name="uni0439" unicode="&#x439;" horiz-adv-x="641" 
d="M128 0h-39v480h67v-366l357 366h39v-480h-67v366zM222 694c0 -26 9.16699 -47.167 27.5 -63.5s42.166 -24.5 71.499 -24.5c28.667 0 52.167 8.16699 70.5 24.5s27.5 37.5 27.5 63.5h48c0 -39.333 -13.667 -71.666 -41 -96.999s-62.333 -38 -105 -38
c-43.333 0 -78.666 12.667 -105.999 38s-41 57.666 -41 96.999h48z" />
    <glyph glyph-name="uni043A" unicode="&#x43a;" horiz-adv-x="548" 
d="M89 0v480h67v-206h99l169 206h79l-196 -236l209 -244h-80l-182 215h-98v-215h-67z" />
    <glyph glyph-name="uni043B" unicode="&#x43b;" horiz-adv-x="606" 
d="M29 2v44h16c22 0 40 8.66699 54 26s25.833 53.5 35.5 108.5s14.5 130.5 14.5 226.5v73h367v-480h-66v422h-239v-37c0 -68 -3 -126.833 -9 -176.5s-13.333 -88 -22 -115s-19.667 -48.167 -33 -63.5s-25.5 -25 -36.5 -29s-23.833 -6 -38.5 -6c-16 0 -30.333 2.33301 -43 7z
" />
    <glyph glyph-name="uni043C" unicode="&#x43c;" horiz-adv-x="715" 
d="M152 0h-63v480h39l229 -361l230 361h38v-480h-63v336l-188 -303h-33l-189 305v-338z" />
    <glyph glyph-name="uni043D" unicode="&#x43d;" horiz-adv-x="633" 
d="M156 0h-67v480h67v-207h321v207h66v-480h-66v214h-321v-214z" />
    <glyph glyph-name="uni043E" unicode="&#x43e;" horiz-adv-x="614" 
d="M307 488c74.667 0 135.167 -23 181.5 -69s69.5 -105.667 69.5 -179s-23.167 -133 -69.5 -179s-106.833 -69 -181.5 -69c-74 0 -134.333 23 -181 69s-70 105.667 -70 179s23.333 133 70 179s107 69 181 69zM124 240c0 -55.333 17 -100.333 51 -135s78 -52 132 -52
s98 17.333 132 52s51 79.667 51 135s-17 100.333 -51 135s-78 52 -132 52s-98 -17.333 -132 -52s-51 -79.667 -51 -135z" />
    <glyph glyph-name="uni043F" unicode="&#x43f;" horiz-adv-x="623" 
d="M89 480h444v-480h-66v422h-311v-422h-67v480z" />
    <glyph glyph-name="uni0440" unicode="&#x440;" horiz-adv-x="599" 
d="M89 -200v680.001h60l4 -36c38.667 28.667 86.334 43 143.001 43c72.667 0 131.834 -22.833 177.501 -68.5s68.5 -104.834 68.5 -177.501c0 -73.333 -22.833 -132.833 -68.5 -178.5s-104.834 -68.5 -177.501 -68.5c-52.667 0 -99.334 13.333 -140.001 40v-234h-67z
M286 429.001c-52.667 0 -95.999 -16 -129.999 -48v-281c33.333 -31.333 76.666 -47 129.999 -47c55.333 0 100.5 17.5 135.5 52.5s52.5 80.167 52.5 135.5s-17.5 100.5 -52.5 135.5s-80.167 52.5 -135.5 52.5z" />
    <glyph glyph-name="uni0441" unicode="&#x441;" horiz-adv-x="530" 
d="M312 -8c-76 0 -137.667 23 -185 69s-71 105.667 -71 179s23.667 133 71 179s109 69 185 69c60.667 0 112.334 -15.667 155.001 -47v-67c-37.333 36 -85.333 54 -144 54s-106.5 -17.5 -143.5 -52.5s-55.5 -80.167 -55.5 -135.5s18.5 -100.5 55.5 -135.5
s84.833 -52.5 143.5 -52.5s106.667 18 144 54v-67c-42.667 -31.333 -94.334 -47 -155.001 -47z" />
    <glyph glyph-name="uni0442" unicode="&#x442;" horiz-adv-x="509" 
d="M221 422h-191v58h448v-58h-190v-422h-67v422z" />
    <glyph glyph-name="uni0443" unicode="&#x443;" horiz-adv-x="567" 
d="M250 34l-226 446h70l190 -376l189 376h71l-345 -680h-72z" />
    <glyph glyph-name="uni0444" unicode="&#x444;" horiz-adv-x="708" 
d="M321 -8c-78 0 -141.667 23 -191 69s-74 106 -74 180c0 72.667 24.667 132 74 178s113 69 191 69v232h65v-232c78.667 0 142.667 -23 192 -69s74 -105.333 74 -178c0 -74 -24.667 -134 -74 -180s-113.333 -69 -192 -69v-192h-65v192zM584 241
c0 54.667 -18.333 99.333 -55 134s-84.334 52 -143.001 52v-374c58.667 0 106.334 17.5 143.001 52.5s55 80.167 55 135.5zM321 426.999c-58 0 -105.333 -17.332 -142 -51.999s-55 -79.334 -55 -134.001c0 -55.333 18.333 -100.5 55 -135.5s84 -52.5 142 -52.5v374z" />
    <glyph glyph-name="uni0445" unicode="&#x445;" horiz-adv-x="565" 
d="M116 0h-80l205 244l-199 236h80l161 -192l159 192h81l-199 -236l205 -244h-80l-166 200z" />
    <glyph glyph-name="uni0446" unicode="&#x446;" horiz-adv-x="649" 
d="M547 0h-458v480h67v-422h311v422h66v-422h80v-198h-66v140z" />
    <glyph glyph-name="uni0447" unicode="&#x447;" horiz-adv-x="587" 
d="M69 354v126h66v-127c0 -42.667 12.167 -74 36.5 -94s61.5 -30 111.5 -30c62 0 111.667 14.333 149 43v208h66v-480h-66v213c-39.333 -28.667 -92 -43 -158 -43c-136.667 0 -205 61.333 -205 184z" />
    <glyph glyph-name="uni0448" unicode="&#x448;" horiz-adv-x="926" 
d="M89 480h67v-422h274v422h66v-422h275v422h66v-480h-748v480z" />
    <glyph glyph-name="uni0449" unicode="&#x449;" horiz-adv-x="953" 
d="M89 480h67v-422h274v422h66v-422h275v422h66v-422h80v-198h-66v140h-762v480z" />
    <glyph glyph-name="uni044A" unicode="&#x44a;" horiz-adv-x="673" 
d="M30 422v58h258v-188h170c48.667 0 88.167 -13.5 118.5 -40.5s45.5 -62.167 45.5 -105.5s-15.167 -78.5 -45.5 -105.5s-69.833 -40.5 -118.5 -40.5h-237v422h-191zM455 235l-167 -0.000976562v-178h167c29.333 0 53.166 8.33301 71.499 25s27.5 38.334 27.5 65.001
c0 26 -9.16699 47.167 -27.5 63.5s-42.166 24.5 -71.499 24.5z" />
    <glyph glyph-name="uni044B" unicode="&#x44b;" horiz-adv-x="745" 
d="M326 0h-237v480h67v-188h170c48.667 0 88.167 -13.5 118.5 -40.5s45.5 -62.167 45.5 -105.5s-15.167 -78.5 -45.5 -105.5s-69.833 -40.5 -118.5 -40.5zM323 235l-167 -0.000976562v-178h167c29.333 0 53.166 8.33301 71.499 25s27.5 38.334 27.5 65.001
c0 26 -9.16699 47.167 -27.5 63.5s-42.166 24.5 -71.499 24.5zM590 -0.000976562v480h66v-480h-66z" />
    <glyph glyph-name="uni044C" unicode="&#x44c;" horiz-adv-x="541" 
d="M326 0h-237v480h67v-188h170c48.667 0 88.167 -13.5 118.5 -40.5s45.5 -62.167 45.5 -105.5s-15.167 -78.5 -45.5 -105.5s-69.833 -40.5 -118.5 -40.5zM323 235l-167 -0.000976562v-178h167c29.333 0 53.166 8.33301 71.499 25s27.5 38.334 27.5 65.001
c0 26 -9.16699 47.167 -27.5 63.5s-42.166 24.5 -71.499 24.5z" />
    <glyph glyph-name="uni044D" unicode="&#x44d;" horiz-adv-x="528" 
d="M62 104c38 -36 86.334 -54 145.001 -54c55.333 0 101.166 15 137.499 45s57.5 70 63.5 120h-229v55h228c-6.66699 48 -28.167 86.667 -64.5 116s-81.5 44 -135.5 44c-58.667 0 -107 -18 -145 -54v65c42.667 31.333 94.667 47 156 47c75.333 0 136.666 -23 183.999 -69
s71 -105.667 71 -179s-23.667 -133 -71 -179s-108.666 -69 -183.999 -69c-61.333 0 -113.333 15.667 -156 47v65z" />
    <glyph glyph-name="uni044E" unicode="&#x44e;" horiz-adv-x="820" 
d="M89 0l-0.000976562 479.999h67v-207h128c6.66699 64.667 31.834 116.667 75.501 156s98.167 59 163.5 59c71.333 0 129.5 -23 174.5 -69s67.5 -105.667 67.5 -179s-22.5 -133 -67.5 -179s-103.167 -69 -174.5 -69c-66.667 0 -122 20.333 -166 61
s-68.667 94.334 -74 161.001h-127v-214h-67zM349.999 239.999c0 -55.333 16.167 -100.333 48.5 -135s73.833 -52 124.5 -52c51.333 0 93.166 17.333 125.499 52s48.5 79.667 48.5 135s-16.167 100.333 -48.5 135s-74.166 52 -125.499 52
c-50.667 0 -92.167 -17.333 -124.5 -52s-48.5 -79.667 -48.5 -135z" />
    <glyph glyph-name="uni044F" unicode="&#x44f;" horiz-adv-x="582" 
d="M62 0l143 190.999c-39.333 7.33301 -70.833 23.833 -94.5 49.5s-35.5 56.834 -35.5 93.501c0 43.333 15.667 78.5 47 105.5s72.333 40.5 123 40.5h248v-480h-66v188h-146l-141 -188h-78zM143 332.999c0 -26.667 9.66699 -48.333 29 -65s44.333 -25 75 -25h180v179h-180
c-30.667 0 -55.667 -8.33301 -75 -25s-29 -38 -29 -64z" />
    <glyph glyph-name="uni0450" unicode="&#x450;" horiz-adv-x="591" 
d="M55 244c0 71.333 22.3311 129.832 66.998 175.499s102.334 68.5 173.001 68.5c73.333 0 131.833 -24.667 175.5 -74s63.5 -113.666 59.5 -192.999h-408c6 -51.333 28.833 -92.333 68.5 -123s90.167 -46 151.5 -46c66.667 0 121.334 18.667 164.001 56v-65
c-48 -34 -105.667 -51 -173 -51c-83.333 0 -150.5 23 -201.5 69s-76.5 107 -76.5 183zM121.998 275.999h341.999c-3.33301 46 -20.333 83.167 -51 111.5s-69.667 42.5 -117 42.5s-86.666 -14.167 -117.999 -42.5s-50 -65.5 -56 -111.5zM175.997 713.999l191 -98v-47l-191 80
v65z" />
    <glyph glyph-name="uni0451" unicode="&#x451;" horiz-adv-x="591" 
d="M55 244c0 71.333 22.3311 129.832 66.998 175.499s102.334 68.5 173.001 68.5c73.333 0 131.833 -24.667 175.5 -74s63.5 -113.666 59.5 -192.999h-408c6 -51.333 28.833 -92.333 68.5 -123s90.167 -46 151.5 -46c66.667 0 121.334 18.667 164.001 56v-65
c-48 -34 -105.667 -51 -173 -51c-83.333 0 -150.5 23 -201.5 69s-76.5 107 -76.5 183zM121.998 275.999h341.999c-3.33301 46 -20.333 83.167 -51 111.5s-69.667 42.5 -117 42.5s-86.666 -14.167 -117.999 -42.5s-50 -65.5 -56 -111.5zM188.997 682.999
c12.667 0 22.667 -3.83301 30 -11.5s11 -17.5 11 -29.5s-3.66699 -21.833 -11 -29.5s-17.333 -11.5 -30 -11.5c-12 0 -21.833 3.83301 -29.5 11.5s-11.5 17.5 -11.5 29.5s3.83301 21.833 11.5 29.5s17.5 11.5 29.5 11.5zM402.997 682.999c12 0 21.833 -3.83301 29.5 -11.5
s11.5 -17.5 11.5 -29.5s-3.83301 -21.833 -11.5 -29.5s-17.5 -11.5 -29.5 -11.5s-21.833 3.83301 -29.5 11.5s-11.5 17.5 -11.5 29.5s3.83301 21.833 11.5 29.5s17.5 11.5 29.5 11.5z" />
    <glyph glyph-name="uni0452" unicode="&#x452;" horiz-adv-x="621" 
d="M156 625h147.001v-46h-147v-148c41.333 38 93.666 57 156.999 57c69.333 0 124 -19.5 164 -58.5s60 -92.167 60 -159.5v-368c0 -31.333 -10 -57 -30 -77s-45.667 -30 -77 -30c-14 0 -27.333 2.33301 -40 7v45c24.667 0 44.167 5.83301 58.5 17.5s21.5 27.167 21.5 46.5
v360c0 48.667 -15 87.167 -45 115.5s-70.667 42.5 -122 42.5c-57.333 0 -106.333 -21.667 -147 -65v-364h-67v579h-84v46h84v95h67v-95z" />
    <glyph glyph-name="uni0453" unicode="&#x453;" horiz-adv-x="459" 
d="M89 0v480h340v-58h-273v-422h-67zM188 569v47l194 99v-65z" />
    <glyph glyph-name="uni0454" unicode="&#x454;" horiz-adv-x="528" 
d="M55 240c0 73.333 23.833 133 71.5 179s109.167 69 184.5 69c60 0 112 -15.667 156 -47v-65c-38 36 -86.667 54 -146 54c-54 0 -99 -14.667 -135 -44s-57.333 -68 -64 -116h270v-55h-271c6 -50 27.167 -90 63.5 -120s81.833 -45 136.5 -45c59.333 0 108 18 146 54v-65
c-44 -31.333 -96 -47 -156 -47c-75.333 0 -136.833 23 -184.5 69s-71.5 105.667 -71.5 179z" />
    <glyph glyph-name="uni0455" unicode="&#x455;" horiz-adv-x="519" 
d="M65 358c0 42 16.332 74.168 48.999 96.501s79.334 33.5 140.001 33.5c74.667 0 131 -17 169 -51v-62c-34.667 34.667 -88.667 52 -162 52c-42 0 -74.5 -6 -97.5 -18s-34.5 -29 -34.5 -51c0 -19.333 10.667 -35.5 32 -48.5s55.666 -23.833 102.999 -32.5
c66.667 -12.667 115.5 -30.834 146.5 -54.501s46.5 -55.167 46.5 -94.5c0 -43.333 -18 -76.833 -54 -100.5s-87.667 -35.5 -155 -35.5c-79.333 0 -140 17 -182 51v62c38.667 -34.667 98 -52 178 -52c46.667 0 83.167 6.5 109.5 19.5s39.5 31.5 39.5 55.5
c0 20 -10.667 36.667 -32 50s-56.666 25 -105.999 35c-66.667 13.333 -115 31.333 -145 54s-45 53 -45 91z" />
    <glyph glyph-name="uni0456" unicode="&#x456;" horiz-adv-x="245" 
d="M89 0v480h67v-480h-67zM75 649c0 14 4.33301 25.333 13 34s20 13 34 13s25.5 -4.33301 34.5 -13s13.5 -20 13.5 -34s-4.5 -25.5 -13.5 -34.5s-20.5 -13.5 -34.5 -13.5s-25.333 4.5 -34 13.5s-13 20.5 -13 34.5z" />
    <glyph glyph-name="uni0457" unicode="&#x457;" horiz-adv-x="245" 
d="M89 480h67v-480h-67v480zM213 606c-12.667 0 -22.834 3.83301 -30.501 11.5s-11.5 17.5 -11.5 29.5c0 12.667 3.83301 22.667 11.5 30s17.834 11 30.501 11c12 0 21.667 -3.66699 29 -11s11 -17.333 11 -30c0 -12 -3.66699 -21.833 -11 -29.5s-17 -11.5 -29 -11.5z
M-8 647c0 12.667 3.83301 22.667 11.5 30s17.5 11 29.5 11s21.833 -3.66699 29.5 -11s11.5 -17.333 11.5 -30c0 -12 -3.83301 -21.833 -11.5 -29.5s-17.5 -11.5 -29.5 -11.5s-21.833 3.83301 -29.5 11.5s-11.5 17.5 -11.5 29.5z" />
    <glyph glyph-name="uni0458" unicode="&#x458;" horiz-adv-x="245" 
d="M9 -198v45c24.667 0 44.167 5.83301 58.5 17.5s21.5 27.167 21.5 46.5v569h67v-578c0 -31.333 -10 -57 -30 -77s-45.667 -30 -77 -30c-14 0 -27.333 2.33301 -40 7zM75 649c0 14 4.33301 25.333 13 34s20 13 34 13s25.5 -4.33301 34.5 -13s13.5 -20 13.5 -34
s-4.5 -25.5 -13.5 -34.5s-20.5 -13.5 -34.5 -13.5s-25.333 4.5 -34 13.5s-13 20.5 -13 34.5z" />
    <glyph glyph-name="uni0459" unicode="&#x459;" horiz-adv-x="902" 
d="M29 46h16c22 0 40 8.66699 54 26s25.833 53.5 35.5 108.5s14.5 130.5 14.5 226.5v73h367v-188h171c48.667 0 88.167 -13.5 118.5 -40.5s45.5 -62.167 45.5 -105.5s-15.167 -78.5 -45.5 -105.5s-69.833 -40.5 -118.5 -40.5h-237v422h-239v-37c0 -68 -3 -126.833 -9 -176.5
s-13.333 -88 -22 -115s-19.667 -48.167 -33 -63.5s-25.5 -25 -36.5 -29s-23.833 -6 -38.5 -6c-16 0 -30.333 2.33301 -43 7v44zM683 235l-167 -0.000976562v-178h167c29.333 0 53.333 8.33301 72 25s28 38.334 28 65.001c0 26 -9.33301 47.167 -28 63.5
s-42.667 24.5 -72 24.5z" />
    <glyph glyph-name="uni045A" unicode="&#x45a;" horiz-adv-x="905" 
d="M89 480l67 -0.000976562v-197h297v197h67v-197h172c48 0 87.167 -13.167 117.5 -39.5s45.5 -60.166 45.5 -101.499c0 -42 -15.167 -76.167 -45.5 -102.5s-69.5 -39.5 -117.5 -39.5h-239v227h-297v-227h-67v480zM688 226.999l-168 -0.000976562v-170h168
c28.667 0 52.334 8 71.001 24s28 36.667 28 62c0 24.667 -9.33301 44.834 -28 60.501s-42.334 23.5 -71.001 23.5z" />
    <glyph glyph-name="uni045B" unicode="&#x45b;" horiz-adv-x="621" 
d="M89 579h-83.999v46h84v95h67v-95h147v-46h-147v-148c41.333 38 93.666 57 156.999 57c69.333 0 124 -19.5 164 -58.5s60 -92.167 60 -159.5v-270h-67v271c0 48.667 -15 87.167 -45 115.5s-70.667 42.5 -122 42.5c-57.333 0 -106.333 -21.667 -147 -65v-364h-67v579z" />
    <glyph glyph-name="uni045C" unicode="&#x45c;" horiz-adv-x="548" 
d="M156 0h-67v480h67v-206h99l169 206h79l-196 -236l209 -244h-80l-182 215h-98v-215zM220 569v47l195 99v-65z" />
    <glyph glyph-name="uni045D" unicode="&#x45d;" horiz-adv-x="641" 
d="M128 0h-39v480h67v-366l357 366h39v-480h-67v366zM201 649v66l191 -99v-47z" />
    <glyph glyph-name="uni045E" unicode="&#x45e;" horiz-adv-x="567" 
d="M24 480h70l190 -376l189 376h71l-345 -680h-72l123 234zM137 694h48.001c0 -26 9.16699 -47.167 27.5 -63.5s42.166 -24.5 71.499 -24.5s53.166 8.16699 71.499 24.5s27.5 37.5 27.5 63.5h47c0 -39.333 -13.667 -71.666 -41 -96.999s-62.333 -38 -105 -38
c-43.333 0 -78.666 12.667 -105.999 38s-41 57.666 -41 96.999z" />
    <glyph glyph-name="uni045F" unicode="&#x45f;" horiz-adv-x="619" 
d="M276 0h-187v480h67v-422h308v422h66v-480h-187v-140h-67v140z" />
    <glyph glyph-name="uni0490" unicode="&#x490;" horiz-adv-x="622" 
d="M169 0h-70v700h411v150h70v-212h-411v-638z" />
    <glyph glyph-name="uni0491" unicode="&#x491;" horiz-adv-x="459" 
d="M89 0v480h268v125h67v-183h-268v-422h-67z" />
    <glyph glyph-name="uni04D8" unicode="&#x4d8;" horiz-adv-x="817" 
d="M67 371l613.997 0.000976562c-7.33301 82 -41.666 147.833 -102.999 197.5s-139.333 74.5 -234 74.5c-100 0 -180.667 -28 -242 -84v67c70 54.667 156 82 258 82c116.667 0 211 -33.333 283 -100s108 -154.334 108 -263.001c0 -103.333 -31.833 -187.833 -95.5 -253.5
s-146.167 -98.5 -247.5 -98.5c-105.333 0 -189.666 35 -252.999 105s-92.666 161 -87.999 273zM403.997 58.001c77.333 0 141.167 23.5 191.5 70.5s78.833 107.833 85.5 182.5h-543c4 -76.667 30.5 -138 79.5 -184s111.167 -69 186.5 -69z" />
    <glyph glyph-name="uni04D9" unicode="&#x4d9;" horiz-adv-x="591" 
d="M61 259l408.002 0.000976562c-6 51.333 -28.833 92.333 -68.5 123s-90.167 46 -151.5 46c-66.667 0 -121.334 -18.667 -164.001 -56v65c48 34 105.667 51 173 51c83.333 0 150.5 -23 201.5 -69s76.5 -107 76.5 -183c0 -71.333 -22.333 -129.833 -67 -175.5
s-102.334 -68.5 -173.001 -68.5c-73.333 0 -131.833 24.667 -175.5 74s-63.5 113.666 -59.5 192.999zM295.002 50.001c47.333 0 86.667 14.167 118 42.5s50 65.5 56 111.5h-342c3.33301 -46 20.5 -83.167 51.5 -111.5s69.833 -42.5 116.5 -42.5z" />
    <glyph glyph-name="Wgrave" unicode="&#x1e80;" horiz-adv-x="1150" 
d="M29 700h76l225 -575l228 575h33l228 -575l226 575h76l-284 -700h-33l-229 577l-229 -577h-34zM455 849v66l191 -99v-47z" />
    <glyph glyph-name="wgrave" unicode="&#x1e81;" horiz-adv-x="821" 
d="M24 480h69l151 -370l150 370h33l150 -370l151 370h69l-203 -480h-34l-149 371l-150 -371h-33zM291 649v66l191 -99v-47z" />
    <glyph glyph-name="Wacute" unicode="&#x1e82;" horiz-adv-x="1150" 
d="M29 700h76l225 -575l228 575h33l228 -575l226 575h76l-284 -700h-33l-229 577l-229 -577h-34zM504 816l194 99v-65l-194 -81v47z" />
    <glyph glyph-name="wacute" unicode="&#x1e83;" horiz-adv-x="821" 
d="M24 480h69l151 -370l150 370h33l150 -370l151 370h69l-203 -480h-34l-149 371l-150 -371h-33zM340 616l194 99v-65l-194 -81v47z" />
    <glyph glyph-name="Wdieresis" unicode="&#x1e84;" horiz-adv-x="1150" 
d="M29 700h76l225 -575l228 575h33l228 -575l226 575h76l-284 -700h-33l-229 577l-229 -577h-34zM682 883c12 0 21.833 -3.66699 29.5 -11s11.5 -17.333 11.5 -30c0 -12 -3.83301 -21.833 -11.5 -29.5s-17.5 -11.5 -29.5 -11.5c-12.667 0 -22.667 3.83301 -30 11.5
s-11 17.5 -11 29.5c0 12.667 3.66699 22.667 11 30s17.333 11 30 11zM427 842c0 12.667 3.83301 22.667 11.5 30s17.5 11 29.5 11s21.833 -3.66699 29.5 -11s11.5 -17.333 11.5 -30c0 -12 -3.83301 -21.833 -11.5 -29.5s-17.5 -11.5 -29.5 -11.5s-21.833 3.83301 -29.5 11.5
s-11.5 17.5 -11.5 29.5z" />
    <glyph glyph-name="wdieresis" unicode="&#x1e85;" horiz-adv-x="821" 
d="M24 480h69l151 -370l150 370h33l150 -370l151 370h69l-203 -480h-34l-149 371l-150 -371h-33zM518 683c12 0 21.833 -3.66699 29.5 -11s11.5 -17.333 11.5 -30c0 -12 -3.83301 -21.833 -11.5 -29.5s-17.5 -11.5 -29.5 -11.5c-12.667 0 -22.667 3.83301 -30 11.5
s-11 17.5 -11 29.5c0 12.667 3.66699 22.667 11 30s17.333 11 30 11zM263 642c0 12.667 3.83301 22.667 11.5 30s17.5 11 29.5 11c12.667 0 22.667 -3.66699 30 -11s11 -17.333 11 -30c0 -12 -3.66699 -21.833 -11 -29.5s-17.333 -11.5 -30 -11.5
c-12 0 -21.833 3.83301 -29.5 11.5s-11.5 17.5 -11.5 29.5z" />
    <glyph glyph-name="Germandbls" unicode="&#x1e9e;" horiz-adv-x="760" 
d="M99 492c0 61.333 18.999 111.332 56.999 149.999s87 58 147 58h357v-32l-196 -261c69.333 -8.66699 125.5 -33.167 168.5 -73.5s64.5 -89.5 64.5 -147.5c0 -57.333 -21 -103.833 -63 -139.5s-97.667 -53.5 -167 -53.5c-78 0 -142 24.333 -192 73v61
c44.667 -46 104.667 -69 180 -69c52 0 94 12.167 126 36.5s48 55.833 48 94.5c0 46.667 -23.667 85.834 -71 117.501s-108.666 49.5 -183.999 53.5v32l185 246h-239c-44.667 0 -81 -14.333 -109 -43s-42 -65.667 -42 -111v-484h-70v492z" />
    <glyph glyph-name="Ygrave" unicode="&#x1ef2;" horiz-adv-x="709" 
d="M320 302l-293 398h85l243 -334l242 334h85l-293 -399v-301h-69v302zM234 849v66l192 -99v-47z" />
    <glyph glyph-name="ygrave" unicode="&#x1ef3;" horiz-adv-x="567" 
d="M24 480h70l190 -376l189 376h71l-345 -680h-72l123 234zM164 649v66l191 -99v-47z" />
    <glyph glyph-name="figuredash" unicode="&#x2012;" horiz-adv-x="620" 
d="M100 321v58h420v-58h-420z" />
    <glyph glyph-name="endash" unicode="&#x2013;" horiz-adv-x="500" 
d="M70 262v46h360v-46h-360z" />
    <glyph glyph-name="emdash" unicode="&#x2014;" horiz-adv-x="1000" 
d="M70 262v46h860v-46h-860z" />
    <glyph glyph-name="quoteleft" unicode="&#x2018;" horiz-adv-x="179" 
d="M48 597c0 52 21.667 95.6689 65 131.002h41c-30.667 -34.667 -46 -67.667 -46 -99c0 -12.667 3.83301 -24.334 11.5 -35.001s11.5 -20.334 11.5 -29.001c0 -11.333 -3.33301 -20.333 -10 -27s-15.667 -10 -27 -10c-15.333 0 -26.833 6.5 -34.5 19.5
s-11.5 29.5 -11.5 49.5z" />
    <glyph glyph-name="quoteright" unicode="&#x2019;" horiz-adv-x="179" 
d="M65 528l-41 -0.000976562c31.333 34 47 67.333 47 100c0 12 -4 23.333 -12 34s-12 20.334 -12 29.001c0 11.333 3.5 20.333 10.5 27s15.833 10 26.5 10c30.667 0 46 -23 46 -69c0 -51.333 -21.667 -95 -65 -131z" />
    <glyph glyph-name="quotesinglbase" unicode="&#x201a;" horiz-adv-x="179" 
d="M65 -118h-41c31.333 34 47 67 47 99c0 12.667 -4 24.5 -12 35.5s-12 20.5 -12 28.5c0 11.333 3.5 20.333 10.5 27s15.833 10 26.5 10c30.667 0 46 -23 46 -69c0 -52 -21.667 -95.667 -65 -131z" />
    <glyph glyph-name="quotereversed" unicode="&#x201b;" horiz-adv-x="179" 
d="M48 659c0 20 3.83301 36.501 11.5 49.501s19.167 19.5 34.5 19.5c11.333 0 20.333 -3.33301 27 -10s10 -15.667 10 -27c0 -8.66699 -3.83301 -18.334 -11.5 -29.001s-11.5 -22 -11.5 -34c0 -32 15.333 -65.333 46 -100h-41c-43.333 36 -65 79.667 -65 131z" />
    <glyph glyph-name="quotedblleft" unicode="&#x201c;" horiz-adv-x="309" 
d="M225 528c-15.333 0 -26.833 6.50195 -34.5 19.502s-11.5 29.5 -11.5 49.5c0 52 21.667 95.667 65 131h41c-30.667 -34.667 -46 -67.667 -46 -99c0 -12.667 3.83301 -24.334 11.5 -35.001s11.5 -20.334 11.5 -29.001c0 -11.333 -3.33301 -20.333 -10 -27
s-15.667 -10 -27 -10zM48 597.002c0 52 21.667 95.6689 65 131.002h41c-30.667 -34.667 -46 -67.667 -46 -99c0 -12.667 3.83301 -24.334 11.5 -35.001s11.5 -20.334 11.5 -29.001c0 -11.333 -3.33301 -20.333 -10 -27s-15.667 -10 -27 -10
c-15.333 0 -26.833 6.5 -34.5 19.5s-11.5 29.5 -11.5 49.5z" />
    <glyph glyph-name="quotedblright" unicode="&#x201d;" horiz-adv-x="309" 
d="M155 528c30.667 34.667 46 67.999 46 99.999c0 12 -3.83301 23.333 -11.5 34s-11.5 20.334 -11.5 29.001c0 11.333 3.33301 20.333 10 27s15.667 10 27 10c15.333 0 26.833 -6.5 34.5 -19.5s11.5 -29.5 11.5 -49.5c0 -51.333 -21.667 -95 -65 -131h-41zM24 527.999
c31.333 34 47 67.332 47 99.999c0 12 -4 23.333 -12 34s-12 20.334 -12 29.001c0 11.333 3.5 20.333 10.5 27s15.833 10 26.5 10c30.667 0 46 -23 46 -69c0 -51.333 -21.667 -95 -65 -131h-41z" />
    <glyph glyph-name="quotedblbase" unicode="&#x201e;" horiz-adv-x="309" 
d="M155 -118c30.667 34.667 46 67.667 46 99c0 12.667 -3.83301 24.5 -11.5 35.5s-11.5 20.5 -11.5 28.5c0 11.333 3.33301 20.333 10 27s15.667 10 27 10c15.333 0 26.833 -6.5 34.5 -19.5s11.5 -29.5 11.5 -49.5c0 -52 -21.667 -95.667 -65 -131h-41zM24 -118
c31.333 34 47 67 47 99c0 12.667 -4 24.5 -12 35.5s-12 20.5 -12 28.5c0 11.333 3.5 20.333 10.5 27s15.833 10 26.5 10c30.667 0 46 -23 46 -69c0 -52 -21.667 -95.667 -65 -131h-41z" />
    <glyph glyph-name="uni201F" unicode="&#x201f;" horiz-adv-x="309" 
d="M244 528c-43.333 36 -65 79.668 -65 131.001c0 20 3.83301 36.5 11.5 49.5s19.167 19.5 34.5 19.5c11.333 0 20.333 -3.33301 27 -10s10 -15.667 10 -27c0 -8.66699 -3.83301 -18.334 -11.5 -29.001s-11.5 -22 -11.5 -34c0 -32 15.333 -65.333 46 -100h-41zM113 528.001
c-43.333 36 -65 79.668 -65 131.001c0 20 3.83301 36.5 11.5 49.5s19.167 19.5 34.5 19.5c11.333 0 20.333 -3.33301 27 -10s10 -15.667 10 -27c0 -8.66699 -3.83301 -18.334 -11.5 -29.001s-11.5 -22 -11.5 -34c0 -32 15.333 -65.333 46 -100h-41z" />
    <glyph glyph-name="dagger" unicode="&#x2020;" horiz-adv-x="394" 
d="M174 531h-124v45h124v124h46v-124h123v-45h-123v-331h-46v331z" />
    <glyph glyph-name="daggerdbl" unicode="&#x2021;" horiz-adv-x="394" 
d="M220 576h123v-45h-123v-162h123v-45h-123v-124h-46v124h-124v45h124v162h-124v45h124v124h46v-124z" />
    <glyph glyph-name="bullet" unicode="&#x2022;" horiz-adv-x="298" 
d="M48 350c0 30 9.33301 54.333 28 73s43 28 73 28s54.333 -9.33301 73 -28s28 -43 28 -73s-9.33301 -54.333 -28 -73s-43 -28 -73 -28s-54.333 9.33301 -73 28s-28 43 -28 73z" />
    <glyph glyph-name="ellipsis" unicode="&#x2026;" horiz-adv-x="571" 
d="M428 39c0 14 4.5 25.5 13.5 34.5s20.5 13.5 34.5 13.5s25.5 -4.5 34.5 -13.5s13.5 -20.5 13.5 -34.5s-4.5 -25.333 -13.5 -34s-20.5 -13 -34.5 -13s-25.5 4.33301 -34.5 13s-13.5 20 -13.5 34zM286 -8c-14.667 0 -26.334 4.33301 -35.001 13s-13 20 -13 34
s4.33301 25.5 13 34.5s20.334 13.5 35.001 13.5c14 0 25.333 -4.5 34 -13.5s13 -20.5 13 -34.5s-4.33301 -25.333 -13 -34s-20 -13 -34 -13zM48 39c0 14 4.33301 25.5 13 34.5s20 13.5 34 13.5c14.667 0 26.334 -4.5 35.001 -13.5s13 -20.5 13 -34.5
s-4.33301 -25.333 -13 -34s-20.334 -13 -35.001 -13c-14 0 -25.333 4.33301 -34 13s-13 20 -13 34z" />
    <glyph glyph-name="perthousand" unicode="&#x2030;" horiz-adv-x="1209" 
d="M202 325c-44.667 0 -81.167 17.833 -109.5 53.5s-42.5 81.834 -42.5 138.501c0 56 14.167 101.833 42.5 137.5s64.833 53.5 109.5 53.5s81 -17.833 109 -53.5s42 -81.5 42 -137.5c0 -56.667 -14 -102.834 -42 -138.501s-64.333 -53.5 -109 -53.5zM856 183
c0 56.667 14 102.834 42 138.501s64.333 53.5 109 53.5s81 -17.833 109 -53.5s42 -81.834 42 -138.501c0 -56 -14 -101.833 -42 -137.5s-64.333 -53.5 -109 -53.5s-81 17.833 -109 53.5s-42 81.5 -42 137.5zM652 -8c-44.667 0 -81 17.833 -109 53.5s-42 81.5 -42 137.5
c0 56.667 14 102.834 42 138.501s64.333 53.5 109 53.5s81 -17.833 109 -53.5s42 -81.834 42 -138.501c0 -56 -14 -101.833 -42 -137.5s-64.333 -53.5 -109 -53.5zM549 183c0 -42.667 9.5 -77.334 28.5 -104.001s43.833 -40 74.5 -40s55.5 13.333 74.5 40
s28.5 61.334 28.5 104.001s-9.5 77.5 -28.5 104.5s-43.833 40.5 -74.5 40.5s-55.5 -13.5 -74.5 -40.5s-28.5 -61.833 -28.5 -104.5zM904 183c0 -42.667 9.5 -77.334 28.5 -104.001s43.833 -40 74.5 -40s55.5 13.333 74.5 40s28.5 61.334 28.5 104.001s-9.5 77.5 -28.5 104.5
s-43.833 40.5 -74.5 40.5s-55.5 -13.5 -74.5 -40.5s-28.5 -61.833 -28.5 -104.5zM99 517c0 -42.667 9.5 -77.5 28.5 -104.5s43.833 -40.5 74.5 -40.5s55.334 13.5 74.001 40.5s28 61.833 28 104.5s-9.33301 77.334 -28 104.001s-43.334 40 -74.001 40
s-55.5 -13.333 -74.5 -40s-28.5 -61.334 -28.5 -104.001zM155 0l488 700h56l-489 -700h-55z" />
    <glyph glyph-name="guilsinglleft" unicode="&#x2039;" horiz-adv-x="240" 
d="M136 115l-92 170l92 170h46l-75 -170l75 -170h-46z" />
    <glyph glyph-name="guilsinglright" unicode="&#x203a;" horiz-adv-x="240" 
d="M104 115h-45l74 170l-74 170h45l93 -170z" />
    <glyph glyph-name="fraction" unicode="&#x2044;" horiz-adv-x="544" 
d="M55 0h-55l489 700h55z" />
    <glyph glyph-name="Euro" unicode="&#x20ac;" horiz-adv-x="818" 
d="M223 457l346.002 -0.00195312v-46h-359c-3.33301 -21.333 -5 -41.666 -5 -60.999c0 -18 1.66699 -37 5 -57h359v-46h-348c20 -58.667 55.167 -105 105.5 -139s110.166 -51 179.499 -51c100 0 179.333 33 238 99v-77c-65.333 -58 -147.333 -87 -246 -87
c-88.667 0 -164.334 23 -227.001 69s-104 108 -124 186h-100v46h91c-2.66699 16 -4 35 -4 57c0 22.667 1.33301 43 4 61h-91v46h101c20.667 77.333 62.167 138.5 124.5 183.5s137.5 67.5 225.5 67.5c98 0 180 -28.667 246 -86v-77c-58 65.333 -137.333 98 -238 98
c-68.667 0 -128 -16.667 -178 -50s-85 -78.666 -105 -135.999z" />
    <glyph glyph-name="uni20B4" unicode="&#x20b4;" horiz-adv-x="651" 
d="M56 251v44.999h540v-45h-411c-16 -19.333 -24 -41.666 -24 -66.999c0 -40 16.833 -71 50.5 -93s80.5 -33 140.5 -33c90.667 0 162 23 214 69v-61c-56.667 -48.667 -131.667 -73 -225 -73c-78.667 0 -139.5 16.333 -182.5 49s-64.5 79 -64.5 139
c0 26.667 6.66699 50 20 70h-58zM56 413.999v46h414c17.333 20.667 26 43.667 26 69c0 36 -15.5 64 -46.5 84s-73.833 30 -128.5 30c-86 0 -152 -23 -198 -69v61c50 48.667 120 73 210 73c73.333 0 130 -15.667 170 -47s60 -75.333 60 -132
c0 -24.667 -6.33301 -47.667 -19 -69h52v-46h-540z" />
    <glyph glyph-name="uni2116" unicode="&#x2116;" horiz-adv-x="1247" 
d="M167 0h-68v697h39l561 -572v575h68v-700h-39l-561 573v-573zM1029 325c-44.667 0 -81.167 17.833 -109.5 53.5s-42.5 81.834 -42.5 138.501c0 56 14.167 101.833 42.5 137.5s64.833 53.5 109.5 53.5s81 -17.833 109 -53.5s42 -81.5 42 -137.5
c0 -56.667 -14 -102.834 -42 -138.501s-64.333 -53.5 -109 -53.5zM926 517c0 -42.667 9.5 -77.5 28.5 -104.5s43.833 -40.5 74.5 -40.5s55.334 13.5 74.001 40.5s28 61.833 28 104.5s-9.33301 77.334 -28 104.001s-43.334 40 -74.001 40s-55.5 -13.333 -74.5 -40
s-28.5 -61.334 -28.5 -104.001zM884 185v46h290v-46h-290z" />
    <glyph glyph-name="uni2117" unicode="&#x2117;" horiz-adv-x="838" 
d="M419 -8c-99.333 0 -183.833 35 -253.5 105s-104.5 154.333 -104.5 253s34.833 183 104.5 253s154.167 105 253.5 105c98.667 0 183 -35 253 -105s105 -154.333 105 -253s-35 -183 -105 -253s-154.333 -105 -253 -105zM106 350c0 -86.667 30.5 -160.5 91.5 -221.5
s134.833 -91.5 221.5 -91.5s160.334 30.5 221.001 91.5s91 134.833 91 221.5s-30.333 160.5 -91 221.5s-134.334 91.5 -221.001 91.5s-160.5 -30.5 -221.5 -91.5s-91.5 -134.833 -91.5 -221.5zM354 175h-45v350h152c33.333 0 60.666 -9.5 81.999 -28.5s32 -43.833 32 -74.5
c0 -30 -10.667 -54.667 -32 -74s-48.666 -29 -81.999 -29h-107v-144zM457 485l-103 -0.000976562v-126h103c20.667 0 37.667 6 51 18s20 27 20 45c0 18.667 -6.66699 33.834 -20 45.501s-30.333 17.5 -51 17.5z" />
    <glyph glyph-name="trademark" unicode="&#x2122;" horiz-adv-x="846" 
d="M402 700h26l172 -264l170 265h26v-351h-46v245l-140 -220h-21l-141 221v-246h-46v350zM21 660v40h320v-40h-137v-310h-46v310h-137z" />
    <glyph glyph-name="estimated" unicode="&#x212e;" horiz-adv-x="831" 
d="M61 350c0 98 34.8291 181.668 104.496 251.001s153.167 104 250.5 104c94.667 0 176.334 -32.833 245.001 -98.5s105.334 -146.167 110.001 -241.5v-30h-585v-215c63.333 -63.333 140 -95 230 -95c56.667 0 109.334 13.5 158.001 40.5s87.334 63.5 116.001 109.5h35
c-31.333 -54.667 -74.5 -98.334 -129.5 -131.001s-114.833 -49 -179.5 -49c-97.333 0 -180.833 34.667 -250.5 104s-104.5 153 -104.5 251zM415.996 675.001c-90 0 -166.667 -31.667 -230 -95v-215h460v215c-63.333 63.333 -140 95 -230 95z" />
    <glyph glyph-name="uni2150" unicode="&#x2150;" horiz-adv-x="752" 
d="M64 0l489 700h55l-488 -700h-56zM671 348h-224v37h278v-20l-173 -365h-44zM41 610v44l105 46h23v-385h-43v334z" />
    <glyph glyph-name="uni2151" unicode="&#x2151;" horiz-adv-x="762" 
d="M571 391c47.333 0 84.333 -16.668 111 -50.001s40 -79.666 40 -138.999c0 -64 -15.667 -114.5 -47 -151.5s-73.666 -55.5 -126.999 -55.5c-36 0 -66.333 7.66699 -91 23v41c22.667 -17.333 50.334 -26 83.001 -26c42.667 0 76.167 14.333 100.5 43
s37.166 68.667 38.499 120c-20 -34.667 -55 -52 -105 -52c-40 0 -72.5 11.5 -97.5 34.5s-37.5 53.167 -37.5 90.5c0 36 12.167 65.333 36.5 88s56.166 34 95.499 34zM64 -0.000976562l489 700h55l-488 -700h-56zM483 268.999c0 -26.667 8.99902 -48.167 26.999 -64.5
s41.667 -24.5 71 -24.5c46 0 78 20.333 96 61c-5.33301 35.333 -17.166 62.5 -35.499 81.5s-41.833 28.5 -70.5 28.5c-26 0 -47.167 -7.66699 -63.5 -23s-24.5 -35 -24.5 -59zM40.999 609.999v44l105 46h23v-385h-43v334z" />
    <glyph glyph-name="uni2152" unicode="&#x2152;" horiz-adv-x="1007" 
d="M663 193c0 58 14.167 105.333 42.5 142s64.833 55 109.5 55s81 -18.333 109 -55s42 -84 42 -142c0 -58.667 -14 -106.334 -42 -143.001s-64.333 -55 -109 -55s-81.167 18.333 -109.5 55s-42.5 84.334 -42.5 143.001zM815 34c31.333 0 57.166 14.8311 77.499 44.498
s30.5 67.834 30.5 114.501s-10.167 84.667 -30.5 114s-46.166 44 -77.499 44c-32 0 -58 -14.667 -78 -44s-30 -67.333 -30 -114c0 -47.333 10 -85.666 30 -114.999s46 -44 78 -44zM120 -0.00195312h-56l489 700h55zM41 609.998v44l105 46h23v-385h-43v334zM440 294.998v44
l105 46h22v-385h-42v334z" />
    <glyph glyph-name="onethird" unicode="&#x2153;" horiz-adv-x="749" 
d="M120 0h-56l489 700h55zM441 41l0.000976562 47c27.333 -36 66.666 -54 117.999 -54c30.667 0 55.5 6.83301 74.5 20.5s28.5 32.167 28.5 55.5c0 20 -6.66699 36.5 -20 49.5s-30.333 19.5 -51 19.5h-50v36h42c19.333 0 35.333 6.16699 48 18.5s19 27.833 19 46.5
c0 22 -8.5 39.333 -25.5 52s-39.167 19 -66.5 19c-49.333 0 -87.333 -18 -114 -54v47c32 30.667 71.667 46 119 46c39.333 0 70.833 -9.5 94.5 -28.5s35.5 -44.833 35.5 -77.5c0 -38 -14.667 -66.333 -44 -85c38 -17.333 57 -48.333 57 -93c0 -34 -13 -61 -39 -81
s-60.333 -30 -103 -30c-50 0 -91 15.333 -123 46zM41.001 654l105 46h23v-385h-43v334l-85 -39v44z" />
    <glyph glyph-name="twothirds" unicode="&#x2154;" horiz-adv-x="828" 
d="M199 0h-56l489 700h55zM520 41l0.00195312 46.999c27.333 -36 66.666 -54 117.999 -54c30.667 0 55.5 6.83301 74.5 20.5s28.5 32.167 28.5 55.5c0 20 -6.83301 36.5 -20.5 49.5s-30.834 19.5 -51.501 19.5h-50v36h43c19.333 0 35.333 6.16699 48 18.5s19 27.833 19 46.5
c0 22 -8.5 39.333 -25.5 52s-39.167 19 -66.5 19c-49.333 0 -87.333 -18 -114 -54v47c30.667 30.667 70.334 46 119.001 46c39.333 0 70.833 -9.5 94.5 -28.5s35.5 -44.833 35.5 -77.5c0 -39.333 -14.667 -67.666 -44 -84.999c37.333 -17.333 56 -48.333 56 -93
c0 -34 -12.833 -61 -38.5 -81s-59.834 -30 -102.501 -30c-50 0 -91 15.333 -123 46zM38.002 314.999v21l150 155c38.667 40.667 58 76.667 58 108c0 20 -8.16699 36.167 -24.5 48.5s-37.833 18.5 -64.5 18.5c-48.667 0 -86.667 -18 -114 -54v45c30.667 32 70.667 48 120 48
c38 0 68.667 -9 92 -27s35 -41.667 35 -71c0 -44 -24.333 -91 -73 -141l-111 -114h195v-37h-263z" />
    <glyph glyph-name="uni2155" unicode="&#x2155;" horiz-adv-x="747" 
d="M120 0h-56l489 700h55zM438 38l0.00195312 47.001c26.667 -34 65.667 -51 117 -51c32 0 57.667 8 77 24s29 37.333 29 64c0 25.333 -10.833 45.5 -32.5 60.5s-50.834 22.5 -87.501 22.5c-34 0 -62 -5.66699 -84 -17l16 197h197v-37h-161l-10 -112c16 4 34.333 6 55 6
c46 0 82.833 -11 110.5 -33s41.5 -51.333 41.5 -88c0 -38.667 -13.333 -69.334 -40 -92.001s-62 -34 -106 -34c-48.667 0 -89.334 14.333 -122.001 43zM41.002 610.001v44l105 46h23v-385h-43v334z" />
    <glyph glyph-name="uni2156" unicode="&#x2156;" horiz-adv-x="826" 
d="M143 0l489 700h55l-488 -700h-56zM517 38l0.00195312 47.001c26.667 -34 65.667 -51 117 -51c32 0 57.667 8 77 24s29 37.333 29 64c0 25.333 -10.833 45.5 -32.5 60.5s-50.834 22.5 -87.501 22.5c-34 0 -62 -5.66699 -84 -17l16 197h197v-37h-162l-9 -112
c16 4 34.333 6 55 6c46 0 82.833 -11 110.5 -33s41.5 -51.333 41.5 -88c0 -38.667 -13.333 -69.334 -40 -92.001s-62 -34 -106 -34c-48.667 0 -89.334 14.333 -122.001 43zM38.002 336.001l150 155c38.667 40.667 58 76.667 58 108c0 20 -8.16699 36.167 -24.5 48.5
s-37.833 18.5 -64.5 18.5c-48.667 0 -86.667 -18 -114 -54v45c30.667 32 70.667 48 120 48c38 0 68.667 -9 92 -27s35 -41.667 35 -71c0 -44 -24.333 -91 -73 -141l-111 -114h195v-37h-263v21z" />
    <glyph glyph-name="uni2157" unicode="&#x2157;" horiz-adv-x="824" 
d="M141 0l488 700h56l-489 -700h-55zM515 38l0.000976562 47.001c26.667 -34 65.667 -51 117 -51c31.333 0 56.833 8 76.5 24s29.5 37.333 29.5 64c0 25.333 -10.833 45.5 -32.5 60.5s-50.834 22.5 -87.501 22.5c-34 0 -62 -5.66699 -84 -17l15 197h198v-37h-162l-9 -112
c14.667 4 32.667 6 54 6c46.667 0 83.667 -11 111 -33s41 -51.333 41 -88c0 -38.667 -13.167 -69.334 -39.5 -92.001s-61.5 -34 -105.5 -34c-49.333 0 -90 14.333 -122 43zM43.001 403.001c27.333 -36 66.667 -54 118 -54c30.667 0 55.334 6.83301 74.001 20.5
s28 32.167 28 55.5c0 20 -6.66699 36.5 -20 49.5s-30.333 19.5 -51 19.5h-50v36h43c19.333 0 35.166 6.16699 47.499 18.5s18.5 27.833 18.5 46.5c0 22 -8.33301 39.333 -25 52s-38.667 19 -66 19c-49.333 0 -87.666 -18 -114.999 -54v47c32 30.667 71.667 46 119 46
c40 0 71.667 -9.5 95 -28.5s35 -44.833 35 -77.5c0 -38 -14.667 -66.333 -44 -85c38 -17.333 57 -48.333 57 -93c0 -34 -13 -61 -39 -81s-60.333 -30 -103 -30c-50.667 0 -91.334 15.333 -122.001 46v47z" />
    <glyph glyph-name="uni2158" unicode="&#x2158;" horiz-adv-x="834" 
d="M25 394v23l225 283h29v-273h52v-33h-52v-79h-43v79h-211zM206 0h-55l489 700h55zM525 85c26.667 -34 65.6689 -50.999 117.002 -50.999c32 0 57.667 8 77 24s29 37.333 29 64c0 25.333 -10.833 45.5 -32.5 60.5s-50.834 22.5 -87.501 22.5c-34 0 -62 -5.66699 -84 -17
l15 197h198v-37h-162l-9 -112c16 4 34 6 54 6c46.667 0 83.667 -11 111 -33s41 -51.333 41 -88c0 -38.667 -13.167 -69.334 -39.5 -92.001s-61.5 -34 -105.5 -34c-48.667 0 -89.334 14.333 -122.001 43v47zM76.002 427.001h160v201z" />
    <glyph glyph-name="uni2159" unicode="&#x2159;" horiz-adv-x="762" 
d="M606 391c32 0 60.333 -8 85 -24v-40c-20.667 16.667 -46.667 25 -78 25c-40 0 -71.5 -14.333 -94.5 -43s-35.167 -67.667 -36.5 -117c22.667 34.667 57.667 52 105 52c40 0 72.5 -11.833 97.5 -35.5s37.5 -54.167 37.5 -91.5c0 -36 -12.167 -65.333 -36.5 -88
s-55.833 -34 -94.5 -34c-46.667 0 -83.667 17 -111 51s-41 80.667 -41 140c0 62.667 15.167 112.5 45.5 149.5s70.833 55.5 121.5 55.5zM64 0l489 700h55l-488 -700h-56zM485 146c4.66699 -35.333 16.167 -62.834 34.5 -82.501s41.833 -29.5 70.5 -29.5
c26.667 0 48.167 7.83301 64.5 23.5s24.5 35.834 24.5 60.501c0 26.667 -9.16699 48.167 -27.5 64.5s-42.166 24.5 -71.499 24.5c-46.667 0 -78.334 -20.333 -95.001 -61zM126 648.999l-85 -39v44l105 46h23v-385h-43v334z" />
    </font>
</defs>
</svg>
