<svg width="99" height="38" viewBox="0 0 99 38" xmlns="http://www.w3.org/2000/svg" fill="none"><path d="M76.105 22.454v-22.454M41.787 22.701c-4.589 0-8.25-3.751-8.25-8.34 0-4.59 3.71-8.34 8.25-8.34s8.25 3.751 8.25 8.34M50.818 14.312h-9.031M54.675 14.312c0-4.639 3.71-8.34 8.25-8.34 4.589 0 8.25 3.751 8.25 8.34M54.675 22.455v-16.483M62.973 5.971c4.589 0 8.25 3.751 8.25 8.34M71.223 22.454v-8.143M.488 14.312c0-4.639 3.222-8.34 7.225-8.34s7.225 3.751 7.225 8.34M.488 22.455v-16.483M7.713 5.971c4.003 0 7.225 3.751 7.225 8.34M14.938 22.454v-8.143M14.938 14.312c0-4.639 3.222-8.34 7.225-8.34s7.225 3.751 7.225 8.34M22.163 5.971c4.003 0 7.225 3.751 7.225 8.34M29.388 22.454v-8.143M81.963 14.41c0 4.639 3.71 8.34 8.25 8.34 4.589 0 8.25-3.751 8.25-8.34M90.213 37.507c4.589 0 8.25-3.751 8.25-8.34M81.963 14.41v-8.439M98.512 29.166v-23.195" stroke="#222220" stroke-width="2" stroke-miterlimit="10"/></svg>